<svg width="141" height="95" viewBox="0 0 141 95" fill="none" xmlns="http://www.w3.org/2000/svg">
<path d="M27.1709 4.57553C27.1709 4.74362 27.3177 4.89068 27.4855 4.89068C27.6534 4.89068 27.8002 4.74362 27.8002 4.57553C27.8002 4.40743 27.6534 4.26038 27.4855 4.26038C27.3177 4.26038 27.1709 4.40743 27.1709 4.57553Z" fill="#28682E"/>
<path d="M15.4219 6.96973C15.4219 7.09579 15.5268 7.24289 15.6317 7.30592C15.7575 7.36895 15.8414 7.28488 15.8414 7.11683C15.8414 6.92774 15.7575 6.78064 15.6317 6.78064C15.5268 6.78064 15.4219 6.86471 15.4219 6.96973Z" fill="#28682E"/>
<path d="M41.0165 8.02002C40.1983 8.83942 40.0514 9.51175 40.5339 10.4992C40.8906 11.2346 40.9115 11.2556 40.9745 10.7724C41.0794 9.8269 41.457 9.15457 41.9815 8.90244C43.0724 8.41924 43.7856 8.77638 44.2472 10.058L44.5407 10.8774L44.7716 10.3101C45.611 8.16712 42.6528 6.36025 41.0165 8.02002Z" fill="#28682E"/>
<path d="M86.752 7.83159C86.752 7.93661 86.8568 8.04167 86.9617 8.04167C87.0877 8.04167 87.1714 7.93661 87.1714 7.83159C87.1714 7.70553 87.0877 7.62146 86.9617 7.62146C86.8568 7.62146 86.752 7.70553 86.752 7.83159Z" fill="#28682E"/>
<path d="M76.6787 9.30261C76.6787 9.40768 76.7836 9.5127 76.8889 9.5127C77.0145 9.5127 77.0986 9.40768 77.0986 9.30261C77.0986 9.17655 77.0145 9.09253 76.8889 9.09253C76.7836 9.09253 76.6787 9.17655 76.6787 9.30261Z" fill="#28682E"/>
<path d="M70.428 9.95306C70.4703 10.1001 70.6381 10.2682 70.7849 10.3102C70.9527 10.3732 71.0365 10.2892 70.9734 10.1211C70.9316 9.97406 70.7637 9.80596 70.617 9.76397C70.4491 9.70094 70.3654 9.78497 70.428 9.95306Z" fill="#28682E"/>
<path d="M42.1275 10.1423C41.4562 10.4155 41.5191 10.8777 42.2744 11.1928C42.7988 11.4029 42.9877 11.4029 43.4282 11.1088C43.7219 10.9197 43.9527 10.5836 43.9527 10.3524C43.9527 10.0162 43.8058 9.93221 43.2814 9.95321C42.9038 9.95321 42.3793 10.0373 42.1275 10.1423Z" fill="#28682E"/>
<path d="M45.129 11.0251C46.283 12.979 55.7234 22.8958 58.1782 24.7027C58.9334 25.2702 59.059 25.459 58.9752 25.9425C58.8704 26.4884 58.8911 26.5096 59.7512 26.4464C60.2337 26.4256 60.9263 26.2365 61.2828 26.0473C62.1222 25.6062 68.227 23.5261 69.968 23.1062C71.7512 22.6438 72.6536 22.5386 74.7932 22.5179C78.8633 22.4966 81.5278 23.8624 82.891 26.6568C83.982 28.9468 84.0032 31.2161 82.9541 34.8295C82.5134 36.3213 80.7932 39.5568 80.3738 39.662C80.2477 39.6832 79.4295 39.9351 78.5694 40.2083C76.9334 40.7126 77.0382 41.0697 78.6954 40.6074C79.2198 40.4602 79.6815 40.3975 79.7445 40.4602C79.8701 40.5866 78.6954 42.2464 78.2548 42.5403C78.1499 42.6243 77.7723 42.7083 77.4158 42.7295C77.0801 42.7295 76.4509 42.8767 76.0521 43.0446L75.3176 43.3386L76.5976 43.2758L77.8772 43.2126L77.1431 44.2C76.4509 45.1455 76.3456 45.2087 75.129 45.3347C73.2621 45.5446 72.947 45.839 74.5416 45.8598H75.8842L75.192 46.7212C74.4156 47.6879 74.4786 47.6667 72.8633 47.8559C71.4366 48.0238 71.2061 48.4234 72.5906 48.3602C73.0942 48.3182 73.5767 48.339 73.6185 48.4022C73.6815 48.4442 73.4088 48.8433 73.0519 49.2844C72.5276 49.9147 72.1918 50.1039 71.4789 50.1879C70.5558 50.2931 69.5485 50.6082 69.5485 50.7762C69.5485 50.8394 70.031 50.8182 70.6395 50.7554L71.7305 50.6295L71.0171 51.4905C70.3037 52.3939 70.1781 52.4572 68.8981 52.6671C68.4575 52.7515 68.0173 52.9403 67.8913 53.0875C67.7023 53.3186 67.8071 53.3394 68.5417 53.2134C69.0453 53.1087 69.4648 53.0667 69.4855 53.0875C69.5278 53.1087 69.129 53.5498 68.6254 54.0329L67.7023 54.9364L67.0312 54.0329C66.2548 52.9615 64.9334 50.4191 64.9334 49.9779C64.9334 49.8308 65.3317 49.2217 65.8353 48.6753C68.9611 45.1455 74.4368 36.9728 76.9541 32.0564C78.0451 29.9555 79.4718 26.4044 79.3669 26.0893C79.3246 25.9845 78.8003 26.93 78.2129 28.1693L77.1012 30.4594L75.8212 30.6066C72.8845 30.9429 68.5624 32.5607 66.276 34.2204C63.2757 36.3425 61.975 38.0442 59.2687 43.2338C56.8981 47.8139 55.2828 52.8775 55.2409 55.903C55.2409 56.9112 55.0312 57.1004 51.8843 59.1593C47.2057 62.206 41.122 65.0632 36.6115 66.3238C34.8913 66.8073 31.8283 67.2904 30.5486 67.2904C29.9192 67.2904 29.4787 67.3532 29.5416 67.4164C29.7094 67.6056 32.9822 67.5844 34.2828 67.3952C35.0381 67.2904 35.5416 67.3744 36.3807 67.7103C37.0101 67.9415 37.5556 68.0887 37.6185 68.0467C37.6605 67.9835 37.4507 67.8368 37.115 67.7103C36.7793 67.5844 36.3598 67.4376 36.1919 67.3532C36.0031 67.2904 36.3807 67.1013 37.115 66.9333C38.2479 66.6601 38.4157 66.6809 39.2129 67.0381C40.2619 67.5216 41.3108 67.7948 41.143 67.5424C41.0801 67.4376 40.5975 67.1852 40.0521 66.9753C38.9822 66.5762 39.0241 66.429 40.3877 65.9879C41.2479 65.7147 41.3947 65.7147 41.9612 66.0086C42.7374 66.4497 44.3527 66.9753 44.4787 66.8493C44.5836 66.7441 43.5975 66.219 42.5276 65.8194L41.8353 65.5463L42.7164 65.1472C43.9122 64.622 44.3527 64.6008 45.4437 65.1264C46.3456 65.5463 47.7305 65.9039 47.7305 65.7147C47.7305 65.5675 46.4505 64.9584 45.5485 64.664L44.6884 64.4121L45.9261 63.8446L47.1639 63.2775L48.2337 63.6978C49.4926 64.2017 51.1709 64.5169 50.6673 64.1597C50.4998 64.0337 49.7446 63.7398 49.0101 63.4874L47.6463 63.0251L48.8422 62.416C50.038 61.8277 50.0592 61.8277 51.0449 62.1428C52.22 62.5632 53.6886 62.7731 53.5207 62.5C53.4159 62.332 52.3456 61.9537 51.2339 61.7225C50.5205 61.5757 50.6254 61.3866 51.8005 60.6931C52.5765 60.2519 52.8281 60.1887 53.4159 60.3571C53.8142 60.4831 54.4227 60.5671 54.8003 60.5671C55.1568 60.5671 55.5344 60.6511 55.5974 60.777C55.7653 61.0502 56.7514 63.7818 56.7514 63.9705C56.7514 64.2229 52.8281 66.8701 51.129 67.7736C45.5485 70.7151 36.9262 72.648 32.6255 71.9125C30.8003 71.5974 29.9612 71.2822 29.0801 70.5259C27.8843 69.5173 27.6955 68.929 27.7164 66.1346C27.7374 63.4034 28.199 60.8402 29.164 58.0459C29.4787 57.1844 29.7724 56.3229 29.8353 56.1338C29.8982 55.903 30.087 55.8398 30.4437 55.903C30.7374 55.945 30.9472 55.903 30.9472 55.7558C30.9472 55.6299 30.7584 55.5247 30.5276 55.5247C30.129 55.5247 30.15 55.4195 30.8633 53.9909C32.0591 51.6169 33.3178 49.852 35.2479 47.8559C36.2339 46.8477 37.0311 45.923 37.0311 45.8178C37.0311 45.3767 34.6605 46.9104 31.8913 49.1165C29.8143 50.7762 26.5416 53.9277 26.5416 54.2641C26.5416 54.6212 28.8493 53.1507 31.8913 50.8602L32.5206 50.3771L32.1849 50.9026C31.136 52.5411 30.087 54.3481 29.7094 55.1463C29.3738 55.8818 28.9961 56.2602 27.8213 56.9952C27.0031 57.5208 26.3318 58.0039 26.3318 58.1091C26.3318 58.2978 27.4227 57.7727 28.3038 57.1424C28.8913 56.7221 28.9122 56.7221 28.7654 57.1004C28.6814 57.3104 28.4717 57.9199 28.3038 58.4662C28.0311 59.2853 27.8423 59.4957 26.8773 60C26.2479 60.3359 25.5346 60.8402 25.2619 61.1342L24.7584 61.6597L25.8073 61.1134C26.3947 60.819 27.087 60.3991 27.3598 60.2099C27.8633 59.8316 27.8843 59.8316 27.7164 60.3571C27.6325 60.6511 27.4437 61.2814 27.3178 61.7437C27.129 62.374 26.8143 62.8151 26.143 63.3195C25.0731 64.1597 23.8563 65.6095 24.5486 65.2524C24.7794 65.1264 25.4297 64.6008 25.9961 64.1177L27.0241 63.1935L26.8982 64.0337C26.8143 64.4961 26.7514 65.1264 26.7514 65.4203C26.7514 65.7147 26.5626 66.1346 26.3528 66.387C25.8703 66.8913 25.3878 67.8368 25.1989 68.593C25.0101 69.4545 25.1779 69.3285 25.8703 68.0887C26.4577 67.08 26.5206 67.0381 26.6255 67.5004C27.0661 69.4333 27.171 70.1268 27.0451 70.4839C26.8773 71.0303 27.15 72.3748 27.4017 72.2277C27.5066 72.1437 27.5486 71.9965 27.4647 71.8917C27.4017 71.7653 27.4017 71.4502 27.4647 71.1562L27.6115 70.6311L28.4087 71.3242C28.8913 71.7233 29.3318 72.3329 29.4577 72.774C29.5835 73.1943 29.9402 73.6987 30.2339 73.9086L30.7793 74.2657L30.1919 73.2571L29.6046 72.2696L30.129 72.4168C32.8353 73.1731 33.1919 73.2151 35.9822 73.1103C38.4577 73.0051 39.9052 72.7952 42.9052 72.1229C43.3038 72.0385 43.9542 71.8917 44.332 71.8077C45.4437 71.5554 45.1079 71.8497 43.3877 72.6688C37.2619 75.5263 30.6325 76.4086 26.1849 74.938C22.8283 73.8454 20.2059 69.7277 19.9122 65.1264C19.7864 62.9831 20.0591 59.6428 20.5626 57.4576C21.0661 55.3147 21.5696 53.5498 21.7164 53.3606C21.8003 53.2766 22.2619 53.3818 22.7864 53.6126C23.2899 53.8649 24.0241 54.0541 24.4227 54.0541H25.136L24.3178 53.4238C23.0171 52.3939 20.2479 49.5788 20.2479 49.2844C20.2479 48.9905 19.4926 48.9065 19.3248 49.1797C19.178 49.4316 20.122 51.3225 20.8353 52.142L21.4437 52.8563L20.7514 54.8104C19.5346 58.319 18.7794 62.6679 18.9052 65.2943C19.115 70.0008 21.5066 74.2238 24.8423 75.8203C29.0171 77.7956 36.6954 77.1653 42.8003 74.3497C45.5278 73.0891 52.0729 69.1601 55.6816 66.5969C57.2339 65.4835 57.8005 65.2943 57.8005 65.8407C57.8005 66.0926 59.8353 69.2021 60.7373 70.3367C62.101 72.0385 64.7443 74.6649 66.5064 76.0307C67.6604 76.9341 72.6743 80.3168 73.1991 80.548C73.4507 80.6527 73.975 80.9471 74.3738 81.1783C79.2198 84.1194 86.9192 86.7038 93.3387 87.5653C96.6324 88.0064 102.591 87.9224 104.94 87.3761C113.416 85.464 117.821 81.6614 121.43 73.1731C122.625 70.3368 123.15 68.5091 123.548 65.6095C123.947 62.626 123.968 61.2186 123.591 58.7394C122.877 54.0329 121.492 51.1333 117.926 46.9944C114.192 42.6243 110.374 39.5148 105.15 36.6156C99.192 33.2957 94.4085 31.5312 88.8703 30.6486C87.7793 30.4594 86.8774 30.2914 86.8351 30.2494C86.7932 30.2074 86.8981 29.7243 87.0871 29.178C87.2969 28.5685 87.4854 28.2745 87.5903 28.4217C87.6956 28.5897 87.7793 28.5685 87.8842 28.3165C88.0732 27.8334 88.0521 27.7914 87.6956 27.7914C87.4647 27.7914 87.4229 27.6442 87.5485 27.0979C87.8005 25.9845 87.7163 22.917 87.4017 21.8031C86.3949 18.1686 84.1292 16.0045 80.3526 15.1011C78.0239 14.5128 73.6185 14.6179 70.5765 15.3112C70.1151 15.4162 69.9261 15.2902 69.255 14.3658C68.2689 13.0211 66.3178 11.2562 65.6463 11.1302C65.3317 11.0881 65.0171 11.1932 64.8074 11.4243C64.4716 11.8025 64.4716 11.8235 64.8704 11.8235C65.122 11.8235 65.6886 12.3068 66.3178 13.0211C66.884 13.6934 67.8071 14.6599 68.3949 15.1851L69.4648 16.1306L68.0173 16.929L66.5694 17.7273L65.8565 17.3072C65.4784 17.0761 64.8074 16.8239 64.3667 16.7609C62.6465 16.4667 62.6672 16.5298 63.192 14.3868C63.3806 13.6094 62.7095 14.0506 62.0592 15.1431C60.9052 17.076 60.6743 17.9795 61.3247 17.8954C61.5137 17.8744 61.8701 17.8954 62.101 17.8954C62.4787 17.9375 62.4575 17.9795 61.9962 18.1896C61.4718 18.4207 61.4718 18.4207 62.2059 18.5047C62.6254 18.5257 63.6115 18.4207 64.4086 18.2736C65.2268 18.1055 65.9191 18.0005 65.9614 18.0425C66.0032 18.0845 65.7723 18.3367 65.4366 18.5888C63.4436 20.1226 60.0869 23.8412 60.4227 24.1776C60.5487 24.3036 61.8283 23.4213 63.2757 22.2027C63.9054 21.6564 64.9334 20.7949 65.5626 20.2698C66.1918 19.7235 67.4295 18.6098 68.2896 17.7904C69.9891 16.1936 70.5346 15.8995 72.1918 15.8364C73.0942 15.7944 73.4088 15.8995 74.3526 16.5508C75.7582 17.4963 76.1988 17.4963 75.129 16.5508L74.3108 15.8154H75.5696C76.8285 15.8154 76.8492 15.8364 77.6256 16.7819C78.5275 17.8744 78.8214 17.8744 78.1918 16.7609C77.6886 15.9205 77.7304 15.8995 79.2828 16.1726C80.0173 16.2777 80.1429 16.4037 80.6884 17.5803C81.192 18.6308 81.2969 18.7569 81.2969 18.2736C81.2969 17.9375 81.192 17.4963 81.066 17.2441C80.7302 16.6138 80.9611 16.5718 82.0102 17.076C82.9959 17.5383 83.0589 17.6643 83.2898 19.135C83.4788 20.2486 83.8772 20.0594 83.7723 18.9039L83.6886 18.0635L84.4857 18.967C85.199 19.7655 85.2828 19.9967 85.3039 21.0469C85.3246 21.6984 85.3669 22.0555 85.4295 21.8456C85.7652 20.5425 86.4156 22.875 86.4156 25.375C86.4156 27.2659 86.1429 28.5057 85.2409 30.8797C85.01 31.4888 84.8003 31.9931 84.7791 31.9931C84.7791 31.9931 84.7584 30.9217 84.7584 29.6191C84.7373 27.4763 84.6954 27.1611 84.1499 26.1105C83.0801 23.9672 82.8703 23.5893 82.7443 23.5893C82.6606 23.5893 82.0521 23.2529 81.3806 22.8538C78.8633 21.3412 75.6326 20.7949 72.1081 21.278C69.8424 21.5932 68.2059 22.0975 65.8353 23.1901C64.8285 23.652 64.094 23.9464 64.1989 23.8412C64.3249 23.7365 64.9334 23.1901 65.5626 22.6438C68.227 20.3118 69.9472 18.6938 70.0733 18.3997C70.157 18.1476 70.1151 18.1266 69.9261 18.2736C67.1361 20.3958 64.1781 22.875 62.5835 24.4088C61.4718 25.459 60.5064 26.3204 60.4227 26.3204C60.339 26.3204 60.339 25.9845 60.4015 25.5642C60.6117 24.5135 60.1288 23.8412 59.059 23.6733C58.6183 23.5893 58.0728 23.3581 57.8843 23.1482C57.4648 22.6858 57.4648 22.7066 59.3317 22.7486C59.9821 22.7698 60.5276 22.7278 60.5276 22.6646C60.5276 22.4759 59.059 21.7824 58.0521 21.4672C57.2339 21.236 56.7933 20.8577 56.7933 20.3746C56.7726 19.4291 56.0173 16.5298 55.7023 16.1726C55.4925 15.9415 55.2617 18.2106 55.3877 19.3244C55.4295 19.8282 55.4295 20.2274 55.3877 20.2274C55.3458 20.2274 54.5487 19.4503 53.6256 18.4838C52.031 16.8449 51.968 16.7399 52.2619 16.2987C52.4086 16.0466 52.5558 15.6474 52.5558 15.3952C52.5558 15.0801 52.7025 14.975 53.1431 14.954C55.4295 14.87 59.0383 14.4077 60.947 13.9035C64.4297 13.0421 64.4297 13.0421 63.8842 12.832C63.4648 12.6849 60.3178 12.769 58.8492 12.979C56.5417 13.3152 54.9682 13.5884 53.7512 13.8615C52.7025 14.1136 52.1989 14.1346 51.8631 13.9665C51.129 13.6094 50.5417 13.5463 50.1641 13.7564C49.8283 13.9455 49.8702 14.0506 50.5417 14.6599C50.9612 15.038 51.2969 15.5003 51.2969 15.6894C51.2969 16.1726 51.066 16.0045 49.4088 14.4288C48.6536 13.7144 47.7093 12.853 47.311 12.5378C46.9123 12.2017 46.3038 11.6764 45.9473 11.3613C45.2969 10.752 44.8774 10.5839 45.129 11.0251ZM90.2548 31.7832C91.6185 32.0144 93.066 32.2875 93.4647 32.3923C93.8631 32.5187 94.7655 32.7706 95.4577 32.9598C97.6185 33.5689 99.192 34.1572 100.598 34.9135C103.22 36.3005 106.807 38.5905 108.884 40.1663C111.36 42.0572 116.709 47.2048 116.856 47.8351C116.919 48.087 116.898 48.5494 116.793 48.8645L116.646 49.4528L115.933 48.5914C115.492 48.0238 115.199 47.3935 115.094 46.7425C114.947 45.8178 114.947 45.797 114.78 46.3641L114.632 46.9736L113.814 46.1749C113.374 45.7338 112.954 45.1667 112.891 44.8935C112.807 44.6204 112.661 44.3892 112.535 44.3892C112.409 44.3892 112.388 44.5152 112.493 44.6416C112.576 44.7883 112.241 44.5784 111.758 44.1793C111.255 43.7801 110.605 43.2546 110.29 43.0234C109.975 42.7927 109.199 42.2044 108.527 41.7C107.877 41.2169 107.29 40.8174 107.227 40.8174C107.185 40.8174 106.576 40.4602 105.905 39.9983C103.975 38.7377 96.5905 35.1447 95.8771 35.1447C95.7093 35.1447 95.5414 35.0607 95.4788 34.9559C95.4158 34.8507 95.1431 34.7247 94.891 34.6615C94.6183 34.5983 93.4647 34.2624 92.3107 33.926C91.1572 33.5689 89.311 33.1278 88.22 32.9386C87.129 32.7494 86.1847 32.5607 86.101 32.4975C86.0173 32.4555 86.0591 32.1823 86.1847 31.8884C86.4998 31.2369 86.9192 31.2161 90.2548 31.7832ZM75.968 32.3923C75.7375 32.8338 75.4017 33.0438 74.6465 33.2537C69.6326 34.5983 66.7792 36.4265 64.7025 39.62C63.4648 41.5109 63.1502 42.8135 63.1709 45.755C63.192 49.1797 63.8843 51.4065 65.8983 54.516C66.4015 55.3147 66.8215 56.155 66.8215 56.3861C66.8215 56.6173 66.9052 56.7641 67.0312 56.6801C67.1361 56.6173 67.5344 56.9113 67.912 57.3524C71.122 61.1134 76.4086 65.2104 81.1078 67.6476C88.0521 71.2402 94.6394 72.732 102.486 72.4588C109.765 72.2277 111.968 71.7026 115.346 69.4333C118.01 67.6684 119.332 65.7147 120.192 62.374C120.737 60.3151 120.863 59.4537 120.527 60.2519C120.402 60.5459 120.339 60.3359 120.339 59.4957C120.318 58.8441 120.464 57.9619 120.632 57.5416C120.968 56.7433 120.863 56.5333 120.423 57.1424C120.192 57.4576 120.129 57.3944 119.877 56.6173C119.647 55.8398 119.667 55.5667 119.961 54.7264C120.444 53.3606 120.402 53.1714 119.835 54.1169L119.332 54.9364L118.954 53.9489C118.619 53.0667 118.619 52.8143 118.849 51.8269C118.996 51.1965 119.185 50.6922 119.269 50.6922C119.479 50.6922 121.094 53.6545 121.535 54.8944C122.29 56.9745 122.5 58.319 122.52 60.8822C122.52 65.1891 121.451 67.4584 118.241 70.0008C116.227 71.5766 112.052 73.3623 111.045 73.0891C110.793 73.0259 110.5 73.1103 110.374 73.2783C109.723 74.0978 101.73 74.5809 97.6604 74.0346C93.318 73.4463 88.9752 72.4381 84.5275 70.9671C79.9961 69.4545 74.1222 65.5043 69.003 60.5251C61.3458 53.0667 59.2061 46.7844 62.2059 40.6914C64.031 37.0148 68.0173 33.9053 72.5906 32.6234C73.5137 32.3715 74.4998 32.0771 74.7932 31.9931C75.0871 31.8884 75.5278 31.804 75.8005 31.804C76.2618 31.7832 76.2618 31.804 75.968 32.3923ZM87.4854 33.7793C90.2759 34.2204 95.4577 36.0481 99.7163 38.1074C107.164 41.7208 112.765 46.0909 115.807 50.6922C117.842 53.781 119.269 57.7307 119.269 60.3151C119.269 63.0043 118.22 65.5887 116.395 67.3744C114.569 69.2021 114.59 69.2021 113.898 67.5636C112.619 64.5381 110.227 61.1342 107.521 58.4662C102.549 53.5286 95.2686 49.1377 89.0589 47.3095C88.3037 47.0784 87.4229 46.8264 87.066 46.7005C86.1429 46.4061 81.6745 45.6918 79.6604 45.5026L77.9402 45.3347L78.6117 44.3684C78.9893 43.8429 79.3669 43.381 79.4718 43.3178C79.5555 43.2758 80.101 43.6329 80.6677 44.1373C81.255 44.6416 81.7163 44.9355 81.7163 44.8096C81.7163 44.5364 80.29 43.1286 80.0173 43.1286C79.6185 43.1286 79.8701 42.6243 81.0453 41.0065C83.3735 37.7711 83.7934 37.1195 84.6954 35.2918C85.5136 33.6109 85.6397 33.4641 86.1222 33.5481C86.4156 33.6109 87.0241 33.6953 87.4854 33.7793ZM75.003 33.8421C75.003 34.1992 71.4996 39.2836 68.6465 43.0866C66.1081 46.4481 64.6183 48.129 64.3667 47.8979C64.283 47.7931 64.1989 46.5113 64.1989 45.0615C64.1989 42.5195 64.2407 42.3303 64.8492 41.0278C66.276 37.981 68.9611 35.607 72.1918 34.5356C73.2198 34.1992 74.2477 33.884 74.4786 33.8213C74.7095 33.7581 74.9193 33.7161 74.9611 33.6953C74.9823 33.6953 75.003 33.7373 75.003 33.8421ZM59.6675 46.3853C59.6886 50.7342 62.2271 55.3355 67.2828 60.2519C69.6534 62.5632 70.1151 62.9831 71.8565 64.3489C79.9124 70.6939 91.7234 75.1692 101.437 75.5471C108.192 75.8203 114.675 74.1605 118.535 71.1982C119.856 70.1896 121.409 68.4251 122.059 67.1852C122.374 66.5969 122.395 66.5969 122.416 67.0381C122.437 68.6982 119.541 75.1692 117.339 78.3415C113.436 83.9934 105.947 87.0397 96.7165 86.6826C91.3246 86.4938 84.3389 84.9181 79.2198 82.754C76.4297 81.5774 69.6952 77.354 69.4018 76.619C69.3387 76.4506 69.1709 76.3246 69.003 76.3246C68.5417 76.3246 65.0171 73.2363 63.2757 71.3034C58.2619 65.6935 55.7653 59.4744 56.5205 54.516C56.9193 51.9948 57.9054 48.297 58.6395 46.5953C58.7444 46.3641 58.9334 45.8178 59.0801 45.3979C59.4366 44.3684 59.6463 44.7464 59.6675 46.3853ZM81.255 46.6165C84.6324 47.1416 88.2618 48.1502 91.262 49.3476C100.535 53.0667 109.304 60.5251 112.661 67.5216C113.059 68.3831 113.395 69.1813 113.395 69.3073C113.395 69.4333 112.849 69.7904 112.199 70.0848C109.43 71.3034 105.297 71.9125 100.598 71.8077C91.8071 71.5974 82.8285 68.2147 75.0241 62.1848C72.1918 59.9788 68.6465 56.5541 68.7302 56.0918C68.7725 55.903 69.4855 55.0623 70.3037 54.2221C72.0239 52.4364 75.9472 47.9398 76.6395 46.9524C77.0801 46.3433 77.2268 46.2801 78.1711 46.2801C78.7373 46.2801 80.1222 46.4273 81.255 46.6165ZM118.493 49.6628C119.038 50.3983 119.038 50.4403 118.724 51.0706C118.262 52.016 118.094 52.0368 117.611 51.1966C117.297 50.6922 117.171 50.1039 117.171 49.2844C117.171 48.129 117.192 48.1083 117.548 48.5074C117.758 48.7173 118.178 49.2424 118.493 49.6628ZM55.3877 59.3277C55.4718 59.6848 55.4718 60.0208 55.4088 60.084C55.3458 60.1467 54.8422 60.1047 54.2967 60L53.2899 59.8316L54.1288 59.2433C54.5906 58.9281 55.0312 58.6762 55.1149 58.6762C55.1779 58.6762 55.304 58.9701 55.3877 59.3277Z" fill="#28682E"/>
<path d="M82.9128 43.4234C83.1644 43.8433 84.3184 45.1251 84.633 45.3351C85.0736 45.6083 84.4858 44.6 83.7518 43.8013C83.1014 43.129 82.5978 42.8979 82.9128 43.4234Z" fill="#28682E"/>
<path d="M86.5212 44.5355C87.1927 45.6069 88.0109 46.5104 88.0109 46.1325C88.0109 45.8173 86.4793 43.6952 86.1647 43.59C86.018 43.5481 86.1858 43.9684 86.5212 44.5355Z" fill="#28682E"/>
<path d="M89.2676 44.4732C89.2676 44.8931 90.715 47.2256 90.8618 47.0572C91.0089 46.9312 90.1907 45.3135 89.6659 44.6199C89.3513 44.2208 89.2676 44.2 89.2676 44.4732Z" fill="#28682E"/>
<path d="M92.2041 45.0823C92.2041 45.3767 93.2321 47.4568 93.5467 47.8559C93.9032 48.2763 93.9032 48.2763 93.7776 47.7507C93.5678 46.9312 92.8545 45.5027 92.4976 45.2295C92.3508 45.0823 92.2041 45.0196 92.2041 45.0823Z" fill="#28682E"/>
<path d="M95.3506 46.3221C95.3506 46.6584 96.2318 48.8853 96.5046 49.2844C96.8403 49.7467 96.8403 49.7467 96.7143 49.1164C96.4834 48.0238 95.9802 46.7424 95.6445 46.49C95.4978 46.3433 95.3506 46.2801 95.3506 46.3221Z" fill="#28682E"/>
<path d="M98.4161 48.2767C98.5628 49.1801 99.2762 51.029 99.444 50.8823C99.5908 50.7351 99.0246 48.7602 98.6258 48.0667L98.29 47.4364L98.4161 48.2767Z" fill="#28682E"/>
<path d="M111.296 49.4321C111.296 49.5368 111.401 49.642 111.506 49.642C111.632 49.642 111.715 49.5368 111.715 49.4321C111.715 49.3061 111.632 49.2217 111.506 49.2217C111.401 49.2217 111.296 49.3061 111.296 49.4321Z" fill="#28682E"/>
<path d="M101.227 49.9568C101.227 50.6295 101.625 52.1841 101.898 52.4572C102.15 52.7724 102.108 51.9949 101.772 50.7135C101.416 49.3897 101.227 49.1377 101.227 49.9568Z" fill="#28682E"/>
<path d="M103.743 51.448C103.743 52.0783 104.226 54.1792 104.415 54.3684C104.729 54.6835 104.373 52.1411 104.037 51.6372C103.869 51.406 103.743 51.3221 103.743 51.448Z" fill="#28682E"/>
<path d="M106.281 54.3685C106.281 54.8308 106.428 55.5451 106.596 55.9442L106.89 56.6797L106.805 55.4823C106.679 53.9905 106.26 53.0871 106.281 54.3685Z" fill="#28682E"/>
<path d="M108.632 57.1628C108.674 57.7723 108.82 58.3814 108.925 58.4866C109.219 58.7805 109.051 56.8476 108.758 56.3853C108.611 56.1333 108.569 56.3433 108.632 57.1628Z" fill="#28682E"/>
<path d="M110.689 59.3278C110.689 59.7269 110.794 60.2312 110.899 60.4624C111.025 60.7356 111.046 60.5464 110.962 59.8321C110.794 58.5715 110.668 58.3191 110.689 59.3278Z" fill="#28682E"/>
<path d="M118.533 60.5666C118.471 60.6718 118.513 60.7766 118.617 60.7766C118.743 60.7766 118.848 60.6718 118.848 60.5666C118.848 60.4407 118.806 60.3567 118.764 60.3567C118.701 60.3567 118.596 60.4407 118.533 60.5666Z" fill="#28682E"/>
<path d="M112.366 61.6182C112.366 61.7866 112.45 62.1226 112.555 62.3537C112.66 62.6269 112.744 62.6481 112.744 62.4589C112.744 62.291 112.66 61.9546 112.555 61.7234C112.45 61.4503 112.366 61.4295 112.366 61.6182Z" fill="#28682E"/>
<path d="M112.766 63.8026C112.766 63.9706 112.87 64.1805 112.975 64.2437C113.101 64.3065 113.185 64.2225 113.185 64.0546C113.185 63.8866 113.101 63.6762 112.975 63.6134C112.87 63.5502 112.766 63.6342 112.766 63.8026Z" fill="#28682E"/>
<path d="M63.6719 59.3056C64.5743 61.0706 68.8329 65.6719 71.6441 67.8987C77.5181 72.542 86.2037 76.135 92.728 76.6181C94.5743 76.7441 94.5743 76.7441 92.6232 76.219C89.3295 75.3363 86.5602 74.4541 84.9655 73.8026C84.7351 73.6978 84.1266 73.4454 83.6022 73.2355C81.9446 72.5632 78.1055 70.6091 76.2592 69.4957C72.3575 67.1216 69.1687 64.5792 65.6648 61.0494C64.4271 59.81 63.5252 59.0117 63.6719 59.3056Z" fill="#28682E"/>
<path d="M57.3809 60.042C57.3809 60.2104 57.4857 60.3571 57.5906 60.3571C57.7162 60.3571 57.8003 60.2104 57.8003 60.042C57.8003 59.874 57.7162 59.7268 57.5906 59.7268C57.4857 59.7268 57.3809 59.874 57.3809 60.042Z" fill="#28682E"/>
<path d="M66.5054 60.9879C66.4424 61.0931 66.5684 61.1983 66.7993 61.1983C67.0298 61.1983 67.2818 61.0931 67.3448 60.9879C67.4074 60.8619 67.2818 60.778 67.0509 60.778C66.82 60.778 66.5684 60.8619 66.5054 60.9879Z" fill="#28682E"/>
<path d="M59.4775 62.1226C60.2539 64.1819 61.8904 66.7451 64.093 69.329C64.9531 70.3377 65.6454 71.2831 65.6035 71.4303C65.5616 71.5771 65.7084 71.7035 65.8974 71.7035C66.086 71.7035 67.0091 72.3546 67.9741 73.1528C71.0999 75.8005 75.3166 78.5316 78.5266 80.0022C79.24 80.3385 79.8273 80.7377 79.8273 80.9056C79.8273 81.0948 79.9533 81.158 80.1631 81.074C80.3517 80.9896 81.0439 81.116 81.6943 81.3472C86.9813 83.1961 93.0862 84.3303 97.3448 84.2883L99.2329 84.2675L95.1421 83.574C86.4147 82.1035 80.9183 80.1913 74.8972 76.5355C68.3517 72.5645 63.5894 68.1944 60.5266 63.3412C59.3938 61.5555 59.1417 61.2611 59.4775 62.1226Z" fill="#28682E"/>
<path d="M118.805 72.9009C118.952 72.9641 119.141 72.9429 119.204 72.8797C119.287 72.8169 119.162 72.7537 118.931 72.7749C118.7 72.7749 118.637 72.8377 118.805 72.9009Z" fill="#28682E"/>
<path d="M115.91 74.2229C116.204 74.3069 116.771 74.3909 117.169 74.3909C117.841 74.3909 117.861 74.3701 117.379 74.2229C117.085 74.1389 116.519 74.0549 116.12 74.0549C115.449 74.0549 115.428 74.0757 115.91 74.2229Z" fill="#28682E"/>
<path d="M112.554 74.8753C113.205 75.3165 114.359 75.8416 114.967 75.9887C115.513 76.1147 115.555 76.0939 115.282 75.8416C114.946 75.5264 112.869 74.6442 112.471 74.6442C112.345 74.6442 112.387 74.7489 112.554 74.8753Z" fill="#28682E"/>
<path d="M110.541 76.2195C111.107 76.6186 111.653 76.955 111.736 76.955C111.821 76.955 112.051 77.0178 112.261 77.1017C112.995 77.3749 112.324 76.7446 111.233 76.1143C109.723 75.2528 109.282 75.316 110.541 76.2195Z" fill="#28682E"/>
<path d="M107.414 76.6602C108.295 77.4589 109.386 78.11 109.533 77.942C109.596 77.8788 109.239 77.5217 108.735 77.1433C107.015 75.7987 106.029 75.4416 107.414 76.6602Z" fill="#28682E"/>
<path d="M103.953 76.471C103.974 76.6602 105.736 78.068 106.114 78.1939C106.24 78.2359 106.093 77.9628 105.736 77.5844C105.086 76.9121 103.953 76.1771 103.953 76.471Z" fill="#28682E"/>
<path d="M101.666 77.2909C102.065 77.5852 102.547 77.9212 102.757 78.0264C103.428 78.4047 102.736 77.5013 102.022 77.1021C101.078 76.5558 100.848 76.6818 101.666 77.2909Z" fill="#28682E"/>
<path d="M73.1133 59.0542C73.1133 59.3481 73.3437 59.4953 73.6588 59.3693C73.8262 59.3061 73.8892 59.1801 73.8262 59.0749C73.6795 58.8442 73.1133 58.823 73.1133 59.0542Z" fill="#28682E"/>
<path d="M105.423 62.1217C105.423 62.3108 105.423 62.5208 105.402 62.6052C105.402 62.6892 105.465 62.7939 105.57 62.8152C105.822 62.8991 105.864 62.0797 105.612 61.9325C105.507 61.8485 105.423 61.9537 105.423 62.1217Z" fill="#28682E"/>
<path d="M82.9746 64.7693C82.9746 64.8745 83.0799 64.9792 83.1848 64.9792C83.3104 64.9792 83.3945 64.8745 83.3945 64.7693C83.3945 64.6433 83.3104 64.5593 83.1848 64.5593C83.0799 64.5593 82.9746 64.6433 82.9746 64.7693Z" fill="#28682E"/>
<path d="M40.1355 11.425C39.9257 11.5301 39.7579 11.5721 39.7579 11.5091C39.7579 11.341 38.4992 12.0133 37.7439 12.6016C37.3453 12.8957 36.9467 13.0428 36.7369 12.9588C36.5061 12.8747 36.4013 12.9378 36.4013 13.2529C36.4013 13.484 36.2754 13.7151 36.1285 13.7782C34.7229 14.3034 24.9677 22.4972 25.3034 22.8335C25.3453 22.8967 25.9118 22.6024 26.5411 22.2032C27.695 21.4677 28.9537 21.2578 29.3943 21.6989C29.5621 21.8669 29.709 21.8249 29.8978 21.5941C30.0446 21.4257 30.3803 21.279 30.653 21.279C30.9047 21.279 31.1985 21.1738 31.2824 21.0478C31.3873 20.8586 31.0516 20.8167 30.0236 20.9006C29.2474 20.9638 28.681 20.9638 28.7859 20.8794C28.8698 20.7954 29.4782 20.3543 30.1076 19.8712C31.1775 19.0937 31.3663 19.0307 32.709 18.9887C34.3873 18.9677 34.681 18.8416 33.5481 18.6525C32.1215 18.4214 32.1215 18.3794 33.2754 17.497C34.1775 16.8246 34.5761 16.6565 35.2684 16.6565C36.632 16.6565 37.1355 16.3624 36.0026 16.2363L35.1006 16.1313L36.1285 15.2489C36.695 14.7656 37.3453 14.3454 37.5761 14.3034C37.9537 14.2404 37.9747 14.3664 37.8908 16.2363C37.8488 17.3289 37.7859 18.2743 37.7439 18.3164C37.681 18.3794 37.3663 18.2533 37.0096 18.0432C35.9187 17.3919 35.2684 17.0978 35.1845 17.1818C34.9747 17.3709 36.0866 18.5895 37.8908 20.1232C39.0237 21.0898 39.7579 21.6149 39.674 21.363C39.6111 21.1526 39.4642 20.0604 39.3383 18.9677C39.2334 17.8752 38.9817 16.3204 38.7929 15.522C38.4992 14.3034 38.4782 14.0513 38.7299 13.9042C38.9397 13.7781 38.8558 13.7151 38.4362 13.7151H37.8488L38.4362 12.9798C38.7509 12.5806 39.2754 12.1394 39.5901 12.0133C39.9048 11.8872 40.2824 11.6561 40.4083 11.488C40.681 11.1519 40.6181 11.1309 40.1355 11.425Z" fill="#28682E"/>
<path d="M74.583 12.6644C74.583 12.7694 74.7297 12.8744 74.9183 12.8744C75.0862 12.8744 75.1704 12.7694 75.1073 12.6644C75.0443 12.5383 74.8976 12.4542 74.7716 12.4542C74.6667 12.4542 74.583 12.5383 74.583 12.6644Z" fill="#28682E"/>
<path d="M45.045 13.4411C45.4438 13.8823 46.3669 14.8488 47.0798 15.6051C48.5066 17.1178 48.4854 16.9287 47.8774 19.5551C47.3949 21.5928 47.227 23.0426 47.4998 22.8746C47.6253 22.7906 47.8144 22.3495 47.9404 21.866C48.1078 21.3201 48.4854 20.7525 49.0102 20.2694C49.5557 19.7651 49.8285 19.3448 49.8285 18.9877C49.8285 18.4835 49.891 18.5045 50.8983 19.5132L51.9681 20.5846L51.3178 21.2357C50.9613 21.5928 50.6674 22.0344 50.6674 22.2023C50.6674 22.7486 51.7795 22.6227 52.3876 22.0131L52.9124 21.488L54.8842 23.3157C55.9752 24.3452 57.0869 25.3538 57.3596 25.585L57.8844 26.0053L57.4438 25.375C56.3739 23.8621 44.982 12.6637 44.5207 12.6637C44.3947 12.6637 44.6256 13.0208 45.045 13.4411ZM49.6813 18.7356C49.5346 19.1348 48.7793 20.017 48.5696 20.017C48.4854 20.017 48.5277 19.45 48.6326 18.7566L48.8423 17.475L49.3248 17.9372C49.5976 18.2104 49.7443 18.5255 49.6813 18.7356Z" fill="#28682E"/>
<path d="M42.8628 13.7567C43.0306 13.9457 43.0935 14.2189 43.0096 14.345C42.9467 14.45 43.0306 14.5551 43.1984 14.5551C43.4502 14.5551 43.5341 14.7652 43.5341 15.3955C43.5341 16.3619 44.0376 17.4965 44.4573 17.4965C45.1495 17.4965 44.9186 14.9122 44.1845 14.45C43.9956 14.345 43.9956 14.2189 44.2052 13.9668C44.4361 13.6936 44.4361 13.6726 44.2052 13.7987C44.0586 13.8827 43.8068 13.8407 43.639 13.7147C43.3873 13.5045 43.3243 13.5045 43.3243 13.7147C43.3243 13.9038 43.2404 13.9038 42.9676 13.6936C42.632 13.4205 42.611 13.4415 42.8628 13.7567Z" fill="#28682E"/>
<path d="M65.771 14.3445C65.5405 14.4916 65.5194 14.6597 65.6873 15.1219C65.897 15.7522 66.3376 15.9203 67.1559 15.7312C67.8692 15.5421 67.8481 14.7647 67.1347 14.7647C66.8413 14.7647 66.5474 14.6176 66.4843 14.4496C66.3376 14.0924 66.2116 14.0714 65.771 14.3445Z" fill="#28682E"/>
<path d="M86.4369 14.3442C86.4999 14.4493 86.6047 14.5544 86.6673 14.5544C86.7096 14.5544 86.7515 14.4493 86.7515 14.3442C86.7515 14.2182 86.6466 14.1342 86.5206 14.1342C86.4157 14.1342 86.3739 14.2182 86.4369 14.3442Z" fill="#28682E"/>
<path d="M27.6953 14.9744C27.5275 15.2475 28.1149 15.4786 28.5765 15.3106C28.8911 15.1845 28.8911 15.1425 28.6394 14.9744C28.2198 14.7013 27.8632 14.7223 27.6953 14.9744Z" fill="#28682E"/>
<path d="M67.9738 15.6047C67.9108 15.7098 67.9946 15.8148 68.1836 15.8148C68.3722 15.8148 68.4563 15.7098 68.3933 15.6047C68.3303 15.4787 68.2254 15.3947 68.1836 15.3947C68.1417 15.3947 68.0364 15.4787 67.9738 15.6047Z" fill="#28682E"/>
<path d="M59.2271 16.4879C58.6397 17.5804 57.9894 19.2192 58.0942 19.3244C58.1361 19.3664 58.8283 19.4504 59.6254 19.4924C61.4298 19.5764 62.1431 19.2612 60.5908 19.0721C58.9962 18.841 58.9543 18.778 59.3738 17.4333C59.8144 16.0467 59.7307 15.5214 59.2271 16.4879Z" fill="#28682E"/>
<path d="M71.0381 16.74C71.08 16.7821 71.4576 16.8661 71.8559 16.9501C72.3807 17.0342 72.5063 17.0131 72.2758 16.8661C71.9819 16.677 70.8279 16.5509 71.0381 16.74Z" fill="#28682E"/>
<path d="M41.8555 18.2735C41.8555 20.2906 42.7785 23.3789 43.4079 23.3789C43.5128 23.3789 43.5548 22.5175 43.4918 21.4248C43.4079 19.9963 43.2401 19.156 42.8415 18.2315C42.1072 16.5087 41.8555 16.5087 41.8555 18.2735Z" fill="#28682E"/>
<path d="M45.7568 20.0382C45.3998 21.7399 45.2113 28.484 45.5052 28.7992C45.6519 28.9464 46.2604 27.3706 46.449 26.362C46.5538 25.8576 46.6799 25.4165 46.7217 25.3745C46.7636 25.3113 47.2042 25.8576 47.7078 26.5511C48.6098 27.833 48.6309 27.9797 47.9387 28.6312C47.8757 28.694 47.4351 29.1983 46.9945 29.7659C46.4701 30.4169 46.3022 30.7113 46.575 30.5641C47.2884 30.1858 49.4069 28.1901 49.4069 27.9169C49.4069 27.7485 48.7988 26.9083 48.0855 26.0048C46.7847 24.4291 46.7429 24.3239 46.7006 23.0845C46.6587 21.7399 46.3653 20.1642 46.0714 19.6386C45.9453 19.4287 45.8616 19.5339 45.7568 20.0382Z" fill="#28682E"/>
<path d="M73.5332 20.0179C73.5332 20.1439 73.6799 20.2278 73.8478 20.2278C74.0157 20.2278 74.1624 20.1859 74.1624 20.1439C74.1624 20.1019 74.0157 20.0179 73.8478 19.9339C73.6799 19.8707 73.5332 19.9127 73.5332 20.0179Z" fill="#28682E"/>
<path d="M32.6858 20.8784C33.3362 21.3403 33.8817 21.7607 33.8817 21.8027C33.8817 21.8447 33.3781 22.1598 32.7908 22.517C32.1823 22.8741 31.4481 23.3577 31.1544 23.6096L30.6299 24.0299L31.1544 23.904C31.6998 23.7568 33.6928 22.7901 34.7837 22.1178L35.4341 21.7187L33.6089 20.8572C32.6019 20.3949 31.7208 20.017 31.6369 20.017C31.532 20.017 32.0145 20.3949 32.6858 20.8784Z" fill="#28682E"/>
<path d="M89.7108 20.4161C89.5011 20.5633 89.5011 20.6265 89.6897 20.7525C89.8157 20.8365 90.0254 20.8157 90.1515 20.6893C90.4238 20.4161 90.0673 20.2062 89.7108 20.4161Z" fill="#28682E"/>
<path d="M18.9883 21.2365C18.9883 21.5309 19.219 21.6781 19.5337 21.5516C19.7016 21.4889 19.7645 21.3629 19.7016 21.2577C19.5547 21.0265 18.9883 21.0053 18.9883 21.2365Z" fill="#28682E"/>
<path d="M48.9461 22.7495C48.5478 23.0854 48.1491 23.5898 48.1072 23.8841C48.023 24.3253 48.1702 24.2413 49.1352 23.3166C49.7432 22.7075 50.2469 22.2032 50.2469 22.182C50.2469 21.93 49.5758 22.224 48.9461 22.7495Z" fill="#28682E"/>
<path d="M22.2194 22.9802C21.7789 23.1062 21.4642 23.3793 21.2964 23.8209C21.0446 24.388 21.0656 24.514 21.4852 25.0815C21.7789 25.4806 21.8418 25.6906 21.674 25.6906C21.2754 25.7118 22.4922 26.72 23.0586 26.8672C24.0866 27.1191 26.1215 26.1529 26.1215 25.4174C26.1215 25.2495 23.7719 25.3754 22.9747 25.6066C22.1565 25.8166 21.8628 24.8291 22.5971 24.3668C22.8278 24.1988 23.1845 24.22 23.7928 24.43C24.7789 24.7451 24.9887 24.6399 24.653 24.0096C24.4432 23.6105 23.2474 22.7283 22.9747 22.7702C22.9117 22.7702 22.5761 22.8754 22.2194 22.9802Z" fill="#28682E"/>
<path d="M51.9045 23.7581C51.4013 24.1781 50.7717 24.7664 50.5201 25.0395C50.2473 25.3127 50.0376 25.4387 50.0376 25.2919C50.0376 25.1655 49.8909 25.0607 49.723 25.0607C49.3454 25.0607 49.3035 25.4179 49.6811 25.5439C49.849 25.6071 49.786 25.7958 49.4503 26.1534L48.9678 26.6785L50.5831 26.8257C53.0585 27.0144 55.3242 26.9936 55.1775 26.7412C54.9885 26.4473 53.8768 26.0062 52.8699 25.817C52.4082 25.733 51.9675 25.6071 51.9045 25.5651C51.8208 25.5226 52.0306 24.9555 52.3875 24.3045C52.7439 23.6742 52.9748 23.1066 52.9325 23.0439C52.8699 23.0014 52.4293 23.3166 51.9045 23.7581Z" fill="#28682E"/>
<path d="M26.8347 23.4846C26.4571 23.779 26.4781 23.779 27.0655 23.6105C28.2613 23.2534 28.3243 23.2114 27.7788 23.1906C27.4851 23.1694 27.0655 23.3166 26.8347 23.4846Z" fill="#28682E"/>
<path d="M99.7568 23.7993C99.7568 23.904 99.8617 24.0092 99.9877 24.0092C100.093 24.0092 100.134 23.904 100.072 23.7993C100.009 23.6728 99.904 23.5889 99.841 23.5889C99.7991 23.5889 99.7568 23.6728 99.7568 23.7993Z" fill="#28682E"/>
<path d="M34.4923 24.9754C34.2826 25.2066 34.0938 25.4585 34.0938 25.5005C34.0938 25.5637 34.9539 26.488 36.0028 27.5594C37.7022 29.3035 37.87 29.5343 37.5343 29.7654C37.2616 29.9758 37.2406 30.0806 37.4294 30.207C37.5763 30.291 37.7861 30.2698 37.9119 30.1438C38.0378 30.0178 38.2686 29.9758 38.4364 30.0386C39.0867 30.291 38.0168 28.736 36.3805 27.0763C35.4784 26.152 34.807 25.3113 34.891 25.2274C34.9958 25.1222 35.4574 25.1854 35.9609 25.3745C36.8 25.6685 37.9749 25.8789 39.5483 25.9836C39.9469 26.0256 40.4504 26.0676 40.6602 26.0888C40.9539 26.1096 40.7651 26.3828 39.9259 27.1815L38.814 28.2317L39.821 28.1269C40.5972 28.0429 40.807 28.0637 40.807 28.3157C40.807 28.4841 41.0168 29.1564 41.2476 29.8074C41.6252 30.7741 41.7301 30.9421 41.8979 30.6481C42.1287 30.249 42.1707 27.2022 41.9609 26.5299C41.856 26.1728 41.9399 26.0468 42.4854 25.8577L43.1567 25.6265L42.5273 25.3745C41.3734 24.8702 39.5063 24.5971 37.1987 24.5551C35.1217 24.5338 34.87 24.5763 34.4923 24.9754Z" fill="#28682E"/>
<path d="M28.8273 25.4594C30.1489 27.3291 34.114 30.1027 34.5125 29.4724C34.6175 29.3252 34.4916 28.9888 34.2188 28.6737C33.1279 27.3503 32.079 26.2576 31.5126 25.8585L30.9041 25.4174L31.1559 25.9217C31.3028 26.1949 31.7643 26.846 32.1839 27.3711L32.9391 28.3165L31.9951 27.5815C31.4916 27.1823 30.5475 26.4048 29.8972 25.8585C28.5755 24.7031 28.1979 24.5767 28.8273 25.4594Z" fill="#28682E"/>
<path d="M60.4205 27.4551C59.9587 27.5811 59.6022 27.7911 59.6229 27.8962C59.6441 28.0222 60.4412 28.2954 61.4066 28.5473C63.693 29.1149 63.882 29.2196 63.882 29.8079C63.882 30.3542 64.0918 30.4382 64.4694 30.0603C64.8258 29.7032 64.784 28.9257 64.3852 28.3162C63.8397 27.4759 61.7842 27.0348 60.4205 27.4551Z" fill="#28682E"/>
<path d="M27.0636 29.0516C27.8608 30.039 28.658 30.9633 28.7839 31.1105C29.0356 31.3624 29.1825 33.8836 28.9727 33.8836C28.9307 33.8836 28.5531 33.5685 28.1335 33.1905C27.5252 32.665 27.3363 32.3079 27.2105 31.4676C27.1055 30.8793 26.9167 30.2278 26.7909 29.9971C26.5601 29.6395 26.5391 29.7027 26.665 30.417C26.7279 30.8793 26.8328 31.4464 26.8958 31.6776C27.0426 32.1399 27.1265 32.2031 25.1755 30.6274C23.5601 29.3035 23.3923 29.1983 23.3923 29.4087C23.3923 29.5135 24.2314 30.5641 25.2804 31.7408C27.0007 33.7369 27.1265 33.9468 26.9167 34.4092C26.644 35.0182 26.3293 34.8923 26.3293 34.178C26.3293 33.5685 26.0985 33.5265 25.637 34.052C25.2384 34.4719 25.1545 35.6698 25.4902 35.8797C25.8468 36.0897 25.7419 36.4888 24.672 38.7373C22.2804 43.8217 21.8608 44.7671 21.4622 45.7546C21.2314 46.3217 20.9587 47.036 20.8748 47.3303C20.7909 47.6243 20.644 48.0446 20.5601 48.2758C20.4762 48.5069 20.7279 48.3178 21.1056 47.8554C21.8818 46.952 23.5391 44.368 23.8329 43.5905C24.0217 43.0862 24.1475 43.023 25.3433 42.813C26.2035 42.6658 27.1265 41.9516 26.8328 41.6576C26.7279 41.5524 26.2454 41.4472 25.7839 41.4052L24.9028 41.3425L25.2804 40.5018C25.4902 40.0399 25.8258 39.1992 26.0356 38.6529C26.2874 37.9598 26.5601 37.5607 26.8958 37.4342C27.1685 37.3295 27.3573 37.1611 27.2944 37.0771C27.2314 36.9724 27.4622 36.7412 27.8188 36.5308C28.637 36.0477 28.5951 35.6066 27.7559 35.5226C27.0636 35.4594 26.9797 35.2494 27.2734 34.3672C27.3573 34.136 30.9447 37.6234 31.1125 38.0858C31.1545 38.191 30.4412 38.6529 29.5391 39.1152C28.6161 39.5563 27.7349 40.1026 27.5671 40.313C27.2944 40.649 27.3363 40.6702 28.2594 40.5438C28.7839 40.4598 29.3503 40.3758 29.5181 40.355C29.7279 40.313 29.7909 40.6282 29.8328 41.6576C29.8538 42.4139 29.9167 43.2961 30.0007 43.6533C30.0636 44.0529 29.9797 44.5147 29.7489 44.9559C29.2454 45.8805 29.4972 46.0065 30.5881 45.3762C31.8678 44.6199 33.2314 43.0442 33.5461 41.9308C33.7559 41.2793 33.1685 41.4892 31.8888 42.4979C31.3223 42.939 30.8188 43.2961 30.7979 43.2541C30.7559 43.2334 30.8188 42.6871 30.9447 42.0568C31.0496 41.4265 31.1965 40.3758 31.2594 39.7035C31.4063 38.3797 31.658 38.2117 32.3293 38.968C32.5601 39.2412 33.3363 39.9767 34.0286 40.6282C35.3084 41.8044 35.3084 41.8256 34.8049 42.0355C34.1965 42.3299 33.9447 43.1914 34.2804 43.8844C34.4063 44.1788 34.5111 44.452 34.5111 44.494C34.5111 44.536 33.7349 45.1663 32.7909 45.9013C31.0287 47.2251 26.2454 51.8896 25.5741 52.8978C24.1475 55.0831 28.2384 51.9524 32.6231 47.5403C34.616 45.5234 35.4132 44.8511 35.9587 44.7459C36.3363 44.6619 36.8189 44.3888 37.0286 44.1368L37.4063 43.6745L38.3083 44.41C39.7139 45.5442 39.8818 45.6074 39.4832 44.8931C39.2944 44.5567 38.9797 43.5273 38.7699 42.6031C38.4762 41.2585 38.3922 41.0481 38.3293 41.6156C38.2874 42.0148 38.3503 42.6031 38.4762 42.9602C38.6021 43.3174 38.686 43.6533 38.644 43.6953C38.6021 43.7377 38.1615 43.2754 37.658 42.6658C36.8608 41.7416 36.7139 41.4052 36.5881 40.313C36.5042 39.5983 36.4412 39.01 36.4622 38.9892C36.4832 38.968 37.3643 39.6615 38.3922 40.5438C40.3223 42.1619 41.3293 42.855 40.8888 42.2667C40.0286 41.1321 38.0776 38.7581 37.8048 38.5481C37.5741 38.3377 37.4902 37.7706 37.5111 36.0057C37.5111 34.7663 37.3853 33.2533 37.2384 32.665C37.0077 31.6356 36.9657 31.5728 36.4412 31.6988C35.7069 31.8667 34.5322 32.4131 34.3853 32.6442C34.2804 32.8334 34.8678 32.9382 35.623 32.8754C35.8748 32.8542 35.9797 33.0014 35.9797 33.4217C35.9797 33.7369 36.1685 34.7031 36.3783 35.5646C36.609 36.426 36.7559 37.1611 36.7349 37.1823C36.7139 37.2035 35.5601 36.1109 34.1965 34.7663C32.8119 33.4217 31.0706 31.7615 30.3363 31.0685L28.9727 29.8499L29.8538 29.9971C30.9028 30.165 30.9657 29.9758 30.1685 29.0304C29.5811 28.3369 28.5531 27.791 27.8188 27.791C27.4412 27.791 27.4202 27.8538 27.5881 28.3369C27.8188 28.9464 27.7349 28.9044 26.4342 27.917C25.7 27.3494 25.7839 27.4754 27.0636 29.0516ZM31.3643 34.8711C31.3643 35.4806 31.2804 35.9849 31.1965 35.9849C31.1125 35.9849 30.693 35.6278 30.2734 35.1862C29.6231 34.5139 29.5181 34.2408 29.4132 33.0641L29.3084 31.7195L30.3363 32.749C31.3014 33.7156 31.3643 33.8208 31.3643 34.8711ZM33.4412 35.9217C33.4832 35.9637 33.5671 36.5308 33.609 37.1823L33.693 38.4009L32.7699 37.4975C31.9098 36.636 31.8258 36.4888 31.8468 35.5433L31.8678 34.5139L32.6021 35.1862C33.0216 35.5646 33.3993 35.9005 33.4412 35.9217ZM35.4133 37.8546C35.8328 38.3377 36.1266 38.842 36.0846 39.0732C36.0426 39.2832 36.0007 39.7035 36.0007 40.0187C35.9797 40.7749 35.8119 40.7329 34.9727 39.7667C34.4482 39.1572 34.2804 38.7373 34.2384 38.0018C34.1755 36.8039 34.4272 36.762 35.4133 37.8546ZM36.3993 42.7922L36.8818 43.3174L36.3363 43.4433C35.644 43.6325 35.3503 43.4433 35.3503 42.7922C35.3503 42.1407 35.7699 42.1407 36.3993 42.7922Z" fill="#28682E"/>
<path d="M53.8138 28.359C52.6598 28.7582 52.6179 28.7789 52.9325 29.0941C53.3101 29.4725 56.9184 29.3885 58.1984 28.9469C60.0442 28.3378 59.4361 28.0015 56.5408 28.0227C55.5128 28.0227 54.3592 28.1699 53.8138 28.359Z" fill="#28682E"/>
<path d="M35.5612 28.3586C35.5612 28.5058 35.4143 28.6318 35.2465 28.6318C34.8899 28.6318 34.8479 28.8209 35.1206 29.2408C35.2675 29.472 35.4353 29.4932 35.708 29.346C36.0647 29.1781 36.0857 29.0941 35.8339 28.6318C35.687 28.3374 35.5612 28.2326 35.5612 28.3586Z" fill="#28682E"/>
<path d="M19.4082 29.4728C19.4082 29.5776 19.5551 29.6828 19.7229 29.6828C19.8907 29.6828 20.0375 29.5776 20.0375 29.4728C20.0375 29.3464 19.8907 29.2625 19.7229 29.2625C19.5551 29.2625 19.4082 29.3464 19.4082 29.4728Z" fill="#28682E"/>
<path d="M59.0985 29.8923C59.3924 30.7537 60.5883 31.6992 61.5951 31.8676C62.4971 32.0143 63.525 31.6152 63.8608 30.9849C64.0287 30.6698 63.9238 30.6278 62.98 30.6278C62.1825 30.6278 61.4902 30.4386 60.4411 29.9343C59.6652 29.5771 58.9729 29.262 58.9306 29.262C58.9099 29.262 58.9729 29.5563 59.0985 29.8923Z" fill="#28682E"/>
<path d="M82.3462 31.2798C81.9893 31.6997 81.7377 32.0989 81.8007 32.1409C81.9267 32.2673 82.6189 31.5318 82.9966 30.8803C83.3323 30.3132 83.0803 30.4604 82.3462 31.2798Z" fill="#28682E"/>
<path d="M48.3592 30.9637C48.3592 31.6153 49.8067 33.8213 50.9395 34.8507C51.9675 35.7962 52.1354 36.0481 51.9256 36.3005C51.7789 36.4685 51.3594 36.6157 51.0025 36.6157C50.52 36.6157 50.4363 36.6784 50.6668 36.8256C50.9188 36.9936 50.8346 37.1615 50.1636 37.8551C49.7018 38.3382 49.0096 38.8217 48.6108 38.9477C48.1495 39.0949 47.9816 39.2416 48.1495 39.3468C48.3173 39.452 48.0865 39.788 47.3942 40.4183C46.3663 41.3637 46.1984 41.5529 45.3594 42.5196C45.1074 42.8347 44.6042 43.4018 44.2684 43.7801C43.1775 44.9775 43.2194 45.1035 44.394 44.3053C45.0237 43.8849 45.5692 43.549 45.6529 43.549C45.7159 43.549 46.2195 43.1286 46.7439 42.6035C47.3105 42.0572 47.9397 41.6581 48.2125 41.6581C48.4641 41.6581 48.821 41.5529 48.9884 41.4477C49.2612 41.2797 49.2405 41.2377 48.9047 41.2377C48.5689 41.2377 48.5482 41.1957 48.7998 40.8806C49.3453 40.2291 50.7298 39.3468 51.2334 39.3468C51.737 39.3468 51.9049 39.0317 51.4643 38.8637C51.1074 38.7377 52.8487 37.204 53.6881 36.9096C54.1283 36.7624 54.2332 36.6364 54.0446 36.5312C53.8556 36.4053 54.2962 35.859 55.5339 34.6403C56.4782 33.7161 57.6947 32.4343 58.1984 31.8252L59.1215 30.7118L57.5273 31.4888C56.646 31.9304 56.0164 32.3503 56.1424 32.4135C56.4993 32.6447 54.1706 34.3044 53.4991 34.3044C52.9536 34.3044 52.9329 34.3252 53.2682 34.5776C53.6251 34.8507 53.6251 34.8715 53.1003 35.2079C52.4711 35.6282 52.3451 35.649 52.3451 35.2919C52.3451 35.1447 52.0098 34.5144 51.611 33.9053C51.1915 33.275 50.8976 32.7494 50.9188 32.7075C50.9607 32.6867 51.5061 32.7914 52.1354 32.9598C53.4572 33.2958 54.2332 33.3378 54.2332 33.0646C54.2332 32.4135 51.4431 31.1529 50.0164 31.1529C49.5551 31.1529 48.9884 31.0477 48.758 30.943C48.4641 30.7746 48.3592 30.7958 48.3592 30.9637Z" fill="#28682E"/>
<path d="M24.3789 32.1399C24.1061 32.3918 24.232 32.623 24.6516 32.623C24.8823 32.623 25.0712 32.4758 25.0712 32.3079C25.0712 31.9927 24.6306 31.8667 24.3789 32.1399Z" fill="#28682E"/>
<path d="M43.9106 32.2867C43.5329 32.5599 43.3861 33.2534 43.7008 33.2534C43.9106 33.2534 44.7917 32.3499 44.7917 32.14C44.7917 31.9088 44.288 31.9928 43.9106 32.2867Z" fill="#28682E"/>
<path d="M17.4153 32.3932C17.2685 32.6451 17.6671 32.8975 17.9398 32.7291C18.1706 32.5823 18.0237 32.204 17.73 32.204C17.6251 32.204 17.4992 32.288 17.4153 32.3932Z" fill="#28682E"/>
<path d="M40.0928 33.4638C39.4844 34.2201 39.0439 35.6066 39.2327 36.2162C39.3795 36.6361 39.3795 36.6361 39.7991 36.2582C40.0508 36.0482 40.4075 35.5859 40.6173 35.2495L41.0159 34.6192V35.4599C41.0159 36.7833 41.7921 41.8889 42.0229 42.12C42.3585 42.456 42.0648 38.5274 41.5194 35.3547C41.0159 32.4763 40.9739 32.4131 40.0928 33.4638Z" fill="#28682E"/>
<path d="M44.8131 33.3806C44.3936 34.3261 44.3306 37.1412 44.7294 38.8014L45.044 40.272L45.3797 39.6417C45.6313 39.2005 45.7155 38.4231 45.7362 36.6374V34.2629L46.3658 35.0616C46.7223 35.5027 47.4987 36.385 48.1067 37.0365L49.24 38.1919L48.6315 37.0573C48.3169 36.4482 47.3727 35.2296 46.5756 34.3469L45.0858 32.7711L44.8131 33.3806Z" fill="#28682E"/>
<path d="M58.218 34.1152C56.7706 35.2286 52.8684 38.8632 48.5679 43.0862L45.9453 45.6918L47.309 44.9351C48.0643 44.5359 49.2394 43.7797 49.9316 43.2966C51.2112 42.3719 56.9385 36.8044 57.7567 35.6697C58.0083 35.3126 58.5538 34.5983 58.9526 34.0308C59.372 33.4849 59.6866 33.0433 59.6448 33.0433C59.6029 33.0433 58.9733 33.5269 58.218 34.1152Z" fill="#28682E"/>
<path d="M46.4727 33.5906C46.4727 33.7586 46.5775 33.843 46.6824 33.7798C46.8084 33.6958 46.8503 33.5486 46.7873 33.4434C46.5982 33.1495 46.4727 33.2123 46.4727 33.5906Z" fill="#28682E"/>
<path d="M81.4421 34.3252C80.2674 35.1447 80.0784 35.3546 80.4142 35.3546C80.7288 35.3546 82.512 34.094 82.638 33.7789C82.8059 33.3378 82.764 33.3586 81.4421 34.3252Z" fill="#28682E"/>
<path d="M81.2954 36.8048C80.3935 37.0992 78.8619 37.9394 79.1346 38.0234C79.4492 38.1286 81.4214 37.2879 81.7361 36.91C81.8621 36.742 81.9458 36.6156 81.9039 36.6368C81.8621 36.6368 81.5893 36.7208 81.2954 36.8048Z" fill="#28682E"/>
<path d="M22.9323 37.0577C22.7225 37.1836 22.5547 37.3516 22.5547 37.4568C22.5547 37.7507 23.3309 37.7087 23.5197 37.4356C23.7295 37.0784 23.3309 36.8265 22.9323 37.0577Z" fill="#28682E"/>
<path d="M31.6799 41.4481C31.6169 41.5533 31.7008 41.6585 31.8896 41.6585C32.0784 41.6585 32.1623 41.5533 32.0994 41.4481C32.0365 41.3221 31.9316 41.2382 31.8896 41.2382C31.8477 41.2382 31.7428 41.3221 31.6799 41.4481Z" fill="#28682E"/>
<path d="M41.3522 42.9602C41.4152 43.0446 41.2473 43.3386 41.0166 43.5905C40.618 44.0108 40.576 44.242 40.6599 45.2507C40.7648 46.4693 41.7089 48.8013 42.1075 48.8013C42.2753 48.8013 42.2963 48.2338 42.1914 46.9524C41.9396 43.9269 41.9187 44.0741 42.3383 44.0948C42.611 44.116 42.6949 43.9901 42.6529 43.5485C42.611 43.0446 42.5061 42.9394 41.9396 42.8762C41.562 42.8342 41.3103 42.8762 41.3522 42.9602Z" fill="#28682E"/>
<path d="M24.7786 45.2291C23.0583 45.9646 22.8066 46.1745 23.8765 46.0065C24.2961 45.9433 24.6527 45.9646 24.6527 46.0905C24.6527 46.4689 25.2401 46.2585 25.345 45.8386C25.5548 45.0611 26.0164 45.5442 26.1842 46.7208C26.2891 47.3511 26.415 48.0866 26.4779 48.3806C26.6038 48.8641 26.6247 48.8429 26.7506 48.1494C26.9394 47.078 26.7506 44.5988 26.4569 44.5988C26.3311 44.5988 25.5758 44.8931 24.7786 45.2291Z" fill="#28682E"/>
<path d="M43.9526 46.7208C43.9526 47.4559 43.7008 48.0022 43.0714 48.6325L42.6309 49.0736L43.0714 49.242C44.4978 49.7671 45.7778 47.813 44.8754 46.5317C44.4141 45.8594 43.9526 45.9433 43.9526 46.7208Z" fill="#28682E"/>
<path d="M121.262 46.281C121.199 46.3862 121.283 46.4909 121.451 46.4909C121.64 46.4909 121.787 46.3862 121.787 46.281C121.787 46.155 121.703 46.071 121.597 46.071C121.472 46.071 121.325 46.155 121.262 46.281Z" fill="#28682E"/>
<path d="M23.8348 49.0126C23.4782 49.6637 23.5411 51.4494 23.9397 51.7857C24.2124 51.9957 24.2964 51.9957 24.4642 51.7438C24.9887 50.9455 24.9258 49.3065 24.3383 48.8234C24.1076 48.6342 24.0027 48.6762 23.8348 49.0126Z" fill="#28682E"/>
<path d="M44.1621 51.1121C44.1621 51.2169 44.2458 51.3221 44.3507 51.3221C44.4767 51.3221 44.6234 51.2169 44.6865 51.1121C44.7495 50.9857 44.6653 50.9017 44.4974 50.9017C44.3088 50.9017 44.1621 50.9857 44.1621 51.1121Z" fill="#28682E"/>
<path d="M122.625 51.7421C122.625 51.8473 122.73 51.9525 122.835 51.9525C122.961 51.9525 123.044 51.8473 123.044 51.7421C123.044 51.6161 122.961 51.5321 122.835 51.5321C122.73 51.5321 122.625 51.6161 122.625 51.7421Z" fill="#28682E"/>
<path d="M35.0568 52.2671C34.9939 52.4562 35.0568 52.5822 35.2456 52.5822C35.4135 52.5822 35.5603 52.4355 35.5603 52.2671C35.5603 52.0991 35.4764 51.9519 35.3715 51.9519C35.2666 51.9519 35.1407 52.0991 35.0568 52.2671Z" fill="#28682E"/>
<path d="M19.0912 53.8434C19.0283 53.9486 19.1122 54.0538 19.28 54.0538C19.4688 54.0538 19.6157 53.9486 19.6157 53.8434C19.6157 53.7174 19.5318 53.6334 19.4269 53.6334C19.301 53.6334 19.1541 53.7174 19.0912 53.8434Z" fill="#28682E"/>
<path d="M29.0377 54.3909L28.5342 54.958L29.1216 54.5801C29.4363 54.3909 29.688 54.139 29.688 54.0338C29.688 53.7394 29.5831 53.8026 29.0377 54.3909Z" fill="#28682E"/>
<path d="M37.0293 56.9949C37.0293 57.226 37.1342 57.4152 37.2391 57.4152C37.365 57.4152 37.4489 57.226 37.4489 56.9949C37.4489 56.7637 37.365 56.575 37.2391 56.575C37.1342 56.575 37.0293 56.7637 37.0293 56.9949Z" fill="#28682E"/>
<path d="M56.4774 66.7853C56.3096 66.9532 56.4986 67.2896 56.7713 67.2896C56.8762 67.2896 56.9599 67.1424 56.9599 66.9744C56.9599 66.6593 56.7083 66.5541 56.4774 66.7853Z" fill="#28682E"/>
<path d="M32.3732 73.8459C32.4781 73.9511 32.7089 74.0143 32.8557 73.9723C33.0235 73.9091 32.9186 73.8251 32.6459 73.7412C32.2893 73.6572 32.2054 73.678 32.3732 73.8459Z" fill="#28682E"/>
<path d="M58.7446 75.4844C58.6816 75.5896 58.7653 75.6943 58.9332 75.6943C59.1222 75.6943 59.2689 75.5896 59.2689 75.4844C59.2689 75.3584 59.1852 75.2744 59.0803 75.2744C58.9543 75.2744 58.8076 75.3584 58.7446 75.4844Z" fill="#28682E"/>
<path d="M62.834 80.5056C62.834 80.6103 62.9389 80.7787 63.0437 80.8415C63.1693 80.9047 63.2535 80.8835 63.2535 80.7575C63.2535 80.6523 63.1693 80.4843 63.0437 80.4216C62.9389 80.3584 62.834 80.3796 62.834 80.5056Z" fill="#28682E"/>
<path d="M56.5218 81.5982C56.2909 81.7454 56.2909 81.7874 56.5218 81.7874C56.6685 81.7874 56.7522 81.9133 56.6897 82.0605C56.6267 82.2497 56.7315 82.3337 57.025 82.2917C57.277 82.2705 57.6335 82.2285 57.8014 82.2077C58.0111 82.1865 58.0323 82.1445 57.8644 82.0605C57.7172 82.0185 57.5916 81.8506 57.5916 81.7034C57.5916 81.409 56.9413 81.325 56.5218 81.5982Z" fill="#28682E"/>
<path d="M72.4863 85.2536C72.4863 85.422 72.5912 85.5688 72.6961 85.5688C72.8221 85.5688 72.9058 85.422 72.9058 85.2536C72.9058 85.0857 72.8221 84.9385 72.6961 84.9385C72.5912 84.9385 72.4863 85.0857 72.4863 85.2536Z" fill="#28682E"/>
</svg>
