<svg width="94" height="90" viewBox="0 0 94 90" fill="none" xmlns="http://www.w3.org/2000/svg">
<g clip-path="url(#clip0_6_1024)">
<g clip-path="url(#clip1_6_1024)">
<g clip-path="url(#clip2_6_1024)">
<path d="M65.7482 0.139374C62.4607 0.796861 60.8994 1.61872 58.6391 4.00211C56.3791 6.4266 56.2968 6.46768 54.1191 6.46768C51.5302 6.46768 51.2423 6.71424 49.3112 10.577C47.9961 13.1247 47.4207 15.1383 47.9961 15.0972C48.1604 15.0561 48.9414 14.0288 49.722 12.796C52.9273 7.74155 54.4476 6.71424 56.0092 8.52234C57.0777 9.79621 57.8174 9.54965 60.324 6.9608C61.8033 5.48145 63.2827 4.41303 64.3099 4.08431C66.8168 3.30352 71.5423 3.01588 73.2273 3.55008C75.5695 4.33086 77.0899 6.30332 76.8843 8.39906C76.8023 9.34418 74.3368 10.2071 70.5561 10.6181C66.7345 11.029 63.1184 12.3029 61.4335 13.8233C59.9132 15.2205 57.8174 16.0012 54.8997 16.33C51.982 16.6176 51.982 16.6176 54.2423 16.6587C57.0364 16.6998 58.8446 16.0834 62.1322 13.9466C64.8853 12.1796 66.5289 11.6454 71.5014 11.029C73.186 10.8235 74.9532 10.5359 75.364 10.3304C75.9394 10.125 76.0627 10.166 75.8571 10.4948C75.2817 11.3988 73.104 12.2618 69.8574 12.8371C66.2823 13.4535 65.7482 13.7 62.7073 15.8779C60.6938 17.3162 60.5295 17.3573 55.8859 17.6038L51.1604 17.8093L55.4751 17.8915C60.1597 17.9737 60.365 17.9326 64.721 15.1794C66.2004 14.2753 67.803 13.7411 70.4328 13.2891C73.2682 12.796 74.46 12.3851 75.5283 11.5221C77.2955 10.0838 78.8981 7.12516 78.8981 5.31709C78.8981 3.55008 76.8433 1.41325 74.5833 0.755766C72.6928 0.22156 67.2686 -0.148276 65.7482 0.139374ZM73.145 1.1667C76.3092 1.82418 78.8981 4.45414 78.2404 6.26221C78.0351 6.71424 77.7886 6.54988 77.0899 5.56365C75.5695 3.26244 73.8436 2.56385 69.8574 2.56385C64.721 2.60495 61.1046 4.08431 59.461 6.83752C58.6391 8.27578 57.3243 8.80998 56.5023 8.11139C55.7627 7.495 55.7217 6.8786 56.4201 6.8786C56.7079 6.8786 57.9817 5.81021 59.2968 4.45414C61.1046 2.60495 62.1322 1.90637 63.8168 1.41325C66.3646 0.673583 70.2686 0.550304 73.145 1.1667ZM51.8178 8.39906C51.3656 9.05654 50.3384 10.6592 49.5577 12.0152C48.7358 13.3713 48.0784 14.3164 48.0784 14.152C48.0784 13.3713 51.941 7.28955 52.4341 7.28955C52.5164 7.28955 52.2699 7.78267 51.8178 8.39906Z" fill="#28682E"/>
<path d="M24.0392 1.20799C22.19 1.86548 20.1354 3.96123 19.0669 6.38569C16.8479 11.2758 18.4505 13.7002 24.82 15.0563C26.176 15.3439 29.0525 16.3302 31.2306 17.1931C33.4496 18.0561 35.6686 18.7958 36.2027 18.7547C36.7368 18.7547 36.2437 18.467 35.0522 18.1794C33.8604 17.8506 31.9289 17.1109 30.7784 16.5357C29.6689 15.9603 27.2034 15.0974 25.3542 14.6454C20.1354 13.3304 18.9026 12.4263 18.9026 9.8786C18.9026 8.76909 18.9026 8.7691 19.519 9.63205C20.0532 10.4128 23.1352 11.7689 27.1622 13.0017C27.9841 13.2482 29.1347 14.029 29.7922 14.6865C31.1483 16.1247 32.5043 16.5767 36.2437 16.9055C37.7643 17.0699 39.367 17.2753 39.7368 17.3986C40.3532 17.604 40.3532 17.563 39.8601 17.2342C39.5312 17.0288 38.2162 16.7 36.9834 16.5767C32.0522 15.9603 31.7237 15.8781 29.9977 14.2755C28.806 13.166 27.4088 12.4263 25.5185 11.8511C20.1764 10.2484 18.3273 7.94723 20.875 6.09805C22.8064 4.74198 25.8884 4.24887 29.0936 4.82418C34.4358 5.72821 38.0929 8.19378 41.1339 12.8784C42.0791 14.3166 42.9007 15.5083 43.024 15.5083C43.1063 15.5083 42.6132 14.3988 41.9145 13.0427C40.3119 9.8786 37.5588 7.20755 34.1893 5.56385C31.9702 4.45434 30.9427 4.20778 27.9019 4.08451C25.3542 3.96123 23.7515 4.08451 22.4366 4.53651C21.4092 4.90634 20.5463 5.02962 20.5463 4.82418C20.5463 4.08451 23.505 1.98876 24.9432 1.70111C28.6827 1.00253 35.0109 3.18044 38.7506 6.46788C40.4765 7.98831 43.4352 12.1387 44.0925 14.029C44.2568 14.4399 44.5034 14.7276 44.6266 14.6043C45.1198 14.0701 42.3666 9.38549 40.1886 7.04319C35.8739 2.44078 28.3129 -0.271352 24.0392 1.20799Z" fill="#28682E"/>
<path d="M43.8459 15.8368C43.435 16.2478 43.1472 17.1107 43.1472 17.686C43.1472 18.7955 43.1062 18.7955 40.3118 18.7955C38.7092 18.7955 37.3121 18.9599 37.1888 19.2064C37.0655 19.4119 36.3259 19.6174 35.5862 19.6174C33.5315 19.6174 26.7102 21.4666 24.3679 22.6172C22.1077 23.7678 19.7654 26.1512 18.5327 28.5756C18.0807 29.4797 17.0533 32.3973 16.2315 35.0684C14.2179 41.7665 13.2728 44.0265 11.9989 45.136C11.3825 45.6704 11.0127 45.9579 11.1771 45.7524C11.6702 45.1773 10.725 43.8622 9.86207 43.8622C9.41003 43.8622 8.71148 44.232 8.30053 44.6841C7.60197 45.4238 7.35541 45.4648 6.45135 45.054C4.972 44.3963 2.7119 45.0127 2.54753 46.1635C2.42425 47.1084 4.27344 48.9989 5.75279 49.3687L6.7801 49.6563L5.75279 49.0399C5.13639 48.6701 4.972 48.4235 5.34184 48.4235C6.16371 48.4235 7.60197 49.533 7.23213 49.9028C7.06774 50.0671 6.20479 50.1494 5.30076 50.0671C3.41049 49.9438 2.46534 50.5602 2.46534 51.8343C2.46534 52.9438 1.72567 53.7245 0.657254 53.7245C-0.123511 53.7245 -0.123511 53.7655 0.492883 54.3819C1.31474 55.2448 2.6708 54.5874 3.04064 53.1491C3.28721 52.1628 4.88984 51.1766 7.06774 50.6425L8.21836 50.355L7.60197 51.8343C6.90338 53.4369 6.7801 54.9573 7.35541 54.2999C7.56085 54.0943 7.93069 53.2314 8.21836 52.3684L8.71148 50.8481L9.94426 51.711C10.6428 52.2041 11.4647 53.1904 11.7934 53.8887C12.1222 54.5874 12.2866 54.793 12.2044 54.2999C12.04 53.4779 12.1633 53.4369 13.807 53.6422C16.1904 53.8887 16.1493 53.1491 13.7659 52.4917C12.0811 52.0396 11.0949 51.1356 11.0949 50.1494C11.0949 49.9438 11.7523 49.4507 12.5331 49.0399C14.5467 47.9304 14.3412 47.355 12.2866 48.3825C11.3825 48.8756 10.3963 49.1632 10.1497 49.0809C9.86207 48.9989 9.32787 49.1632 8.95803 49.533C8.506 49.9028 8.21836 49.9851 8.21836 49.6973C8.21836 49.4097 9.1224 48.7523 10.1908 48.2179C11.2592 47.6838 14.259 45.9989 16.8479 44.4786L21.5735 41.6842L28.0251 40.9445C38.7092 39.753 50.3386 39.2186 60.9816 39.4651L70.7616 39.7117L74.9531 42.0953C77.2134 43.4101 79.72 45.0127 80.4596 45.6704L81.8157 46.8619L80.9528 47.6428C80.5006 48.0537 79.8432 49.0809 79.5144 49.8619C79.1036 50.8481 78.4462 51.4645 77.4187 51.9163C75.6928 52.656 75.9806 53.3546 78.0764 53.4369C79.72 53.5189 80.9118 52.1628 81.035 49.9438C81.117 49.1222 81.2403 48.5468 81.3226 48.6291C81.4049 48.711 81.7334 48.5878 82.0623 48.3412C82.7609 47.7248 82.7609 48.1769 81.98 50.6835C81.2403 53.0671 81.1993 53.6422 81.8157 53.0258C82.0213 52.8205 82.5554 51.5055 82.9662 50.1904C83.9114 46.9442 84.8977 46.8619 86.1305 49.9438C87.24 52.7792 87.6921 53.1491 86.9111 50.6425C86.5826 49.533 86.418 48.5468 86.5003 48.4645C86.5826 48.3825 87.24 48.9576 87.9387 49.7796C89.459 51.5055 91.3492 51.752 92.9108 50.4369L93.897 49.6563L92.0478 49.6153C90.5685 49.6153 89.9931 49.3687 88.8836 48.3002L87.5275 46.9851L88.7603 46.492C90.6095 45.7114 91.5547 42.5884 90.1577 42.054C89.459 41.7665 86.418 43.3281 85.5141 44.4376C85.0619 44.9717 84.8567 44.8894 83.8705 43.7389C83.2541 42.9992 82.5144 42.054 82.2265 41.6022C81.7747 40.8212 81.7334 40.8212 81.98 41.6842C82.1855 42.4651 82.0623 42.6294 81.2816 42.6294C80.7472 42.6294 80.0898 42.835 79.8433 43.0815C79.4734 43.4514 78.816 43.1635 77.2954 42.013C76.1449 41.191 75.1996 40.4514 75.1996 40.3694C75.1996 40.2871 75.9806 40.3281 76.9669 40.4104C78.2406 40.4927 78.0764 40.4104 76.1449 39.9996C74.0082 39.5474 72.8987 38.931 68.9537 36.0133C62.5019 31.2468 58.1462 27.7538 58.2695 27.5072C58.516 26.973 70.5564 27.7538 73.3505 28.4935C74.0901 28.6578 74.0901 28.6578 73.4737 28.2469C72.6521 27.7538 68.4193 27.1785 61.2282 26.6032C56.5026 26.2333 56.5436 26.2333 63.2829 26.3977C68.6659 26.521 70.5151 26.6854 72.3232 27.3428C73.556 27.7538 74.5833 28.288 74.5833 28.4935C74.6245 28.6989 75.2819 29.5619 76.0626 30.3837C77.2544 31.6986 77.501 31.7809 77.501 31.0822C77.501 29.8084 74.7065 27.5483 72.241 26.8086C70.2275 26.1923 62.2554 25.4115 57.2832 25.3704C55.3108 25.3704 55.0232 25.206 52.0233 22.6583C50.2564 21.1789 48.736 20.0283 48.6537 20.1516C48.5305 20.2338 49.7223 21.4666 51.2426 22.8637C52.7629 24.2198 53.8314 25.3704 53.6259 25.3704C53.4206 25.3704 51.9823 24.1376 50.4619 22.6172C48.9003 21.0967 47.6675 20.0283 47.6675 20.2749C47.6675 20.4803 48.6947 21.672 49.9275 22.9048L52.2288 25.1649L50.6672 25.4526C49.8042 25.6169 47.6675 25.7402 45.9416 25.7402L42.7774 25.7813L44.38 23.439C45.9826 21.1789 46.4347 20.1516 45.6128 20.6447C45.4075 20.768 45.2019 20.6447 45.2019 20.3571C45.2019 20.0694 43.8459 21.2611 42.2432 22.987L39.2436 26.1101L34.6823 26.3566C25.1486 26.8908 20.3408 29.3153 17.6286 35.0271C16.1082 38.1914 16.1082 37.575 17.6697 32.9314C20.3408 25.0005 23.546 22.5761 33.8193 20.5625C39.1613 19.5352 62.8308 19.5352 67.1046 20.5625C70.7616 21.4666 72.6521 22.4939 74.5013 24.5074C76.1449 26.3155 78.2406 30.1372 77.8708 30.6714C77.7885 30.8769 77.9531 31.7399 78.3229 32.6028C78.6927 33.4658 78.898 34.6573 78.816 35.315C78.6927 36.1779 78.7337 36.3422 79.1446 36.0133C79.5144 35.7258 79.761 35.9723 80.1308 37.0819C80.4186 37.9038 80.7062 38.5202 80.7885 38.4379C81.1583 38.0681 77.501 27.8771 76.3505 26.1101C73.0219 20.8502 69.2413 19.5763 55.3108 18.9599C48.9413 18.7133 48.4895 18.6312 48.6947 17.9326C49.0646 16.8231 47.1744 15.0972 45.6951 15.0972C45.0377 15.0972 44.2157 15.4259 43.8459 15.8368ZM46.0649 16.6998C46.558 17.1518 46.8046 17.686 46.6403 17.9326C46.2292 18.6312 45.6128 18.4668 45.6128 17.6449C45.6128 17.1107 45.5308 17.0696 45.2429 17.4805C44.9554 17.9326 44.8321 17.8915 44.6265 17.3573C44.38 16.6998 44.6265 15.919 45.0377 15.919C45.1609 15.919 45.6128 16.2889 46.0649 16.6998ZM44.5855 18.3846C44.7088 18.5901 44.6265 18.7955 44.4213 18.7955C44.1747 18.7955 43.9692 18.5901 43.9692 18.3846C43.9692 18.1381 44.0514 17.9737 44.1334 17.9737C44.2567 17.9737 44.4623 18.1381 44.5855 18.3846ZM48.0783 18.3846C48.0783 18.5901 47.9141 18.7955 47.6675 18.7955C47.4619 18.7955 47.2567 18.5901 47.2567 18.3846C47.2567 18.1381 47.4619 17.9737 47.6675 17.9737C47.9141 17.9737 48.0783 18.1381 48.0783 18.3846ZM43.5583 23.5212C42.6131 24.754 41.5859 25.7813 41.257 25.7813C40.9282 25.7813 41.1337 25.3293 41.7911 24.6307C42.3665 24.0143 43.3118 22.9048 43.8869 22.1651C44.4213 21.4255 44.9964 20.9323 45.1196 21.0145C45.2429 21.1378 44.5446 22.2473 43.5583 23.5212ZM51.4891 26.4799C50.2974 26.5621 48.2839 26.5621 46.9688 26.4799C45.6541 26.3977 46.6403 26.3566 49.1059 26.3566C51.6124 26.3566 52.6809 26.3977 51.4891 26.4799ZM38.0108 26.9319C37.7642 27.1374 35.3806 27.5072 32.6275 27.7538C26.9567 28.288 24.6966 29.0277 21.6557 31.2468L19.5189 32.8081L21.0804 31.37C24.3679 28.4113 27.1211 27.6305 37.8052 26.6443C38.1341 26.6443 38.216 26.7264 38.0108 26.9319ZM40.5583 26.8497C40.4351 26.973 40.0652 27.0141 39.7777 26.8908C39.4488 26.7676 39.5721 26.6443 40.0242 26.6443C40.4764 26.6032 40.7229 26.7264 40.5583 26.8497ZM43.6816 26.8908C43.3937 26.973 42.8187 26.973 42.4488 26.8908C42.0377 26.7676 42.2842 26.6854 42.9419 26.6854C43.6403 26.6854 43.9282 26.7676 43.6816 26.8908ZM62.6665 32.1507C65.6252 34.452 68.9947 36.9176 70.2275 37.6982C71.4603 38.4789 72.241 39.1776 71.9944 39.2599C71.1728 39.5064 55.8862 28.2058 55.8862 27.3428C55.8862 26.8908 55.8862 26.8908 62.6665 32.1507ZM57.2423 29.6441C59.4613 31.5343 66.6114 36.9586 68.8714 38.3969C69.4878 38.7668 67.5154 38.8078 59.9954 38.6435C50.0098 38.4379 39.5311 39.0133 28.8059 40.4104C26.0527 40.7392 23.6282 40.9858 23.4227 40.9035C23.2172 40.8212 24.2857 40.0405 25.8061 39.1776C29.5456 36.9586 36.2849 32.0684 39.038 29.5208L41.298 27.4661L47.9964 27.425H54.7354L57.2423 29.6441ZM36.5314 28.4935C35.3806 29.8906 25.3541 36.8353 19.1491 40.5747L17.5464 41.5609L17.793 39.6297C18.4094 35.2737 21.9023 31.0002 26.0116 29.6441C27.2033 29.2331 29.9976 28.6989 32.2577 28.4113C34.5177 28.1647 36.5314 27.9182 36.7367 27.8771C36.9423 27.8771 36.819 28.1236 36.5314 28.4935ZM37.1888 30.1783C34.641 32.5205 26.7923 37.8625 18.4094 42.9582C15.7794 44.5609 13.1495 46.1635 12.492 46.5743C11.3825 47.314 11.3825 47.314 11.8756 46.4101C12.1222 45.9169 12.7386 45.3005 13.1906 45.054C13.6426 44.8074 13.9303 44.5196 13.807 44.3963C13.6837 44.273 13.8892 43.6156 14.259 42.917C14.5877 42.2186 15.2452 40.6979 15.6562 39.5884C16.1082 38.4379 16.3958 37.9858 16.3136 38.6022C16.2315 39.2186 16.3136 39.6297 16.478 39.5064C16.6835 39.3832 16.8479 38.972 16.8479 38.6022C16.8479 37.6982 18.6971 33.7943 19.2312 33.4245C19.4778 33.2602 19.1902 33.9999 18.6149 35.0684C17.8341 36.4245 17.5464 37.616 17.5053 39.2599C17.4643 41.5199 17.4231 41.6432 15.6972 42.7937C14.7521 43.4514 14.0125 44.0265 14.0946 44.1497C14.5877 44.6019 33.5728 32.1917 36.778 29.3153C39.4901 26.9319 39.86 27.6716 37.1888 30.1783ZM76.4737 29.7673L77.46 30.9179L76.2272 29.8906C75.5695 29.3153 74.9121 28.8222 74.8298 28.74C74.7478 28.6989 74.8298 28.6578 75.0764 28.6578C75.2819 28.6578 75.8983 29.1509 76.4737 29.7673ZM75.3229 41.191C77.0488 42.3828 77.4187 43.0815 75.7341 42.013C73.4737 40.5337 72.9806 40.1638 73.3505 40.1638C73.597 40.1638 74.46 40.616 75.3229 41.191ZM78.898 43.6979C78.898 43.7799 78.5282 43.6979 78.0764 43.4514C77.6242 43.2048 77.2544 42.9169 77.2544 42.7937C77.2544 42.7117 77.6242 42.7937 78.0764 43.0402C78.5282 43.2868 78.898 43.5746 78.898 43.6979ZM89.9931 43.0402C89.9931 43.2458 89.8288 43.4514 89.5823 43.4514C89.3767 43.4514 89.1714 43.2458 89.1714 43.0402C89.1714 42.7937 89.3767 42.6294 89.5823 42.6294C89.8288 42.6294 89.9931 42.7937 89.9931 43.0402ZM83.0075 44.0678C83.336 44.4376 83.3773 44.6841 83.0895 44.6841C82.8429 44.6841 82.5144 44.4786 82.3498 44.232C82.2265 43.9855 81.7334 43.8622 81.3226 43.9855C80.8705 44.1087 80.5419 44.0265 80.5419 43.8212C80.5419 43.2048 82.4731 43.4101 83.0075 44.0678ZM89.5823 44.191C89.5823 44.9307 87.9796 45.9579 86.5003 46.2045C85.3085 46.41 85.021 46.3278 85.2675 45.9579C86.0482 44.6841 89.5823 43.2458 89.5823 44.191ZM10.6839 45.2592C10.6839 45.6291 10.273 45.7937 9.65659 45.7524C8.62928 45.7114 8.38272 45.4648 8.91692 44.9717C9.41003 44.4786 10.6839 44.6841 10.6839 45.2592ZM6.82118 46.0812C7.23213 46.4101 7.51977 46.7799 7.39649 46.8619C7.27321 46.9851 6.73902 46.7386 6.20479 46.2868C5.09528 45.3825 5.5884 45.2183 6.82118 46.0812ZM6.16371 47.355C7.27321 48.5058 7.19102 48.5468 5.38295 47.9304C4.68436 47.6838 4.10905 47.2317 4.10905 46.9032C4.10905 45.9989 5.09528 46.2045 6.16371 47.355ZM9.86207 46.6153C9.86207 46.8209 9.57443 47.314 9.24567 47.7248C8.62928 48.5468 8.62928 48.5468 8.62928 47.7248C8.62928 47.2317 8.75256 46.7386 8.91692 46.6153C9.28676 46.2455 9.86207 46.2455 9.86207 46.6153ZM83.2128 46.7386C83.336 46.9851 83.1718 47.0264 82.8429 46.9032C82.1033 46.6153 81.98 46.3278 82.5554 46.3278C82.8019 46.3278 83.0895 46.492 83.2128 46.7386ZM87.9796 48.5878C88.7603 49.3687 89.5823 50.0261 89.8698 50.0261C90.1164 50.0261 90.4862 50.1904 90.6095 50.4369C91.1439 51.3412 89.9111 50.7658 88.4728 49.492C87.6098 48.711 86.5413 47.8894 86.0895 47.6428C85.4318 47.273 85.3908 47.1907 85.9662 47.1497C86.336 47.1497 87.24 47.8071 87.9796 48.5878ZM10.273 50.4369C10.6839 51.2179 10.6839 51.2589 9.90315 50.7658C9.45115 50.5192 9.20459 50.1084 9.28676 49.9438C9.61551 49.4507 9.77987 49.533 10.273 50.4369ZM80.0488 51.5465C79.761 52.2042 79.1036 52.7383 78.6105 52.8205C77.7475 52.9438 77.7885 52.8205 79.0213 51.5878C79.72 50.8481 80.4187 50.2727 80.4596 50.3137C80.5419 50.355 80.3774 50.8891 80.0488 51.5465ZM4.27344 51.0124C3.86249 51.3412 3.41049 51.5055 3.28721 51.4232C3.08174 51.1766 4.15016 50.4369 4.68436 50.4369C4.93092 50.4369 4.72544 50.6835 4.27344 51.0124Z" fill="#28682E"/>
<path d="M77.7065 32.7676C77.7065 33.0961 77.8708 33.7538 78.0764 34.2056C78.2816 34.74 78.4462 34.781 78.4462 34.4112C78.4462 34.0823 78.2816 33.4249 78.0764 32.9728C77.8708 32.4387 77.7065 32.3977 77.7065 32.7676Z" fill="#28682E"/>
<path d="M78.9398 37.945C78.9398 38.3971 79.063 38.5204 79.1863 38.1916C79.3096 37.904 79.2683 37.5342 79.145 37.4109C79.0217 37.2466 78.8985 37.4932 78.9398 37.945Z" fill="#28682E"/>
<path d="M80.9526 39.1365C80.9526 39.3418 81.1582 39.8349 81.3635 40.1637C81.569 40.4926 81.7746 40.5746 81.7746 40.3693C81.7746 40.1228 81.569 39.6706 81.3635 39.3418C81.1582 39.0132 80.9526 38.89 80.9526 39.1365Z" fill="#28682E"/>
<path d="M39.49 47.2321C39.2847 47.7662 38.9968 48.5058 38.8736 48.8757C38.7503 49.2868 38.4217 49.6154 38.1752 49.6154C37.7231 49.6154 37.8054 48.958 38.4217 47.4376C38.9968 46.0816 37.3942 46.698 36.7778 48.054C36.326 49.0403 36.2027 49.2045 36.1614 48.5881C36.1204 47.8485 36.0382 47.8895 35.2985 48.8757C34.3945 50.1085 33.3673 50.355 32.5454 49.5334C32.1755 49.1635 32.0522 49.1635 32.0522 49.5334C32.0522 50.2317 34.0657 50.9714 34.6821 50.5196C34.9286 50.314 35.6273 50.0265 36.2437 49.9442C37.4765 49.6976 38.1752 50.6839 37.3532 51.4235C36.9834 51.7524 36.9424 51.6701 37.1477 51.0537C37.3942 50.3963 37.3532 50.314 36.9424 50.7249C36.5313 51.136 36.5313 51.3826 36.8601 51.7111C37.3942 52.2455 38.2162 51.8757 38.2162 51.0537C38.2162 50.1498 39.3257 50.0265 40.1063 50.8894C40.4762 51.3003 41.0926 51.6701 41.4624 51.6701C41.8736 51.6701 41.7503 51.4645 41.0926 51.136C39.9421 50.5606 39.7778 49.4511 40.5995 48.095C41.1749 47.1911 40.9693 46.3281 40.2296 46.3281C40.0244 46.3281 39.6955 46.739 39.49 47.2321Z" fill="#28682E"/>
<path d="M57.3248 47.1499C57.4481 47.3552 57.8179 47.5607 58.1464 47.5607C58.4753 47.5607 58.8451 47.3552 58.9684 47.1499C59.1327 46.9033 58.7628 46.7388 58.1464 46.7388C57.53 46.7388 57.1602 46.9033 57.3248 47.1499Z" fill="#28682E"/>
<path d="M48.7359 47.5198C48.6126 47.6841 48.0372 47.7663 47.4618 47.6431C46.5169 47.4788 46.4346 47.5608 46.4346 49.1634C46.4346 50.0676 46.6401 50.8483 46.8454 50.8483C47.092 50.8483 47.2565 50.3962 47.2565 49.8621C47.2565 49.2867 47.4618 48.7116 47.6674 48.5883C47.9139 48.465 48.0782 48.547 48.0782 48.7526C48.0782 48.9991 48.2837 49.2047 48.4893 49.2047C48.7359 49.2047 48.8592 48.9991 48.8179 48.7116C48.7359 48.465 49.0234 48.1362 49.4342 48.0539C49.8864 47.9719 50.1329 48.1772 50.1739 48.6703C50.1739 49.1224 50.2972 49.2047 50.4205 48.8759C50.7903 47.9306 49.27 46.6568 48.7359 47.5198Z" fill="#28682E"/>
<path d="M63.2831 47.8485C63.2831 48.8757 62.5022 49.6154 61.4749 49.6154C60.7763 49.6154 60.7353 49.5331 61.2284 49.2046C62.2146 48.5882 61.3517 48.2593 60.0366 48.7934C59.3382 49.0813 58.393 49.1633 57.8589 48.958C56.4205 48.5059 54.2425 48.4649 54.2425 48.8757C54.2425 49.3688 52.4756 49.1223 52.1058 48.6291C51.8592 48.2593 50.1743 49.8619 50.1333 50.4373C50.1333 50.7249 51.7769 50.6426 52.5989 50.3141C54.2425 49.6564 57.3245 49.2865 57.8176 49.6977C58.1054 49.9442 58.7628 50.0262 59.2559 49.9029C59.79 49.7387 60.4477 49.8209 60.7763 49.9852C61.0641 50.1908 61.8448 50.1908 62.5022 50.0262C63.3241 49.7796 63.7762 49.8619 64.1461 50.2728C64.7212 50.9714 65.9953 51.0124 66.4061 50.396C66.5704 50.1085 66.4471 49.9852 66.1185 50.1085C65.1733 50.4783 64.1048 49.6564 64.1048 48.5882C64.1048 48.0537 63.9405 47.4787 63.694 47.3554C63.4884 47.2321 63.2831 47.4374 63.2831 47.8485Z" fill="#28682E"/>
<path d="M29.9564 48.136L30.9428 48.6701L29.8743 49.4097C28.6415 50.1904 28.436 51.1766 29.3811 51.5465C30.2441 51.8753 31.6411 50.5192 31.6411 49.3687C31.6411 48.8756 31.7644 48.3825 31.97 48.2592C32.1343 48.1769 32.0523 48.1769 31.7644 48.2179C31.4769 48.3002 31.148 48.1769 31.0248 47.9714C30.8605 47.7248 30.3674 47.5605 29.8743 47.5605C28.9702 47.6015 28.9702 47.6015 29.9564 48.136ZM30.8194 49.9851C30.8194 50.4782 29.9975 51.0124 29.7099 50.7248C29.4223 50.437 29.9564 49.6153 30.4496 49.6153C30.655 49.6153 30.8194 49.7796 30.8194 49.9851Z" fill="#28682E"/>
<path d="M81.0352 54.5465C79.7614 56.5599 80.83 59.9707 83.131 61.2035C84.1995 61.7376 86.4185 61.7376 87.528 61.1212C88.3087 60.7104 88.35 60.8337 88.35 66.0524V71.3947L85.1857 71.4766C83.4188 71.5589 80.6244 71.5589 78.9808 71.4766C76.7205 71.3947 76.0221 71.4766 76.2686 71.8465C76.4739 72.2163 78.1588 72.2576 82.4736 72.093C85.7198 71.9698 88.4732 71.8055 88.5552 71.7232C88.6375 71.6412 88.7608 69.0111 88.8018 65.8471C88.8841 61.9842 89.0896 59.8065 89.4595 59.272C90.3634 57.916 90.1168 56.0258 88.8841 54.9163L87.7745 53.9301L88.6785 55.1219C89.8293 56.6012 89.8293 57.834 88.7198 59.2311C87.487 60.7927 87.1172 60.5461 88.0211 58.697C88.925 56.8478 88.5965 55.697 86.9939 54.9573L86.0896 54.5055L87.0349 55.2039C87.569 55.615 87.9388 56.3134 87.9388 56.9711C87.9388 58.2448 86.6241 60.3816 85.5965 60.7514C84.487 61.1625 82.8024 60.094 82.186 58.6557C81.4873 56.9711 82.1447 55.5327 83.9529 54.752L85.268 54.1766L84.1585 54.1356C83.5008 54.1356 82.6378 54.5055 82.186 54.9573L81.3231 55.8202L81.6106 54.752C81.8982 53.5193 81.7339 53.437 81.0352 54.5465Z" fill="#28682E"/>
<path d="M34.9289 55.8615C34.9699 56.6011 35.2165 58.4503 35.504 59.9707L36.0384 62.7651H25.1487C14.9577 62.7651 14.3002 62.7238 14.5879 62.0254C15.2043 60.628 15.2864 58.6556 14.7522 57.4641C14.4646 56.8064 14.0537 56.3546 13.8893 56.4366C13.7249 56.5598 13.1085 56.3546 12.5743 55.9847C11.999 55.6149 11.2182 55.3683 10.8073 55.4916C10.1909 55.6559 10.1909 55.6969 10.9306 55.7382C12.1634 55.8202 13.2729 57.2175 13.2729 58.7379C13.2729 61.2444 10.0266 62.8061 7.88972 61.2857C6.78021 60.5461 6.61585 57.8339 7.60208 57.012C7.97191 56.7244 8.13627 56.3956 8.013 56.2723C7.43772 55.6969 6.16382 57.6693 6.16382 59.1077C6.16382 62.847 11.5881 64.1211 13.3551 60.7513C13.6838 60.0529 13.9715 59.1487 13.9715 58.6556C13.9715 58.1625 14.1769 57.9159 14.3824 58.0392C15.6152 58.8201 14.218 62.3952 12.3278 63.3815C8.79378 65.1893 4.80775 62.3539 5.50634 58.4913C5.6707 57.7106 6.04054 56.8887 6.36929 56.6011C6.69804 56.3133 6.98568 55.9025 6.98568 55.6559C6.98568 54.8339 5.38306 56.7244 4.93103 58.0805C3.57496 62.1487 8.21847 66.0113 12.1634 64.1621C13.6427 63.4634 15.7385 63.4225 43.1473 63.3402C59.2968 63.2992 74.0902 63.0936 76.0217 62.8883C78.4873 62.6418 74.9532 62.5595 64.3102 62.6005C50.8729 62.6828 49.7634 62.6418 54.7768 62.272L60.4063 61.8608V58.5736C60.4063 56.5188 60.242 55.4093 59.9955 55.5736C59.7489 55.7382 59.6666 56.9297 59.8312 58.6146L60.1188 61.409L53.8316 61.6556C50.3798 61.8198 45.0788 61.9431 42.0378 61.9431H36.5725V58.9434V55.9847L39.3257 56.149C43.6817 56.3546 59.4201 55.6559 56.708 55.3271C54.5712 55.1218 54.6535 55.0805 57.8175 55.0395L61.1873 54.9572L61.3516 58.5323L61.4748 62.1487V58.4503L61.4338 54.752L48.2017 54.6287L34.9289 54.5464V55.8615ZM37.1066 55.2451C36.8191 55.327 36.326 55.327 36.0794 55.2451C35.7919 55.1218 35.9971 55.0395 36.5725 55.0395C37.1479 55.0395 37.3532 55.1218 37.1066 55.2451Z" fill="#28682E"/>
<path d="M81.692 62.231C81.9385 62.3129 82.4317 62.3129 82.7195 62.231C82.9661 62.1077 82.7605 62.0254 82.1851 62.0254C81.61 62.0254 81.4044 62.1077 81.692 62.231Z" fill="#28682E"/>
<path d="M6.86231 65.1072C6.69794 65.2305 6.57467 66.8331 6.57467 68.6C6.57467 71.3121 6.45139 71.8875 5.87608 72.1341C4.64329 72.5859 8.34165 72.9557 14.6289 72.997L20.423 73.038L20.6695 75.1747C20.9572 77.5993 21.6969 78.5856 22.9296 78.2157C24.2035 77.8049 24.7788 75.4626 24.5734 71.5177C24.409 68.8055 24.2446 67.9426 23.5871 67.3672C23.1762 66.9974 23.0529 66.9564 23.3406 67.2439C23.957 67.9836 24.0392 74.9282 23.4228 76.4898C23.0118 77.6403 21.9845 77.9282 21.6557 76.9829C21.5325 76.6541 21.4092 74.5996 21.4092 72.3806C21.4092 70.2026 21.327 68.3124 21.2037 68.2301C21.1216 68.1069 20.9161 69.0108 20.7517 70.2436L20.4641 72.4216L14.259 72.2983C10.8072 72.2161 7.80745 72.0928 7.51981 72.0108C7.14998 71.8875 7.10886 70.9013 7.27326 68.3124C7.51981 64.9426 7.43762 64.4908 6.86231 65.1072Z" fill="#28682E"/>
<path d="M71.9946 67.3676C71.6661 67.6965 71.5428 69.0112 71.5838 70.9427L71.6661 74.0657L71.8713 71.025C72.2824 65.6007 73.9671 67.1621 73.9671 72.9975C73.9671 75.3807 73.8028 76.367 73.3507 76.7368C72.8166 77.1889 72.611 77.1476 72.1179 76.4902C71.5428 75.7506 71.5015 75.7506 71.8303 76.6958C72.3234 78.0929 72.9398 78.1752 73.9671 77.1476C74.789 76.326 74.8713 75.9148 74.7067 72.2165C74.5425 68.2716 74.0903 66.8745 72.9808 66.8745C72.6933 66.8745 72.2824 67.0801 71.9946 67.3676Z" fill="#28682E"/>
<path d="M89.1715 70.8193C89.1715 71.0659 89.3771 71.4357 89.6236 71.6823C89.8702 71.9288 90.0754 73.0383 90.0754 74.1478C89.9934 77.1888 89.7469 77.2711 81.5692 77.0245C73.9672 76.819 75.1587 77.2711 83.4184 77.7642C88.3085 78.0108 88.6374 78.0108 89.7056 77.1478C90.6508 76.3668 90.8151 75.956 90.8151 74.1068C90.8151 72.4632 90.6098 71.7645 89.9935 71.1891C89.5413 70.7783 89.1715 70.614 89.1715 70.8193Z" fill="#28682E"/>
<path d="M26.2996 72.2163C25.7243 72.3806 34.888 72.5452 46.6405 72.5039C59.2562 72.5039 66.0775 72.3806 63.2831 72.2163C56.7084 71.8055 27.5324 71.8055 26.2996 72.2163Z" fill="#28682E"/>
<path d="M3.73953 75.1751C3.69842 78.8324 4.64357 79.3665 10.4787 79.161C12.4101 79.079 13.9717 79.161 13.9717 79.3665C13.9717 79.5308 14.8346 79.5721 15.9441 79.3665C17.0125 79.2023 18.6973 78.9557 19.7246 78.7911C20.8342 78.6269 18.2864 78.4626 13.5607 78.4213C7.88989 78.3803 5.34216 78.216 5.0134 77.8872C4.72576 77.5996 4.52029 76.7367 4.47921 75.9147C4.47921 75.1341 4.31481 74.1065 4.10937 73.6547C3.86281 73.0793 3.73953 73.4901 3.73953 75.1751Z" fill="#28682E"/>
<path d="M81.3638 75.0928C81.3638 75.298 81.5693 75.5036 81.7746 75.5036C82.0212 75.5036 82.1857 75.298 82.1857 75.0928C82.1857 74.8462 82.0212 74.6816 81.7746 74.6816C81.5693 74.6816 81.3638 74.8462 81.3638 75.0928Z" fill="#28682E"/>
<path d="M39.0792 75.7095C39.2848 76.7367 40.6818 77.0655 40.6818 76.0793C40.6818 75.6682 40.5585 75.5039 40.3943 75.6272C40.271 75.7914 39.8599 75.6682 39.5313 75.4216C39.0382 75.0108 38.9559 75.0518 39.0792 75.7095Z" fill="#28682E"/>
<path d="M54.8586 75.463C54.5711 75.7506 55.1052 76.326 55.6806 76.326C55.9681 76.326 56.297 76.0794 56.4202 75.7919C56.5845 75.2988 55.2694 75.0109 54.8586 75.463Z" fill="#28682E"/>
<path d="M12.3276 76.1203C12.3276 76.4491 12.6153 76.7367 12.9851 76.7367C13.5604 76.7367 13.5604 76.6134 13.1495 76.1203C12.8618 75.7915 12.5742 75.5039 12.492 75.5039C12.4098 75.5039 12.3276 75.7915 12.3276 76.1203Z" fill="#28682E"/>
<path d="M26.5047 78.3804C31.025 79.2021 47.8319 79.6132 59.1735 79.2021C65.3374 78.9968 70.4329 78.7503 70.5151 78.709C70.5561 78.627 63.7348 78.5857 55.3519 78.5857C46.9279 78.5857 36.5725 78.4624 32.2578 78.2982C27.2444 78.1339 25.1897 78.1749 26.5047 78.3804Z" fill="#28682E"/>
<path d="M76.0215 81.75V85.7359L77.3775 86.7631C79.6376 88.489 82.473 88.0372 83.6238 85.7769C84.5277 84.051 85.1441 80.1061 84.651 79.2431C84.3221 78.668 84.2812 78.668 84.2402 79.3254C84.2402 79.9008 84.0756 79.9828 83.4182 79.613C82.7195 79.2431 82.5553 79.3664 82.2264 80.5172C81.9389 81.5444 81.8566 81.6677 81.8156 80.928C81.7746 80.4349 81.61 80.0241 81.3635 80.0241C80.4185 80.0241 81.0759 79.2844 82.3087 78.9556C83.4592 78.668 83.3359 78.5858 81.0349 78.4625C79.391 78.3802 78.1995 78.5448 77.8297 78.8323C77.3366 79.2431 77.09 79.1612 76.6379 78.5448C76.1038 77.8461 76.0625 78.1749 76.0215 81.75ZM80.1307 80.5172C80.1307 81.5444 80.0074 81.7087 79.7198 81.2569C79.1857 80.4349 79.1857 79.2021 79.7198 79.2021C79.9664 79.2021 80.1307 79.8185 80.1307 80.5172ZM78.7746 83.3936C78.6926 83.9277 78.6103 83.5169 78.6103 82.4897C78.6103 81.4621 78.6926 81.0513 78.7746 81.5444C78.8569 82.0785 78.8569 82.9005 78.7746 83.3936ZM77.2543 84.3389C77.2543 84.6674 77.6651 85.2838 78.1582 85.7769C78.6513 86.229 78.8569 86.5989 78.6103 86.5989C78.1172 86.5989 76.4323 84.6674 76.4323 84.0923C76.4323 83.8867 76.6379 83.7225 76.8434 83.7225C77.09 83.7225 77.2543 84.01 77.2543 84.3389ZM79.9254 84.1333C80.0487 84.3389 79.9664 84.5441 79.7608 84.5441C79.5143 84.5441 79.309 84.3389 79.309 84.1333C79.309 83.8867 79.391 83.7225 79.4733 83.7225C79.5966 83.7225 79.8021 83.8867 79.9254 84.1333ZM81.7746 84.5441C81.7746 84.7497 81.61 84.9552 81.3635 84.9552C81.1582 84.9552 80.9526 84.7497 80.9526 84.5441C80.9526 84.2976 81.1582 84.1333 81.3635 84.1333C81.61 84.1333 81.7746 84.2976 81.7746 84.5441ZM83.3359 85.3661C83.0484 85.8182 82.5553 86.27 82.1854 86.3933C81.8566 86.5579 82.0211 86.188 82.5553 85.6126C83.7471 84.3389 84.0346 84.2566 83.3359 85.3661ZM81.6923 85.5716C81.7333 85.6126 81.3635 85.9825 80.8703 86.4346C80.3772 86.8454 80.1307 86.9687 80.2952 86.6812C80.4595 86.3933 80.3772 86.188 80.0074 86.188C79.6789 86.188 79.1857 85.9002 78.8979 85.5716C78.4871 85.0785 78.6513 85.0372 80.0074 85.2428C80.8703 85.3661 81.61 85.5303 81.6923 85.5716Z" fill="#28682E"/>
<path d="M12.0806 81.339C12.2861 86.599 12.2861 86.64 13.5188 87.8727C14.5462 88.859 15.0804 89.0645 16.7241 89.0645C17.9158 89.0645 19.1075 88.777 19.6828 88.4072C21.532 87.0921 22.3949 83.0649 21.2854 80.6406C20.8334 79.6131 20.1348 79.2432 20.1348 80.0242C20.1348 80.2295 19.8472 80.3118 19.4362 80.1475C18.8609 79.9009 18.8198 80.1475 19.0253 82.0377C19.2308 83.6403 19.1486 84.1334 18.7787 84.0101C18.4911 83.9278 18.2034 83.2295 18.0802 82.4898C17.9158 81.3803 17.7925 81.2157 17.4227 81.7088C17.135 82.0377 16.8474 82.654 16.7241 83.1062C16.6008 83.6813 16.5186 83.5993 16.4775 82.695C16.4364 81.0104 15.6968 81.8734 15.4913 83.9278C15.4091 85.0373 15.3269 84.6265 15.2859 82.7773C15.2447 81.1747 15.0393 80.0652 14.8338 80.2295C14.6283 80.3527 14.3407 80.2708 14.1763 80.0242C14.0531 79.8186 13.7243 79.6131 13.4778 79.6131C13.1901 79.6131 13.1079 80.6406 13.2723 82.7363C13.4367 85.2019 13.6832 86.0649 14.4229 86.8455C15.4913 87.996 17.135 88.1193 18.902 87.2154C20.5868 86.3524 20.4636 86.1059 18.6965 86.8455C17.9158 87.1331 17.0939 87.4209 16.8474 87.4209C16.1077 87.4209 16.3954 86.6813 17.2583 86.4757C17.7514 86.3524 18.0802 85.9003 18.0802 85.4072C18.0802 84.4622 18.8609 84.2567 19.6417 85.0373C20.0115 85.4072 20.1348 85.3252 20.1759 84.5032C20.217 83.517 20.217 83.517 20.6279 84.6675C21.532 87.2154 18.0802 89.3521 15.1215 88.1193C13.3545 87.3796 12.7381 85.777 12.7381 81.9554C12.7381 80.6816 12.5737 79.6131 12.3683 79.6131C12.2039 79.6131 12.0395 80.394 12.0806 81.339ZM14.7927 85.1606C14.7927 85.4895 14.7105 85.777 14.6283 85.777C14.5462 85.777 14.3818 85.4895 14.2174 85.1606C14.0942 84.8321 14.1763 84.5442 14.3818 84.5442C14.6283 84.5442 14.7927 84.8321 14.7927 85.1606ZM17.546 85.4485C17.4227 85.777 17.2994 85.6537 17.2994 85.2019C17.2583 84.7498 17.3816 84.5032 17.5049 84.6675C17.6282 84.7908 17.6692 85.1606 17.546 85.4485ZM15.8201 86.599C15.9433 86.8045 15.8611 87.0098 15.6557 87.0098C15.4091 87.0098 15.2037 86.8045 15.2037 86.599C15.2037 86.3524 15.2859 86.1881 15.368 86.1881C15.4913 86.1881 15.6968 86.3524 15.8201 86.599Z" fill="#28682E"/>
</g>
</g>
</g>
<defs>
<clipPath id="clip0_6_1024">
<rect width="94" height="89.06" fill="white"/>
</clipPath>
<clipPath id="clip1_6_1024">
<rect width="94" height="89.06" fill="white"/>
</clipPath>
<clipPath id="clip2_6_1024">
<rect width="94" height="89.0689" fill="white" transform="translate(0 -0.00439453)"/>
</clipPath>
</defs>
</svg>
