<svg width="166" height="200" viewBox="0 0 166 200" fill="none" xmlns="http://www.w3.org/2000/svg">
<g clip-path="url(#clip0_644_158)">
<path d="M78.9436 76.0459C80.0534 73.5951 80.9876 71.5214 81.9202 69.3858C88.3998 54.9342 96.2074 41.3758 107.172 29.7759C111.148 25.5693 115.19 21.4849 119.936 18.1873C124.865 14.7604 130.196 12.3769 136.326 11.9562C140.538 11.7136 144.35 12.7229 147.83 15.1066C155.803 20.6519 159.806 28.4183 160.202 38.0854C160.458 44.9646 159.532 51.7531 157.61 58.3834C149.172 87.0353 135.318 112.8 115.79 135.374C101.611 151.779 86.4751 167.281 70.5728 181.998C66.0989 186.156 61.687 190.313 57.2114 194.41C56.3042 195.242 55.3988 196.136 54.3641 196.847C52.2346 198.334 49.6947 198.468 48.8504 197.127C47.5547 195.178 48.6837 193.409 49.9489 192.07C52.9629 188.946 56.1027 185.879 59.3079 182.935C75.2224 168.652 89.9879 153.223 104.562 137.613C125.882 114.802 140.957 88.3212 150.358 58.6496C152.522 51.7643 153.689 44.7209 153.299 37.4732C152.936 31.2174 150.432 26.0144 145.666 21.9919C141.978 18.8076 137.793 17.8087 133.058 19.3069C128.077 20.874 123.684 23.4793 119.811 26.9385C106.857 38.4083 97.4479 52.384 90.1938 67.9742C87.5613 73.6319 84.9907 79.2878 83.1745 85.2948C82.9475 86.0457 82.6585 86.7983 82.3677 87.4889C81.6072 89.1234 80.5263 90.3946 78.5408 90.3885C76.5554 90.3823 75.4649 89.1102 74.7359 87.4556C73.4053 84.267 72.5069 81.0041 71.7291 77.6138C67.8589 61.3442 61.5955 46.0105 51.8387 32.2021C48.0897 26.8481 43.7329 21.9455 38.7117 17.682C35.8506 15.2189 32.6917 13.1984 29.1801 11.8704C21.8451 9.16095 16.4405 11.1123 12.6633 17.9809C9.5366 23.7146 8.22158 29.8936 7.90713 36.3546C7.47386 47.4099 9.44951 58.0873 13.1539 68.4678C20.0249 87.7549 29.222 105.922 39.5828 123.56C44.3403 131.677 50.5558 138.699 57.6166 144.89C58.8258 145.973 60.9666 147.091 59.4072 148.997C57.7893 151.027 56.3644 148.896 55.1587 147.937C46.5875 140.982 39.4089 132.809 33.685 123.416C24.0566 107.556 15.2839 91.2385 8.22423 74.0661C3.02771 61.37 0.11439 48.2375 1.02705 34.3769C1.61215 28.7148 2.82413 23.2832 4.90922 18.0131C5.778 15.8172 6.96198 13.7986 8.33542 11.8988C13.3507 4.93318 20.1086 2.57154 28.411 4.38515C34.2163 5.64866 39.0201 8.80155 43.4694 12.5848C51.4137 19.3097 57.6607 27.4472 62.8765 36.4203C69.264 47.3456 74.1209 58.9965 77.1355 71.3197C77.5493 72.797 77.7169 74.3433 78.9436 76.0459Z" fill="#325243"/>
</g>
<defs>
<clipPath id="clip0_644_158">
<rect width="160" height="194.977" fill="white" transform="translate(0 4.50244) rotate(-1.61245)"/>
</clipPath>
</defs>
</svg>
