<svg width="132" height="95" viewBox="0 0 132 95" fill="none" xmlns="http://www.w3.org/2000/svg">
<path d="M118.627 1.74528C116.978 3.96478 116.091 6.97251 115.678 11.7434C115.512 13.6932 115.307 15.7053 115.183 16.2239C114.811 18.1115 114.729 22.3016 114.976 29.3957C115.203 36.3446 115.244 37.6306 115.492 40.7213C115.637 42.7335 115.78 43.2727 116.338 43.9158C116.668 44.3099 116.833 44.7663 116.854 45.347C116.874 46.6954 116.998 47.3383 117.307 47.8362C117.493 48.1058 117.575 48.5414 117.514 48.8941C117.39 49.4541 117.41 49.4748 117.988 49.3089C119.122 49.0185 120.794 48.9563 121.021 49.1845C121.453 49.6201 120.814 49.869 119.226 49.9105C117.369 49.952 117.039 50.1386 118.463 50.3461C119.04 50.429 119.514 50.5743 119.514 50.6573C119.514 50.9269 118.772 51.0928 118.215 50.9684C117.905 50.8854 117.637 50.9269 117.555 51.0721C117.287 51.5285 117.761 51.6529 118.896 51.4663C120.072 51.2795 120.752 51.3625 120.752 51.7152C120.752 51.8189 120.545 51.8603 120.298 51.7981C120.03 51.7566 119.267 51.8189 118.586 51.964C117.39 52.2129 117.349 52.2337 117.246 52.939C117.183 53.333 117.205 53.9346 117.328 54.2665C117.493 54.8058 117.205 70.2386 116.936 75.1339C116.895 75.9844 116.792 77.8513 116.709 79.2825L116.565 81.8754L117.761 83.6386C119.287 85.8788 119.494 86.1277 119.968 86.1277C120.958 86.1277 122.299 84.4476 122.629 82.7466C122.98 81.0042 122.774 72.5203 122.299 68.5169C122.238 68.1228 122.093 66.4012 121.97 64.6795C121.845 62.9578 121.721 61.5058 121.68 61.4229C121.618 61.3606 121.577 59.5975 121.577 57.5024C121.557 55.4282 121.494 53.582 121.433 53.4367C121.267 53.0012 119.989 52.6693 118.978 52.8353C118.236 52.939 118.07 52.8975 118.07 52.6486C118.07 52.3996 118.422 52.3166 119.762 52.2752L121.453 52.2129L121.516 51.3832C121.618 49.6409 121.557 48.7074 121.371 48.4792C121.226 48.3133 121.309 48.1681 121.639 48.0229C122.052 47.8362 122.093 47.691 122.031 46.3219C121.97 45.3055 121.887 44.8492 121.721 44.9115C121.557 44.9529 121.494 45.3885 121.536 46.156L121.618 47.3383L120.36 47.3798C119.659 47.4006 118.813 47.4213 118.463 47.4213L117.823 47.442L117.761 46.0316C117.72 44.621 117.72 44.621 118.318 44.4965C119.103 44.3306 119.246 44.061 118.586 43.9158C118.297 43.8536 117.844 43.7705 117.555 43.7083C116.152 43.4179 115.843 40.9496 115.596 28.2548C115.41 19.1279 115.512 16.0372 116.007 14.1496C116.132 13.7554 116.214 12.8635 116.214 12.179C116.214 9.46167 116.956 6.35023 118.277 3.52918C119.205 1.53786 119.453 1.45488 119.721 2.98986C119.907 3.96478 119.823 4.25519 119.494 3.7781C119.123 3.25953 119.473 10.1669 119.948 12.9673C120.34 15.3319 120.36 16.0372 120.236 23.7951C119.948 41.1985 120.009 43.6046 120.608 43.6046C120.814 43.6046 120.835 42.1319 120.794 37.2573C120.731 33.4821 120.772 30.9514 120.897 31.0136C120.999 31.0758 121.103 32.6938 121.124 34.6229C121.185 38.6055 121.494 42.9824 121.784 43.6668C121.907 43.9573 121.97 40.0576 121.97 33.0257C121.97 26.9273 122.052 21.2644 122.155 20.4762C122.279 19.6673 122.34 17.1988 122.32 14.9793C122.279 10.6855 122.093 9.25424 120.958 4.52485C120.091 0.998536 119.618 0.417733 118.627 1.74528ZM120.835 8.15486C121.639 12.2827 121.907 15.1453 121.618 16.7217C121.474 17.4477 121.371 18.3811 121.371 18.7961C121.371 19.2316 121.289 19.522 121.185 19.4598C121.082 19.3975 120.999 18.5263 120.979 17.5307C120.979 16.5143 120.876 15.2282 120.772 14.6266C120.649 14.0459 120.463 12.1375 120.34 10.3744C120.195 8.63195 120.03 6.78583 119.927 6.26726C119.741 5.29234 119.866 4.75301 120.154 5.2716C120.257 5.43753 120.545 6.74434 120.835 8.15486ZM121.309 26.0146C121.247 26.1598 121.206 26.056 121.206 25.7657C121.206 25.4753 121.247 25.3715 121.309 25.4959C121.35 25.6412 121.35 25.8901 121.309 26.0146ZM120.545 48.583C120.545 48.6867 120.091 48.7904 119.514 48.7904C118.958 48.7904 118.483 48.6867 118.483 48.583C118.483 48.4584 118.958 48.3755 119.514 48.3755C120.091 48.3755 120.545 48.4584 120.545 48.583ZM121.165 50.5743C121.165 50.761 121.021 50.8647 120.814 50.8232C120.298 50.7195 120.236 50.2424 120.731 50.2424C120.979 50.2424 121.165 50.3668 121.165 50.5743ZM120.608 53.4367C120.772 53.8517 120.381 53.9554 119.246 53.8309C117.72 53.6442 118.091 53.2501 119.845 53.1671C120.236 53.1671 120.545 53.2708 120.608 53.4367ZM121.021 54.9095C120.917 56.7972 120.938 60.3235 121.062 61.8999C121.165 63.1238 121.124 63.7253 120.979 63.7253C120.876 63.7253 120.731 63.4142 120.67 63.0407C120.422 61.5266 120.381 61.3814 120.463 62.377C120.504 62.937 120.608 65.0944 120.69 67.1479C120.814 70.1142 120.876 70.6327 120.979 69.637C121.062 68.9526 121.144 67.7909 121.165 67.0442L121.226 65.6959L121.392 67.0235C121.639 68.9526 122.011 76.3785 121.866 76.6066C121.66 76.9593 121.185 76.7934 121.082 76.3163C121.04 76.0674 121.021 77.0216 121.082 78.4529C121.226 82.6429 120.525 84.1364 119.432 81.9584L118.896 80.859V73.0804C118.896 64.7417 118.731 59.9915 118.442 59.9915C118.359 59.9915 118.256 60.5309 118.256 61.174L118.215 62.377L118.05 61.1325C117.968 60.4479 117.823 58.7055 117.741 57.2536L117.596 54.6192L118.091 54.5155C118.917 54.3287 119.782 54.225 120.443 54.2665C120.999 54.2872 121.062 54.3494 121.021 54.9095ZM118.483 72.4166C118.483 74.6153 118.422 76.5029 118.359 76.6066C118.297 76.7105 118.112 76.7934 117.927 76.7934C117.658 76.7934 117.617 76.2955 117.7 72.79C117.761 70.6119 117.864 68.6414 117.968 68.434C118.359 67.542 118.504 68.6621 118.483 72.4166ZM121.989 77.6439C121.989 77.7476 121.845 77.8306 121.68 77.8306C121.516 77.8306 121.371 77.6854 121.371 77.5193C121.371 77.3327 121.494 77.2705 121.68 77.3327C121.845 77.4156 121.989 77.5402 121.989 77.6439ZM118.07 81.1286C118.07 81.3775 117.658 81.6473 117.514 81.5021C117.369 81.3568 117.637 80.942 117.885 80.942C117.988 80.942 118.07 81.0249 118.07 81.1286ZM118.483 81.9584C118.483 82.2073 117.905 82.4148 117.782 82.2073C117.72 82.1036 117.72 81.9791 117.802 81.8962C117.988 81.7095 118.483 81.751 118.483 81.9584ZM122.072 82.0828C121.948 82.4148 121.577 82.5185 121.577 82.228C121.577 81.9999 121.804 81.7717 122.011 81.7717C122.113 81.7717 122.134 81.9169 122.072 82.0828ZM121.784 82.9126C121.784 83.0785 121.639 83.2237 121.474 83.2237C121.144 83.2237 121.062 82.9748 121.309 82.7466C121.536 82.4977 121.784 82.5807 121.784 82.9126ZM120.629 84.4268C120.814 84.7172 120.381 85.1529 120.05 85.0283C119.576 84.8417 119.639 84.2608 120.113 84.2608C120.34 84.2608 120.567 84.3439 120.629 84.4268Z" fill="#28682E"/>
<path d="M61.3002 5.02175C57.9581 5.72701 55.3593 6.80565 53.8541 8.1332C52.7604 9.10812 52.4511 9.25332 50.8424 9.66818C50.1403 9.85487 48.7174 10.4357 47.7273 10.9542C45.4165 12.1573 44.117 13.4849 43.3127 15.497C42.4884 17.592 42.5083 17.5505 41.5805 17.6957C40.6315 17.8201 39.352 18.6291 36.8766 20.7034C34.814 22.4251 33.5557 23.9185 32.154 26.2833C30.6475 28.7932 30.3383 30.3696 30.9157 32.6722C31.0192 33.0455 30.8334 33.4188 30.1325 34.2486C29.0176 35.5555 28.7907 36.3436 28.6061 39.6625C28.5026 41.799 28.5226 42.2762 28.853 42.9606C29.2034 43.7696 29.2034 43.8111 28.7907 44.6823C28.5226 45.2424 28.3991 45.7817 28.4814 46.1551C28.5438 46.487 28.4814 46.8603 28.3168 47.0471C28.0898 47.3374 28.111 47.4411 28.5226 47.7315C29.2035 48.2501 28.9565 48.9969 28.111 48.9969C27.3478 48.9969 27.162 49.4117 27.4713 50.4074C27.6159 50.8429 27.6359 51.2579 27.5124 51.4653C27.3678 51.7349 27.2643 51.6312 26.9962 50.9882C26.4599 49.6814 26.3776 47.6486 26.8116 46.0929C27.2443 44.5371 27.2643 43.2718 26.9139 41.9442C26.7492 41.3842 26.6869 40.2019 26.728 38.9365C26.7904 37.277 26.9138 36.6756 27.2855 35.9288C27.8217 34.9124 29.3693 32.8174 29.6162 32.8174C29.6786 32.8174 29.7397 31.9047 29.7397 30.7846C29.7397 28.4613 30.1325 27.0301 31.4519 24.5409C32.876 21.8857 34.587 19.9775 37.3106 18.0484C38.6923 17.0735 41.4147 15.6007 41.8274 15.6007C42.0132 15.6007 42.1579 15.497 42.1579 15.3725C42.1579 14.9784 40.7138 15.3725 39.2909 16.1399C35.9076 18.0068 33.2876 20.5168 30.8546 24.2712C28.8942 27.3204 28.6672 28.005 28.8119 30.3489C28.9154 32.0499 28.8942 32.2365 28.4615 32.7759C27.7594 33.6264 26.7492 35.5762 26.3776 36.8C25.9237 38.3558 25.9648 41.1767 26.4811 42.8569L26.9139 44.226L26.3776 45.6987C25.5321 48.105 25.7179 51.2786 26.7692 52.1291C27.1408 52.4402 27.162 52.5646 26.955 53.2699C26.4811 54.9086 26.44 55.9458 26.7904 57.4185C27.182 59.0365 28.0898 60.613 28.9765 61.2559C29.5339 61.6501 29.5751 61.7953 29.5751 62.9569C29.5963 66.0061 31.1838 69.7813 34.0919 73.7432C35.3303 75.4442 37.8668 77.4355 39.5378 78.0578C39.9918 78.2237 40.4669 78.5763 40.6103 78.8668C41.3124 80.2358 45.4165 83.5755 48.0365 84.9237C49.0267 85.4422 50.6354 85.9401 51.6468 86.0646C52.8015 86.189 55.3593 85.7742 56.5764 85.2556C57.5454 84.8408 57.9382 85.0067 57.7312 85.7327C57.6489 86.0023 57.9382 86.1683 59.093 86.5417C59.8973 86.8113 60.9498 87.0188 61.4237 87.0188C63.1359 87.0188 65.4467 86.7076 65.8171 86.4379C66.3533 86.0438 66.0852 85.8986 65.2609 86.1268C64.1049 86.4586 60.2889 86.6247 59.6292 86.3549C59.1341 86.1683 59.093 86.0853 59.3199 85.7327C59.6504 85.1934 59.2164 84.6748 58.4333 84.6748H57.8135L58.144 84.0318C59.0306 82.3308 58.6178 80.1114 57.4219 80.1114C56.6587 80.1114 56.1848 80.5884 56.1848 81.3766C56.1848 81.916 56.0601 82.0405 55.2358 82.393C54.7195 82.6212 54.2656 82.808 54.2244 82.808C54.1833 82.808 54.2045 82.1234 54.2456 81.2937C54.3903 79.0742 54.3691 78.9912 53.9975 78.7215C52.8427 77.871 51.2128 79.1572 51.5433 80.6506C52.0384 82.8702 52.4711 83.1191 52.4711 81.1485C52.4711 79.6342 52.5958 79.2816 53.1931 79.2816C53.6271 79.2816 53.6471 79.3646 53.6059 80.5677C53.5859 81.2937 53.5024 82.0405 53.4201 82.2271C53.3378 82.4138 53.359 82.725 53.4612 82.9324C53.874 83.6792 53.2143 84.4466 52.3888 84.1355C52.203 84.0733 51.9972 83.8036 51.9348 83.534C51.8326 83.1398 51.6468 83.0569 50.4708 82.9324C49.7276 82.8494 48.7997 82.6628 48.387 82.476C47.1499 81.9575 44.9214 79.9869 43.5808 78.2237C42.8999 77.311 42.2813 76.6058 42.2202 76.668C42.0544 76.8133 42.5495 77.9748 43.1269 78.8875C43.5808 79.5927 46.9229 82.476 47.8308 82.9739C48.0777 83.0983 48.9855 83.2228 49.8722 83.2435C51.2963 83.3057 51.461 83.3472 51.3787 83.6792C51.254 84.1562 51.956 84.6748 52.698 84.6748C53.0073 84.6748 53.5435 84.4258 53.8952 84.1355L54.5337 83.5962L54.9465 84.094C55.3593 84.571 55.3593 84.571 55.6685 84.1562C55.8544 83.9281 56.1225 83.5755 56.2871 83.3887C56.4529 83.1813 56.6587 82.6213 56.7211 82.1442C56.9892 80.3602 57.8347 80.4017 57.8347 82.1856C57.8347 83.4094 57.2984 84.1355 55.772 84.9652C54.7607 85.5252 54.5749 85.5461 52.9051 85.4422C50.5119 85.3178 49.4395 84.9237 47.0052 83.3472C43.8901 81.3144 42.8388 80.5262 41.6628 79.3231C41.0854 78.7215 39.7236 77.6222 38.63 76.8962C37.5575 76.1702 36.1134 74.9879 35.4338 74.2618C34.072 72.789 32.0916 69.6154 31.2873 67.6448C30.7922 66.4003 30.2148 63.7866 30.1936 62.6665C30.1936 62.376 29.802 61.5257 29.3481 60.7996C28.0699 58.8291 27.6983 57.8334 27.6359 56.1739C27.5124 52.6476 28.4814 50.677 30.8957 49.6191C32.154 49.0384 33.0606 49.1836 33.8039 50.0755C34.3812 50.7807 34.4224 51.4238 33.865 51.7765C33.5769 51.9424 33.3711 51.8593 32.8137 51.3201C32.0093 50.5318 31.6178 50.4696 31.7001 51.1127C31.7412 51.5275 31.6377 51.5897 30.8745 51.6519C30.1525 51.7143 29.8843 51.8593 29.3693 52.4817C28.338 53.7263 27.8841 55.7799 28.338 57.0037L28.565 57.5638L29.0176 57.1074C29.2858 56.8792 29.5963 56.6718 29.7197 56.6718C30.1113 56.6718 30.2148 57.3355 29.8843 57.709C29.7197 57.8956 29.5751 58.3934 29.5751 58.8083C29.5751 59.4514 29.7397 59.7418 30.4829 60.4678C31.3284 61.2767 31.4107 61.4633 31.5966 62.791C31.9058 65.0312 32.9583 68.2049 34.0508 70.1133C35.8041 73.2247 39.4356 76.3776 41.2912 76.3776H42.0544L41.2301 75.9419C39.7037 75.1123 38.5689 74.2204 36.8566 72.5402C35.3714 71.0675 35.021 70.5696 34.1343 68.682C33.5769 67.4996 33.0818 66.2966 33.0195 66.0061C32.5867 63.8696 31.5143 60.8411 30.998 60.2395C30.1737 59.2854 30.049 58.6839 30.5864 57.9993C30.8334 57.6882 31.0192 57.3148 31.0192 57.1696C31.0192 56.9622 31.2873 56.8792 31.9058 56.8792C33.7415 56.8792 35.1444 56.0702 35.1444 55.0124C35.1444 54.0997 34.5671 53.7471 33.3287 53.913C32.4832 53.996 32.174 53.9545 31.8859 53.7056C31.5754 53.4151 31.4107 53.3944 30.8546 53.6018C30.3383 53.8093 30.1525 53.8093 29.9467 53.6018C29.4716 53.1247 30.029 52.627 31.0391 52.627C31.5342 52.627 32.1128 52.5439 32.2974 52.4402C32.4832 52.3572 32.8137 52.378 33.0606 52.5024C33.6804 52.8551 34.0919 52.772 34.6294 52.212C35.6607 51.1956 35.021 49.4947 33.3499 48.7479C32.5044 48.3746 32.2774 48.3538 31.4519 48.5613C30.049 48.9138 29.8843 48.9138 29.8843 48.582C29.8843 48.022 29.307 46.4247 28.9765 46.0307C28.7084 45.6987 28.7495 45.595 29.5751 44.7445L30.4829 43.8111L29.822 43.1267C29.1623 42.4421 29.1623 42.4214 29.1623 40.3471C29.1623 37.6712 29.4304 36.4267 30.256 35.182C31.72 32.9833 31.6589 33.1907 31.432 31.9254C30.7099 28.1087 34.7317 22.3421 40.528 18.8988C42.1167 17.9446 42.5906 17.9238 42.7764 18.8158C43.2092 20.9108 44.9625 22.0518 46.2009 21.0354C47.1499 20.2679 46.8406 19.3344 45.6434 19.3344C45.3142 19.3344 45.0461 19.3137 45.0461 19.2722C45.1483 18.5462 45.8704 16.5341 46.0562 16.4719C46.1797 16.4304 46.3867 16.6793 46.5101 17.0526C46.6959 17.5713 46.8406 17.675 47.191 17.592C47.4591 17.5298 47.8919 17.6542 48.2423 17.8824C49.6041 18.7743 50.4708 18.1314 49.8722 16.6586C49.4806 15.6629 48.4905 14.9784 47.4591 14.9784C47.0464 14.9784 46.6748 14.8954 46.6136 14.7917C46.4066 14.4806 48.4082 12.9456 49.8311 12.3025C50.5531 11.9706 51.6056 11.6388 52.1618 11.5558C52.8227 11.4521 53.4824 11.1824 53.9775 10.7676C55.4827 9.58521 56.2048 9.17035 57.4843 8.75548C59.1753 8.23691 62.167 7.71834 63.6722 7.71834C65.4467 7.71834 70.1905 8.34063 71.1395 8.69326C71.5935 8.85921 72.1085 9.0044 72.2744 9.0044C72.439 9.0044 73.8419 8.92143 75.3883 8.83847C78.0694 8.69326 80.3179 8.94218 80.3179 9.35704C80.3179 9.46075 79.9263 9.68892 79.4724 9.9171C78.2964 10.4357 77.5332 11.5973 77.719 12.6137C77.946 13.7338 78.2553 14.2939 78.8127 14.5428C79.0808 14.6672 79.3901 14.7709 79.4936 14.7709C79.9263 14.7709 80.3179 14.0657 80.3179 13.2981C80.3179 12.5307 80.5661 12.2403 80.8342 12.6967C80.8965 12.8004 81.1435 12.9041 81.3704 12.9041C81.6597 12.9041 81.762 12.7589 81.762 12.3855C81.762 11.8047 82.4229 11.0372 82.8968 11.0372C83.0614 11.0372 83.2061 11.2032 83.2061 11.4313C83.2061 11.6388 83.0614 11.9292 82.8968 12.0744C82.4641 12.427 82.5052 12.8418 83.0003 13.0078C83.5777 13.1944 83.5154 13.4849 82.8557 13.7753C81.4328 14.3769 80.9165 15.5592 81.7208 16.2852C82.5464 17.0319 84.2586 16.4512 85.063 15.1444C85.4134 14.5635 85.4757 14.1695 85.4346 12.6967L85.3922 10.9335L86.3624 10.9542C87.5795 10.9542 87.8477 11.2032 87.5172 11.9292C87.188 12.6552 87.5583 13.1115 88.4662 13.1115C89.2294 13.1115 89.9103 13.5679 90.2819 14.3561C90.4465 14.688 91.1885 15.2066 92.3857 15.8081C94.2426 16.7415 96.6145 18.2351 96.6145 18.484C96.6145 18.5462 96.9237 18.9404 97.2954 19.3344C100.08 22.3629 103.07 27.9635 103.73 31.3653C103.793 31.635 104.288 32.3402 104.844 32.9003C105.814 33.896 106.515 35.1198 106.515 35.8251C106.515 35.991 106.309 36.3436 106.061 36.5926C105.505 37.1526 105.793 37.692 106.66 37.7127C106.99 37.7127 107.36 37.7957 107.505 37.8786C107.794 38.0653 107.835 39.6625 107.546 39.6625C107.444 39.6625 106.908 39.3722 106.371 39.0402C105.587 38.5424 105.174 38.418 104.246 38.418C103.029 38.418 102.679 38.5839 102.102 39.4551C101.73 40.0151 101.648 41.4257 101.977 41.6331C102.348 41.8613 103.008 41.5087 103.008 41.1145C103.008 40.8863 103.194 40.6167 103.401 40.4923C103.937 40.2019 103.978 40.2225 104.102 40.7204C104.205 41.1145 104.308 41.1561 105.133 41.0315C105.834 40.9278 106.102 40.9693 106.309 41.2183C106.681 41.6746 106.123 42.2347 105.215 42.2969C104.865 42.3177 104.102 42.4214 103.524 42.5043C102.658 42.6495 102.472 42.7532 102.307 43.2511C102.143 43.7074 102.184 43.9148 102.534 44.3919C103.133 45.2009 104.597 45.2632 106.391 44.5371C106.701 44.3919 106.742 44.4334 106.64 44.786C106.413 45.4706 106.701 45.8232 107.671 46.0722C108.166 46.1966 108.578 46.3833 108.578 46.4662C108.578 46.964 107.526 49.1214 107.051 49.6399C106.495 50.2415 106.474 50.3037 106.495 52.5854C106.515 54.6183 106.433 55.6969 106.02 58.7461C105.855 59.7832 104.742 62.8117 103.998 64.1185C102.926 66.0683 99.7084 69.8643 98.5324 70.5903C97.9139 70.9844 97.8516 71.1088 97.9551 71.6482C98.1197 72.3327 97.6246 73.2662 97.1295 73.2662C96.9649 73.2662 96.6344 73.4528 96.4075 73.681C96.057 74.0337 95.9124 74.0544 95.5619 73.8884C94.6341 73.3699 94.159 74.8011 94.9846 75.6723C95.4584 76.1909 95.3562 76.585 94.7364 76.585C94.4483 76.585 94.3448 76.4398 94.3448 76.0043C94.3448 74.49 93.3547 72.789 92.0552 72.1046C91.7459 71.9593 91.0651 71.8141 90.55 71.8141C89.8068 71.8141 89.5599 71.9178 89.2094 72.3535C88.9613 72.6646 88.7754 73.0795 88.7754 73.2869C88.7754 73.8469 89.5187 74.2618 90.343 74.1581C91.0863 74.0544 91.2509 74.2826 90.7358 74.7181C90.2607 75.1123 90.343 75.299 91.2509 75.7553C91.9729 76.1287 92.0764 76.2739 92.0764 76.917C92.0764 77.6014 92.0353 77.6429 91.519 77.5807C91.0651 77.5392 90.9204 77.394 90.8381 76.917C90.777 76.585 90.57 76.2117 90.3642 76.0872C90.0549 75.9006 89.9103 75.9628 89.4775 76.4813C89.0648 76.9999 88.9413 77.0622 88.7754 76.7924C88.6719 76.6265 88.5697 76.1909 88.5697 75.8382C88.5697 74.967 88.1781 74.6352 87.4349 74.9255C86.1566 75.4234 86.0319 76.585 87.1256 77.726C87.7441 78.3689 89.1882 79.012 89.1882 78.6593C89.1882 78.5556 88.7343 78.2237 88.1781 77.9334C86.961 77.2488 86.5482 76.6058 86.8774 75.8591C87.0433 75.5064 87.2902 75.3405 87.6406 75.3405C88.0746 75.3405 88.1569 75.4442 88.1569 75.9006C88.1569 76.6887 88.879 77.8297 89.374 77.8297C89.6833 77.8297 89.7656 77.6844 89.7245 77.1451C89.7045 76.2946 90.2819 76.2117 90.3842 77.0622C90.4465 77.477 90.6323 77.7051 91.1686 77.9334L91.8906 78.2237L91.4367 79.1157C91.1885 79.6135 90.8593 80.1736 90.6735 80.3602C90.3842 80.7128 90.323 80.6922 89.6621 80.0077C89.2705 79.6135 88.8378 79.2816 88.6931 79.2816C88.1981 79.2816 87.9299 79.8417 88.0534 80.5884C88.1781 81.2522 88.1357 81.3352 87.4137 81.7501C86.8163 82.1234 86.4447 82.1856 85.805 82.1027C84.856 81.9575 84.6913 82.0405 82.6699 83.5755C79.5135 86.0023 76.3996 86.9773 71.7581 87.0188C69.2203 87.0395 68.7265 86.998 67.7563 86.5832C67.1377 86.3342 66.5803 86.189 66.5192 86.2305C66.1064 86.6662 69.2004 87.7863 70.7891 87.7863C74.8321 87.7863 82.1137 85.2971 83.9905 83.2643C84.836 82.3723 84.9183 82.3308 85.4957 82.5382C86.2589 82.8287 87.3114 82.5591 88.1781 81.833C88.7144 81.3559 88.7967 81.19 88.6719 80.5884C88.5896 80.0699 88.6108 79.9039 88.8578 79.9039C89.2294 79.9039 89.601 80.5262 89.601 81.1485C89.601 81.5842 89.601 81.5842 90.2407 81.2107C91.4367 80.5054 92.695 78.3689 92.695 77.0622C92.695 76.0665 92.5091 75.776 91.7671 75.5894C91.065 75.4027 90.8181 74.9255 91.4155 74.9255C92.0964 74.9255 92.3445 74.4278 91.8906 73.9922C91.4566 73.6188 90.9004 73.5566 89.9726 73.7847C89.4351 73.93 89.394 73.8884 89.394 73.3077C89.394 72.6231 90.0138 72.0215 90.6934 72.0215C91.3544 72.0215 92.5715 72.8305 93.1077 73.6188C93.5617 74.3033 93.6228 74.573 93.6028 76.3569C93.6028 77.4562 93.4794 78.68 93.3347 79.1157C92.7149 80.9618 89.1259 83.1813 86.4659 83.3887C85.1864 83.4718 85.0006 83.5546 84.0104 84.3844C83.433 84.903 81.8244 85.8779 80.4426 86.5625C78.0907 87.724 77.7814 87.8277 75.1613 88.2218C72.1497 88.6782 69.7366 88.6367 67.8598 88.0766C67.0966 87.8692 66.4356 87.8277 65.0751 87.9729C62.5585 88.2426 60.3512 87.9729 58.2475 87.1639C57.2772 86.7906 56.3706 86.3964 56.226 86.272C56.0813 86.1683 55.9167 86.1268 55.8544 86.1683C55.5862 86.4379 58.3921 88.0352 59.9185 88.4914C61.3002 88.9064 63.7956 88.9064 65.3632 88.4914C66.4569 88.2218 66.725 88.2011 67.7363 88.4914C70.2941 89.176 71.6758 89.2797 73.5327 88.9478C74.4804 88.7612 75.5541 88.5745 75.8834 88.533C77.1416 88.3877 78.173 88.1389 78.9773 87.7863C81.5562 86.6662 83.887 85.4008 84.7125 84.6748C85.3722 84.0733 85.8262 83.8451 86.3 83.8451C87.1879 83.8451 89.828 82.9324 90.8792 82.2686C92.0552 81.5218 93.0666 80.5469 93.644 79.6551C93.9532 79.1572 94.3037 78.8668 94.5518 78.8668C96.511 78.8668 99.4815 75.299 99.5014 72.9342C99.5014 72.1461 99.5638 72.0631 100.327 71.7104C101.296 71.2749 103.07 69.491 104.288 67.79C105.051 66.6906 105.484 65.7779 107.237 61.5464C108.145 59.3476 109.031 55.0331 109.073 52.5232C109.114 50.8223 109.197 50.3866 109.692 49.3702C110.724 47.2752 110.64 44.786 109.465 42.1725C109.031 41.2183 109.011 40.9486 109.176 39.9944C109.382 38.8535 109.238 37.7334 108.681 36.0325C108.248 34.7257 107.113 32.6722 106.433 31.9462C106.041 31.5312 105.896 31.1579 105.896 30.5148C105.896 29.1873 105.195 27.0923 104.102 25.1839C101.317 20.3508 97.9139 16.5549 94.9634 14.9784C93.9944 14.4598 92.9419 14.0034 92.5915 13.9412C92.0964 13.8582 91.8906 13.6301 91.519 12.8833C90.6523 11.058 88.8578 9.75115 86.1978 9.06664C85.5368 8.90069 84.7125 8.75548 84.4033 8.75548C84.0104 8.75548 83.5565 8.48583 82.938 7.8428C81.9066 6.8264 80.3391 6.2041 77.946 5.89296C76.2138 5.66479 75.3471 5.72701 74.0888 6.14188C73.181 6.47376 73.1199 6.45302 72.212 5.95519C69.9424 4.66912 64.9716 4.25426 61.3002 5.02175ZM68.8499 5.7685C69.7578 5.95519 71.036 6.30782 71.6758 6.57748C72.6859 6.99233 72.9952 7.03382 73.7584 6.84714C75.8422 6.37005 80.8965 7.17902 82.5252 8.23691C83.145 8.65178 83.0003 8.90069 81.969 9.06664C81.3293 9.17035 81.02 9.10812 80.5661 8.77623C79.4113 7.96725 75.4095 7.6976 73.2022 8.29914C72.7483 8.4236 72.3567 8.38212 71.7581 8.11246C69.7578 7.22051 64.7858 6.61896 62.0634 6.93011C59.5469 7.22051 55.8756 8.50657 54.9265 9.41927C53.3178 10.9542 53.132 11.0372 51.5844 11.0372C50.1615 11.0372 49.9957 11.0787 48.5528 11.9914C45.9115 13.6094 45.3753 14.3561 45.0461 16.9904C44.9214 17.8824 44.778 18.8158 44.7368 19.0854C44.6533 19.4381 44.7568 19.6455 45.2518 19.9153C45.9739 20.3301 46.0151 20.496 45.4576 20.6827C44.0148 21.1391 42.8799 18.2143 43.6431 15.9948C44.0559 14.7502 45.2107 13.1531 46.2208 12.4063C47.3556 11.5765 49.9957 10.3942 51.6056 10.0001C52.2653 9.85487 53.1732 9.39852 53.9152 8.83847C58.0616 5.7685 63.2594 4.71061 68.8499 5.7685ZM86.3824 9.6267C86.8363 9.73041 87.3937 9.93784 87.6207 10.083C90.4677 11.8462 90.9004 12.1988 91.3332 13.0907C91.7048 13.8582 91.9106 14.0657 92.695 14.3146C93.21 14.4806 93.9732 14.8539 94.386 15.1235C94.82 15.3725 95.2527 15.6007 95.3562 15.6007C95.4584 15.6007 96.0782 16.0155 96.7579 16.5134C97.8104 17.3224 99.7695 19.5626 101.379 21.8235C103.07 24.1883 104.988 27.8391 105.174 28.9799C105.215 29.3118 105.319 29.9548 105.381 30.3696C105.442 30.7846 105.814 31.5936 106.186 32.1328C107.113 33.5019 107.63 34.5391 108.145 36.0947C108.64 37.6505 108.929 40.3678 108.619 40.5752C108.248 40.8034 108.062 40.2225 108.124 38.978C108.186 38.0238 108.104 37.6712 107.732 37.1526C107.299 36.5304 107.299 36.5304 106.99 36.9452C106.722 37.3394 106.102 37.5468 106.102 37.2563C106.102 37.1941 106.288 36.8622 106.515 36.5304C107.155 35.6384 106.783 34.4767 105.381 33.0663C104.37 32.0499 104.266 31.8424 104.039 30.5772C103.442 27.113 100.575 22.031 97.3365 18.7121C96.2216 17.5505 93.5617 15.8288 92.0141 15.2272C90.9004 14.8124 90.6323 14.605 90.6323 14.1695C90.6323 13.4434 89.8479 12.9041 88.7967 12.9041C88.0534 12.9041 87.7441 12.8211 87.6618 12.5515C87.5172 12.1988 87.8476 11.8669 88.3427 11.8669C88.8166 11.8669 88.1569 11.2239 87.2291 10.8091C86.012 10.249 82.938 10.2697 82.0102 10.8298C81.6385 11.058 81.1235 11.2446 80.8554 11.2446C80.071 11.2446 79.6171 11.9292 79.7817 12.9041C79.8852 13.5679 79.844 13.7753 79.5759 13.879C79.102 14.0657 78.7304 13.5471 78.5857 12.4477C78.4411 11.5558 78.4822 11.4313 79.0596 10.8713C79.6794 10.2905 81.1235 9.75115 83.0003 9.39852C83.9693 9.21183 85.0418 9.2948 86.3824 9.6267ZM84.9806 11.5558C85.063 11.8462 85.063 12.6137 85.0218 13.2568C84.9395 14.2732 84.8148 14.5221 84.1763 15.1028C83.2061 15.9948 82.4229 16.223 82.0301 15.6836C81.5974 15.0822 81.7832 14.7087 82.7522 14.2732C83.7224 13.8168 84.0316 13.1944 83.66 12.3855C83.3096 11.618 83.5777 11.0372 84.2586 11.0372C84.7125 11.0372 84.8771 11.1617 84.9806 11.5558ZM48.1188 15.891C48.6962 16.2023 49.3771 17.0526 49.3771 17.4676C49.3771 17.8616 48.5528 17.675 48.0989 17.1563C47.8507 16.866 47.5003 16.6793 47.3357 16.7208C47.1499 16.783 46.7994 16.5549 46.5313 16.2023L46.0363 15.6007H46.7995C47.211 15.6007 47.8096 15.7459 48.1188 15.891ZM106.515 39.6211C107.63 40.1603 108.289 40.9486 109.3 42.9814C110.043 44.4127 110.063 44.5579 109.98 46.0722C109.919 47.1715 109.712 48.0427 109.3 48.9969C108.867 50.0341 108.681 50.8638 108.558 52.5232C108.475 53.7263 108.309 55.0746 108.207 55.5309C108.082 55.9873 107.898 56.8585 107.773 57.4807C107.299 59.8455 106.02 63.6414 104.947 65.9231C104.411 67.0847 102.266 69.7191 101.028 70.7355C100.08 71.5238 98.9452 72.0839 98.6771 71.9178C98.2232 71.6482 98.5325 71.2334 99.8319 70.3829C101.441 69.325 102.018 68.7027 103.049 67.0225C104.184 65.1349 106.247 60.0944 106.597 58.3312C107.403 54.1411 107.505 52.7929 107.135 51.1749C106.969 50.4074 106.99 50.3244 107.753 49.4947C108.309 48.8725 108.599 48.3124 108.804 47.4826C109.114 46.0722 108.908 45.7402 107.794 45.6365C107.196 45.595 107.031 45.4913 107.031 45.1595C107.031 44.8068 107.155 44.7445 107.836 44.7653L108.619 44.786L108.495 43.8941C108.248 41.965 106.66 40.3678 105.237 40.596C104.432 40.6997 104.266 40.5545 104.7 40.1188C104.886 39.9322 104.844 39.8492 104.576 39.7455C104.35 39.6625 103.896 39.8285 103.297 40.264C102.781 40.6167 102.286 40.9071 102.184 40.9071C101.544 40.9071 102.554 39.1024 103.256 38.9987C104.102 38.8743 105.566 39.1439 106.515 39.6211ZM107.423 42.214C107.753 42.7325 107.135 43.6244 106.061 44.1638C104.638 44.9105 103.008 44.7031 103.008 43.8111C103.008 43.4793 103.112 43.417 103.628 43.5207C103.998 43.6037 104.246 43.5622 104.246 43.4378C104.246 43.3133 104.659 43.1474 105.174 43.0643C106.164 42.9191 106.722 42.5458 106.722 42.0066C106.722 41.6331 107.135 41.7368 107.423 42.214ZM108.166 43.7074C108.166 44.1223 108.062 44.226 107.65 44.226C107.072 44.226 107.051 44.1638 107.34 43.583C107.65 43.0021 108.166 43.0852 108.166 43.7074ZM28.5438 50.2415C28.5438 50.3452 28.3991 50.4489 28.2345 50.4489C28.0699 50.4489 27.9252 50.3452 27.9252 50.2415C27.9252 50.117 28.0699 50.0341 28.2345 50.0341C28.3991 50.0341 28.5438 50.117 28.5438 50.2415ZM30.049 54.0789C30.2759 54.2241 30.5652 54.3071 30.6887 54.2656C30.8334 54.2034 31.0803 54.3071 31.2249 54.4937C31.5342 54.8672 33.2876 54.9294 33.6592 54.5561C34.0308 54.1826 34.36 54.7427 34.0919 55.2612C33.845 55.7176 32.381 56.1325 31.5143 55.9873C31.1638 55.925 30.771 55.9458 30.6887 56.0288C30.5864 56.1325 30.1113 56.1532 29.6374 56.091C28.853 56.008 28.7495 55.9458 28.7495 55.4894C28.7495 54.9501 29.2858 53.7678 29.5339 53.7678C29.6162 53.7678 29.8432 53.913 30.049 54.0789ZM98.924 73.5358C97.955 75.7553 96.0371 77.9334 94.7164 78.3689C94.1802 78.5349 94.0979 78.4104 94.2625 77.7466C94.3448 77.3733 94.6341 77.0829 95.0881 76.8962C95.8301 76.585 96.2641 75.9419 95.8301 75.7969C95.3761 75.6516 94.9434 75.0916 95.0058 74.7596C95.0469 74.5315 95.315 74.407 95.8301 74.407C96.2429 74.3863 96.7379 74.2204 96.9237 74.0337C97.1096 73.8262 97.3976 73.681 97.5423 73.681C97.7069 73.681 97.9962 73.4321 98.202 73.1003C99.0063 71.8349 99.5226 72.1461 98.924 73.5358Z" fill="#28682E"/>
<path d="M18.0514 6.13779C17.8656 6.34523 17.7833 8.85513 17.7633 14.995C17.7209 22.6907 17.6797 23.5826 17.3917 23.6449C17.1236 23.6864 17.0413 23.4167 16.9378 21.9854C16.8554 21.0312 16.6696 18.3555 16.505 16.0114C16.3192 13.6675 16.1746 10.4731 16.1746 8.89661C16.1746 6.07557 15.9887 5.41179 15.556 6.59414C15.4313 6.90528 15.349 10.4938 15.349 15.3062C15.349 22.3796 15.3078 23.4789 15.0397 23.4789C14.6893 23.4789 14.5035 22.8359 14.5658 21.9232C14.5858 21.5706 14.5247 20.1393 14.4411 18.7081C14.3389 17.2767 14.2765 14.0409 14.2765 11.5102C14.2765 7.25791 14.173 6.32448 13.7615 6.76008C13.451 7.07123 13.0394 11.5102 12.9771 15.3891C12.9359 17.7331 12.8324 21.2802 12.7501 23.2715L12.6055 26.9015L13.1629 27.9801C13.451 28.5817 13.6991 29.3492 13.6991 29.6811C13.6991 30.5937 14.0084 31.2783 14.9574 32.3984C15.6795 33.2489 15.8241 33.6015 15.9887 34.8254C16.5462 38.808 16.3803 42.9566 15.5972 43.8693C15.329 44.1597 15.329 44.3463 15.5348 45.0101C15.7618 45.6739 15.7618 45.9228 15.5149 46.4207C14.8951 47.6653 14.6481 49.3455 14.8951 50.4656C15.2255 51.8553 15.2043 52.4154 14.834 52.7265C14.607 52.9132 14.5858 53.0792 14.7517 53.3903C15.1632 54.1578 14.6269 62.1439 13.9261 65.8983C13.658 67.3296 13.7814 69.0305 14.3177 71.6234L14.7928 73.8429L14.0496 75.6683C12.255 80.1281 12.5032 82.2231 15.0609 84.7951C16.3604 86.0813 17.3505 86.4961 18.2571 86.102C19.3097 85.6665 21.0431 83.4054 21.5369 81.8496L21.9497 80.4599L21.2077 77.9707C20.4856 75.5438 20.4644 75.3986 20.5891 73.0754C20.6502 71.7479 20.7737 70.0884 20.8361 69.3831C20.9184 68.5535 20.8361 67.5786 20.6303 66.6866C20.2175 64.8197 19.9082 61.7913 19.7012 57.6633C19.5366 54.4689 19.5578 54.2408 19.9494 53.5148C20.2998 52.851 20.341 52.6436 20.1352 52.208C19.9494 51.7931 19.9282 51.3575 20.114 50.3619C20.321 49.2625 20.2998 48.972 20.0317 48.4535C19.2274 46.9392 19.0827 46.4622 19.1039 45.1138C19.1039 44.3257 18.9792 42.7699 18.8146 41.6291C18.6288 40.3844 18.5053 38.3101 18.5265 36.4225L18.5465 33.2904L19.5366 31.8177C20.0729 30.9879 20.5056 30.096 20.5056 29.8262C20.5056 29.5566 20.8161 28.6854 21.1665 27.9179C21.8262 26.5281 21.8474 26.4037 21.8474 23.6864C21.8474 22.1513 21.6816 19.2888 21.4957 17.3597C21.29 15.41 21.1254 12.7134 21.1042 11.3443C21.0842 9.97524 21.0007 8.29506 20.9184 7.61055L20.7737 6.36597L20.7126 8.12912C20.6914 9.29072 20.6091 9.70558 20.5268 9.3737C20.2799 8.58547 20.0529 14.6632 20.1352 19.3719C20.1764 22.4003 20.1352 23.5204 19.9494 23.7071C19.8047 23.8523 19.6401 23.9145 19.5578 23.8523C19.3508 23.6241 18.8769 19.9941 18.6699 16.9449L18.4841 14.0409L18.5465 18.2931C18.65 23.8938 18.8146 24.682 19.8259 24.4746C20.341 24.3709 20.4856 23.3752 20.5268 19.2266C20.548 15.7003 20.7326 15.6796 20.9807 19.1229C21.0431 19.8696 21.1865 21.4461 21.3112 22.6285C21.6404 25.6777 21.1665 27.8764 20.0729 28.478C19.7224 28.6647 19.6601 28.8306 19.7636 29.3285C19.8459 29.7848 19.7012 30.2619 19.1238 31.3405L18.3606 32.751H17.1847C15.8852 32.7717 15.6795 32.6058 14.7305 30.7389L14.2765 29.8262L14.6893 29.4736L15.122 29.1418L14.607 28.6439C13.431 27.5445 13.4098 27.3994 13.431 18.6043C13.431 9.12478 13.7615 6.69785 13.9885 14.3105C14.0708 16.9656 14.0907 19.2058 14.0296 19.2888C13.9673 19.3926 14.0296 20.4297 14.173 21.6328C14.4212 23.7278 14.4411 23.7901 14.9362 23.7901C15.6171 23.7901 15.6994 23.3338 15.7618 19.6415L15.8241 16.7375L16.0922 19.9526C16.4015 23.396 16.6285 24.3087 17.2059 24.3087C18.1137 24.3087 18.1337 24.0597 18.0514 15.8248C18.0314 11.531 18.0514 8.08764 18.1137 8.14986C18.196 8.21209 18.3195 9.14553 18.423 10.2242L18.5876 12.174L18.6288 9.12478C18.65 6.15854 18.5265 5.55698 18.0514 6.13779ZM15.9675 11.6762C15.9675 14.6632 15.9064 16.1981 15.7618 16.1151C15.4725 15.9492 15.4725 7.09197 15.7618 7.09197C15.8852 7.09197 15.9675 8.7514 15.9675 11.6762ZM17.8045 34.5764C17.5363 35.9247 17.7209 38.891 18.2372 41.3386C18.7734 43.8693 18.7734 44.0767 18.196 43.89C17.9279 43.8071 17.4328 43.7656 17.0612 43.7863C16.7108 43.8071 16.3604 43.7448 16.3192 43.6619C16.2781 43.5582 16.4015 42.1891 16.6073 40.5918C17.0612 37.0656 17.0824 35.904 16.7108 34.6801L16.4427 33.7468L17.0824 33.5185C17.4328 33.3941 17.7833 33.3318 17.8656 33.4148C17.9479 33.477 17.9067 33.9956 17.8045 34.5764ZM17.8868 44.6783C17.9691 44.8857 18.0314 44.8857 18.2571 44.6783C18.65 44.3048 18.9181 44.3672 18.7522 44.782C18.65 44.9894 18.5265 45.5702 18.4641 46.0888L18.3407 47.0222L17.2258 47.0844C16.6073 47.1259 16.0299 47.0637 15.9476 46.9807C15.8441 46.877 15.9064 46.4 16.0511 45.9021C16.2157 45.3421 16.3803 45.0723 16.4626 45.2175C16.6696 45.5702 17.0001 45.3212 17.0001 44.8235C17.0001 44.3879 17.7209 44.2635 17.8868 44.6783ZM17.989 47.5408C18.2571 47.5408 18.7522 47.8312 19.1039 48.163C19.7224 48.7854 19.7224 48.8268 19.599 50.2996C19.5154 51.1294 19.4543 52.0421 19.4543 52.3532C19.4543 52.9961 19.0627 53.1207 18.65 52.6228C18.4642 52.3947 18.443 51.9797 18.6088 50.9219C18.8557 49.1587 18.6911 48.7854 17.6598 48.7854C16.298 48.7854 15.8852 49.4492 16.0922 51.2746C16.1945 52.1458 16.1534 52.6021 15.9675 52.8302C15.5348 53.3488 15.4313 53.1829 15.4114 51.9383C15.4114 51.2953 15.3291 50.2996 15.2467 49.7395C15.0809 48.7439 15.1021 48.7024 15.8653 48.0178C16.4215 47.5201 16.7931 47.3334 17.0824 47.4164C17.3293 47.4786 17.7209 47.5408 17.989 47.5408ZM18.1549 50.7559C18.196 52.8717 18.196 52.8717 18.6911 53.3281C19.1039 53.7222 19.1238 53.9712 19.1862 57.3315C19.2062 59.6548 19.392 61.9779 19.6601 63.8863C19.9082 65.5249 20.0529 66.9355 19.9905 67.0392C19.887 67.2259 19.2685 67.3503 19.2685 67.1844C19.2685 67.1636 19.165 66.5829 19.0627 65.8983C18.7522 64.073 18.5265 61.5215 18.3195 57.5389C18.2372 55.9625 18.2783 55.112 18.423 54.9252C18.6911 54.6141 18.5265 53.9712 18.1748 53.9712C18.0514 53.9712 17.7833 54.1371 17.5775 54.3238C17.2059 54.6556 17.1435 54.6556 16.5873 54.303C15.9064 53.9088 15.8653 53.9296 16.1945 54.6764C16.3392 54.9876 16.6696 55.2572 17.0201 55.3194C17.7209 55.4853 17.7633 55.6098 17.9067 58.2234C18.196 62.8906 18.4841 65.7739 18.7734 66.7488C19.0415 67.7445 19.0216 67.8897 18.6288 68.7816C18.3195 69.5075 18.2372 70.0677 18.2783 71.1255L18.3407 72.5361L18.5876 70.9181C18.8358 69.4869 19.1862 68.4705 19.4743 68.4911C19.5366 68.4911 19.7224 68.6157 19.9282 68.7609C20.2375 69.0098 20.2175 69.1757 19.7848 70.9803C19.4331 72.4739 19.2274 72.9717 18.9592 73.0131C18.7522 73.0546 18.5265 72.9717 18.423 72.8057C18.2783 72.5776 18.2372 72.5983 18.2372 72.8265C18.2372 72.9924 18.0314 73.3451 17.8045 73.594C17.3917 74.0295 17.3293 74.0503 16.8754 73.7599C16.6285 73.5733 16.1945 73.4695 15.9476 73.511C15.5348 73.5733 15.4525 73.4073 14.9986 71.6027C14.4212 69.2794 14.4411 68.6157 15.0609 68.5327C15.4313 68.4705 15.576 68.6364 15.8441 69.4453C16.0299 69.9847 16.1746 70.7937 16.1746 71.2292C16.1746 72.1834 16.5661 72.2871 16.6285 71.3329C16.6896 70.1921 16.5873 69.4454 16.2569 68.6157C16.0299 68.0141 15.9887 67.4956 16.0922 66.7488C16.1745 66.168 16.2781 65.5043 16.298 65.276C16.4215 64.3633 16.3604 58.5553 16.2157 57.29C16.1122 56.398 16.071 57.5389 16.071 60.7125C16.071 65.5665 15.8653 67.2466 15.2667 67.2466C14.7093 67.2466 14.4835 66.7073 14.7093 65.8569C14.9163 65.1101 15.4114 55.4231 15.2879 54.5104C15.2667 54.2615 15.4725 53.9919 15.8653 53.7637C16.7307 53.2866 16.9789 52.2287 16.505 50.9633C16.0922 49.9262 16.2357 49.5114 17.0612 49.3455C18.0726 49.1381 18.1337 49.2418 18.1549 50.7559ZM19.5578 74.0088C19.6189 74.1956 19.6813 74.5482 19.6813 74.7971C19.6813 75.0461 19.7848 75.3572 19.9082 75.4816C20.2799 75.8549 21.1254 79.3398 21.1254 80.5014C21.1254 81.2067 20.9807 81.9533 20.7126 82.472C20.321 83.3224 18.9592 84.8782 18.6288 84.8782C18.4018 84.8782 18.0314 84.1729 18.0314 83.7165C18.0314 83.2602 18.6288 82.5964 19.0415 82.5964C19.2897 82.5964 19.2897 82.6586 19.1039 82.8453C18.9592 82.9906 18.8557 83.281 18.8557 83.5091C18.8557 83.8617 18.938 83.8202 19.3097 83.2602C19.6813 82.6586 19.7012 82.4927 19.4743 82.0779C19.2473 81.663 19.2685 81.5178 19.6601 80.9784C20.1352 80.3147 20.2375 79.0909 19.887 78.4271C19.4955 77.7218 19.2685 78.0122 19.2685 79.2154C19.2685 80.0866 19.145 80.6051 18.7522 81.2689C18.3195 82.0157 18.1337 82.1401 17.4116 82.2231C16.6696 82.2853 16.5462 82.2231 15.8653 81.4141C15.0198 80.3977 14.7928 79.568 15.1021 78.6553C15.4113 77.7633 14.9986 77.8463 14.607 78.759C14.173 79.8168 14.2566 80.2732 14.9362 80.9784C15.5149 81.5593 15.556 81.6422 15.2467 81.9742C14.8128 82.4512 14.8539 82.5549 15.4114 82.4512C15.7418 82.389 15.9675 82.5134 16.2357 83.0113C16.6484 83.7165 16.5661 84.6707 16.1122 84.6707C15.7418 84.6707 14.8951 83.7165 14.1942 82.4927C13.6779 81.6008 13.5956 81.2689 13.6368 80.0035C13.7203 77.1411 14.8539 75.1498 16.071 75.7098C16.7108 76.0001 16.6896 76.6432 16.071 76.7469C15.3078 76.8713 14.5446 77.2448 14.4212 77.5559C14.3177 77.8463 14.3588 77.8463 14.6482 77.5974C15.0397 77.2863 17.2258 77.307 17.8456 77.6389C18.1748 77.8048 18.3195 77.7218 18.6699 77.0996C18.9181 76.7054 19.2274 76.3736 19.392 76.3736C19.5578 76.3736 19.6813 76.2699 19.6813 76.1662C19.6813 75.8549 19.0004 75.9172 18.4841 76.2906C18.0514 76.581 18.0314 76.581 18.0314 76.1869C18.0314 75.9379 18.1137 75.7512 18.216 75.7512C18.3195 75.7512 18.6699 75.6475 19.0004 75.5023L19.5778 75.2742L18.8557 75.1498C18.3606 75.0667 18.1137 74.9008 18.0726 74.6311C17.9279 73.8844 19.2897 73.3036 19.5578 74.0088ZM16.505 74.6519C16.6484 74.963 16.7931 75.046 16.9378 74.9008C17.0824 74.7556 17.2258 74.7971 17.4116 75.0252C17.8656 75.5646 17.3505 75.8964 16.7108 75.4609C16.4215 75.2742 15.9064 75.1289 15.556 75.1289C14.8539 75.1289 14.7716 74.9008 15.2667 74.403C15.6994 73.9673 16.2157 74.071 16.505 74.6519ZM17.7833 83.6336C17.8244 84.0277 17.9479 84.484 18.0726 84.6085C18.4642 85.0856 18.0925 85.5419 17.3705 85.4589C16.6285 85.3967 16.6073 85.3345 16.9166 83.5713C17.0824 82.5342 17.6798 82.5757 17.7833 83.6336Z" fill="#28682E"/>
<path d="M18.2282 79.2586C18.2282 79.8187 18.1658 80.4618 18.1047 80.6692C18.0212 80.9596 18.0835 80.9388 18.414 80.5447C18.8467 80.0676 18.9702 79.2171 18.7233 78.5742C18.4751 77.9104 18.2282 78.2631 18.2282 79.2586Z" fill="#28682E"/>
<path d="M15.7745 79.3034C15.7533 79.6975 15.898 80.2161 16.0639 80.4443C16.4342 80.9214 16.4342 80.9007 16.0639 79.5938C15.7945 78.5982 15.7745 78.5774 15.7745 79.3034Z" fill="#28682E"/>
<path d="M65.9887 19.2753C62.7925 19.4205 57.5736 20.7481 56.5834 21.6816C56.3352 21.9097 55.0981 22.6565 53.8398 23.3409C51.5502 24.5649 49.1572 26.1827 47.6308 27.5311C47.1768 27.9252 46.7441 28.2571 46.6618 28.2571C46.5994 28.2571 46.1867 28.7549 45.7539 29.3357C45.3212 29.9372 44.6191 30.8292 44.2063 31.3063C43.7736 31.7834 42.9892 33.028 42.453 34.1066C39.4214 40.1843 38.5546 47.0502 39.9775 53.7709C40.7831 57.6499 42.8246 62.4415 45.1765 66.0093C46.2079 67.6066 48.9925 70.3653 50.7247 71.5476C53.2625 73.2486 56.8515 74.8666 59.8008 75.6341C62.5032 76.3185 72.1367 76.6297 74.2193 76.0904C75.4988 75.7585 81.8101 72.7093 83.2131 71.7551C83.7293 71.4026 85.3992 69.8883 86.9256 68.3947C88.452 66.9013 90.33 65.2211 91.0932 64.6817C92.2268 63.8936 92.5785 63.4994 93.0324 62.5245C93.3205 61.8814 93.9602 60.4917 94.4553 59.4753C95.8994 56.4676 96.0017 56.1357 96.6626 52.2153C97.2188 48.8134 97.2811 48.2118 97.1577 45.37C97.013 41.6155 96.5379 39.3338 95.5477 37.6951C95.342 37.3425 95.1774 36.9692 95.1774 36.824C95.1774 36.2639 91.8976 31.3893 90.7416 30.2277C90.0619 29.5432 88.9894 28.4023 88.3909 27.6763C86.4729 25.4153 84.0174 23.8803 77.5814 20.9141C75.2095 19.8354 69.9706 19.0887 65.9887 19.2753ZM72.7752 19.9599C74.137 20.188 79.0055 22.0964 81.3562 23.3409C82.2029 23.7973 83.4612 24.5856 84.1409 25.0834C84.8218 25.602 85.8743 26.2451 86.4517 26.5147C87.256 26.888 87.7723 27.3237 88.4108 28.2155C88.8859 28.8586 89.7938 30.0202 90.4323 30.767C91.8153 32.4264 93.7956 35.766 94.9292 38.3174C96.4356 41.6986 96.8484 45.5568 96.2087 50.4521C95.4866 56.115 95.2796 56.8201 93.2382 60.5124C92.0834 62.5867 91.6906 63.0846 88.7824 66.0093C86.2459 68.5608 85.2146 69.4319 83.8316 70.2616C82.8626 70.8217 81.7079 71.61 81.2539 72.0248C79.9133 73.2278 79.7886 73.2901 77.8083 73.8294C76.757 74.1198 75.2506 74.5347 74.4462 74.7421C73.6631 74.9703 72.0743 75.2399 70.9395 75.3643C69.8059 75.4682 68.3619 75.6133 67.7421 75.6756C66.6085 75.8 66.0099 75.6963 59.8008 74.4103C55.057 73.4354 54.7677 73.3108 51.756 70.8632C48.5798 68.3118 46.1256 65.7603 45.3624 64.2462C45.0319 63.5824 44.331 62.3171 43.8147 61.4459C43.2997 60.5954 42.7635 59.4753 42.5976 58.9568C42.4529 58.4381 42.1437 57.6291 41.9379 57.1728C41.2159 55.6171 40.7208 53.128 40.4115 49.5394C39.9987 44.9137 40.0199 43.8558 40.535 41.3044C41.0101 38.8775 42.3095 35.3719 43.0927 34.4385C43.3608 34.1066 43.7736 33.4428 43.9794 32.9658C44.2063 32.4887 44.7425 31.6174 45.2177 31.0367C46.4348 29.4809 51.7772 24.9589 53.3236 24.1292C54.0456 23.7559 55.2428 23.0298 55.9848 22.5528C57.3054 21.6816 57.6147 21.5779 61.6988 20.7067C63.1841 20.3747 63.8849 20.2503 65.7829 19.9599C67.3093 19.7317 71.3735 19.7317 72.7752 19.9599Z" fill="#28682E"/>
<path d="M63.8626 21.3248C62.9135 21.5738 61.5518 22.1545 61.5518 22.2997C61.5518 22.4241 65.0173 22.0301 66.626 21.7189C68.4829 21.3663 71.5357 21.3248 72.794 21.6152C73.516 21.7812 73.5784 21.7604 73.2479 21.5114C72.7316 21.1381 71.4945 21.0137 67.9467 21.0344C66.0898 21.0344 64.5434 21.1381 63.8626 21.3248Z" fill="#28682E"/>
<path d="M57.24 23.191C55.8159 23.5643 54.0638 24.643 52.8878 25.8461C52.3927 26.3646 52.0411 26.8003 52.1246 26.8003C52.2069 26.8003 52.8055 26.4061 53.4852 25.9083C54.2072 25.369 55.5478 24.6845 56.8273 24.2074C58.0033 23.7718 59.158 23.2947 59.385 23.1288C59.7566 22.8799 59.7354 22.8591 59.0757 22.8799C58.6841 22.8799 57.8586 23.0251 57.24 23.191Z" fill="#28682E"/>
<path d="M83.2334 26.5325C83.2746 26.657 84.2448 27.4867 85.3796 28.3994C87.7515 30.287 88.2666 30.847 89.4425 32.8798C89.9177 33.7096 90.4128 34.5185 90.5562 34.6845C91.464 35.8253 93.5479 40.4925 94.331 43.1891C94.4969 43.7492 94.3111 47.2132 93.9394 50.4492C93.1139 57.7507 93.0528 58.0203 92.1449 59.659C91.5875 60.6754 92.3095 60.1984 92.9904 59.0989C93.6514 58.0203 93.7948 57.481 94.3522 53.6643C94.5792 52.1708 94.8473 50.387 94.9708 49.7024C95.0743 48.9971 95.1778 47.3584 95.1778 46.0724C95.1778 44.0603 95.1154 43.6248 94.765 43.0854C94.538 42.7328 93.9394 41.1563 93.4244 39.5591C92.5577 36.8002 91.2583 33.9584 89.6695 31.3242C88.9275 30.0795 86.906 28.3787 84.6364 27.1133C83.2135 26.325 83.1511 26.2835 83.2334 26.5325Z" fill="#28682E"/>
<path d="M43.5714 35.9732C43.1586 36.6993 42.5613 38.0268 42.252 38.9395C41.7358 40.4951 41.6946 40.8686 41.6323 44.7475C41.6123 47.0292 41.5088 49.3316 41.4265 49.8917C41.2619 51.0533 41.5911 52.9202 42.2932 54.7663C42.5613 55.4716 42.7883 56.2184 42.7883 56.4258C42.7883 56.8199 44.7474 60.2218 46.6043 63.1051C48.728 66.3824 52.7099 69.6184 56.9175 71.506C60.2596 72.9994 63.2089 73.9536 63.2089 73.5388C63.2089 73.4351 62.8584 73.2691 62.4257 73.1239C61.9917 72.9787 61.0228 72.5846 60.2795 72.2527C59.5163 71.9001 58.8566 71.6097 58.7743 71.6097C58.4439 71.6097 55.8861 70.3236 54.9995 69.7013C53.1226 68.4152 49.0173 65.0134 47.7802 63.7274C45.9645 61.8189 43.6749 57.7948 43.4692 56.1147C43.3856 55.3887 42.6224 52.4017 42.1685 50.9496C41.8393 49.9332 41.9216 44.063 42.2932 41.9057C42.479 40.8064 42.994 38.981 43.5103 37.6948C44.6239 34.8324 44.6651 34.6871 44.4793 34.6871C44.397 34.6871 43.9842 35.268 43.5714 35.9732Z" fill="#28682E"/>
<path d="M69.4753 40.8872C68.2993 42.2562 68.1547 42.36 67.4326 42.36C66.6694 42.36 66.5871 42.2562 66.9176 41.7377C67.1034 41.468 67.1446 41.468 67.3304 41.7377C67.5773 42.1525 68.0524 41.6962 67.8666 41.2191C67.6808 40.7213 67.0623 40.9287 66.7517 41.6132L66.4637 42.194L65.8863 41.634C65.143 40.9287 64.6479 41.0531 64.6479 41.9658C64.6479 43.1067 64.2152 44.0194 63.679 44.0194C62.6888 44.0194 62.0902 45.1811 62.6065 46.1144C62.7711 46.4463 62.73 46.5915 62.3384 46.9234L61.8633 47.2968L62.2972 47.7946C62.5442 48.0435 62.7711 48.4169 62.8335 48.5828C62.8946 48.7488 63.3697 49.0184 63.8648 49.143C65.7204 49.6407 66.3602 50.8645 64.5656 50.4497C63.6378 50.2423 63.1016 50.4497 62.8946 51.0719C62.6888 51.6943 62.9781 51.964 63.679 51.8187C64.1529 51.715 64.421 51.798 64.7303 52.1092C65.1642 52.5033 65.1842 52.5033 66.2579 51.9846C66.8353 51.6943 67.3304 51.3832 67.3304 51.2795C67.3304 50.906 67.9277 51.0513 68.1547 51.4661C68.2794 51.715 68.2993 52.2129 68.1759 52.8766C67.9489 54.0175 68.0312 54.225 68.464 53.6441C68.7732 53.2293 68.8356 52.8144 68.7732 51.8187C68.7321 51.0719 69.1448 50.7816 69.6399 51.2172C69.8469 51.4039 70.0116 51.6528 70.0116 51.798C70.0116 52.2544 70.9606 52.9388 71.6203 52.9388C72.28 52.9388 73.1055 52.2751 73.1055 51.7565C73.1055 51.5906 72.7962 51.3417 72.4047 51.1758C71.1464 50.6364 71.1875 49.7444 72.4658 49.9518C73.2701 50.0764 74.1368 49.7859 74.1368 49.3711C74.1368 48.9769 71.8273 49.4126 71.2075 49.9311C70.6925 50.3668 70.6712 50.4082 71.0429 50.5119C71.311 50.5742 71.4556 50.8023 71.4556 51.155C71.4556 51.4454 71.6203 51.7565 71.8273 51.8809C72.0954 52.0261 72.1153 52.1507 71.9507 52.3166C71.5168 52.7522 70.7535 52.4618 70.3832 51.7358C69.9292 50.8023 69.8881 50.7816 69.0214 50.7194C68.6086 50.6986 67.9901 50.6364 67.6396 50.6156C67.1234 50.5534 66.9999 50.6364 66.9588 51.0306C66.8964 51.4246 66.7941 51.5076 66.4425 51.4039C66.2155 51.3417 65.8863 51.4039 65.7416 51.5283C65.4323 51.7772 64.4422 51.5906 64.4422 51.2795C64.4422 51.155 64.7303 51.0719 65.0819 51.0719C65.5147 51.0719 65.7416 50.9475 65.804 50.6986C65.8651 50.5119 66.319 50.1594 66.8353 49.9518C67.6596 49.62 67.8866 49.5992 68.5675 49.8274C69.1249 50.0142 69.4541 50.0348 69.6399 49.8896C69.7846 49.7652 70.2585 49.5578 70.6924 49.4126C71.1252 49.2881 71.6203 48.9354 71.8061 48.6658C72.1777 48.0851 72.8374 48.0227 73.229 48.5206C73.4771 48.8732 73.5183 48.8732 73.8488 48.5414C74.3226 48.0851 74.0545 47.7531 73.1878 47.7531C72.3635 47.7531 72.28 47.4213 73.0232 47.0893C73.436 46.8819 73.663 46.9026 74.1992 47.1724C75.3128 47.7324 75.5186 47.7531 75.9937 47.2346L76.4476 46.7575L75.9937 46.5086C75.7455 46.3634 75.2916 46.3012 74.9823 46.3634C74.6943 46.4256 74.0333 46.5708 73.5183 46.6952C73.002 46.7989 72.5693 46.8612 72.5281 46.8197C72.3423 46.633 72.9608 45.8862 73.3113 45.8862C73.8276 45.8862 74.4873 44.9113 74.1992 44.621C73.9311 44.3513 72.5905 45.0772 72.5905 45.4714C72.5905 45.6166 72.4658 45.7825 72.3012 45.8448C72.0954 45.907 72.0742 45.7825 72.1777 45.2433C72.26 44.8698 72.4246 44.3928 72.5481 44.206C72.7962 43.7912 74.3014 43.1482 74.5908 43.3142C74.9 43.5008 75.5809 42.7541 75.5809 42.2356C75.5809 41.6132 75.4163 41.5303 74.5496 41.7169C73.951 41.8206 73.8064 41.9658 73.7652 42.4222C73.724 42.7541 73.4771 43.1274 73.1878 43.3348C72.5481 43.7497 72.3635 43.5838 72.775 42.92C73.0856 42.4637 73.0856 42.3806 72.7962 42.1525C72.6316 42.0073 72.487 41.9243 72.4658 41.9658C72.4658 42.0073 72.4246 42.2562 72.4047 42.5259C72.3223 43.1689 71.8684 43.6253 71.7026 43.1896C71.6415 43.0237 71.3521 42.6504 71.0429 42.36C70.5266 41.8829 70.5066 41.7999 70.7748 41.3851C70.9394 41.1361 71.0217 40.825 70.9394 40.7005C70.7336 40.3478 69.8257 40.4724 69.4753 40.8872ZM69.5165 41.8829C69.3107 42.0903 69.1249 41.7792 69.3107 41.5095C69.4342 41.2813 69.4753 41.2813 69.5576 41.5095C69.5988 41.6547 69.5788 41.8206 69.5165 41.8829ZM65.577 42.36C65.4523 42.5467 65.3912 42.5467 65.2465 42.3393C65.0408 41.9866 65.2465 41.634 65.5147 41.9036C65.6381 42.028 65.6593 42.2356 65.577 42.36ZM74.8377 42.4637C74.7554 42.6296 74.6319 42.7748 74.5284 42.7748C74.4261 42.7748 74.3438 42.6296 74.3438 42.4637C74.3438 42.2978 74.4873 42.1525 74.6531 42.1525C74.8377 42.1525 74.9 42.2769 74.8377 42.4637ZM69.186 42.6504C69.186 42.6919 69.2484 42.8993 69.3307 43.1067C69.4342 43.397 69.3718 43.4386 68.9179 43.3142C67.9489 43.0859 66.3602 43.5631 65.804 44.2684C65.2877 44.9321 65.3089 45.3055 65.8451 45.9485C66.1332 46.2597 66.1132 46.3426 65.7416 46.7782C65.5147 47.0271 65.37 47.359 65.4111 47.4835C65.5359 47.8361 65.3501 47.8153 64.7515 47.4213C64.1329 47.0063 64.0706 46.5086 64.6479 46.6538C65.143 46.7782 65.2054 46.3841 64.7303 45.8655C64.5245 45.6374 64.4621 45.3885 64.5868 45.2224C64.6692 45.0772 64.7515 44.6417 64.7515 44.2475C64.7515 43.6668 64.8749 43.4801 65.4523 43.1482C65.8863 42.8993 66.3814 42.7748 66.7106 42.837C66.9999 42.8993 67.3715 42.8785 67.5361 42.7541C67.8454 42.5674 69.186 42.4844 69.186 42.6504ZM71.0429 43.0444C71.0429 43.2933 71.2287 43.6668 71.4556 43.8742C72.1565 44.455 71.9707 45.098 70.7748 46.2388C69.7434 47.2346 69.6811 47.2553 69.2272 46.9649C68.6498 46.5915 68.3405 46.8197 68.8979 47.2139C69.2683 47.5042 69.2683 47.525 68.6909 48.1473C68.2794 48.5828 67.8866 48.7903 67.4538 48.7903C66.7517 48.7903 65.8863 48.0851 65.8863 47.525C65.8863 47.0686 66.6495 46.5086 67.2269 46.5086C67.6596 46.5086 68.1547 46.156 68.1547 45.8448C68.1547 45.7618 67.9689 45.6788 67.7419 45.6788C67.5149 45.6788 67.3304 45.5751 67.3304 45.4714C67.3304 45.1395 68.2994 45.2224 68.671 45.5959C68.9179 45.8655 69.0625 45.8862 69.2895 45.6788C69.4541 45.5336 69.5988 45.2433 69.5988 45.0358C69.5988 44.8076 69.7023 44.6417 69.8257 44.6417C69.9704 44.6417 70.0116 44.8491 69.9704 45.1602C69.908 45.4507 69.9492 45.6788 70.0315 45.6788C70.135 45.6788 70.2173 45.5751 70.2173 45.4714C70.2173 45.347 70.3009 45.2639 70.4243 45.2639C70.5266 45.2639 70.5478 45.4092 70.4854 45.6166C70.4031 45.8448 70.4243 45.907 70.5889 45.8033C70.9194 45.5959 70.8783 44.4343 70.5266 43.812C70.0939 43.0652 70.135 42.5674 70.6301 42.5674C70.9194 42.5674 71.0429 42.7126 71.0429 43.0444ZM68.9802 44.1231C69.1249 44.2891 69.1661 44.4343 69.0625 44.455C68.959 44.455 68.3816 44.4965 67.7631 44.538C66.5048 44.621 66.546 44.6002 66.4425 45.2848C66.3402 45.907 66.0097 45.9485 65.9274 45.3262C65.804 44.4758 66.2155 44.0401 67.2892 43.9571C67.8255 43.9157 68.3617 43.8742 68.4852 43.8534C68.6086 43.8327 68.8356 43.9571 68.9802 44.1231ZM64.1741 45.1811C64.1117 45.5959 63.9883 45.9899 63.9259 46.0522C63.7825 46.1975 62.9981 45.4714 62.9981 45.1602C62.9981 44.8076 63.452 44.4343 63.8847 44.4343C64.2364 44.4343 64.2776 44.538 64.1741 45.1811ZM73.5183 45.2639C73.5183 45.3677 73.4148 45.4714 73.2913 45.4714C73.1878 45.4714 73.1467 45.3677 73.209 45.2639C73.2701 45.1395 73.3736 45.0565 73.436 45.0565C73.4771 45.0565 73.5183 45.1395 73.5183 45.2639ZM71.6614 46.8197C71.6614 47.0893 71.7649 47.3798 71.8884 47.442C72.0118 47.5457 71.9707 47.6909 71.7238 47.8568C71.5168 48.002 71.2898 48.0851 71.2075 48.0435C71.1052 47.9813 71.0429 48.1266 71.0429 48.3547C71.0429 48.8732 70.4443 49.2259 69.9904 48.9769C69.7222 48.8525 69.62 48.894 69.5377 49.2052C69.4753 49.4541 69.2484 49.62 69.0002 49.62C68.5051 49.62 68.4851 49.4748 68.7732 48.6866C68.959 48.2095 69.0625 48.1473 69.5988 48.2717C70.4243 48.4584 70.8371 48.1057 70.8371 47.2553C70.8371 46.5708 71.1875 46.0314 71.4968 46.2182C71.5791 46.2804 71.6614 46.55 71.6614 46.8197ZM75.5398 46.8612C75.5809 47.0271 75.4363 47.1308 75.1893 47.1308C74.9412 47.1308 74.7554 47.0063 74.7554 46.7989C74.7554 46.4256 75.3951 46.4878 75.5398 46.8612ZM63.3697 47.4005C63.452 47.7739 63.0804 47.8568 62.6065 47.5664C62.4619 47.4627 62.3995 47.2761 62.4831 47.1515C62.6888 46.7989 63.2874 46.9649 63.3697 47.4005ZM70.2173 47.5457C70.2173 47.6494 70.1151 47.7531 69.9904 47.7531C69.8881 47.7531 69.8469 47.6494 69.908 47.5457C69.9704 47.4213 70.0739 47.3383 70.135 47.3383C70.1762 47.3383 70.2173 47.4213 70.2173 47.5457ZM64.401 48.2095C64.2975 48.5206 63.4109 48.7073 63.4109 48.4169C63.4109 48.1266 63.6578 47.9605 64.0918 47.9605C64.2975 47.9605 64.4422 48.0642 64.401 48.2095ZM66.5048 48.9978C66.6694 49.3089 66.6283 49.4333 66.319 49.62C65.7628 49.9104 65.6182 49.8896 65.7628 49.5163C65.8451 49.2881 65.7416 49.2052 65.37 49.2052C65.0408 49.2052 64.855 49.0806 64.855 48.894C64.855 48.3962 66.2367 48.4791 66.5048 48.9978ZM64.0294 50.7401C64.0294 50.7816 64.0918 50.9682 64.1529 51.1343C64.2152 51.3417 64.1329 51.4246 63.8236 51.4039C63.5967 51.4039 63.4109 51.3209 63.4109 51.2172C63.4109 51.1343 63.4109 50.9682 63.4109 50.8645C63.4109 50.7401 63.5555 50.6571 63.7201 50.6571C63.8848 50.6571 64.0294 50.6986 64.0294 50.7401Z" fill="#28682E"/>
<path d="M14.8283 27.0079C14.6425 27.6301 14.9106 27.9412 15.2623 27.4849C15.5304 27.1323 15.5915 27.153 16.2524 27.9204L16.9533 28.7502L17.7988 27.9828C18.6854 27.1738 19.2017 27.0286 19.6556 27.4641C19.8614 27.6923 19.9026 27.6301 19.8415 27.2153C19.738 26.3648 18.8925 26.427 17.9846 27.319C17.2625 28.045 17.2214 28.0656 17.0156 27.6716C16.6228 26.9455 16.1489 26.5929 15.5503 26.5929C15.1376 26.5929 14.9106 26.7174 14.8283 27.0079Z" fill="#28682E"/>
<path d="M15.5453 29.5996C15.3807 29.8071 15.4218 29.9108 15.7311 30.0145C15.9581 30.0767 16.205 30.3256 16.2673 30.5538C16.432 31.0724 16.8036 31.0517 17.2575 30.5123C17.6079 30.0975 17.6491 30.0975 18.0207 30.4293C18.4946 30.865 18.8463 30.6782 18.8463 29.9938C18.8463 29.3715 18.3512 29.1433 17.7314 29.4959C17.4221 29.6411 17.0517 29.6827 16.7624 29.5789C15.9581 29.3092 15.7723 29.3092 15.5453 29.5996Z" fill="#28682E"/>
</svg>
