<svg width="558" height="269" viewBox="0 0 558 269" fill="none" xmlns="http://www.w3.org/2000/svg">
<g clip-path="url(#clip0_536_6319)">
<path d="M1.17672 144.93C2.42323 154.887 6.89598 168.309 11.882 176.717C18.4811 188.075 28.5999 198.694 39.8184 206.069C46.7841 210.642 47.2241 211.011 48.3973 214.698C50.2304 220.303 54.3365 225.171 59.9092 228.194C64.162 230.481 65.3351 230.776 72.3008 231.145L79.9265 231.514L82.5661 236.087C89.6053 248.697 98.6241 255.703 113.875 260.423C120.181 262.414 120.695 262.414 138.658 262.414C154.277 262.341 159.042 262.046 170.921 260.35C213.962 254.302 212.35 254.45 231.78 254.45C248.498 254.45 250.624 254.597 255.904 256.072C262.283 257.843 269.028 261.308 274.967 265.808C277.094 267.43 279.074 268.757 279.367 268.757C279.66 268.757 282.594 266.84 285.893 264.407C292.932 259.317 298.945 256.81 308.037 255.113C313.536 254.007 317.349 253.933 330.767 254.228C339.639 254.523 349.391 255.039 352.398 255.482C396.539 261.898 409.518 263.225 425.721 262.636C439.433 262.193 445.812 260.866 454.684 256.589C464.877 251.648 471.256 245.526 476.168 236.16L478.662 231.514L486.434 231.071C495.306 230.629 499.779 228.933 504.618 224.065C507.331 221.261 510.777 214.845 510.777 212.486C510.777 211.748 511.803 210.568 513.05 209.905C524.122 203.857 533.947 195.376 540.987 185.861C546.633 178.265 552.719 165.58 555.285 156.288C557.117 149.429 557.265 147.88 557.265 134.531C557.265 121.256 557.117 119.634 555.359 112.996C549.199 90.3547 533.58 70.442 513.05 59.1581C511.657 58.3469 510.777 57.3144 510.777 56.3556C510.777 53.8482 507.405 48.0955 504.031 44.8506C498.826 39.7617 495.452 38.4342 486.58 38.0655L478.881 37.6967L475.216 31.5016C464.951 13.8016 448.159 6.05774 420.663 6.05774C409.077 6.13147 403.577 6.64775 373.295 10.6303C346.019 14.244 337.293 15.0554 325.561 15.0554C305.177 15.0554 293.299 11.589 282.887 2.44395C281.568 1.26395 280.027 0.305176 279.514 0.305176C279 0.305176 276.655 1.85395 274.235 3.69772C268.368 8.27025 263.09 10.8515 255.244 12.9165C249.231 14.5391 247.178 14.6865 231.78 14.6865C222.102 14.6865 211.983 14.244 207.95 13.7278C154.277 6.35273 153.104 6.20523 137.413 6.20523C119.888 6.20523 108.229 9.00775 98.3308 15.5715C92.5382 19.4066 86.379 26.0442 82.7862 32.0917L79.5599 37.7704L72.3741 38.0655C66.0683 38.2867 64.6018 38.6555 60.2757 40.7943C56.3163 42.7118 54.7031 44.1131 52.2101 47.5056C50.4503 49.8656 48.6906 53.2581 48.2506 55.0281C47.5907 57.7569 46.9308 58.5682 44.2912 60.0432C38.8652 63.0669 27.8666 71.622 23.8338 76.0471C12.9085 88.0684 5.50283 102.45 2.34991 117.716C0.956757 124.649 0.296838 138.366 1.17672 144.93ZM3.81639 119.929C8.1425 95.9598 21.9274 76.1946 43.4846 62.9195C48.3973 59.8956 48.9106 59.3795 49.9371 55.9869C51.4035 50.8243 55.7296 45.5144 60.5691 42.7856C64.3085 40.6468 65.2617 40.4992 72.8875 40.2043L81.0996 39.9831L82.5661 36.738C84.8392 31.4279 89.8986 24.7904 94.5912 20.8079C107.643 9.89276 124.947 6.27897 152.591 8.71276C160.216 9.3765 172.462 10.704 179.72 11.7365C211.029 16.0878 217.628 16.7516 232.88 16.8253C246.445 16.899 248.571 16.7516 254.511 15.2028C262.649 13.0641 270.275 9.45026 274.967 5.54147C276.875 3.8452 278.854 2.51771 279.221 2.51771C279.66 2.51771 282.007 4.06647 284.5 5.91022C297.845 16.1615 314.709 19.0378 343.599 16.1615C349.465 15.5715 364.13 13.8016 376.229 12.1053C414.137 7.0165 429.681 6.64775 444.493 10.5565C457.984 14.0965 469.349 23.3154 475.655 35.7793L477.708 39.9831L486.361 40.2043C494.793 40.4992 495.159 40.5731 498.899 43.0068C503.738 46.1044 506.964 50.2344 508.505 55.3232C509.678 59.0844 510.044 59.5269 515.177 62.6244C530.721 72.2857 540.84 83.6434 548.539 100.09C552.352 108.202 554.405 115.577 555.579 125.829C557.778 144.93 553.158 163.515 541.94 181.142C536.954 188.886 525.149 200.316 516.497 205.627C510.484 209.315 509.385 210.273 509.018 212.264C507.918 218.017 503.151 224.139 497.653 226.867C494.939 228.194 492.52 228.563 485.921 228.933L477.489 229.301L475.068 234.094C466.416 251.353 450.651 259.907 425.356 261.161C415.089 261.603 401.304 260.423 374.395 256.589C332.38 250.615 312.803 250.394 296.892 255.85C292.785 257.253 289.779 259.023 283.987 263.373C281.714 265.144 279.587 266.545 279.293 266.545C279 266.545 276.948 265.07 274.748 263.299C269.395 259.096 264.263 256.589 257.664 254.818C240.726 250.32 226.428 250.763 178.401 257.327C143.278 262.119 128.394 262.341 114.242 258.433C99.944 254.45 88.7254 245.379 83.0061 233.357C82.1995 231.514 81.0996 229.818 80.7331 229.523C80.2932 229.228 76.7003 228.933 72.5942 228.933C66.0683 228.933 64.7485 228.71 61.5956 227.014C59.6158 225.982 56.9029 224.065 55.5829 222.811C52.9433 220.229 49.5705 213.96 49.5705 211.527C49.5705 210.347 48.2506 209.167 44.2178 206.733C36.812 202.309 31.7528 198.325 25.3002 191.614C7.04262 172.512 -0.876359 146.037 3.81639 119.929Z" fill="#85000B"/>
<path d="M9.6134 146.029C13.2796 170.071 28.531 191.753 49.7949 203.112C52.8745 204.808 55.2941 206.503 55.0009 206.872C54.1943 208.201 56.9073 215.281 59.1069 217.714C63.2865 222.14 66.0728 223.024 75.5315 223.024C84.5504 223.024 86.2368 223.319 86.2368 225.015C86.2368 226.416 90.3429 234.676 92.4693 237.479C106.181 255.547 129.058 259.014 181.411 250.976C227.166 243.896 250.849 244.117 266.98 251.713C269.473 252.819 273.14 255.031 275.265 256.581L279.152 259.383L282.378 257.024C287.364 253.409 297.19 249.059 303.276 247.73C310.827 246.034 331.798 245.444 343.457 246.624C348.59 247.066 358.342 248.32 365.234 249.28C372.053 250.312 382.245 251.787 387.744 252.524C401.749 254.589 421.546 255.547 430.932 254.663C445.011 253.409 454.689 249.354 462.462 241.535C466.861 237.111 470.747 230.694 472.874 224.352C473.313 223.172 474.413 223.024 482.333 223.024C492.524 223.024 495.457 222.066 499.564 217.862C501.983 215.354 502.936 213.141 503.816 208.053C504.183 205.766 504.696 205.102 506.896 204.218C511.735 202.153 522.073 194.704 527.353 189.468C539.305 177.52 546.784 162.696 549.276 145.808C550.597 137.178 550.671 132.163 549.57 124.493C546.051 98.6806 531.239 77.9567 507.189 65.0503C503.743 63.1327 503.449 62.764 503.449 60.4039C503.449 57.2327 501.396 53.029 498.536 50.3002C494.944 46.8339 491.864 46.0226 482.185 46.0226C474.413 46.0226 473.313 45.8751 472.946 44.695C472.727 44.0313 471.334 41.0075 469.941 37.9838C464.954 27.5113 454.542 19.3249 442.223 16.1536C427.267 12.3186 411.868 12.9086 371.247 18.8086C321.313 26.0361 299.463 24.3399 282.305 11.9498L279.225 9.7373L275.706 12.3186C264.121 20.5786 249.749 23.6762 227.018 22.8649C213.894 22.4224 211.988 22.2012 178.771 17.6286C154.354 14.3099 142.11 13.2773 132.651 13.8674C108.601 15.2686 95.4023 23.0124 87.63 40.3438L85.137 46.0226H76.1181C65.6328 46.0226 63.6531 46.6863 59.1803 51.5538C56.4674 54.504 55.8808 56.0527 55.2941 61.4365C55.1476 62.764 53.901 63.7965 50.3081 65.714C21.0519 81.3492 4.62738 113.726 9.6134 146.029ZM13.2796 123.092C17.0191 99.713 31.5372 79.7266 52.2146 69.4015L58.0804 66.4515L58.887 61.8052C59.8402 56.1264 61.9666 52.9551 65.9995 51.1114C68.4191 50.0051 70.8388 49.7102 78.6844 49.7102H88.2899L89.9029 44.9901C93.056 35.4763 99.875 27.4374 108.234 23.3812C116.813 19.2512 120.112 18.5874 134.777 18.2186C149.736 17.7762 156.627 18.2923 179.725 21.6849C211.621 26.2575 213.453 26.4787 231.785 26.4787C246.229 26.4787 250.482 26.2575 255.615 25.0774C263.167 23.455 269.179 21.0949 274.972 17.4811L279.298 14.8261L281.571 16.1536C287.731 19.8411 291.617 21.6849 295.943 23.0861C314.347 28.9125 340.305 27.9537 394.197 19.3987C396.837 18.9561 406.222 18.4399 415.094 18.2186C434.159 17.7023 440.098 18.5874 449.557 23.1599C459.015 27.7325 464.88 34.3701 468.694 44.8426L470.308 49.3414L480.792 49.7102C489.664 50.0051 491.718 50.3002 493.917 51.6276C497.877 53.9139 499.783 57.3065 499.783 61.9528V65.9352L504.477 68.074C520.094 75.2279 534.319 90.4205 541.212 107.383C544.878 116.454 546.197 123.166 546.271 133.786C546.344 144.037 545.317 150.527 542.311 158.86C538.205 170.071 532.192 179.363 523.614 187.551C517.382 193.449 513.421 196.327 505.87 200.161L500.223 203.112L500.077 206.725C499.783 211.371 498.317 214.247 494.871 216.903C492.304 218.894 491.864 218.968 481.305 219.336L470.308 219.705L468.987 223.541C462.829 241.24 449.996 249.87 428.293 250.976C412.235 251.787 403.363 250.976 359.001 244.633C347.343 242.937 342.871 242.642 327.106 242.642C311.855 242.569 307.894 242.79 303.348 243.896C296.09 245.665 287.51 249.059 283.479 251.787C281.645 252.967 279.885 253.999 279.592 253.999C279.225 253.999 276.952 252.819 274.459 251.345C268.74 248.025 259.355 244.781 250.482 243.232C244.836 242.274 240.51 242.126 227.385 242.421C218.513 242.642 209.274 243.158 206.854 243.601C199.815 244.854 171.879 248.689 160.294 250.017C152.668 250.828 145.629 251.123 135.364 250.902C122.092 250.607 120.626 250.46 115.2 248.541C111.974 247.435 107.867 245.665 106.108 244.633C98.7019 240.281 92.7626 232.759 89.9029 224.057L88.2899 219.336H78.4645C67.6125 219.336 64.4596 218.451 61.38 214.47C59.767 212.404 59.4737 211.593 58.7403 206.061C58.2271 202.743 58.2271 202.743 52.5078 199.94C24.5715 186.443 8.22025 154.363 13.2796 123.092Z" fill="#85000B"/>
<path d="M106.64 22.7947C95.8641 24.0201 89.0889 39.4445 87.0485 47.0035L69.1985 48.9884L58.8673 54.3832L57.8193 64.5736L50.6322 67.5708L33.1139 80.9081L21.5849 97.6922L14.9968 109.831L10.3496 124.517L11.6917 143.1L15.8854 160.633L28.314 182.961L38.047 192.552L56.0216 204.691L58.8662 214.132L67.69 221.474H86.8597L94.346 236.761L108.72 248.149L126.388 252.796L161.126 251.896L188.975 248.149L218.321 244.404H251.112L279.561 256.242L293.635 248.899L313.698 244.404H347.237L371.194 248.899L407.728 252.345H434.679L454.144 246.351L464.624 235.562L471.213 220.875L484.539 219.977L490.966 220.875L495.619 217.429L501.308 211.434L503.105 203.942L519.875 192.702L533.201 178.165L544.579 159.584L547.125 139.203V122.419L538.441 99.3406L525.565 81.8073L508.645 69.5189L501.458 66.0722L498.765 52.8882L489.565 47.7895H472.711L470.046 42.1093L459.171 26.1255L440.22 17.8179L407.129 16.9188L383.418 20.6515L350.964 22.7947L318.203 25.2481L296.159 20.6515L280.239 12.6841L255.132 22.7947L222.065 25.2481L188.693 20.6515L137.561 15.7473C139.5 17.1774 141.971 19.1795 136.337 15.7473C130.703 12.3152 114.191 19.0156 106.64 22.7947Z" fill="#85000B"/>
</g>
<defs>
<clipPath id="clip0_536_6319">
<rect width="558" height="269" fill="white"/>
</clipPath>
</defs>
</svg>
