<svg width="628" height="320" viewBox="0 0 628 320" fill="none" xmlns="http://www.w3.org/2000/svg">
<g clip-path="url(#clip0_582_3)">
<path d="M1.32435 172.407C2.72724 184.252 7.76108 200.219 13.3726 210.22C20.7996 223.732 32.1877 236.364 44.8136 245.138C52.6532 250.578 53.1483 251.016 54.4687 255.402C56.5317 262.07 61.153 267.861 67.4247 271.457C72.211 274.178 73.5313 274.529 81.3709 274.968L89.9531 275.406L92.9239 280.846C100.846 295.847 110.996 304.182 128.161 309.797C135.258 312.166 135.836 312.166 156.053 312.166C173.631 312.078 178.994 311.727 192.363 309.709C240.804 302.515 238.989 302.691 260.857 302.691C279.672 302.691 282.064 302.866 288.007 304.62C295.186 306.727 302.778 310.85 309.461 316.202C311.855 318.132 314.083 319.711 314.413 319.711C314.743 319.711 318.045 317.43 321.757 314.535C329.68 308.481 336.447 305.499 346.679 303.48C352.869 302.164 357.16 302.077 372.261 302.427C382.247 302.778 393.222 303.392 396.606 303.919C446.284 311.552 460.891 313.13 479.127 312.429C494.559 311.902 501.739 310.323 511.724 305.236C523.195 299.357 530.375 292.075 535.902 280.934L538.709 275.406L547.457 274.88C557.442 274.354 562.475 272.336 567.921 266.545C570.975 263.21 574.854 255.578 574.854 252.771C574.854 251.893 576.008 250.49 577.412 249.701C589.872 242.506 600.93 232.417 608.853 221.099C615.207 212.062 622.057 196.972 624.945 185.918C627.007 177.759 627.173 175.917 627.173 160.037C627.173 144.245 627.007 142.315 625.028 134.419C618.095 107.485 600.517 83.797 577.412 70.3737C575.844 69.4087 574.854 68.1805 574.854 67.0399C574.854 64.057 571.058 57.2138 567.261 53.3536C561.403 47.2999 557.606 45.7207 547.621 45.2821L538.956 44.8434L534.831 37.4738C523.278 16.418 504.38 7.20599 473.434 7.20599C460.395 7.2937 454.206 7.90786 420.125 12.6454C389.426 16.9443 379.606 17.9095 366.402 17.9095C343.461 17.9095 330.093 13.786 318.375 2.90705C316.89 1.50334 315.156 0.362793 314.579 0.362793C314 0.362793 311.361 2.2052 308.637 4.39853C302.034 9.83798 296.094 12.9086 287.263 15.3651C280.497 17.2953 278.186 17.4707 260.857 17.4707C249.964 17.4707 238.576 16.9443 234.037 16.3303C173.631 7.55691 172.31 7.38145 154.651 7.38145C134.928 7.38145 121.807 10.7153 110.666 18.5235C104.147 23.0857 97.2151 30.9817 93.1716 38.1757L89.5406 44.9311L81.4533 45.2821C74.3565 45.5453 72.706 45.984 67.8373 48.5283C63.3811 50.8094 61.5655 52.4763 58.7598 56.512C56.7792 59.3194 54.7988 63.3552 54.3036 65.4607C53.5609 68.7068 52.8182 69.672 49.8474 71.4266C43.7408 75.0236 31.3624 85.2006 26.8238 90.4647C14.5279 104.765 6.19317 121.873 2.64472 140.034C1.0768 148.281 0.334093 164.598 1.32435 172.407ZM4.29517 142.666C9.16398 114.153 24.6781 90.6401 48.9397 74.8482C54.4687 71.251 55.0463 70.637 56.2016 66.6013C57.8521 60.4599 62.7208 54.1432 68.1674 50.8971C72.3759 48.3528 73.4487 48.1772 82.0311 47.8264L91.2735 47.5632L92.9239 43.7029C95.4822 37.3861 101.176 29.4902 106.458 24.7526C121.147 11.7681 140.622 7.46916 171.733 10.3644C180.315 11.154 194.097 12.7332 202.265 13.9614C237.502 19.1377 244.929 19.9273 262.094 20.015C277.361 20.1027 279.754 19.9273 286.439 18.0849C295.598 15.5406 304.181 11.2417 309.461 6.59185C311.608 4.57398 313.836 2.9948 314.249 2.9948C314.743 2.9948 317.384 4.83719 320.19 7.0305C335.209 19.2254 354.189 22.6469 386.702 19.2254C393.305 18.5235 409.809 16.418 423.426 14.4001C466.09 8.34652 483.583 7.90786 500.254 12.5577C515.438 16.7689 528.228 27.7356 535.325 42.5625L537.636 47.5632L547.374 47.8264C556.864 48.1772 557.276 48.2651 561.485 51.1602C566.931 54.8451 570.562 59.7582 572.296 65.8117C573.616 70.286 574.028 70.8125 579.806 74.4972C597.299 85.9902 608.687 99.5012 617.352 119.066C621.644 128.716 623.954 137.49 625.275 149.684C627.75 172.407 622.551 194.516 609.925 215.485C604.314 224.697 591.028 238.294 581.29 244.611C574.524 248.999 573.286 250.139 572.873 252.507C571.635 259.351 566.271 266.633 560.083 269.878C557.029 271.457 554.306 271.896 546.879 272.336L537.389 272.775L534.665 278.476C524.927 299.007 507.185 309.183 478.716 310.674C467.162 311.201 451.647 309.797 421.362 305.236C374.076 298.129 352.044 297.866 334.136 304.357C329.514 306.025 326.132 308.131 319.612 313.306C317.054 315.413 314.66 317.079 314.33 317.079C314 317.079 311.691 315.325 309.214 313.218C303.191 308.218 297.414 305.236 289.987 303.129C270.925 297.779 254.833 298.305 200.781 306.113C161.252 311.815 144.5 312.078 128.574 307.429C112.482 302.691 99.8559 291.9 93.4191 277.599C92.5114 275.406 91.2735 273.389 90.8609 273.038C90.3659 272.687 86.3223 272.336 81.701 272.336C74.3565 272.336 72.8711 272.071 69.3226 270.054C67.0946 268.826 64.0413 266.545 62.5558 265.054C59.585 261.982 55.789 254.525 55.789 251.63C55.789 250.227 54.3036 248.823 49.7648 245.927C41.4301 240.664 35.7362 235.926 28.4741 227.942C7.92613 205.219 -0.986279 173.724 4.29517 142.666Z" fill="#85000B"/>
<path d="M10.8201 173.714C14.9462 202.315 32.1109 228.108 56.0423 241.619C59.5083 243.637 62.2314 245.654 61.9014 246.093C60.9937 247.673 64.0469 256.096 66.5225 258.99C71.2264 264.255 74.3622 265.307 85.0075 265.307C95.1578 265.307 97.0557 265.658 97.0557 267.676C97.0557 269.342 101.677 279.168 104.07 282.503C119.502 303.997 145.249 308.121 204.169 298.558C255.664 290.136 282.318 290.399 300.473 299.435C303.278 300.751 307.406 303.383 309.798 305.226L314.172 308.559L317.802 305.753C323.414 301.453 334.472 296.278 341.322 294.697C349.821 292.68 373.422 291.978 386.544 293.381C392.321 293.908 403.296 295.399 411.053 296.541C418.727 297.769 430.197 299.523 436.387 300.4C452.148 302.856 474.429 303.997 484.993 302.944C500.837 301.453 511.73 296.628 520.477 287.327C525.429 282.064 529.802 274.432 532.196 266.886C532.69 265.483 533.928 265.307 542.841 265.307C554.311 265.307 557.612 264.167 562.234 259.166C564.956 256.183 566.029 253.55 567.02 247.498C567.433 244.777 568.01 243.988 570.485 242.935C575.932 240.479 587.567 231.618 593.509 225.389C606.96 211.175 615.377 193.541 618.183 173.451C619.669 163.185 619.752 157.22 618.513 148.096C614.553 117.389 597.882 92.7362 570.815 77.3828C566.937 75.1017 566.607 74.6631 566.607 71.8556C566.607 68.0832 564.296 63.0824 561.078 59.8363C557.035 55.7128 553.568 54.7476 542.675 54.7476C533.928 54.7476 532.69 54.5722 532.277 53.1684C532.03 52.3788 530.462 48.7818 528.895 45.1848C523.282 32.7267 511.564 22.9883 497.7 19.2158C480.867 14.6537 463.536 15.3555 417.82 22.3742C361.622 30.9719 337.031 28.9542 317.721 14.215L314.254 11.583L310.294 14.6537C297.255 24.4797 281.08 28.1645 255.498 27.1995C240.727 26.6731 238.582 26.4099 201.198 20.9704C173.718 17.0225 159.938 15.7942 149.292 16.4961C122.225 18.163 107.371 27.3749 98.6238 47.9922L95.818 54.7476H85.6678C73.867 54.7476 71.6389 55.5372 66.6051 61.3276C63.5519 64.837 62.8916 66.6794 62.2314 73.0839C62.0665 74.6631 60.6635 75.8913 56.6199 78.1724C23.6935 96.7719 5.2086 135.287 10.8201 173.714ZM14.9462 146.429C19.1549 118.617 35.4942 94.8417 58.7656 82.559L65.3672 79.0497L66.275 73.5225C67.3478 66.7671 69.741 62.9945 74.2798 60.8013C77.0029 59.4852 79.7262 59.1344 88.5559 59.1344H99.3664L101.182 53.5194C104.73 42.2018 112.405 32.6389 121.812 27.8137C131.468 22.9006 135.181 22.111 151.685 21.6723C168.521 21.146 176.276 21.76 202.272 25.7957C238.169 31.2352 240.231 31.4984 260.863 31.4984C277.119 31.4984 281.905 31.2352 287.683 29.8315C296.181 27.9014 302.948 25.0938 309.468 20.795L314.337 17.6365L316.895 19.2158C323.827 23.6024 328.2 25.7957 333.069 27.4627C353.782 34.3937 382.996 33.253 443.649 23.0761C446.62 22.5496 457.183 21.9356 467.168 21.6723C488.624 21.0581 495.308 22.111 505.953 27.5504C516.599 32.9899 523.2 40.8859 527.491 53.344L529.308 58.6956L541.108 59.1344C551.093 59.4852 553.403 59.8363 555.879 61.4153C560.336 64.1351 562.481 68.1709 562.481 73.6981V78.4356L567.763 80.9798C585.339 89.49 601.349 107.563 609.107 127.742C613.232 138.533 614.717 146.516 614.8 159.15C614.883 171.344 613.727 179.065 610.344 188.979C605.722 202.315 598.956 213.368 589.301 223.108C582.287 230.125 577.829 233.548 569.331 238.109L562.975 241.619L562.811 245.917C562.481 251.445 560.83 254.866 556.952 258.025C554.064 260.394 553.568 260.481 541.685 260.92L529.308 261.359L527.821 265.921C520.89 286.976 506.448 297.242 482.022 298.558C463.95 299.523 453.964 298.558 404.038 291.013C390.917 288.996 385.884 288.645 368.142 288.645C350.977 288.557 346.52 288.82 341.404 290.136C333.235 292.241 323.578 296.278 319.041 299.523C316.978 300.927 314.997 302.155 314.667 302.155C314.254 302.155 311.696 300.751 308.89 298.997C302.454 295.048 291.891 291.188 281.905 289.346C275.551 288.206 270.682 288.031 255.911 288.382C245.926 288.645 235.528 289.259 232.804 289.785C224.883 291.276 193.441 295.837 180.404 297.418C171.82 298.383 163.899 298.734 152.346 298.47C137.409 298.12 135.759 297.944 129.652 295.662C126.021 294.346 121.4 292.241 119.419 291.013C111.085 285.836 104.4 276.888 101.182 266.535L99.3664 260.92H88.3084C76.0951 260.92 72.5467 259.867 69.0807 255.131C67.2654 252.673 66.9352 251.708 66.1099 245.128C65.5323 241.181 65.5323 241.181 59.0955 237.846C27.6547 221.791 9.25219 183.628 14.9462 146.429Z" fill="#85000B"/>
<path d="M120.017 27.1164C107.89 28.5741 100.264 46.9228 97.9681 55.9149L77.8788 58.2761L66.2516 64.6938L65.0721 76.8161L56.9835 80.3816L37.2675 96.2476L24.2922 116.214L16.8776 130.654L11.6475 148.124L13.1579 170.23L17.8777 191.087L31.8655 217.649L42.8194 229.058L63.049 243.499L66.2504 254.73L76.1811 263.464H97.7556L106.181 281.649L122.358 295.196L142.243 300.724L181.338 299.653L212.681 295.196L245.709 290.74H282.613L314.631 304.824L330.47 296.088L353.051 290.74H390.797L417.759 296.088L458.876 300.188H489.208L511.115 293.057L522.91 280.223L530.325 262.751L545.323 261.682L552.557 262.751L557.793 258.651L564.195 251.52L566.218 242.607L585.091 229.237L600.09 211.944L612.895 189.84L615.76 165.594V145.628L605.987 118.175L591.496 97.3172L572.453 82.6991L564.364 78.5989L561.333 62.9153L550.98 56.8499H532.011L529.012 50.0929L516.773 31.0787L495.444 21.1961L458.202 20.1264L431.517 24.5668L394.992 27.1164L358.121 30.0349L333.311 24.5668L315.394 15.0889L287.137 27.1164L249.922 30.0349L212.363 24.5668L154.818 18.7329C157 20.4341 159.78 22.8157 153.439 18.7329C147.099 14.6501 128.516 22.6208 120.017 27.1164Z" fill="#85000B"/>
</g>
<defs>
<clipPath id="clip0_582_3">
<rect width="628" height="320" fill="white"/>
</clipPath>
</defs>
</svg>
