<svg width="421" height="203" viewBox="0 0 421 203" fill="none" xmlns="http://www.w3.org/2000/svg">
<g clip-path="url(#clip0_536_6317)">
<g clip-path="url(#clip1_536_6317)">
<g clip-path="url(#clip2_536_6317)">
<path d="M0.887495 109.247C1.82797 116.753 5.20256 126.872 8.96443 133.209C13.9433 141.771 21.5777 149.776 30.0419 155.336C35.2974 158.783 35.6294 159.061 36.5145 161.84C37.8975 166.066 40.9955 169.735 45.2 172.014C48.4086 173.738 49.2937 173.961 54.5492 174.239L60.3026 174.517L62.2942 177.964C67.6051 187.47 74.4096 192.751 85.9164 196.31C90.6741 197.811 91.0614 197.811 104.615 197.811C116.399 197.755 119.994 197.533 128.957 196.254C161.43 191.695 160.213 191.806 174.873 191.806C187.487 191.806 189.091 191.918 193.074 193.029C197.887 194.364 202.976 196.977 207.457 200.368C209.062 201.591 210.555 202.592 210.777 202.592C210.998 202.592 213.211 201.147 215.7 199.312C221.011 195.476 225.548 193.586 232.407 192.307C236.556 191.473 239.433 191.417 249.557 191.64C256.251 191.862 263.609 192.251 265.877 192.585C299.181 197.421 308.973 198.422 321.198 197.977C331.543 197.644 336.356 196.643 343.05 193.419C350.74 189.694 355.553 185.08 359.259 178.019L361.141 174.517L367.005 174.183C373.699 173.85 377.073 172.571 380.724 168.902C382.771 166.788 385.371 161.951 385.371 160.173C385.371 159.617 386.145 158.728 387.086 158.227C395.439 153.668 402.853 147.275 408.164 140.103C412.423 134.376 417.015 124.814 418.951 117.809C420.334 112.639 420.445 111.472 420.445 101.409C420.445 91.4014 420.334 90.1784 419.007 85.1748C414.36 68.1071 402.576 53.0963 387.086 44.5901C386.035 43.9786 385.371 43.2003 385.371 42.4775C385.371 40.5873 382.827 36.2508 380.281 33.8047C376.354 29.9686 373.809 28.9679 367.115 28.6899L361.306 28.4119L358.54 23.7419C350.796 10.3991 338.127 4.56154 317.381 4.56154C308.64 4.61713 304.491 5.00631 281.644 8.00844C261.064 10.7326 254.48 11.3442 245.629 11.3442C230.25 11.3442 221.288 8.73119 213.432 1.83736C212.437 0.947848 211.275 0.225098 210.888 0.225098C210.5 0.225098 208.73 1.39261 206.904 2.78249C202.478 6.2294 198.496 8.17524 192.576 9.7319C188.04 10.955 186.49 11.0662 174.873 11.0662C167.571 11.0662 159.937 10.7326 156.894 10.3435C116.399 4.78392 115.513 4.67273 103.675 4.67273C90.4528 4.67273 81.6567 6.78535 74.1883 11.7333C69.818 14.6243 65.1709 19.6279 62.4602 24.1867L60.0261 28.4675L54.6045 28.6899C49.8469 28.8567 48.7405 29.1347 45.4765 30.747C42.4892 32.1925 41.2721 33.2488 39.3912 35.8062C38.0634 37.5852 36.7358 40.1426 36.4038 41.4768C35.906 43.5338 35.4081 44.1455 33.4165 45.2574C29.3227 47.5367 21.0245 53.9858 17.9818 57.3215C9.73891 66.3835 4.15146 77.2246 1.77265 88.7329C0.721541 93.9588 0.223645 104.299 0.887495 109.247ZM2.87908 90.4007C6.14304 72.3323 16.5434 57.4327 32.8079 47.4256C36.5145 45.1461 36.9017 44.757 37.6762 42.1996C38.7826 38.3079 42.0466 34.3051 45.6979 32.248C48.5192 30.6358 49.2384 30.5245 54.9919 30.3022L61.1878 30.1354L62.2942 27.6892C64.0092 23.6863 67.8264 18.6828 71.3669 15.6806C81.2142 7.4525 94.27 4.72832 115.126 6.56298C120.879 7.06332 130.119 8.06405 135.595 8.84238C159.217 12.1225 164.196 12.6229 175.703 12.6784C185.938 12.734 187.541 12.6229 192.023 11.4554C198.163 9.84311 203.917 7.11893 207.457 4.17237C208.896 2.89367 210.39 1.89297 210.667 1.89297C210.998 1.89297 212.768 3.06047 214.649 4.45034C224.718 12.1781 237.442 14.3463 259.238 12.1781C263.664 11.7333 274.729 10.3991 283.857 9.12036C312.458 5.28428 324.185 5.00631 335.361 7.95286C345.54 10.6214 354.114 17.5709 358.872 26.9665L360.421 30.1354L366.949 30.3022C373.311 30.5245 373.587 30.5802 376.409 32.4148C380.06 34.7499 382.494 37.8632 383.656 41.6992C384.542 44.5346 384.817 44.8682 388.691 47.2031C400.418 54.4861 408.053 63.0479 413.861 75.4456C416.738 81.561 418.287 87.1206 419.173 94.8484C420.832 109.247 417.347 123.258 408.882 136.545C405.121 142.383 396.214 150.999 389.686 155.002C385.15 157.783 384.32 158.505 384.043 160.006C383.214 164.343 379.617 168.957 375.469 171.014C373.422 172.014 371.597 172.292 366.618 172.571L360.255 172.849L358.429 176.462C351.901 189.472 340.007 195.921 320.922 196.866C313.176 197.199 302.776 196.31 282.473 193.419C250.774 188.916 236.004 188.749 223.999 192.863C220.9 193.92 218.633 195.254 214.262 198.533C212.547 199.868 210.942 200.924 210.721 200.924C210.5 200.924 208.952 199.813 207.291 198.478C203.253 195.309 199.381 193.419 194.402 192.084C181.623 188.694 170.835 189.027 134.599 193.975C108.1 197.588 96.8701 197.755 86.1931 194.809C75.4054 191.806 66.9413 184.969 62.6262 175.906C62.0176 174.517 61.1878 173.238 60.9112 173.016C60.5793 172.794 57.8686 172.571 54.7706 172.571C49.8469 172.571 48.8511 172.403 46.4723 171.125C44.9787 170.347 42.9318 168.902 41.9359 167.957C39.9444 166.01 37.3996 161.284 37.3996 159.45C37.3996 158.561 36.4038 157.671 33.3611 155.836C27.7736 152.501 23.9565 149.499 19.0882 144.439C5.31321 130.04 -0.661509 110.082 2.87908 90.4007Z" fill="#85000B"/>
<path d="M7.25357 110.076C10.0196 128.2 21.5265 144.544 37.5697 153.107C39.8932 154.385 41.7188 155.663 41.4976 155.941C40.889 156.943 42.9359 162.28 44.5955 164.114C47.7488 167.45 49.8511 168.117 56.9875 168.117C63.792 168.117 65.0644 168.34 65.0644 169.618C65.0644 170.674 68.1624 176.901 69.7667 179.014C80.1118 192.634 97.3721 195.248 136.871 189.188C171.392 183.851 189.261 184.018 201.432 189.744C203.312 190.578 206.079 192.245 207.683 193.413L210.615 195.526L213.049 193.747C216.811 191.022 224.224 187.743 228.816 186.741C234.514 185.463 250.336 185.018 259.132 185.907C263.005 186.241 270.362 187.186 275.563 187.91C280.707 188.688 288.396 189.799 292.546 190.355C303.112 191.912 318.049 192.634 325.131 191.967C335.752 191.022 343.054 187.965 348.919 182.071C352.238 178.736 355.17 173.899 356.774 169.118C357.106 168.229 357.936 168.117 363.911 168.117C371.6 168.117 373.813 167.395 376.911 164.225C378.736 162.336 379.456 160.667 380.12 156.832C380.397 155.108 380.784 154.607 382.443 153.94C386.094 152.384 393.895 146.769 397.878 142.821C406.895 133.815 412.538 122.64 414.419 109.909C415.415 103.404 415.471 99.6237 414.64 93.8418C411.985 74.3835 400.81 58.7612 382.664 49.032C380.064 47.5865 379.843 47.3085 379.843 45.5294C379.843 43.1389 378.294 39.97 376.136 37.9129C373.426 35.2999 371.102 34.6883 363.8 34.6883C357.936 34.6883 357.106 34.5771 356.829 33.6876C356.663 33.1872 355.612 30.9079 354.561 28.6285C350.799 20.734 342.943 14.5629 333.649 12.1722C322.365 9.28128 310.747 9.72604 280.099 14.1737C242.425 19.622 225.939 18.3433 212.994 9.00331L210.67 7.33545L208.015 9.28128C199.274 15.5079 188.431 17.843 171.281 17.2314C161.379 16.8978 159.941 16.7311 134.88 13.2841C116.458 10.7824 107.219 10.004 100.083 10.4488C81.9374 11.5051 71.9796 17.3426 66.1156 30.4075L64.2346 34.6883H57.4301C49.5191 34.6883 48.0254 35.1887 44.6508 38.858C42.604 41.0819 42.1614 42.2493 41.7188 46.3078C41.6082 47.3085 40.6677 48.0868 37.9569 49.5323C15.8837 61.3186 3.49171 85.7248 7.25357 110.076ZM10.0196 92.7855C12.841 75.1617 23.7947 60.0954 39.3953 52.3121L43.821 50.0883L44.4295 46.5857C45.1487 42.3049 46.7531 39.9143 49.7958 38.5245C51.6213 37.6905 53.447 37.4681 59.3663 37.4681H66.6134L67.8304 33.91C70.2093 26.7382 75.3542 20.6783 81.6609 17.6206C88.1334 14.5073 90.6229 14.0069 101.687 13.7289C112.973 13.3954 118.172 13.7845 135.599 16.3419C159.664 19.7888 161.047 19.9556 174.878 19.9556C185.775 19.9556 188.984 19.7888 192.857 18.8993C198.555 17.6762 203.091 15.8971 207.462 13.1729L210.726 11.1715L212.44 12.1722C217.088 14.952 220.019 16.3419 223.284 17.3982C237.169 21.7903 256.754 21.0675 297.415 14.6185C299.406 14.2848 306.487 13.8958 313.181 13.7289C327.565 13.3397 332.046 14.0069 339.182 17.4538C346.318 20.9007 350.744 25.9043 353.621 33.7989L354.838 37.1901L362.749 37.4681C369.443 37.6905 370.992 37.9129 372.651 38.9135C375.639 40.6371 377.077 43.1945 377.077 46.697V49.6991L380.618 51.3113C392.401 56.7041 403.134 68.1568 408.334 80.9436C411.1 87.7819 412.095 92.8411 412.151 100.847C412.207 108.574 411.431 113.467 409.164 119.749C406.065 128.2 401.529 135.204 395.057 141.376C390.355 145.823 387.366 147.992 381.669 150.882L377.409 153.107L377.298 155.83C377.077 159.333 375.971 161.501 373.371 163.503C371.434 165.004 371.102 165.059 363.136 165.337L354.838 165.615L353.842 168.506C349.195 181.849 339.513 188.354 323.139 189.188C311.023 189.799 304.33 189.188 270.86 184.407C262.064 183.128 258.69 182.906 246.796 182.906C235.289 182.85 232.301 183.017 228.871 183.851C223.395 185.185 216.921 187.743 213.879 189.799C212.496 190.689 211.168 191.467 210.947 191.467C210.67 191.467 208.955 190.578 207.074 189.466C202.76 186.964 195.679 184.518 188.984 183.351C184.724 182.628 181.46 182.517 171.558 182.739C164.864 182.906 157.894 183.295 156.068 183.629C150.757 184.573 129.679 187.464 120.939 188.465C115.185 189.077 109.875 189.299 102.13 189.132C92.1166 188.91 91.0101 188.799 86.9164 187.353C84.4823 186.519 81.3843 185.185 80.0565 184.407C74.4691 181.126 69.988 175.456 67.8304 168.896L66.6134 165.337H59.2003C51.0128 165.337 48.634 164.67 46.3104 161.669C45.0934 160.111 44.8721 159.5 44.3189 155.33C43.9316 152.829 43.9316 152.829 39.6165 150.715C18.5392 140.541 6.20246 116.358 10.0196 92.7855Z" fill="#85000B"/>
<path d="M80.4577 17.1783C72.3276 18.1021 67.2159 29.7294 65.6764 35.4276L52.2089 36.9238L44.4142 40.9907L43.6235 48.6724L38.201 50.9318L24.9838 60.9859L16.2854 73.6382L11.3148 82.7886L7.80859 93.8593L8.82118 107.868L11.9852 121.085L21.3624 137.916L28.7057 145.146L42.2672 154.297L44.4134 161.414L51.0708 166.949H65.5339L71.1822 178.472L82.0271 187.057L95.3572 190.56L121.566 189.881L142.578 187.057L164.719 184.233H189.459L210.923 193.158L221.542 187.622L236.679 184.233H261.984L280.059 187.622L307.622 190.22H327.957L342.643 185.701L350.55 177.569L355.521 166.497L365.575 165.82L370.424 166.497L373.935 163.899L378.227 159.38L379.583 153.732L392.235 145.26L402.29 134.301L410.874 120.294L412.795 104.93V92.2778L406.243 74.8809L396.529 61.6637L383.763 52.4004L378.34 49.8021L376.308 39.8636L369.367 36.0201H356.651L354.641 31.7382L346.436 19.6892L332.137 13.4267L307.171 12.7489L289.282 15.5627L264.796 17.1783L240.078 19.0277L223.446 15.5627L211.435 9.55664L192.492 17.1783L167.544 19.0277L142.365 15.5627L103.787 11.8658C105.25 12.9438 107.114 14.453 102.863 11.8658C98.613 9.27858 86.1552 14.3295 80.4577 17.1783Z" fill="#85000B"/>
</g>
</g>
</g>
<defs>
<clipPath id="clip0_536_6317">
<rect width="421" height="202.77" fill="white"/>
</clipPath>
<clipPath id="clip1_536_6317">
<rect width="421" height="202.77" fill="white"/>
</clipPath>
<clipPath id="clip2_536_6317">
<rect width="421" height="202.78" fill="white" transform="translate(0 -0.00488281)"/>
</clipPath>
</defs>
</svg>
