<svg width="124" height="80" viewBox="0 0 124 80" fill="none" xmlns="http://www.w3.org/2000/svg">
<g clip-path="url(#clip0_6_969)">
<path d="M87.4998 18.433L84.2948 19.2976L85.8195 26.3682C85.415 26.1829 85.3839 25.8433 85.2905 25.4728C85.0727 24.6083 83.9525 19.4211 83.6413 19.2976C82.8945 18.9888 81.2453 20.0386 80.4052 20.0695C80.623 21.9838 81.432 23.7437 81.8366 25.5963C81.3698 25.411 81.4632 25.0405 81.3076 24.7009C80.9964 23.8981 80.094 20.2239 79.814 19.946C79.6584 19.7916 76.8579 19.9768 76.7957 20.1004L78.3204 26.0594C77.2002 25.1949 76.889 20.7796 76.2667 20.193C76.0489 19.9768 74.1196 20.193 73.6218 20.0695C73.4973 20.2547 74.9287 23.5276 75.1154 24.1451C75.1776 24.3921 75.4888 25.1023 75.1154 25.164C74.8353 24.4539 73.6218 20.1621 73.3728 19.946C73.2172 19.8225 70.1678 19.8225 69.6388 19.0814C70.3856 21.9529 71.5369 26.2447 74.9287 26.9857C75.7066 27.171 78.5382 27.0475 78.6938 27.1401C79.3472 27.5724 77.8536 27.7576 77.5736 27.7885C73.2795 28.3134 71.1324 26.0286 69.8255 22.2617C69.4832 21.2428 69.2965 19.6681 68.8298 18.7109C68.4875 18.0008 67.5229 17.9699 68.2697 16.7657C68.892 15.7159 71.5681 14.8205 71.6614 14.6353C71.7859 14.3574 71.3814 13.5237 71.4125 13.1532L71.9415 14.6044L73.4662 14.2956C72.6571 12.8136 72.1282 12.0108 72.4393 10.2509C71.9103 10.4361 70.759 10.2509 71.008 10.961H70.7901C70.7901 10.961 70.759 10.6214 70.5412 10.6214C69.1098 10.4361 67.0872 11.3933 65.5314 10.714C65.3136 10.961 66.216 14.3883 66.3716 14.9132C67.4918 18.7109 69.4521 22.6322 70.4478 26.43C70.759 27.5724 70.1989 27.4489 69.6699 26.7387C68.7987 25.6272 66.8383 19.5446 66.2782 17.8155C65.5003 15.3454 65.4069 12.9371 64.8468 10.7449C64.7535 10.4053 64.2556 10.0965 64.3179 9.81861C64.6913 8.08955 72.4082 5.3107 74.1507 4.75493C78.8494 3.27287 84.1392 2.16133 89.0556 1.63644C89.3357 1.60556 90.4248 1.48206 90.5804 1.75994C83.6724 2.93324 76.889 4.75493 70.5723 7.68816L72.1282 9.13933C73.5595 8.76882 75.0531 8.7997 76.4534 8.55269C83.1435 7.41027 94.8433 4.7858 100.724 1.88345C101.284 1.60556 102.809 0.926289 101.533 0.710156C98.7329 0.216139 94.6566 1.45118 91.7939 1.72907C91.0782 1.72907 90.8915 1.14242 91.6383 0.864537C93.412 0.185263 100.693 -0.463136 102.249 0.463148C103.12 0.988041 103.587 3.11849 103.898 4.16828C105.018 7.99692 105.485 11.8873 106.201 15.7777C106.201 16.6422 105.361 16.7657 105.081 15.7777C104.396 13.6472 104.614 11.5168 104.303 9.4481C103.867 6.66925 103.089 3.92127 102.654 1.14242C99.0752 3.79777 94.3144 4.44617 90.2069 6.05172C90.0202 6.11348 89.7091 6.32961 89.7402 6.48399L90.4559 10.0347L94.1899 9.54072L93.4431 5.77384C93.4431 5.77384 93.6609 5.37245 93.8165 5.37245L94.6255 9.4481L97.5194 9.32459L96.6481 5.03281C96.9904 5.00194 97.1149 5.95909 97.2082 6.23698C97.3638 6.8545 97.6438 8.86145 98.0484 9.23196C98.3284 9.50985 100.413 9.32459 100.942 9.54072L99.9465 3.3655L100.32 2.96411L101.689 9.84948C101.689 9.84948 103.089 9.81861 103.587 10.8066C103.992 11.6094 103.089 11.9182 102.965 12.2887C102.623 13.3385 103.151 15.0984 102.28 16.8892C102.031 17.3833 101.222 18.2787 101.409 17.2289C101.627 15.8703 102.809 14.9749 101.689 13.215L99.2619 14.5735L100.818 18.9579C100.258 19.1741 100.413 18.9579 100.227 18.5874C99.6664 17.5068 99.5731 16.3643 99.1997 15.3454C98.8263 14.3883 96.5548 15.7159 95.9947 16.21C96.5548 17.4759 96.7415 18.8344 97.0526 20.1621C97.0837 20.3165 97.4883 20.934 97.0526 20.9958C96.4925 21.0884 95.559 16.5496 95.5279 16.1482L91.9184 17.2906L93.5676 24.3613C96.3058 22.1691 99.9154 21.4589 102.716 19.3285C103.463 18.7727 104.116 17.9081 104.801 17.3524C105.081 17.1054 105.361 17.0745 105.267 17.4759C105.174 17.8773 102.871 20.0695 102.405 20.44C100.382 21.9838 94.4388 24.2378 93.5053 26.0903C93.3186 26.4608 92.883 28.2208 92.883 28.653C92.883 31.5245 94.0965 35.6928 94.6255 38.5643C95.03 40.6947 95.3101 42.8252 95.6524 44.9556C99.6975 44.5234 102.187 38.5643 105.33 37.4836C106.668 37.0205 110.806 36.5882 112.3 36.5882C116.781 36.6499 119.488 42.1459 119.177 46.098C118.741 51.841 112.673 54.6816 107.477 54.4655C108.255 55.2374 109.53 54.9904 110.464 55.1756C115.131 56.1328 122.226 57.8618 123.782 63.049C124.404 65.1486 124.28 66.6615 122.817 68.3288C121.79 69.5021 119.519 71.4164 118.897 68.8846C118.368 66.7233 120.328 67.4026 120.764 66.9703C121.635 66.1675 120.701 63.9753 120.11 63.1725C119.457 62.2462 114.727 58.9425 113.607 58.6029C110.744 57.7383 108.784 58.8807 105.796 57.3678C104.645 56.7812 102.996 55.7005 102.311 54.6198C103.867 55.4844 105.454 56.5342 107.228 56.9356C109.499 57.4605 111.771 56.7503 114.042 57.7075C114.851 58.0471 119.923 61.3817 120.421 61.9375C121.884 63.6665 123.16 68.298 119.643 67.9892C119.643 68.2671 119.861 69.039 120.172 69.0081C120.328 69.0081 122.475 67.1864 122.631 66.9703C124.031 65.0868 122.848 61.6596 121.23 60.2084C116.874 56.318 111.553 57.5531 106.917 55.1756C105.236 54.3111 104.334 54.095 102.654 53.3848C100.289 52.3968 98.0795 50.6677 96.3058 48.846L99.4175 63.9136C102.716 63.1417 106.45 63.4504 109.375 65.2104C114.105 68.051 112.642 72.4971 108.846 75.3068C104.209 78.7341 90.8604 82.6554 86.5663 77.252C82.9256 72.6515 88.1532 67.3717 92.5407 65.797C93.2253 65.55 94.9056 64.8707 95.4346 65.3956C92.6652 66.2293 90.0514 67.3408 88.1532 69.6256C85.3839 72.9603 85.5394 76.511 89.7091 78.4871C94.7811 80.8645 108.068 77.4682 110.806 72.3736C114.167 66.0749 103.961 63.9444 99.6353 65.056C99.5108 65.2412 100.538 68.3597 100.849 68.6994C101.471 69.4095 105.143 69.4713 104.521 70.3358C104.054 71.0151 100.382 70.027 99.8531 69.0081C99.6353 68.5758 99.8531 68.1745 99.7287 67.8348C98.4529 64.0679 97.5505 60.9495 96.897 56.9356C96.5236 54.4963 96.5548 51.347 96.0258 49.0621C95.9013 48.5373 94.1899 46.5921 95.4034 46.6229C95.6213 46.6229 98.3595 48.352 99.1374 48.6299C101.036 49.3092 103.089 49.4635 105.05 49.9267C107.197 50.4516 109.126 51.841 111.273 50.853C113.918 49.6488 117.807 45.604 115.847 42.5782C115.536 42.115 113.171 39.9537 112.767 39.9537C112.58 39.9537 112.331 40.2007 112.051 40.1389C111.491 40.0154 110.868 38.9965 109.904 39.12C108.97 39.2435 106.419 40.633 105.641 41.3122C103.027 43.6588 101.876 45.2335 97.9239 45.6658C97.146 45.7584 93.412 45.3261 93.2564 45.5114C93.0697 45.6966 93.2875 47.1478 93.412 47.4875C93.5364 47.5801 94.8433 46.2215 94.6878 47.1169C94.5322 47.9197 93.2253 48.1667 93.2253 48.5064C93.2253 48.599 93.5053 49.0313 93.5676 49.34C94.5944 54.2185 95.0612 58.3867 95.6524 63.2652C96.0258 66.1984 97.5194 68.051 95.1545 70.5828C94.9056 70.8607 92.1051 73.269 92.1673 71.7561C92.1673 71.4164 94.6255 69.8726 95.0612 69.3786C96.8037 67.4643 94.9678 63.296 94.5633 61.0112C94.2832 59.56 94.4388 58.078 93.7231 56.7194L92.9141 48.352C92.5718 47.5492 91.5761 48.9695 91.4516 49.4327C91.2027 50.2972 91.6694 51.0073 91.6694 51.6249C91.6072 54.1567 88.6822 58.9734 86.9086 60.7951C82.49 65.2412 76.7957 64.809 74.0263 71.6635C73.4351 73.1455 74.3374 72.5897 75.1465 73.3308C75.9244 74.0409 76.609 76.758 75.5821 77.1594C73.9952 77.8078 72.6883 76.1405 72.2837 74.7819C71.7859 73.0838 72.1593 73.7322 71.2258 72.1884C70.3545 70.7989 70.3234 69.286 71.2569 67.9274C73.4662 64.7163 81.4943 61.8449 84.9482 59.6527C88.4333 57.4604 90.6115 54.3728 91.0782 50.2663C90.7982 49.9576 90.6115 50.4207 90.487 50.606C89.8647 51.3779 89.5224 52.4276 88.8689 53.2613C85.9751 57.1517 82.3967 58.6029 77.7603 59.6835C71.7236 61.073 67.2428 60.2702 67.7718 53.0452C68.1452 48.0124 75.7377 42.5473 80.5608 42.3929C81.4943 42.3929 82.6456 42.8869 83.6413 42.8252C85.5394 42.7017 86.9708 41.5592 88.7445 43.0722C89.6469 43.8132 90.1447 45.6349 91.4516 45.3261C90.8915 42.5782 89.8024 39.8919 89.149 37.1748C88.8689 36.0942 87.9354 30.1351 87.6554 29.7955C87.562 29.7028 85.7884 28.7765 85.4772 28.4369C80.9031 28.4987 75.6755 30.2895 71.5369 27.7576C72.3149 27.7576 73.0617 28.0664 73.8085 28.1281C77.8847 28.4987 81.961 26.9857 86.0373 27.8503C88.6511 28.406 88.9934 33.5315 89.6468 35.7237C90.5492 38.873 91.7317 41.9298 92.354 45.1409C93.1319 44.4307 93.9098 44.9247 94.7811 44.8939C94.5633 44.616 94.4388 44.3381 94.3766 43.9985C93.1319 38.5025 91.7628 31.8642 92.5096 26.2756C92.6029 25.6581 93.0074 25.0405 93.0074 24.5465C93.0074 22.5704 91.4205 19.7607 91.4205 17.5994L88.1532 18.2478L89.3357 24.176C89.3979 24.5156 90.1447 25.3802 89.8024 25.9977L88.8378 24.0525L87.7176 18.3404L87.4998 18.433ZM71.2258 9.07758C70.1678 6.731 68.6431 8.70707 66.9628 9.23196C67.1184 9.54072 68.083 9.47897 68.3941 9.47897C68.7987 9.47897 71.1013 9.20109 71.1946 9.07758H71.2258ZM89.1801 6.45311L81.8988 8.33656L82.5522 11.5785L85.9128 10.9301C86.3174 10.8684 85.8506 10.0039 85.8195 9.75686C85.7884 9.54072 85.5083 8.86145 85.944 8.9232C86.224 8.9232 86.3485 10.8684 86.4418 10.8375L89.9269 10.1582L89.2112 6.48399L89.1801 6.45311ZM81.681 8.39831L76.08 9.72598C76.7334 10.9301 76.6401 11.8564 76.2978 13.1532C79.4095 13.3076 77.4802 11.7638 78.0403 10.0347C79.0361 10.0039 78.0403 10.5596 78.0403 10.6214C78.0403 11.2389 78.3826 11.9799 78.4448 12.6283C79.0983 12.5666 79.5962 12.0108 80.2185 11.8873C80.623 11.7947 82.4278 12.1343 82.3033 11.5477L81.681 8.42918V8.39831ZM86.1618 11.7638L82.7389 12.6592C82.6767 12.968 83.0812 13.2767 83.1123 13.3694L84.1081 18.433L87.3753 17.7846L86.1618 11.7638ZM90.0825 10.9919L86.5974 11.6712L87.811 17.692L91.016 16.8275L90.0825 10.961V10.9919ZM93.9721 10.22L90.487 10.8993L91.6072 16.4878C92.1984 16.3643 94.9678 15.7159 95.1234 15.3454C94.7189 13.6164 94.5322 11.8873 93.9721 10.1891V10.22ZM94.6878 10.3126L95.6835 15.2528L98.6396 14.2339C98.4529 12.7827 97.8928 11.4242 97.5505 10.0039L94.7189 10.3126H94.6878ZM100.911 10.0039C100.911 10.0039 98.4218 10.0039 97.9861 9.88036L99.013 13.9251C99.3553 13.709 101.378 12.8753 101.471 12.7518C101.533 12.6283 101.036 10.0965 100.911 10.0039ZM75.4576 14.5118L76.3911 19.1432C76.4534 19.5137 78.5071 19.2667 78.8805 19.2049C77.2935 17.8155 75.5199 16.5496 76.7645 14.2648L75.4576 14.5118ZM70.7279 15.6851C69.8566 15.8703 69.4832 16.0865 69.8566 16.9819L69.5144 16.3643C68.2697 17.1671 68.8298 17.5376 69.7944 18.3095L70.1678 17.3524C70.1056 19.1741 71.6925 18.9271 73.0305 19.2667L72.1282 15.8703L70.6968 16.6114V15.7159L70.7279 15.6851ZM75.0531 14.8205C74.5241 14.8823 72.5638 15.4072 72.4082 15.7777C72.2837 16.0865 73.2484 19.1741 73.5284 19.3285C73.7151 19.4211 76.0489 19.4211 76.1733 19.3285C76.1111 19.1123 75.831 18.8036 75.7999 18.6183L75.0531 14.8514V14.8205ZM102.031 12.2269C103.68 11.4859 103.307 10.7449 101.751 10.2817L102.031 12.2269ZM83.6724 18.4948L83.548 17.8464L83.019 18.5257H83.7036L83.6724 18.4948ZM89.7713 45.7275C88.5266 44.3381 88.1844 43.0722 86.0373 43.3192C85.2283 43.4118 84.4192 43.875 83.7036 43.9367C81.8366 44.0911 79.7206 42.8252 77.6669 43.875L80.9031 44.2455C82.9568 43.9676 84.9793 44.6777 86.8463 45.4496C87.2197 45.604 88.0288 46.2524 88.2155 46.2524C88.4644 46.2524 88.9934 45.3879 89.7713 45.7275ZM107.912 38.379C104.552 38.4099 103.12 40.7565 100.973 42.8252L98.9507 44.369C100.662 43.7515 102.405 42.6399 103.929 41.621C105.267 40.7256 106.885 39.5832 107.912 38.379ZM89.5846 48.2285C88.1844 48.2285 86.7219 48.2285 85.4772 47.4875C84.9793 47.1787 84.6371 46.6538 84.1392 46.4068C82.8634 45.7275 81.8054 46.1907 80.5608 46.098C78.1337 45.9437 76.4223 44.5234 73.8707 46.3142C71.1324 48.1976 70.2923 56.6268 74.3686 57.2134C79.2228 57.9236 82.8012 53.7553 86.0373 51.0382C87.1886 50.0811 88.6822 49.3709 89.5535 48.2285H89.5846ZM91.3272 47.8889C87.0953 50.4207 84.4815 55.1139 79.9384 57.2134C73.964 59.9614 69.9811 57.8618 70.6034 51.0073L71.0702 48.5064C69.0476 50.3898 68.5186 52.6129 68.9231 55.2991C69.2965 57.7383 70.0122 59.0043 72.6571 59.2204C75.9244 59.4983 82.4589 57.9545 85.0416 55.9166C87.811 53.7553 89.1801 50.5751 91.3272 47.858V47.8889ZM92.074 45.9437L90.9849 46.1598C90.8293 46.7773 91.4827 46.4377 91.545 46.6229C91.6383 46.9317 91.3583 47.2713 91.4827 47.611C92.2606 47.3022 92.0117 46.6847 92.0428 45.9437H92.074ZM117.403 46.345C117.061 46.098 115.629 48.6608 115.349 49.0004C114.011 50.5133 110.464 53.1069 108.317 52.4276L98.2351 49.6797C101.098 52.0263 105.205 54.095 109.033 53.6009C110.713 53.3848 113.731 52.3041 115.069 51.2544C116.407 50.2046 117.061 47.9815 117.403 46.3759V46.345ZM84.886 60.7642L79.5962 63.5739C81.152 63.2034 82.9568 62.2771 84.2948 61.3817C84.5437 61.2273 84.9171 61.1347 84.886 60.7642ZM76.9824 65.2412C74.5864 66.5998 70.6034 68.1436 72.1593 71.54C72.6883 71.5708 72.5016 71.3547 72.5949 71.1694C73.0928 70.3049 73.3728 69.3477 74.0574 68.6067L76.9824 65.2412ZM75.1154 76.3257C75.2398 76.1405 74.4308 73.763 73.5595 74.1644C73.684 74.5658 74.4619 77.2212 75.1154 76.3257Z" fill="#85000B"/>
<path d="M108.503 69.5639C109.219 71.4165 108.13 72.3428 106.792 73.3617C103.151 76.1714 94.9052 78.7341 90.3933 77.5299C89.3664 77.2521 88.5574 76.9124 88.1218 75.8626C87.9662 75.4921 87.6239 74.535 88.3085 74.5967C88.4329 76.1405 88.993 76.758 90.4866 77.0668C94.2829 77.8696 103.244 74.9363 106.418 72.7133C107.01 72.3119 108.161 71.4782 108.254 70.7372C108.316 70.2123 107.725 69.4713 108.503 69.5022V69.5639Z" fill="#85000B"/>
<path d="M89.6471 26.9548C89.4915 27.6959 91.3274 31.154 91.203 31.3392C91.1407 31.401 90.7051 31.5245 90.5184 31.3392C90.1761 30.9379 88.4025 27.0783 89.6471 26.9548Z" fill="#85000B"/>
<path d="M91.0476 69.1934C90.9542 69.7491 90.2385 69.8109 89.8963 70.2123C89.5851 70.5519 89.7407 70.9842 89.3984 71.1077C89.1183 70.1814 90.2074 69.3169 91.0476 69.2242V69.1934Z" fill="#85000B"/>
<path d="M96.4303 72.3735C97.1771 72.8984 95.3412 73.7629 95.2478 73.1763C95.1856 72.8675 96.2124 72.2191 96.4303 72.3735Z" fill="#85000B"/>
<path d="M102.094 65.6736C102.094 65.6736 102.249 66.1676 102.094 66.3528C101.471 67.0939 100.911 66.1985 101.253 65.9515C101.44 65.7971 102.031 65.6118 102.094 65.6736Z" fill="#85000B"/>
<path d="M103.898 66.8777C103.711 66.7542 103.618 66.0131 104.303 66.1366C105.112 66.2601 104.24 67.1247 103.898 66.8777Z" fill="#85000B"/>
<path d="M68.3009 5.86642C67.803 5.74292 67.274 5.2489 67.1807 4.75488C67.6163 4.90926 68.1764 5.40328 68.3009 5.86642Z" fill="#85000B"/>
<path d="M71.6473 21.5533L71.4336 21.5952L71.6446 22.6554L71.8583 22.6135L71.6473 21.5533Z" fill="#85000B"/>
<path d="M35.3794 24.145L34.4148 26.0902C34.0725 25.5036 34.8193 24.6082 34.8815 24.2685L36.064 18.3403L32.7967 17.6919C32.7967 19.8532 31.2098 22.663 31.2098 24.639C31.2098 25.1331 31.6143 25.7506 31.7076 26.3681C32.4544 31.9567 31.0853 38.595 29.8406 44.091C29.7473 44.4615 29.6539 44.7085 29.4361 44.9864C30.3074 45.0173 31.0853 44.5233 31.8632 45.2334C32.4856 42.0223 33.668 38.9347 34.5704 35.8162C35.1927 33.624 35.535 28.4986 38.1799 27.9428C42.2562 27.0783 46.3325 28.6221 50.4088 28.2207C51.1867 28.1589 51.9335 27.8193 52.6803 27.8502C48.5418 30.382 43.283 28.5912 38.74 28.5294C38.4288 28.8691 36.6552 29.7954 36.5618 29.888C36.2507 30.2276 35.3172 36.1867 35.0682 37.2674C34.4148 39.9845 33.2946 42.6707 32.7656 45.4187C34.0725 45.6965 34.5704 43.9057 35.4728 43.1647C37.2464 41.6518 38.6778 42.7942 40.5759 42.9177C41.6027 42.9795 42.7229 42.4546 43.6564 42.4854C48.5106 42.6089 56.072 48.074 56.4454 53.1377C56.9744 60.3627 52.4936 61.1655 46.4569 59.7761C41.8206 58.6954 38.2421 57.2442 35.3483 53.3538C34.726 52.4893 34.3526 51.4395 33.7302 50.6985C33.5746 50.5132 33.4191 50.0501 33.139 50.3588C33.6058 54.4654 35.7839 57.553 39.269 59.7452C42.7229 61.9065 50.751 64.8089 52.9603 68.02C53.9249 69.3785 53.8627 70.8915 52.9914 72.2809C52.0268 73.8247 52.4313 73.1763 51.9335 74.8745C51.529 76.233 50.2221 77.9003 48.6351 77.2519C47.6083 76.8197 48.2928 74.1334 49.0707 73.4233C49.8798 72.6823 50.7822 73.238 50.1909 71.756C47.4216 64.9015 41.7272 65.3646 37.3086 60.8876C35.5039 59.0968 32.61 54.2492 32.5478 51.7174C32.5478 51.0999 32.9834 50.3897 32.7656 49.5252C32.6411 49.0929 31.6454 47.6726 31.3031 48.4445L30.4941 56.8119C29.7473 58.1705 29.9029 59.6526 29.6539 61.1037C29.2183 63.3886 27.4135 67.5877 29.1561 69.4712C29.5917 69.9652 32.0188 71.509 32.0499 71.8486C32.1122 73.3307 29.3116 70.9223 29.0627 70.6753C26.6978 68.1435 28.1914 66.2909 28.5648 63.3577C29.1561 58.4793 29.6228 54.311 30.6497 49.4326C30.7119 49.1547 30.992 48.6915 30.992 48.5989C30.992 48.2593 29.685 48.0123 29.5295 47.2095C29.3739 46.3141 30.6808 47.6726 30.8052 47.58C30.9297 47.2404 31.1475 45.7892 30.9608 45.6039C30.8052 45.4495 27.0712 45.8509 26.2933 45.7583C22.3726 45.326 21.1902 43.7514 18.5764 41.4048C17.8296 40.7255 15.2469 39.3052 14.3134 39.2126C13.3488 39.0891 12.7576 40.1388 12.1664 40.2315C11.8863 40.2932 11.6374 40.0462 11.4507 40.0462C11.0462 40.0462 8.65017 42.2075 8.37012 42.6707C6.40976 45.6657 10.2994 49.7413 12.9443 50.9455C15.1224 51.9335 17.0517 50.5441 19.1676 50.0192C21.0968 49.5561 23.1817 49.4017 25.0798 48.7224C25.8577 48.4445 28.596 46.7463 28.8138 46.7155C30.0273 46.7155 28.3159 48.6298 28.1914 49.1547C27.6936 51.4395 27.7247 54.6197 27.3202 57.0281C26.6667 61.0111 25.7643 64.1296 24.4886 67.9273C24.3641 68.267 24.613 68.6684 24.3641 69.1006C23.8351 70.1195 20.1633 71.1076 19.6966 70.4283C19.0743 69.5638 22.746 69.502 23.3684 68.7919C23.6484 68.4522 24.7064 65.3338 24.5819 65.1485C20.2567 64.037 10.0504 66.1674 13.411 72.4661C16.1182 77.5607 29.4361 80.9879 34.5081 78.5796C38.6778 76.6035 38.8334 73.0528 36.064 69.7182C34.1659 67.4642 31.5832 66.3218 28.7827 65.4881C29.3116 64.9632 30.992 65.6425 31.6765 65.8895C36.0329 67.4642 41.2916 72.7749 37.6509 77.3446C33.3568 82.7788 20.0389 78.8266 15.3714 75.3994C11.5751 72.5896 10.0815 68.1435 14.8424 65.3029C17.7674 63.5429 21.5014 63.2342 24.7997 64.0061L27.9114 48.9385C26.1377 50.7602 23.9285 52.4584 21.5636 53.4773C19.8833 54.1875 18.9809 54.4036 17.3006 55.2681C12.6953 57.6456 7.34327 56.4106 2.98693 60.301C1.36886 61.7521 0.186426 65.2102 1.58668 67.0628C1.77338 67.2789 3.88931 69.0698 4.0449 69.1006C4.35606 69.1624 4.605 68.3905 4.57388 68.0817C1.02658 68.3905 2.33348 63.7591 3.79596 62.03C4.26271 61.4742 9.36585 58.1396 10.1749 57.8C12.4464 56.8428 14.7179 57.553 16.9894 57.0281C18.7631 56.6267 20.35 55.546 21.9059 54.7124C21.1902 55.793 19.5721 56.9046 18.4208 57.4603C15.4336 58.9733 13.4421 57.8309 10.6105 58.6954C9.49032 59.035 4.76058 62.3388 4.10713 63.2651C3.54703 64.0678 2.58241 66.26 3.45368 67.0628C3.88931 67.4642 5.84966 66.8158 5.32068 68.9771C4.69835 71.5399 2.42683 69.6255 1.39998 68.4214C-0.0625073 66.7541 -0.218091 65.2411 0.43536 63.1416C1.99119 57.9544 9.0858 56.2562 13.7533 55.2681C14.7179 55.0829 15.9937 55.3299 16.7405 54.558C11.5129 54.7741 5.47626 51.9335 5.04063 46.1906C4.72946 42.2384 7.43661 36.7116 11.9174 36.6807C13.3799 36.6807 17.5495 37.113 18.8876 37.5761C22.0615 38.6568 24.5197 44.6159 28.5648 45.0482C28.9071 42.9177 29.2183 40.7872 29.5917 38.6568C30.1207 35.7544 31.3342 31.617 31.3342 28.7456C31.3342 28.3133 30.8986 26.5534 30.7119 26.1828C29.7784 24.3303 23.8351 22.0455 21.8125 20.5325C21.3458 20.162 19.0431 17.9698 18.9498 17.5684C18.8564 17.167 19.1365 17.1979 19.4165 17.4449C20.1011 18.0007 20.7546 18.8652 21.5014 19.421C24.3019 21.5206 27.9114 22.2616 30.6497 24.4538L32.2989 17.3832L28.6893 16.2407C28.6582 16.6421 27.7247 21.1809 27.1646 21.0883C26.729 20.9957 27.1024 20.409 27.1646 20.2546C27.5069 18.927 27.6936 17.5684 28.2226 16.3025C27.6936 15.8085 25.3909 14.4808 25.0175 15.438C24.6441 16.426 24.5508 17.5684 23.9907 18.68C23.804 19.0196 23.9596 19.2666 23.3995 19.0505L24.9553 14.6661L22.5282 13.3075C21.408 15.0674 22.5904 15.9629 22.8083 17.3214C22.9638 18.3712 22.1548 17.4758 21.937 16.9818C21.0657 15.2218 21.5947 13.431 21.2524 12.3812C21.128 12.0107 20.2256 11.7328 20.6301 10.8992C21.128 9.88026 22.5282 10.0346 22.5282 9.94201L23.8973 3.05664L24.2707 3.45803L23.275 9.63325C23.804 9.41712 25.8888 9.5715 26.1689 9.32449C26.5734 8.95398 26.8534 6.91616 27.009 6.32951C27.0712 6.05162 27.2268 5.09446 27.5691 5.12534L26.6978 9.41712L29.5917 9.54062L30.4007 5.46498C30.4007 5.46498 30.7741 5.83549 30.7741 5.86637L30.0273 9.63325L33.7613 10.1273L34.477 6.57652C34.477 6.42214 34.1659 6.206 34.0103 6.14425C29.934 4.53869 25.1731 3.92117 21.5636 1.23495C21.0968 4.0138 20.35 6.76177 19.9144 9.54062C19.5721 11.6093 19.8211 13.7398 19.1365 15.8702C18.8253 16.8274 17.9852 16.7348 18.0163 15.8702C18.732 11.9798 19.1987 8.05857 20.3189 4.26081C20.6301 3.21102 21.0968 1.08057 21.9681 0.555677C23.5239 -0.370606 30.8364 0.277792 32.5789 0.957066C33.3257 1.23495 33.139 1.85247 32.4233 1.8216C29.5917 1.51284 25.4843 0.277792 22.6838 0.802686C21.3769 1.04969 22.9327 1.69809 23.4928 1.97598C29.405 4.84746 41.1049 7.5028 47.7638 8.64522C49.1952 8.89223 50.6888 8.86135 52.0891 9.23186L53.6449 7.78069C47.3282 4.84746 40.5448 3.02577 33.6369 1.85247C33.7925 1.60546 34.8504 1.69809 35.1616 1.72897C40.078 2.25386 45.3679 3.3654 50.0665 4.84746C51.809 5.40323 59.526 8.1512 59.8994 9.91114C59.9616 10.189 59.4637 10.4978 59.3704 10.8374C58.7792 12.9987 58.7169 15.4071 57.939 17.9081C57.41 19.6371 55.4186 25.7197 54.5473 26.8312C54.0183 27.5414 53.4582 27.634 53.7694 26.5225C54.7651 22.7247 56.7255 18.8343 57.8457 15.0057C58.0012 14.4808 58.8725 11.0536 58.6858 10.8065C57.13 11.4858 55.1074 10.5595 53.676 10.7139C53.4582 10.7139 53.4582 10.9609 53.4271 11.1153H53.2093C53.4582 10.3434 52.3069 10.5595 51.7779 10.3434C52.0891 12.1033 51.5601 12.9061 50.751 14.3882L52.2758 14.6969L52.8047 13.2458C52.8047 13.6471 52.4313 14.4499 52.5558 14.7278C52.618 14.9131 55.2941 15.8394 55.9475 16.8583C56.6943 18.0624 55.6986 18.0933 55.3874 18.8035C54.9518 19.7606 54.7651 21.3353 54.3917 22.3542C53.0848 26.1211 50.9377 28.4059 46.6436 27.881C46.3947 27.8502 44.9011 27.6649 45.5234 27.2326C45.679 27.14 48.4795 27.2326 49.2886 27.0783C52.6803 26.3064 53.8005 22.0454 54.5784 19.174C54.0183 19.915 50.9689 19.915 50.8444 20.0385C50.5643 20.2546 49.3819 24.5464 49.1019 25.2566C48.6973 25.2257 49.0085 24.4847 49.1019 24.2377C49.2886 23.6201 50.6888 20.3473 50.5955 20.162C50.0976 20.2855 48.1995 20.1003 47.9505 20.2855C47.3282 20.8722 46.9859 25.3183 45.8968 26.152L47.4216 20.1929C47.4216 20.1929 44.5588 19.8841 44.4032 20.0385C44.1232 20.3164 43.2208 23.9906 42.9096 24.7934C42.7852 25.1331 42.8474 25.5344 42.3807 25.6888C42.7852 23.8363 43.5942 22.0763 43.812 20.162C42.9719 20.162 41.2916 19.0813 40.5759 19.3901C40.2647 19.5445 39.1445 24.7317 38.9267 25.5653C38.8334 25.9358 38.8022 26.2755 38.3977 26.4607L39.9224 19.3901L36.7174 18.5256L35.5972 24.2377L35.3794 24.145ZM55.6053 9.47887C55.9164 9.47887 56.881 9.54062 57.0366 9.23186C55.3874 8.70697 53.8316 6.7309 52.7736 9.07748C52.867 9.20099 55.1696 9.448 55.5741 9.47887H55.6053ZM34.1036 10.1273L37.5887 10.8065C37.5887 10.8065 37.8065 8.9231 38.0866 8.89223C38.5222 8.86135 38.2733 9.50975 38.211 9.72588C38.1799 9.97289 37.7132 10.8374 38.1177 10.8992L41.4783 11.5476L42.1317 8.30558L34.8504 6.42214L34.1347 10.0964L34.1036 10.1273ZM41.7272 11.5167C41.6027 12.1033 43.4075 11.7637 43.812 11.8563C44.4032 11.9798 44.9322 12.5356 45.5857 12.5974C45.6479 11.949 45.9591 11.2079 45.9902 10.5904C45.9902 10.5287 44.9945 9.97289 45.9902 10.0038C46.5814 11.7637 44.6211 13.3075 47.7327 13.1223C47.3904 11.8563 47.2971 10.8992 47.9505 9.69501L42.3495 8.36733L41.7272 11.4858V11.5167ZM36.6241 17.7845L39.8913 18.4329L40.8871 13.3693C40.8871 13.3693 41.3227 12.9679 41.2605 12.6591L37.8376 11.7637L36.6241 17.7845ZM32.9834 16.8583L36.1884 17.7228L37.402 11.702L33.9169 11.0227L32.9834 16.8891V16.8583ZM28.876 15.3762C29.0316 15.7158 31.801 16.3642 32.3922 16.5186L33.5124 10.93L30.0273 10.2508C29.4672 11.9181 29.2805 13.6471 28.876 15.4071V15.3762ZM26.48 10.0038C26.1377 11.4241 25.5776 12.7826 25.3909 14.2338L28.347 15.2527L29.3428 10.3125L26.5111 10.0038H26.48ZM22.5593 12.7517C22.5593 12.7517 24.6753 13.7089 25.0175 13.925L26.0444 9.88026C25.6088 9.97289 23.2439 9.88026 23.1194 10.0038C22.995 10.0964 22.4971 12.6282 22.5593 12.7517ZM47.266 14.2647C48.5106 16.5804 46.737 17.8463 45.15 19.2048C45.5234 19.2666 47.5771 19.5136 47.6394 19.1431L48.5729 14.5117L47.266 14.2647ZM53.3337 16.5804L51.9024 15.8394L51 19.2357C52.338 18.8961 53.8938 19.1431 53.8627 17.3214L54.2361 18.2786C55.2007 17.5067 55.7608 17.1361 54.5162 16.3334L54.1739 16.9509C54.5473 16.0555 54.1739 15.8394 53.3026 15.6541V16.5495L53.3337 16.5804ZM48.1995 18.5873C48.1684 18.7726 47.9194 19.0813 47.8261 19.2975C47.9505 19.3901 50.2843 19.421 50.471 19.2975C50.751 19.1431 51.7157 16.0555 51.5912 15.7467C51.4356 15.3762 49.4753 14.8822 48.9463 14.7896L48.1995 18.5565V18.5873ZM22.2482 10.2508C20.6923 10.7139 20.3189 11.4549 21.9681 12.196L22.2482 10.2508ZM40.9804 18.5256L40.4514 17.8463L40.327 18.4947H41.0115L40.9804 18.5256ZM35.7839 46.2214C35.9706 46.2214 36.7797 45.573 37.1531 45.4187C39.0201 44.6468 41.0738 43.9057 43.0963 44.2145L46.3325 43.844C44.2788 42.7942 42.1628 44.0601 40.2958 43.9057C39.6113 43.844 38.8022 43.4117 37.9621 43.2882C35.815 43.0412 35.4728 44.3071 34.2281 45.6966C35.006 45.326 35.535 46.1906 35.7839 46.2214ZM20.07 41.59C21.5947 42.6089 23.3372 43.7205 25.0487 44.338L23.0261 42.7942C20.879 40.7255 19.4477 38.3789 16.0871 38.348C17.1139 39.5522 18.732 40.6946 20.07 41.59ZM37.931 51.0072C41.1671 53.7243 44.7455 57.8926 49.5997 57.1825C53.676 56.5958 52.8359 48.1666 50.0976 46.2832C47.546 44.5233 45.8346 45.9127 43.4075 46.0671C42.1628 46.1597 41.1049 45.6966 39.8291 46.3758C39.3312 46.6537 38.9889 47.1477 38.4911 47.4565C37.2464 48.2284 35.7839 48.1975 34.3837 48.1975C35.2549 49.3399 36.7485 50.0501 37.8999 51.0072H37.931ZM38.9578 55.9474C41.5405 57.9544 48.075 59.4982 51.3423 59.2512C53.9872 59.035 54.7029 57.7691 55.0763 55.3299C55.4808 52.6437 54.9518 50.4206 52.9292 48.5372L53.396 51.0381C54.0494 57.8926 50.0354 59.9922 44.061 57.2442C39.5179 55.1446 36.873 50.4823 32.6723 47.9196C34.8193 50.6059 36.1884 53.817 38.9578 55.9783V55.9474ZM32.5167 47.6109C32.6411 47.2712 32.3922 46.9316 32.4544 46.6228C32.5167 46.4376 33.1701 46.7463 33.0145 46.1597L31.9255 45.9436C31.9255 46.6846 31.7076 47.3021 32.4856 47.6109H32.5167ZM8.93022 51.2543C10.2682 52.304 13.2866 53.3847 14.9669 53.6008C18.7942 54.0949 22.9327 52.0262 25.7643 49.6796L15.6825 52.4275C13.5666 53.1068 10.0193 50.5132 8.65017 49.0003C8.37012 48.6915 6.93875 46.1288 6.59646 46.3449C6.93875 47.9505 7.5922 50.1736 8.93022 51.2234V51.2543ZM39.7357 61.4125C41.0738 62.3079 42.8785 63.2651 44.4344 63.6047L39.1445 60.795C39.1445 61.1655 39.4868 61.2581 39.7357 61.4125ZM49.9731 68.6066C50.6577 69.3476 50.9377 70.3357 51.4356 71.1693C51.529 71.3546 51.3423 71.5707 51.8712 71.5399C53.396 68.1126 49.4441 66.5688 47.0482 65.2411L49.9731 68.6066ZM50.4399 74.1643C49.5686 73.7321 48.7596 76.1404 48.884 76.3256C49.5375 77.2519 50.3154 74.5657 50.4399 74.1643Z" fill="#85000B"/>
<path d="M15.5267 69.5637C14.811 71.4162 15.9001 72.3425 17.2381 73.3614C20.8787 76.1711 29.1247 78.7339 33.6366 77.5297C34.6634 77.2518 35.4725 76.9122 35.9081 75.8624C36.0637 75.4919 36.406 74.5347 35.7214 74.5965C35.5969 76.1403 35.0368 76.7578 33.5432 77.0666C29.747 77.8693 20.7854 74.9361 17.6115 72.713C17.0203 72.3116 15.869 71.478 15.7756 70.737C15.7134 70.2121 16.3046 69.471 15.5267 69.5019V69.5637Z" fill="#85000B"/>
<path d="M34.3529 26.9548C34.5085 27.6959 32.6726 31.154 32.7971 31.3392C32.8593 31.401 33.2949 31.5245 33.4816 31.3392C33.8239 30.9379 35.5976 27.0783 34.3529 26.9548Z" fill="#85000B"/>
<path d="M32.9521 69.1934C33.0455 69.7491 33.7612 69.8109 34.1035 70.2123C34.4146 70.5519 34.259 70.9842 34.6013 71.1077C34.8814 70.1814 33.7923 69.3169 32.9521 69.2242V69.1934Z" fill="#85000B"/>
<path d="M27.5688 72.3735C26.822 72.8984 28.6579 73.7629 28.7513 73.1763C28.8135 72.8675 27.7867 72.2191 27.5688 72.3735Z" fill="#85000B"/>
<path d="M21.9373 65.6733C21.9373 65.6733 21.7817 66.1673 21.9373 66.3526C22.5596 67.0936 23.1197 66.1982 22.7775 65.9512C22.5908 65.7968 21.9995 65.6116 21.9373 65.6733Z" fill="#85000B"/>
<path d="M20.1009 66.8777C20.2876 66.7542 20.381 66.0131 19.6964 66.1366C18.8874 66.2601 19.7586 67.1247 20.1009 66.8777Z" fill="#85000B"/>
<path d="M55.6982 5.86642C56.1961 5.74292 56.7251 5.2489 56.8184 4.75488C56.3828 4.90926 55.8227 5.40328 55.6982 5.86642Z" fill="#85000B"/>
<path d="M52.333 21.5248L52.1221 22.585L52.3358 22.6268L52.5467 21.5666L52.333 21.5248Z" fill="#85000B"/>
</g>
<defs>
<clipPath id="clip0_6_969">
<rect width="124" height="80" fill="white"/>
</clipPath>
</defs>
</svg>
