<svg width="425" height="413" viewBox="0 0 425 413" fill="none" xmlns="http://www.w3.org/2000/svg">
<path d="M71.6375 246.344C83.3249 229.943 73.1904 235.049 93.9497 227.165C92.5194 228.227 90.5784 229.718 89.3729 230.556C77.849 234.477 78.2781 250.327 88.8825 254.29C84.9186 256.822 81.9763 260.703 83.1206 266.994C85.3068 279.167 97.7501 277.86 109.233 276.492C99.8342 280.577 90.7827 284.253 90.7827 293.567C90.7827 299.776 95.5435 305.904 103.716 305.904C76.5822 322.958 67.1423 343.833 59.2963 346.12C50.1425 348.796 47.1799 355.026 41.3362 368.833C28.5251 399.164 31.7125 403.351 34.7978 407.395C37.5766 411.052 42.0922 412.808 46.4034 412.236C61.5643 410.255 65.1809 377.575 72.3731 372.326C75.6218 370.692 80.5665 375.226 101.428 348.245C114.668 353.964 148.423 360.132 162.439 361.97C183.893 364.768 199.708 337.746 166.812 324.695C141.047 314.462 176.783 322.366 178.663 301.328C187.101 296.529 191.024 285.172 182.054 272.693C202.793 270.568 214.031 240.727 186.672 232.149C204.019 226.267 208.249 208.517 201.629 199.142C198.155 194.24 202.466 199.673 214.562 179.064C217.137 174.673 221.305 162.255 228.926 135.763C246.539 182.026 250.094 179.861 251.157 185.866C236.037 192.096 234.75 211.989 251.239 223.142C258.717 228.207 259.166 226.369 257.287 229.555C252.526 237.602 253.445 247.549 262.313 255.76C256.122 265.278 263.478 279.372 269.812 284.192C280.314 292.178 306.631 306.087 317.378 312.603C320.382 326.717 314.13 337.971 301.257 346.223C287.833 354.822 288.63 365.871 297.579 373.674C306.672 381.619 311.412 380.68 323.079 377.555C342.429 372.387 343.041 373.081 352.931 369.364C359.51 391.77 361.839 402.534 372.914 402.882C391.548 403.453 385.296 380.7 381.066 362.971C371.054 321.039 366.927 336.378 348.763 300.532C357.14 301.145 369.971 289.829 352.808 274.041C374.998 283.988 379.554 252.451 358.427 240.38C351.378 236.357 362.391 244.322 370.319 236.377C376.469 230.229 374.405 219.812 366.416 216.422C365.333 215.707 361.247 212.868 358.652 211.132C386.624 224.428 382.783 226.491 382.17 238.195C380.167 277.758 398.372 362.726 421.359 334.458C431.514 321.999 412.839 322.284 410.469 247.018C409.161 205.801 403.481 203.472 351.664 177.961C334.092 169.301 337.852 175.47 338.24 164.726C338.873 147.201 308.96 52.6336 302.177 32.7397C294.801 11.1505 292.328 3.87915 282.725 3.28683C266.931 2.30643 237.774 11.7428 233.953 13.1521C221.632 6.26888 176.456 -5.6389 165.361 3.06215C147.626 3.1847 144.745 29.3287 140.985 48.4465C132.199 93.0343 110.888 151.899 133.017 187.357C119.878 186.969 116.691 189.277 97.5867 195.976C43.6656 214.89 60.5223 212.561 17.1238 286.929C12.3631 295.099 10.5241 303.555 5.72249 313.992C0.532653 325.267 -2.9204 332.722 3.45452 339.441C25.0925 362.256 33.8784 299.184 71.5966 246.263L71.6375 246.344Z" fill="white"/>
<path d="M216.278 98.6308C214.377 97.058 217.156 107.965 204.161 141.319C193.23 169.342 189.47 184.824 163.337 187.194C149.423 188.46 153.693 178.023 150.792 178.023C146.215 178.023 153.673 193.587 171.285 189.624C186.385 186.213 191.064 184.191 198.869 162.786C201.791 154.738 219.792 101.552 216.298 98.6512L216.278 98.6308ZM174.309 30.0436C170.877 30.0436 155.123 113.541 168.098 64.5823C175.494 36.6409 176.353 30.0436 174.309 30.0436ZM408.955 321.182C369.807 216.279 430.552 229.004 347.679 192.77C327.43 183.926 286.994 179.698 265.745 178.227C265.745 192.77 287.73 190.38 327.042 207.373C344.818 215.053 361.041 228.35 361.634 227.758C359.672 229.718 332.947 209.15 296.536 203.431C296.332 203.391 260.779 196.834 256.019 198.346C253.036 199.285 256.754 211.642 273.366 215.217C322.567 225.858 312.841 228.473 352.337 251.042C357.731 254.126 361.613 263.542 359.57 263.542C359.284 263.542 357.568 262.807 355.749 261.908C316.683 242.443 313.209 247.304 281.334 236.765C274.592 234.539 267.481 232.823 271.057 239.727C277.922 253.003 317.05 258.273 343.163 281.863C361.654 298.571 331.557 277.268 326.368 278.575C325.08 278.902 324.917 278.8 325.244 277.942C325.571 277.084 325.509 277.043 324.753 277.656C323.282 278.881 310.43 271.202 302.298 269.404C298.906 268.648 270.546 258.844 274.204 263.154C286.606 277.778 329.575 297.713 336.339 303.208C336.339 303.208 345.717 322.305 349.763 326.512C358.733 335.888 360.408 340.912 361.144 341.464C366.722 345.671 385.989 441.607 361.103 353.616C356.015 335.622 348.394 337.031 341.406 323.571C332.415 306.251 333.028 306.476 334.418 312.95C341.835 347.755 307.079 359.315 311.779 363.992C312.514 364.728 351.602 352.105 355.668 351.778C366.088 350.92 349.15 358.58 337.728 361.215C308.326 368.016 311.779 369.834 305.567 364.401C295.903 355.965 318.481 360.01 329.003 329.862C332.334 320.303 328.819 305.802 327.389 304.576C323.017 300.879 288.424 282.987 277.187 274.408C275.103 272.815 269.586 263.563 273.386 261.643C283.051 256.761 357.752 290.912 311.166 266.81C296.291 259.11 259.799 249.286 267.788 235.764C271.282 229.861 282.642 236.459 304.444 239.992C313.659 241.483 313.659 243.117 310.9 235.968C308.04 228.595 309.715 230.821 300.623 227.982C282.397 222.284 270.444 221.365 258.082 212.99C248.295 206.373 249.194 195.159 263.047 196.385C276.798 197.59 299.887 202.369 286.892 197.692C270.853 191.912 267.032 187.296 265.05 187.275C262.434 187.255 263.763 180.453 261.535 177.492C249.092 160.825 228.108 96.1185 227.209 96.67C227.005 96.7925 208.759 164.706 203.957 172.876C192.453 192.463 184.546 190.359 180.746 194.526C178.764 196.732 175.352 202.9 176.005 203.125C179.356 204.289 195.804 200.613 191.718 212.173C187.12 225.225 168.793 220.139 168.2 224.653C166.32 238.624 155.511 235.213 184.566 244.322C196.438 248.04 188.163 259.519 181.522 260.376C171.51 261.684 158.924 257.476 158.924 260.009C158.924 262.01 156.411 261.97 157.616 262.787C161.498 265.36 161.764 265.993 171.776 279.433C179.479 289.768 171.387 293.547 163.112 290.646C157.8 288.788 152.079 282.415 151.2 285.908C150.751 287.725 151.589 288.277 154.613 288.154C157.657 288.011 166.586 294.098 166.014 296.426C165.34 299.266 167.832 299.592 165.197 302.105C163.01 304.188 155.675 307.15 146.705 309.539C146.358 309.641 145.806 312.746 145.418 316.954C144.621 325.655 144.233 323.449 146.337 326.472C152.651 335.54 173.308 337.195 173.308 343.71C173.308 346.141 173.226 346.263 171.571 346.427C167.771 346.795 173.635 351.063 163.991 349.797C154.061 348.49 100.712 339.646 100.712 332.64C100.712 324.654 82.3021 358.192 71.9633 359.826C62.5848 361.317 60.1738 366.055 50.5502 389.462C42.4589 409.132 41.3964 400.083 52.5934 373.572C64.4238 345.549 57.3746 370.283 80.9332 342.464C96.7683 323.776 115.607 308.988 139.697 304.535C147.42 303.105 168.302 299.98 161.846 295.712C155.409 291.463 157.637 291.341 149.361 290.667C135.079 289.523 102.98 294.527 102.98 293.506C102.98 292.096 132.096 278.555 145.806 279.065C150.955 279.249 167.26 289.686 171.837 286.725C172.981 285.969 161.723 269.077 158.107 266.095C145.663 255.924 134.344 260.56 116.261 263.134C90.1277 266.851 81.8731 265.912 128.97 255.617C147.318 251.614 149.116 253.085 160.415 254.167C188.101 256.782 184.178 251.083 187.468 251.083C188.285 251.083 189.715 248.938 189.246 248.448C189.102 248.305 187.733 247.835 186.242 247.386C150.138 237.071 150.158 234.212 122.677 239.502C90.9042 245.63 92.0689 242.035 93.6218 242.035C96.1145 242.035 113.85 224.633 130.053 221.426C157.269 216.034 172.246 220.262 180.97 216.32C188.183 213.052 190.778 208.109 190.226 207.578C189.756 207.128 170.1 203.452 127.029 202.41C88.0641 215.87 99.4859 211.99 78.4405 219.812C70.1653 222.876 65.5271 231.312 65.9971 231.312C69.1437 231.312 50.7954 250.021 38.3112 278.759C35.798 284.539 13.7309 328.514 13.7309 329.433C13.7309 329.985 8.868 336.419 16.8366 319.139C21.9652 308.028 23.5998 300.144 27.7067 293.118C76.0703 210.233 48.0166 227.022 119.551 201.205C137.388 194.771 168.854 211.704 146.01 184.457C129.215 164.44 136.305 119.342 143.232 94.2803C155.818 48.7121 157.024 7.51484 168.507 16.5835C178.048 24.1204 205.408 30.0436 216.727 31.4529C222.939 32.2291 220.752 32.515 226.249 29.8598C232.031 27.082 232.358 28.3484 225.84 25.3459C205.121 15.8074 173.696 12.4373 174.555 14.6636C175.781 17.8295 159.332 6.37106 203.303 15.8074C237.2 23.0787 227.189 29.1449 238.324 24.5901C242.063 23.0583 269.484 14.7249 281.947 15.501C285.87 15.7461 326.531 148.876 325.979 164.277C325.366 180.862 319.421 177.206 319.4 179.35C319.4 180.678 328.819 180.351 346.228 188.93C396.165 213.562 397.105 212.582 398.208 247.386C399.148 277.39 400.701 296.855 411.816 325.838C412.163 326.737 411.734 328.698 408.894 321.1L408.955 321.182ZM149.32 258.599C145.929 258.844 145.99 258.518 149.668 259.682C155.43 261.5 153.264 258.313 149.32 258.599ZM139.207 285.948C139.207 283.212 120.838 289.094 120.654 289.298C120.184 289.809 121.757 289.216 129.317 288.44C139.247 287.399 139.207 287.419 139.207 285.948ZM148.871 284.192C143.109 284.519 140.943 284.335 140.923 286.725C140.923 287.603 142.108 287.562 148.544 287.562L148.871 284.171V284.192ZM106.719 325.062C112.133 324.552 114.116 324.286 123.392 321.753C128.561 320.344 132.259 319.343 132.402 313.992C132.505 310.295 114.483 318.22 106.719 325.062ZM143.559 312.317C143.988 309.233 144.662 309.764 140.841 310.704C126.171 314.339 141.495 321.57 125.701 327.207C119.836 329.29 109.089 329.638 105.534 327.881C103.899 327.064 103.756 327.084 102.306 328.535C99.6493 331.19 98.8319 329.821 131.585 338.951C157.78 346.264 171.674 343.833 170.57 343.833C176.741 342.403 150.873 338.89 145.724 327.452C143.804 323.183 141.393 328.065 143.559 312.338V312.317ZM149.545 223.632C145.847 222.202 129.338 226.593 128.193 226.593C127.315 226.593 116.383 234.518 111.071 236.99C98.9341 242.647 127.172 233.558 143.885 233.415C148.851 233.375 147.992 233.007 148.299 231.822C149.729 226.042 150.73 224.102 149.566 223.652L149.545 223.632ZM161.866 222.917C160.742 222.917 156.084 222.815 155.144 223.407C154.081 224.081 151.568 234.232 152.406 234.457C157.269 235.703 158.842 239.727 161.866 222.917ZM329.78 276.921C331.251 278.391 335.93 280.658 332.947 278.371C332.947 278.126 328.799 275.94 329.78 276.921ZM329.044 243.444C329.044 250.593 345.983 252.84 351.908 258.538C353.4 259.988 353.727 257.925 352.93 257.925C352.725 257.925 329.065 238.889 329.065 243.444H329.044ZM316.662 242.178C317.99 242.831 324.794 245.344 324.958 245.221C325.162 245.078 323.568 238.236 320.544 236.009C317.684 233.906 313.373 231.598 313.005 231.986C312.494 232.496 315.845 241.749 316.662 242.157V242.178ZM235.77 29.0428C242.186 36.5388 237.65 38.6426 269.443 23.814C289.14 14.6228 274.51 12.7028 235.77 29.0428ZM226.78 33.3525C226.78 33.8835 238.447 32.3312 234.81 30.3909C233.38 29.6147 226.78 33.1278 226.78 33.3525ZM214.745 38.4791C212.028 39.7046 211.599 40.0723 212.212 40.685C214.112 42.5846 215.971 42.4416 226.78 39.5208C234.728 37.3762 235.811 36.9064 235.811 35.6197C235.811 34.4759 234.973 34.6597 233.073 36.2732C228.639 40.011 221.508 35.4562 214.725 38.4791H214.745ZM220.752 95.2811C216.645 95.3015 216.053 100.632 179.336 105.494C152.733 109.007 153.366 106.025 152.671 106.025C149.566 106.025 150.955 112.03 142.271 152.532C135.427 184.457 158.944 191.279 158.352 198.917C158.066 202.41 158.045 201.757 163.582 201.736C174.35 201.716 167.505 194.894 172.47 193.076C174.636 192.279 172.266 192.729 171.755 191.891C171.633 191.687 186.957 190.278 193.025 178.595C207.43 150.796 223.02 95.2811 220.793 95.3015L220.752 95.2811ZM159.23 102.573C160.395 102.614 159.966 102.083 159.966 102.266C159.537 101.837 157.698 102.491 159.23 102.573ZM174.8 101.756C197.03 100.469 203.323 98.8146 212.048 96.3023C241.696 87.7851 121.246 104.86 174.8 101.756ZM210.924 45.2807C209.331 37.5804 208.452 43.5037 206.082 41.5429C204.835 40.5012 207.737 39.8476 213.499 36.2324C184.383 33.2708 169.876 20.7094 168.915 20.7094C168.711 20.7094 137.49 132.25 139.186 158.803C139.513 163.746 148.565 105.494 148.503 105.289C146.644 100.469 185.322 93.0547 185.527 93.0139C222.918 84.6601 221.549 98.5287 223.184 85.9469C223.899 80.5138 214.582 63.0913 210.904 45.2807H210.924ZM230.499 54.8804C234.994 39.48 235.668 41.5837 228.578 43.2382C215.419 46.3223 213.662 41.9105 214.602 44.2186C230.131 82.8831 223.041 80.33 230.499 54.8804ZM271.711 103.186C274.551 103.819 330.393 112.213 258.144 95.3628C186.426 78.6347 290.161 98.6308 299.54 101.96C306.548 104.452 307.12 108.149 293.451 65.9099C280.129 24.7944 283.296 21.3221 267.972 29.1858C229.416 48.9776 243.677 26.4897 231.868 73.2629C227.291 91.4207 227.086 93.2794 271.69 103.206L271.711 103.186ZM290.345 102.818C300.234 105.187 299.519 103.41 297.823 102.94C285.155 99.4069 265.785 97.3236 278.719 99.7746C282.315 100.449 278.658 100.02 290.345 102.818ZM316.764 175.449C316.764 175.653 321.259 171.997 320.115 159.395C318.91 146.201 316.213 139.44 311.595 124.918C305.261 105.024 305.976 104.799 304.873 106.882C303.647 109.231 304.873 106.923 291.755 108.108C260.289 110.927 235.443 98.304 234.422 99.3252C231.99 101.756 259.247 164.992 259.349 165.216C267.093 183.272 259.145 169.342 302.482 176.613C314.884 178.697 314.21 178.84 316.744 175.449H316.764Z" fill="#EA3826"/>
</svg>
