<svg width="407" height="563" viewBox="0 0 407 563" fill="none" xmlns="http://www.w3.org/2000/svg">
<path d="M406.687 217.2C406.295 213.104 405.578 205.486 405.082 190.198C404.56 173.801 403.398 170.697 402.472 168.205C402.328 167.801 402.289 167.723 402.276 166.405C402.237 160.992 400.632 154.809 397.631 148.535C396.622 146.43 396.017 140.521 395.817 130.807C395.439 112.311 395.36 107.915 386.174 102.436C384.725 101.575 383.094 100.597 380.941 98.9011C372.603 92.2876 354.96 85.2437 347.444 83.1567C345.709 82.674 343.66 81.8261 342.016 81.1609C341.102 80.7826 340.176 80.4043 339.236 80.0912C338.375 76.3084 336.222 72.0429 332.203 69.1993C331.524 68.7166 330.794 68.3253 330.037 68.0122C333.142 58.4508 332.686 22.6051 329.097 16.9438C327.662 14.6741 325.639 13.2393 323.356 12.8349C323.186 12.7697 323.003 12.7045 322.821 12.6392C322.703 12.5218 322.573 12.3783 322.416 12.2088C321.725 11.4522 321.137 10.8 320.655 10.2652C320.028 9.57382 318.815 8.21722 317.027 7.34326C315.448 6.03883 313.817 5.19092 313.138 4.86481C311.938 4.29086 309.693 3.14296 308.349 2.41248C292.273 -6.36633 268.328 11.0348 261.947 19.1353C257.132 25.24 258.541 29.7794 259.95 32.0752C258.385 35.2189 257.419 38.4538 258.502 41.5453C258.515 41.6106 258.541 41.6758 258.567 41.741C259.442 44.4673 261.621 46.5283 264.361 47.2718C264.713 47.7023 265.092 48.1066 265.496 48.4849C265.379 50.8198 265.392 53.6896 265.509 57.3159V57.4463C265.914 69.2384 265.992 71.6907 269.972 75.5257C270.572 76.0997 271.486 76.9867 273.221 80.1304C274.226 81.9566 275.1 83.4045 275.844 84.5524C275.296 85.2698 274.578 86.1438 273.939 86.4829C272.19 87.4221 270.859 88.3483 269.842 89.3266C268.08 90.031 266.057 90.931 263.709 92.092C258.137 94.8052 256.414 95.3661 254.744 95.914C253.661 96.2662 252.447 96.6575 250.581 97.4401C247.123 95.6009 242.295 95.053 236.958 100.375C235.536 101.797 234.479 103.519 233.8 105.515C231.765 104.719 229.324 103.806 226.336 102.723L226.715 102.358C227.706 101.419 228.581 100.779 229.507 100.101C236.919 94.6878 239.124 90.331 242.086 62.9119C242.413 59.9117 242.726 57.7203 242.961 56.0767C243.522 52.0982 243.939 49.2154 242.099 45.7587C235.366 33.1318 226.075 24.7574 215.244 21.5485C205.901 18.7831 195.736 20.0353 186.589 25.0835C167.889 35.4145 165.841 54.0809 164.862 63.0554C164.836 63.2772 164.81 63.4989 164.784 63.7337C163.127 64.5555 161.691 65.8599 160.647 67.5426C157.124 73.1778 157.933 83.848 164.719 90.1745C165.984 91.3615 167.237 92.3268 168.503 93.0833C168.829 95.1443 169.716 97.0619 171.126 98.6533C172.757 100.506 175.027 101.862 177.768 102.619C178.042 102.971 178.355 103.31 178.694 103.623C176.946 107.015 169.521 107.471 165.045 107.758C161.861 107.954 159.029 108.136 156.706 109.467C150.73 109.897 145.458 114.006 142.522 116.289C142.131 116.589 141.596 117.02 141.113 117.372C138.346 117.672 135.867 119.289 134.406 121.833C132.801 124.624 132.696 128.212 134.027 131.107C133.962 134.76 133.062 144.178 132.396 151.274C131.378 162.127 130.217 174.414 129.943 183.363C127.764 181.054 124.841 179.515 122.283 179.019C119.686 177.01 116.907 176.215 114.193 176.658C113.749 176.189 113.253 175.745 112.692 175.315C109.208 172.68 102.214 170.906 97.5943 175.223C95.9632 176.736 94.6583 179.176 94.7235 182.124C94.3451 182.176 93.9797 182.241 93.6013 182.319C92.9489 181.641 92.2573 181.054 91.5396 180.532C91.109 178.693 90.1172 177.076 88.6557 175.889C86.7767 174.362 84.5714 173.736 82.2487 174.036C81.5701 173.293 80.8263 172.614 80.0173 171.975C79.6389 171.675 79.3518 171.427 79.1039 171.206C78.1513 170.371 75.2413 167.84 71.0787 168.858C70.361 169.04 69.7216 169.288 69.1605 169.588C67.2945 167.488 64.6716 165.923 60.9135 166.823C58.1863 167.475 56.1245 169.379 55.1589 172.053C51.466 174.701 48.9997 179.841 51.5965 187.315C48.5169 188.476 47.1859 190.863 46.69 192.076C44.8632 196.538 47.199 200.216 49.1433 202.408C48.5039 202.799 47.9297 203.255 47.3947 203.738C44.1585 202.851 40.5961 202.486 36.7467 202.642C29.126 202.981 26.3727 204.247 24.5719 206.047C22.471 208.147 21.5576 211.108 22.0143 214.382C22.4971 217.904 24.8851 222.691 28.317 225.966C27.1817 229.957 26.8425 234.914 28.852 238.684C29.6089 240.092 31.3705 243.38 35.4026 244.228C39.3565 245.049 42.149 242.871 43.48 241.84C43.5191 241.814 43.5583 241.775 43.5974 241.736C44.0933 244.006 45.072 246.262 46.4813 248.284C47.8123 250.215 49.4564 251.819 51.3355 253.059C51.1789 253.476 51.0223 253.906 50.8657 254.324C48.5952 255.328 46.6639 256.841 45.4765 258.563C45.1503 259.046 44.8632 259.555 44.6283 260.076C43.7801 261.029 43.0755 262.137 42.5535 263.416C41.2095 266.651 41.3399 270.003 42.8667 272.625C43.1016 275.247 44.1846 277.517 46.1028 279.382C46.155 281.521 46.8075 283.099 47.5121 284.326V284.378C47.5121 288.291 48.6344 290.926 50.2655 292.583C46.3508 298.7 43.6105 303.918 42.1229 308.145C41.875 308.862 41.6531 309.41 41.4835 309.84C40.8702 311.38 39.2521 315.488 42.4883 319.206C44.6283 321.671 47.5774 322.467 51.2572 321.593C51.5182 321.528 51.8444 321.45 52.2489 321.371C53.8148 321.084 55.0936 320.889 56.1375 320.758C55.3546 326.146 54.7804 334.22 60.248 343.286C60.7308 344.095 60.9787 345.021 61.2789 346.208C62.1401 349.547 63.7582 355.756 72.4749 357.817C77.0813 358.913 80.5132 357.909 82.6923 354.817C85.9155 350.225 83.0316 345.634 81.8833 343.886C81.6093 343.142 81.3613 341.355 81.283 339.881C82.1965 339.268 82.9925 338.486 83.6188 337.546C86.0459 333.933 85.0542 330.046 84.0103 325.924C78.9342 305.81 82.3531 299.327 84.8585 294.592C85.1716 293.991 85.4848 293.405 85.7589 292.857C88.6818 286.987 91.5396 281.965 93.8623 277.921C94.4626 276.877 95.0106 275.899 95.5195 274.999C95.8066 275.077 96.0937 275.142 96.3938 275.195C96.9288 275.286 97.5421 275.351 98.2076 275.312C98.3642 275.847 98.5208 276.408 98.6904 276.995L98.7426 277.151C103.375 293.483 105.176 299.222 109.43 301.335C100.935 319.611 96.7983 329.668 95.7283 334.572C95.5456 335.407 95.4282 336.281 95.3108 337.207C94.9062 340.299 94.3582 344.525 91.1481 349.769C88.9559 353.356 87.5988 359.813 84.9629 372.923C81.818 388.576 77.5249 409.994 71.418 419.073C68.3384 423.652 65.0892 425.674 61.9313 427.63C58.3167 429.874 53.8018 432.678 52.6796 438.718C52.6143 439.031 52.4969 439.67 49.7566 440.635C42.8406 443.049 39.4609 447.21 30.8224 459.445C25.1852 467.428 17.0426 474.72 13.9892 476.39C9.95702 474.342 6.7861 475.111 4.76349 476.207C3.31505 477.003 -0.0515961 479.442 0.000600062 485.012C0.0788943 493.778 11.3663 516.097 21.2705 521.288C27.7428 524.68 39.8393 525.488 49.8349 525.41C52.275 533.002 54.7413 537.802 63.5233 544.064C72.6315 550.56 77.016 551.838 88.1468 551.264C93.3664 551.003 98.6905 550.729 102.018 548.486C102.657 549.151 103.297 549.686 103.832 550.103C103.806 550.403 103.78 550.703 103.78 551.003C103.78 557.356 109.978 559.456 112.014 560.147C114.871 561.112 116.829 561.569 118.46 561.634L120.065 561.869C122.401 562.221 124.254 562.495 125.911 562.495C128.651 562.495 130.752 561.66 132.253 559.952C143.501 560.969 149.712 558.764 153.275 557.369C163.244 564.934 176.267 561.295 184.592 554.342C184.671 554.277 184.749 554.212 184.814 554.16C185.767 554.564 186.915 555.047 188.324 555.608C192.513 557.264 202.378 560.682 208.837 558.96C208.981 559.025 209.124 559.104 209.268 559.169C219.316 564.269 227.524 562.456 237.036 560.356C239.463 559.821 241.982 559.26 244.801 558.764C249.198 557.982 253.295 558.491 257.641 559.051C266.475 560.173 277.475 561.556 289.024 550.038C289.52 549.542 289.937 549.112 290.302 548.707C290.563 548.707 290.837 548.707 291.098 548.707C291.647 551.029 293.265 553.495 296.54 554.825C297.767 555.321 300.324 556.364 310.646 556.364H311.024C319.063 556.351 321.907 556.143 323.865 554.969C324.282 555.19 324.713 555.412 325.156 555.634C325.809 555.96 326.305 556.234 326.722 556.469C331.015 558.83 332.882 558.66 338.493 558.151C339.837 558.034 341.533 557.877 343.725 557.695C354.987 556.795 358.118 555.869 360.493 552.725C362.203 550.455 363.547 546.907 361.341 528.958C369.68 524.836 371.65 521.014 370.097 512.483C369.771 510.67 369.354 508.427 369.106 505.231C365.556 460.684 369.014 438.94 371.089 425.934C371.989 420.247 372.707 415.76 372.577 411.39C372.081 394.85 375.265 359.748 377.822 331.468C379.427 313.701 380.615 300.579 380.641 295.022C381.398 293.952 381.933 292.752 382.285 291.343C382.481 291.239 382.651 291.135 382.794 291.044C387.387 288.122 389.319 281.978 393.259 266.468C394.134 263.05 394.956 259.815 395.726 257.233C400.71 240.497 403.464 233.949 404.938 230.427C407.222 225 407.287 223.696 406.661 217.174L406.687 217.2Z" fill="white"/>
<path d="M397.265 190.446C396.508 166.627 394.512 173.854 394.459 166.457C394.433 162.205 393.076 157.131 390.571 151.913C388.366 147.308 388.326 146.943 388 130.964C387.504 106.832 387.113 113.772 376.086 105.032C368.596 99.0967 351.711 92.4572 345.356 90.6962C338.975 88.9222 331.902 84.3828 336.691 89.4701C343.764 96.9966 366.913 98.4445 377.587 107.81C380.719 110.563 381.45 113.367 378.84 112.689C377.757 112.402 377.274 112.663 377.274 113.537C377.274 113.68 349.584 219.73 362.281 221.204C366.378 221.674 362.62 222.261 367.905 256.02C372.315 284.143 374.795 289.191 369.131 285.487C365.19 282.904 353.394 287.326 351.084 288.356C345.121 291.004 333.064 290.926 329.658 292.635C322.337 296.287 307.37 297.239 318.266 294.618C332.777 291.135 313.973 292.53 297.949 292.387C279.811 292.217 262.351 289.256 260.955 287.848C259.506 286.387 262.664 247.515 264.361 241.371C269.502 222.77 267.884 189.324 266.631 177.31C265.6 167.475 263.734 174.91 262.86 160.901C261.699 142.325 261.085 138.204 259.363 137.63C257.092 136.873 260.85 153.87 259.415 153.87C258.228 153.87 231.177 208.421 228.032 209.06C226.949 209.282 221.586 213.991 205.744 219.404C205.601 219.456 166.649 235.37 162.813 231.535C161.56 230.283 160.034 222.091 160.034 216.652C160.034 212.386 159.668 212.699 169.024 208.93C178.146 205.264 203.669 192.768 206.867 195.011C207.989 195.794 208.485 195.859 208.485 195.233C208.485 194.555 208.785 194.568 209.659 195.285C211.329 196.681 210.455 198.09 211.616 198.807C212.673 199.46 212.021 196.264 212.282 192.155C212.517 188.528 211.538 188.424 216.014 193.29C220.49 198.155 219.746 198.416 219.054 193.29C218.545 189.468 216.066 178.093 219.093 178.093C219.707 178.093 217.488 181.224 218.48 181.224C223.504 181.224 249.237 110.537 249.485 110.171C252.186 106.271 273.39 100.414 273.795 100.323C289.467 97.101 279.25 86.6655 313.516 85.335C337.044 84.4219 312.394 81.6565 295.43 86.1307C291.45 87.1743 288.214 87.8265 288.214 87.5525C288.24 86.4046 289.519 85.3219 291.333 84.9176C295.261 84.0436 313.334 74.7561 326.304 77.6519C332.059 78.9303 325.639 82.2174 328.862 86.0525C332.49 90.3701 333.703 79.8173 327.701 75.5648C326.526 74.73 324.765 74.8344 325.313 75.7214C325.574 76.1388 324.19 75.7735 322.246 74.9126C307.853 68.547 291.711 79.2172 288.619 74.5083C285.109 69.1601 286.505 80.8869 287.092 82.7914C289.349 90.0701 279.328 71.8081 278.662 71.2602C277.149 70.008 277.958 57.9551 277.997 57.7985C278.193 56.9767 284.417 68.5731 280.711 59.703C277.214 51.3416 277.762 39.8365 272.842 39.8365C271.355 39.8365 271.538 38.5191 273.156 37.4886C274.917 36.3798 272.777 37.2798 270.807 37.9712C267.153 39.2626 271.733 45.563 273.417 42.8497C273.965 41.9758 274.239 41.9758 275.074 42.8889C275.831 43.6977 275.831 43.8281 275.1 43.4237C272.79 42.1193 273.247 54.5505 273.338 57.2115C273.926 74.5996 273.73 64.8294 280.085 76.3866C285.343 85.9611 286.714 84.0306 284.756 86.8221C284.065 87.8134 283.49 88.27 283.49 87.8525C283.464 86.6394 281.546 91.2962 277.644 93.3964C276.144 94.2051 274.904 95.1443 274.904 95.4704C274.904 96.1618 274.578 95.4965 267.127 99.1359C257.053 104.054 258.11 102.619 252.434 105.162C246.797 107.693 247.606 100.779 242.477 105.906C238.132 110.25 243.965 120.568 238.08 116.159C235.196 113.993 221.651 109.389 218.258 108.163C217.332 100.062 216.797 100.962 221.325 96.6705C228.619 89.7831 230.72 95.1443 234.296 62.0901C235.3 52.7373 236.136 51.2633 235.17 49.4632C223.23 27.0792 204.909 23.9225 190.359 31.9578C167.054 44.8325 175.771 73.0864 169.664 70.7384C165.971 69.3166 164.47 79.2824 170.042 84.4741C175.992 90.0179 177.728 85.3741 176.384 90.0179C174.909 95.0791 181.76 95.94 185.244 95.3791C185.923 95.2748 186.366 97.6097 184.461 97.6879C183.6 97.7271 183.887 98.0401 185.244 98.5358C187.867 99.488 188.05 101.953 185.897 106.715C180.39 118.846 158.311 113.706 160.451 117.176C161.743 119.276 190.529 118.311 190.529 101.966C190.529 100.049 190.751 99.8533 192.291 100.336C193.661 100.766 205.914 102.136 200.694 100.753C196.714 99.7098 196.388 101.106 193.804 99.6837C192.225 98.8098 192.591 98.7315 196.78 99.0315C202.051 99.4098 204.009 98.2619 205.04 94.166C206.084 90.0049 209.515 94.7269 212.073 86.2351C214.97 76.6084 211.695 74.5083 204.205 70.1123C207.832 74.0126 208.445 74.1821 208.928 74.1821C214.605 74.1821 209.02 90.2658 200.799 84.4219C197.81 82.2957 198.502 82.1 198.502 85.4002C198.502 90.0962 195.54 95.7705 189.081 93.8399C182.478 91.8572 177.323 94.8704 180.429 88.0482C181.786 85.0741 184.005 84.0697 186.04 85.4915C187.919 86.809 190.529 87.096 190.529 85.9742C190.529 84.748 185.022 88.1656 186.119 79.1651C186.601 75.2387 187.189 73.9604 188.232 74.5996C189.981 75.6823 188.754 74.0778 186.915 72.8647C184.957 71.5863 184.814 71.5863 183.783 72.9951C183.196 73.8039 182.7 76.0735 182.7 78.0302C182.7 85.1915 170.603 90.6179 172.182 80.0782C172.743 76.2953 173.317 75.7996 174.883 77.6911C175.953 78.9825 178.015 79.2825 178.015 78.1476C178.015 75.8518 173.461 74.6909 174.988 70.3341C175.823 67.96 175.914 67.9078 177.689 69.0688C179.79 70.4515 180.664 70.621 179.985 69.5123C179.189 68.2209 181.982 64.8033 183.835 64.8033C187.593 64.8033 197.941 72.5386 189.772 63.9554C181.643 55.4114 178.889 69.2514 179.777 56.9115C181.825 28.5141 204.779 26.9618 227.04 40.2409C230.812 42.4845 233.447 49.985 230.811 50.9894C227.367 52.3069 232.834 57.7985 220.594 70.6472C216.993 74.43 211.864 79.5434 215.818 78.552C218.467 77.8867 218.48 77.7302 215.283 84.1219C211.264 92.1702 227.614 78.9825 228.567 79.9347C231.059 82.4261 217.097 96.0052 214.944 96.0313C209.346 96.0835 216.288 117.15 216.288 110.654C216.288 108.215 216.627 109.023 235.131 118.272C234.374 131.655 234.596 135.816 230.303 145.639C228.123 150.635 221.638 173.332 218.232 177.154C214.761 181.041 215.57 177.245 213.182 181.941C210.064 188.059 208.341 183.193 192.095 186.963C165.54 193.133 165.318 123.424 162.291 119.772C155.479 111.567 145.288 126.281 142.339 125.198C140.995 124.703 140.316 127.364 141.53 128.355C143.031 129.581 138.307 164.801 137.733 183.624C137.08 204.808 137.42 203.321 132.148 208.773C120.182 221.165 118.394 226.396 116.659 224.948C114.714 223.331 110.16 228.835 114.414 228.835C115.262 228.835 114.858 229.787 113.018 232.162C108.777 237.601 108.359 237.64 108.02 232.553C107.824 229.553 108.059 228.992 110.095 227.635C114.01 225.039 112.47 221.857 114.388 223.448C115.171 224.1 115.471 224.113 115.471 223.474C115.471 221.87 121.134 223.578 120.899 217.435C120.782 214.382 123.118 204.299 124.005 203.999C125.962 203.347 120.169 199.994 124.07 195.037C128.311 189.65 121.682 186.663 120.508 186.663C117.05 186.663 116.815 181.602 112.626 186.467C110.708 188.698 110.304 190.955 111.491 192.833C113.501 196.003 119.503 178.68 121.304 196.577C122.009 203.568 122.792 201.938 118.277 202.89C109.442 204.769 103.035 185.254 92.8832 190.876C91.8523 191.45 90.3386 191.737 89.5165 191.529C79.808 188.985 82.9398 211.369 84.5579 201.755C84.845 200.06 85.9541 197.646 87.0242 196.381C89.8558 193.029 87.1807 196.459 87.8593 199.029C88.4595 201.338 87.5461 199.603 85.4844 203.099C83.0181 207.26 86.3978 205.382 85.4452 210.391C84.7014 214.382 89.908 217.121 91.3303 217.121C94.0967 217.121 96.9806 222.183 98.6639 219.469C99.5773 217.995 104.94 219.913 108.072 216.782C109.129 215.726 109.795 214.395 109.573 213.808C109.038 212.412 111.974 209.66 112.731 210.873C113.514 212.139 112.339 219.574 111.439 219.013C109.964 218.1 106.063 225.822 103.022 224.191C102.057 223.683 101.091 223.435 100.869 223.657C100.308 224.218 100.426 231.705 101.026 233.57C101.535 235.162 101.261 235.357 97.2546 236.244C92.0089 237.392 99.5512 240.419 98.69 239.049C98.2333 238.318 100.765 235.853 103.074 237.94C104.588 239.31 104.575 239.362 101.639 241.88C100.008 243.275 98.3116 244.449 97.881 244.475C94.4621 244.723 89.6992 253.411 99.3294 247.254C105.006 243.627 104.379 242.14 104.471 243.732C104.549 245.336 102.461 246.823 103.257 246.823C108.451 246.823 139.077 208.904 139.259 207.534C148.511 136.051 142.248 132.19 148.994 148.887C153.561 160.222 155.727 162.714 156.536 166.366C159.277 178.654 153.626 207.43 153.47 210.612C153.013 219.443 146.332 218.882 138.15 226.239C113.174 248.702 99.9688 264.42 95.5843 262.75C94.5534 262.359 92.4525 258.589 92.6874 257.572C92.8571 256.815 92.3743 258.015 89.3338 255.159C84.8711 250.958 90.7562 253.476 92.831 247.176C93.627 244.749 93.5617 244.175 92.309 242.753C90.8867 241.149 90.8867 241.136 92.6613 242.075C95.2711 243.445 97.4373 242.949 92.3743 240.366C87.52 237.901 85.0407 238.631 88.8119 241.41C91.6957 243.549 91.8914 245.193 89.4904 247.371C84.845 251.598 83.4357 251.245 82.6788 245.662C82.1438 241.697 79.9516 240.901 79.6775 244.567C79.4296 247.749 70.0213 258.224 71.1565 251.193C72.4745 243.067 59.6081 247.88 56.2937 245.114C53.2663 242.61 58.0944 233.114 61.9569 238.423C65.1018 242.74 61.983 233.544 55.3541 233.544C47.068 233.544 51.2828 249.367 61.9961 248.023C65.3627 247.606 66.237 247.723 66.237 248.597C66.237 250.267 65.3236 250.815 64.1622 249.85C60.365 246.706 57.4681 260.885 56.5025 260.885C54.3624 260.885 51.322 262.711 51.7265 263.755C51.9483 264.329 51.7917 264.785 51.3872 264.785C50.0693 264.785 48.8035 267.981 49.7431 268.933C50.2128 269.403 50.5912 270.59 50.5912 271.568C50.5912 275.195 54.8061 273.981 53.997 278.038C53.3707 281.169 55.2758 279.943 55.2758 284.404C55.2758 288.865 56.8417 287.222 56.8548 284.065C56.8809 277.282 59.6212 281.286 59.3602 282.799C59.2949 283.204 68.1422 283.726 61.1479 276.734C55.6282 271.216 59.9735 269.677 59.9735 272.208C59.9735 273.812 61.448 272.768 64.3188 274.66C69.7603 278.221 64.5276 272.012 60.3389 269.664C59.2036 269.038 59.1645 268.542 60.0257 265.698C61.5263 260.702 61.2523 264.407 64.8147 263.846C66.5502 263.572 66.5241 263.507 64.1883 262.02C60.7042 259.815 62.3223 258.25 65.9891 253.658C68.0378 255.132 72.2918 258.537 74.8103 258.537C81.4522 258.537 80.1082 248.95 81.1912 249.628C82.6266 250.515 88.9293 259.502 87.8071 259.072C86.5674 258.602 55.9022 292.531 49.456 310.779C47.9423 315.058 47.4986 314.314 50.787 313.714C76.4936 309.005 56.0457 321.293 66.8895 339.281C69.956 344.368 67.8551 348.725 74.223 350.238C76.7154 350.825 76.8198 350.565 75.1234 347.982C73.5053 345.503 72.7615 337.442 73.949 335.224C75.9847 331.429 78.5814 336.738 76.35 327.867C69.9691 302.64 75.802 295.178 78.6728 289.4C85.5366 275.56 91.9958 266.625 91.9958 263.65C91.9958 260.468 96.3281 265.098 96.9153 266.612C98.5203 270.812 101.052 258.576 104.392 268.907C106.206 274.503 111.635 296.222 113.461 294.383C113.84 294.005 112.666 288.213 112.026 282.382C111.452 277.177 110.969 277.256 113.501 282.108C116.15 287.182 123.731 294.044 119.386 283.165C116.554 276.069 115.915 275.469 120.273 279.199C123.822 282.239 125.271 282.747 124.488 280.673C123.94 279.251 116.241 266.416 114.049 263.272C109.808 257.194 128.729 274.647 128.729 271.242C128.729 270.486 117.011 258.955 117.011 260.076C117.011 261.198 110.76 257.937 110.76 257.011C110.76 253.137 127.868 266.703 129.212 265.359C129.668 264.903 113.879 255.341 113.905 254.259C113.931 253.358 117.415 248.754 116.698 250.971C115.602 254.35 135.658 237.914 141.452 230.427C142.952 228.483 143.566 228.092 143.579 229.057C143.579 229.814 143.853 230.348 144.179 230.257C145.614 229.853 148.198 232.175 148.668 234.314C149.581 238.449 106.519 321.45 103.309 336.268C102.735 338.942 102.827 345.621 97.7505 353.891C93.5748 360.713 88.9946 406.903 77.8376 423.482C70.2953 434.687 61.3567 434.531 60.2997 440.205C59.5951 443.936 57.1288 446.362 52.2615 448.071C47.8509 449.61 45.737 451.84 37.1377 464.011C32.8315 470.102 17.3814 487.96 11.144 483.877C1.14843 477.329 15.4763 509.496 24.8194 514.401C31.3309 517.818 48.1511 517.766 55.4977 517.518C58.7077 527.941 59.2036 531.476 67.9856 537.737C75.6845 543.229 78.2552 543.985 87.6636 543.503C97.4373 543.007 100.008 542.016 94.9971 540.698C76.5719 535.846 73.8838 542.055 67.4767 529.323C51.87 498.304 40.3999 521.732 24.976 513.709C20.6959 511.479 16.8595 505.426 14.3149 496.869C10.9222 485.429 13.9365 494.078 25.0021 484.882C39.4996 472.842 49.2602 447.118 49.8866 455.258C49.9388 455.989 50.2128 455.402 50.4738 453.954C51.4786 448.462 63.8491 449.401 63.8491 441.392C63.8491 439.122 64.4754 438.444 73.9229 430.539C89.647 417.364 104.64 364.952 107.707 356.356C109.442 351.504 109.495 349.821 108.02 345.712C107.107 343.147 112.044 330.955 122.831 309.136C140.329 273.734 150.351 242.14 155.388 242.14C157.554 242.14 164.627 239.597 164.235 238.958C163.518 237.797 165.592 238.123 167.002 239.401C169.364 241.54 223.178 214.004 225.722 214.017C232.677 214.043 233.891 251.95 258.201 313.884C262.769 325.533 262.155 332.394 277.436 361.678C293.721 392.88 290.981 422.921 309.628 458.95C315.643 470.572 323.068 489.056 321.998 502.1C321.881 503.509 323.603 502.739 322.938 503.835C322.285 504.879 327.492 520.271 327.1 520.61C326.056 521.523 317.666 520.519 313.777 523.793C310.411 526.623 311.468 524.393 303.325 528.41C291.92 534.032 289.767 531.189 283.386 537.528C281.063 539.837 278.467 541.585 276.614 542.081C268.471 544.272 241.551 545.303 235.587 543.646C232.142 542.694 229.102 539.72 227.119 537.985C219.746 539.133 204.857 541.311 196.962 537.189C193.217 535.233 192.604 535.48 193.008 538.807C193.648 544.194 195.618 544.716 192.043 543.685C189.694 543.02 186.601 541.676 188.572 540.242C189.681 539.433 189.642 539.133 188.193 537.294C187.084 535.872 186.092 535.376 184.996 535.663C181.108 536.68 179.15 527.863 163.531 535.689C160.19 537.372 152.596 542.798 142.887 545.968C122.1 552.751 91.5913 532.285 116.398 549.555C120.638 552.503 120.573 551.825 117.259 552.138C113.031 552.542 111.556 550.077 111.556 551.055C111.556 552.347 118.772 554.042 118.929 553.847C129.186 555.347 127.476 555.464 122.896 550.586C150.521 556.703 151.669 545.407 156.837 550.22C163.596 556.508 173.435 553.481 179.529 548.381C184.253 544.429 181.708 544.611 191.169 548.368C199.102 551.512 207.167 552.634 207.819 550.677C207.976 550.207 210.077 550.86 212.765 552.229C222.434 557.134 229.898 553.508 243.378 551.094C258.971 548.29 269.711 558.243 283.451 544.533C287.914 540.085 284.991 540.998 297.009 540.972C303.782 540.959 308.166 541.911 308.975 536.772C309.275 534.92 309.667 535.05 315.343 534.124C315.539 536.485 316.048 541.35 315.63 543.568C314.939 547.312 305.948 543.02 300.637 545.368C291.059 549.607 319.519 548.512 319.832 548.199C320.106 547.925 320.015 544.651 319.623 540.92C318.932 534.202 318.945 534.137 320.798 533.432C322.925 532.624 324.386 533.211 323.838 534.646C322.925 537.02 328.366 543.842 325.874 545.668C324.752 546.49 325.104 546.881 328.653 548.681C333.834 551.303 330.702 550.912 343.072 549.92C350.041 549.373 353.681 548.76 354.216 548.042C354.999 546.999 354.647 538.533 353.394 528.736C352.689 523.206 351.724 524.875 357.1 522.332C365.725 518.249 362.307 518.953 361.263 505.87C356.187 442.279 365.099 424.395 364.721 411.651C363.886 383.893 373.085 305.823 372.785 294.331C372.655 289.413 374.847 293.118 374.99 286.491C375.121 280.334 375.108 286.687 378.579 284.469C381.932 282.343 385.286 264.785 388.196 255.015C403.346 204.129 398.922 243.862 397.213 190.433L397.265 190.446ZM365.36 189.598C364.956 188.528 366.195 183.898 366.287 188.033C366.339 190.668 365.986 191.268 365.36 189.598ZM240.442 120.268C241.394 120.268 240.389 123.398 240.037 123.398C239.685 123.398 239.476 120.268 240.442 120.268ZM186.21 63.2641C189.446 63.238 190.451 66.3425 190.307 66.3034C190.19 66.2643 188.702 65.5729 186.98 64.7642C184.901 63.7815 184.644 63.2815 186.21 63.2641ZM231.986 53.4156C232.077 51.3024 233.004 53.8331 232.39 54.4461C232.129 54.707 231.947 54.2505 231.986 53.4156ZM219.446 76.7649C219.407 75.3822 221.22 75.1865 220.555 74.1169C219.929 73.1125 221.051 74.5083 226.858 66.5643C235.718 54.4331 228.932 66.7991 224.078 72.1342C223.556 72.1342 219.485 78.3824 219.446 76.7519V76.7649ZM226.257 76.7388C212.699 85.2437 228.841 71.8472 229.781 71.1298C232.129 69.3297 231.882 73.2169 226.257 76.7388ZM231.921 114.737C229.663 114.815 226.818 111.998 231.529 114.019C232.56 114.463 232.691 114.698 231.921 114.737ZM214.67 183.832C218.102 179.476 216.719 189.95 217.462 189.207C218.102 194.868 218.284 194.568 215.322 190.994C212.778 187.928 212.647 186.415 214.67 183.832ZM98.6117 211.695C94.9841 213.078 97.8026 216.182 97.6591 216.182C98.7813 217.317 98.69 218.804 95.2972 215.582C90.6779 211.173 87.3504 214.878 87.3504 211.656C87.3504 210.156 87.4417 210.143 89.2947 211.343C91.1085 212.53 91.5783 212.504 96.3151 211.069C101.052 209.621 102.8 210.104 98.6117 211.695ZM108.803 206.986C106.063 209.947 106.885 212.791 103.701 214.434C103.844 214.526 99.8513 216.561 99.8513 214.8C99.8513 214.369 100.204 214.017 100.634 214.017C101.926 214.017 106.193 207.547 105.945 205.956C105.619 203.855 95.9497 199.825 96.4455 201.116C96.9806 202.499 95.2189 208.799 94.1098 209.517C92.8962 210.299 88.9163 210.273 88.9163 209.478C88.9163 208.069 93.6922 205.799 93.3921 202.081C92.7918 194.372 101.691 201.821 99.9035 198.481C98.4682 195.807 91.6044 194.437 97.894 193.263C107.211 191.516 99.3294 199.825 105.241 199.355C108.164 199.12 114.558 200.79 108.816 206.986H108.803ZM101.809 206.608C101.809 203.842 103.766 204.612 103.766 205.277C103.766 205.642 101.809 209.986 101.809 206.608ZM113.892 208.134C114.31 208.395 115.354 208.238 116.241 207.795C121.226 205.277 120.847 205.042 120.391 210.351C120.534 210.351 119.934 215.243 119.816 215.387C119.686 215.556 110.669 206.151 113.892 208.147V208.134ZM107.25 237.497C105.854 239.753 105.684 235.527 106.911 236.284C107.798 236.831 107.12 237.366 107.25 237.497ZM54.9235 268.203C53.2271 268.855 53.5273 268.294 54.9235 267.133C56.5285 265.803 56.4502 267.616 54.9235 268.203ZM71.5871 332.159C67.7377 337.559 68.6511 341.681 67.0069 335.877C64.0056 325.285 67.7899 316.467 71.3262 305.797C72.618 331.911 74.0273 328.715 71.5871 332.146V332.159ZM78.5423 278.064C66.6024 308.705 65.5063 312.814 64.9452 312.997C59.4776 314.706 63.7577 296.783 64.8799 295.426C66.0022 294.083 63.9143 291.787 63.9143 294.265C63.9143 295.074 60.0126 303.305 60.0126 310.01C60.0126 311.758 58.7469 311.614 51.7265 312.071C52.8226 309.997 62.8051 291.37 64.8016 292.609C65.7542 293.196 64.645 291.709 72.9312 283.178C76.2717 279.734 78.7902 277.451 78.5423 278.104V278.064ZM108.124 264.785C107.811 264.785 105.606 262.437 106.702 262.437C107.798 262.437 108.412 264.785 108.124 264.785ZM138.15 231.444C138.15 231.796 127.75 240.849 131.508 236.74C132.2 235.984 138.15 230.44 138.15 231.444ZM107.185 329.981C106.167 332.629 105.489 330.098 106.872 329.25C107.315 328.976 107.446 329.289 107.185 329.981ZM113.435 317.484C112.418 320.132 111.739 317.602 113.122 316.754C113.566 316.48 113.696 316.793 113.435 317.484ZM117.141 309.527C115.615 311.04 117.141 307.584 117.676 308.131C117.911 308.366 117.676 309.005 117.141 309.527ZM121.317 301.309C120.077 304.283 116.985 308.849 120.417 301.309C122.217 297.357 122.922 297.461 121.317 301.309ZM131.234 281.312C126.276 291.539 122.531 298.413 122.518 297.331C122.491 295.139 145.301 252.315 131.234 281.312ZM157.75 232.305C152.935 232.305 152.139 235.566 147.154 229.892C141.817 223.826 145.823 229.148 156.119 213.795C156.171 226.8 158.572 231.848 157.75 232.305ZM159.342 198.82C161.378 185.137 161.508 201.729 162.369 203.073C166.127 208.877 167.145 174.806 155.023 155.526C150.743 148.717 146.215 127.364 146.658 126.777C147.245 125.981 155.91 119.485 156.406 119.485C156.784 119.485 158.089 125.055 158.872 130.025C162.382 152.291 177.089 191.346 181.995 191.346C182.439 191.346 182.543 190.942 182.23 190.446C181.46 189.194 183.652 190.433 183.065 191.372C182.4 192.442 188.076 194.516 190.203 193.981C193.191 193.237 190.764 192.52 194.809 192.259C205.105 191.568 184.2 197.751 165.397 207.795C161.573 209.843 159.825 209.412 162.604 208.395C165.592 207.312 164.053 205.264 160.751 205.929C158.128 206.451 158.181 206.699 159.355 198.807L159.342 198.82ZM179.072 537.815C173.004 540.346 167.08 539.146 170.969 543.281C173.304 545.772 172.221 545.329 167.954 545.681C165.984 545.838 164.47 546.581 164.47 546.738C163.648 547.559 156.902 547.977 156.902 547.207C156.902 546.946 177.441 531.045 181.121 535.48C181.865 536.38 181.486 536.811 179.059 537.828L179.072 537.815ZM258.906 165.962C261.281 162.022 260.785 161.996 260.811 165.427C260.824 167.188 260.55 167.84 259.937 167.462C258.815 166.771 259.245 171.297 261.907 188.633C265.248 210.365 265.248 209.06 261.894 220.852C261.164 223.396 260.289 224.948 259.585 224.948C257.953 224.948 255.37 227.257 253.987 226.735C248.31 224.622 246.366 198.39 245.178 194.777C242.804 187.524 257.771 167.866 258.919 165.962H258.906ZM255.983 292.283C255.618 295.766 256.035 295.961 254.704 291.474C252.747 284.847 256.427 288.135 255.983 292.283ZM259.702 230.218C249.967 255.511 258.997 285.878 254.796 285.878C253.034 285.878 252.108 283.96 250.646 277.282C245.322 253.072 232.599 220.983 235.848 222.991C238.589 224.687 231.947 214.043 231.947 212.843C231.947 211.382 238.223 213.886 240.168 203.777C241.968 194.464 244.448 216.274 248.258 222.6C250.085 225.639 252.434 228.066 253.138 227.622C254.469 226.8 256.427 231.261 257.98 229.709C259.298 228.392 260.315 228.692 259.728 230.218H259.702ZM325.978 455.78C325.495 483.421 325.743 479.142 324.021 474.277C321.267 466.502 319.362 462.824 318.958 455.01C316.883 414.834 313.738 441.066 314.404 396.415C314.821 369.009 316.844 325.05 317.757 346.612C318.018 352.782 320.302 389.893 323.642 381.727C323.916 381.062 324.256 381.114 324.83 381.949C326.161 383.867 323.564 383.514 324.491 385.001C324.791 385.484 324.634 385.875 324.151 385.875C323.16 385.875 323.303 390.297 325.195 417.13C326.813 440.087 325.756 455.78 325.991 455.78H325.978ZM338.792 544.664C322.912 544.259 330.845 543.49 330.467 535.076C330.271 530.524 335.073 531.28 335.073 529.297C335.073 528.58 336.835 528.41 341.911 528.632C350.367 529.01 350.706 529.115 350.706 531.463C350.706 544.155 362.072 545.251 338.792 544.651V544.664ZM342.511 526.193C346.269 525.645 349.936 524.184 349.936 527.732C349.936 528.397 333.677 527.471 342.511 526.193ZM355.117 516.879C353.903 518.105 354.047 498.33 354.177 498.474C355.064 499.426 356.043 515.966 355.117 516.879ZM365.282 346.873C340.971 514.153 356.591 513.657 349.936 518.666C348.944 519.41 348.344 520.388 348.618 520.819C349.153 521.68 346.048 521.953 346.191 522.084C340.019 523.101 342.12 522.645 337.761 514.649C316.792 476.168 337.774 383.567 324.099 379.223C317.026 376.979 331.341 308.692 315.526 303.175C305.452 299.666 315.16 446.688 313.321 444.849C313.177 444.705 304.434 428.83 297.897 396.807C293.577 375.623 277.736 343.221 268.51 324.333C259.376 305.627 262.116 309.84 260.381 296.496C259.389 288.917 259.637 295.935 283.151 296.013C283.543 296.013 312.746 300.553 329.345 295.557C336.169 293.509 334.708 295.844 332.542 296.261C325.913 297.54 365.073 292.152 365.217 292.296C365.425 292.504 367.265 333.294 365.295 346.873H365.282ZM395.373 226.083C392.515 226.996 375.695 278.064 374.025 278.064C373.163 278.064 368.753 235.397 373.711 220.93C375.147 216.73 373.424 212.086 371.454 197.229C370.267 188.294 369.079 197.412 369.079 180.871C369.079 164.331 382.18 123.333 383.002 125.72C385.495 132.868 383.733 142.208 388.157 151.496C395.282 166.484 384.229 167.344 389.37 179.554C391.641 184.941 400.971 224.296 395.373 226.07V226.083ZM103.322 183.976C100.543 179.737 105.71 179.88 107.929 181.563C110.865 183.793 104.823 181.811 105.032 184.524C105.267 187.446 103.309 184.106 103.309 183.976H103.322ZM68.9251 197.685C68.2857 195.377 68.9251 196.016 72.1091 197.307C73.8446 198.012 73.3879 191.294 73.3618 191.15C73.1269 189.741 76.1282 192.833 77.942 189.455C79.1034 187.289 80.7737 186.663 80.0038 188.698C79.7428 189.376 79.534 190.394 79.534 190.942C79.534 193.303 74.471 192.181 75.3322 195.951C76.063 199.094 78.464 204.377 79.4427 204.977C80.7345 205.773 80.4996 208.551 79.1425 208.551C76.8068 208.551 78.4509 203.816 76.8068 204.651C75.9455 205.082 76.1804 206.999 77.2113 208.082C77.5897 208.473 77.0025 209.934 75.8542 211.434C71.7959 216.756 75.6454 219.065 71.3262 217.826C63.8099 215.674 61.7351 219.313 64.9321 225.705C66.2109 228.261 65.8586 228.614 63.6403 235.37C73.4401 243.797 73.3618 234.457 76.885 238.345C76.4283 238.279 80.865 242.375 86.1238 236.544C90.7823 231.366 95.9888 237.797 94.7361 228.535C93.4051 218.674 85.5105 215.674 84.9102 216.039C84.5318 216.274 84.2317 215.413 84.2317 214.121C84.2317 210.391 82.0655 211.408 83.4096 209.778C84.6623 208.264 82.0786 206.686 78.5553 198.977C76.0108 193.407 75.2148 195.494 81.6088 190.942C86.6196 187.367 86.711 187.341 88.3943 188.763C89.7383 189.885 89.6862 189.728 88.1464 187.994C84.4926 183.872 80.7737 188.346 83.2791 184.524C84.6492 182.424 84.1664 179.737 79.3383 184.55C78.477 182.502 77.7332 180.193 75.1495 178.145C72.2396 175.849 73.2574 175.601 71.561 179.384C70.8172 181.028 70.2039 182.998 70.1909 183.754C70.0865 190.968 62.3876 168.766 62.3484 175.875C62.3484 176.449 61.2914 177.519 59.9996 178.249C52.9531 182.254 70.0604 201.781 68.9382 197.699L68.9251 197.685ZM71.7568 232.201C70.2822 238.749 66.5111 237.718 65.8717 236.688C65.3627 235.866 67.3201 231.588 68.5337 230.844C69.8516 230.022 65.0887 222.678 67.9987 220.5C68.8468 219.861 76.9503 218.504 73.2966 220.435C72.2396 220.996 70.8433 222.391 70.1909 223.552C67.6724 228.04 73.1269 226.083 71.7437 232.201H71.7568ZM74.6928 228.861C69.3166 228.809 77.1852 221.648 77.1852 225.313C77.1852 225.939 77.9029 226.839 78.7772 227.309C80.4344 228.196 80.4605 227.726 79.012 222.417C78.7119 221.322 79.1425 221.048 81.139 221.048C83.6053 221.048 83.6314 221.074 83.1355 224.152C81.2956 235.67 78.7511 228.914 74.6798 228.874L74.6928 228.861ZM76.8198 231.992C75.4236 230.453 75.4366 230.414 77.0286 230.414C80.9694 230.414 79.5079 234.966 76.8198 231.992ZM79.534 236.557C79.534 233.936 81.0085 236.44 82.5614 234.888C83.527 233.922 83.7488 235.018 82.8354 236.336C83.1094 236.336 79.521 239.44 79.521 236.557H79.534ZM81.5566 214.63C83.2399 222.77 90.5865 214.095 90.443 224.805C90.5865 224.805 90.169 227.335 89.3991 228.731C86.711 233.583 87.8462 219.482 80.7215 219.482C76.9242 219.482 77.4331 221.296 76.35 220.63C75.4236 220.056 76.5588 219.509 79.1425 215.191C81.4914 211.252 80.8389 211.238 81.5436 214.63H81.5566ZM64.1622 189.011C64.5798 189.011 65.6498 190.968 65.7934 190.968C69.3427 196.368 62.8704 189.011 64.1622 189.011ZM63.2227 186.467C64.5146 187.759 63.4967 188.776 62.779 186.911C62.3484 185.802 62.4398 185.711 63.2227 186.467ZM225.135 533.224C225.579 532.076 220.137 528.763 215.896 527.615C214.605 527.262 206.867 526.923 198.698 526.858C180.886 526.715 185.975 527.497 175.64 523.806C155.675 516.657 146.319 522.58 129.825 522.58C118.577 522.58 115.158 519.058 97.633 513.944C91.6174 512.183 92.9615 511.74 91.8914 514.805C88.6292 524.171 65.8456 503.17 64.8799 488.26C63.7708 471.016 67.7768 507.722 84.7406 512.47C92.2177 514.557 85.3147 507.879 103.74 514.818C114.61 518.914 123.548 522.958 142.626 519.932C172.469 515.21 172.861 525.306 190.868 520.506C192.63 520.036 209.137 518.758 215.14 521.927C224.274 526.741 231.112 534.293 226.336 534.293C224.496 534.293 225.083 533.08 225.109 533.211L225.135 533.224ZM55.5107 194.49C61.0305 194.529 57.6508 197.516 60.0779 199.029C63.0009 200.855 61.5524 203.608 56.5416 198.873C56.6851 198.729 51.1915 194.45 55.5107 194.49ZM35.1803 221.452C37.9989 223.031 38.0381 223.109 36.9158 225.274C35.2456 228.483 34.6975 233.049 35.7284 234.992C37.6335 238.553 36.9158 235.54 44.7714 231.914C50.1867 229.409 51.6221 227.453 53.2402 225.731C61.9439 234.353 61.5394 232.422 58.4207 229.2C55.85 226.539 55.7848 226.357 56.92 224.322C57.5725 223.161 59.2167 221.635 60.5868 220.956C63.7316 219.378 63.5489 220.2 61.5263 218.035C58.8643 215.178 53.3576 215.843 57.8204 211.695C60.3128 209.373 65.5454 209.882 69.0034 210.104C64.371 207.521 64.2014 207.808 65.5193 205.356C66.5502 203.438 67.9334 203.451 71.1435 205.408C75.6454 208.147 75.1887 207.09 70.2822 203.399C61.2784 196.629 60.4302 203.451 63.1836 207.169C64.7886 209.334 64.8147 209.517 63.4837 208.982C58.6555 207.038 52.9531 207.86 51.8831 210.651C51.3611 212.021 53.3446 216.026 55.0149 216.952C56.124 217.565 56.111 217.735 54.9888 218.674C52.4964 220.735 47.9292 213.104 51.8309 216.352C55.8891 219.717 51.8831 209.804 37.0855 210.469C33.7058 210.625 30.561 211.121 30.1042 211.591C28.5645 213.13 31.9311 219.613 35.2195 221.452H35.1803ZM33.5361 215.491C35.5848 214.186 40.0215 214.708 41.0524 216.352C41.7309 217.435 42.9314 217.943 44.954 217.995C52.4833 218.204 42.018 218.53 42.018 220.33C42.018 222.652 28.7602 218.504 33.5361 215.478V215.491ZM319.845 22.0963V49.972C316.713 52.6721 311.233 57.342 306.065 58.9725C301.133 60.5378 304.839 49.9589 299.41 49.9589C298.836 49.9589 298.353 50.4937 298.353 51.1459C298.353 52.1764 298.066 52.1503 296.305 50.9894C293.643 49.2415 294.112 48.9545 294.83 52.333C295.626 56.0767 297.596 61.1118 297.244 61.464C296.566 62.1423 291.985 49.1632 290.563 49.1632C287.888 49.1632 296.409 66.1729 292.781 61.6596C292.429 61.2292 281.885 42.0671 281.951 46.8674C282.003 50.0111 285.474 52.5417 284.613 58.2681C283.921 62.8597 284.404 61.2031 290.733 64.5294C292.103 65.2468 292.886 65.3512 292.886 64.8164C292.886 63.1467 299.632 68.3122 297.857 65.3773C297.466 64.725 297.727 64.7642 298.614 65.4816C300.324 66.8773 314.769 67.2556 314.769 64.112C314.769 63.3945 315.565 62.4684 316.531 62.0509C320.511 60.303 322.833 49.0849 321.437 57.2768C319.728 67.2296 316.413 59.429 317.457 67.3208C318.057 71.8081 318.997 72.3951 318.932 72.5255C320.876 74.8865 319.245 65.9642 322.207 65.9642C324.96 65.9642 325.012 25.0313 322.52 21.1049C321.92 20.1527 321.842 20.3223 322.155 21.8354C322.546 23.6747 322.52 23.6616 321.554 21.6267C320.015 18.3526 320.772 21.9659 316.661 17.4786C312.759 13.2131 312.211 12.3131 319.858 22.0963H319.845ZM287.797 62.4553C285.174 62.4553 285.239 55.3592 287.666 59.9117C287.81 59.9117 289.402 62.4553 287.797 62.4553ZM322.337 26.7401C322.481 26.6879 322.572 28.4228 322.311 29.088C321.789 30.3664 321.855 24.9008 322.337 26.7401ZM271.003 28.8924C272.281 26.4661 272.673 26.5313 270.037 28.2662C268.171 29.4924 267.975 29.4794 266.709 28.0836C263.369 24.3921 291.085 1.87763 304.604 9.2607C306.104 10.0825 308.44 11.2826 309.784 11.9087C312.942 13.4088 314.025 15.7307 312.381 14.2045C310.789 12.7174 309.667 13.0436 311.011 14.5958C313.412 17.3873 313.464 18.2482 311.128 16.3568C308.192 13.9697 309.641 12.9262 308.675 13.5262C306.104 15.1176 303.442 9.2216 294.543 13.2523C288.593 15.9525 289.728 10.8521 282.538 17.7134C279.719 20.4005 280.881 17.9482 278.819 20.3614C277.605 21.7963 277.37 21.8876 277.762 20.7397C278.258 19.3309 278.206 19.3179 276.183 20.6484C272.307 23.192 277.253 22.7094 277.253 25.0313C277.253 26.2444 268.171 35.0102 270.872 33.5883C275.217 31.3056 275.622 35.8711 274.082 35.8711C273.625 35.8711 273.482 35.4928 273.769 35.0362C275.048 32.9622 271.198 34.958 269.515 37.2407C266.631 41.1279 265.887 39.3017 266.031 39.1582C265.013 37.5146 270.937 29.0228 271.016 28.8663L271.003 28.8924ZM276.196 34.5797C274.487 32.8709 290.537 16.3959 290.537 19.5396C290.537 20.2701 276.718 35.1014 276.196 34.5797Z" fill="#EA3826"/>
</svg>
