<svg width="92" height="105" viewBox="0 0 92 105" fill="none" xmlns="http://www.w3.org/2000/svg">
<path d="M27.6427 13.0411C27.6272 14.254 29.0924 16.8791 31.1071 19.1614C32.1705 20.4064 32.0141 19.7889 30.6675 17.5821C29.9983 16.4417 29.2106 14.883 28.8794 14.0807C28.3259 12.5785 27.6646 12.0388 27.6427 13.0411Z" fill="#85000B"/>
<path d="M46.4884 7.61333C46.394 8.32247 46.7111 10.7277 47.1504 12.9818C47.2787 13.7161 47.4564 14.6809 47.5552 15.1419C47.6604 15.8137 47.7148 15.8648 47.8157 15.3664C47.9166 14.8679 47.4123 7.4179 47.2278 6.91714C47.0894 6.5416 46.5662 7.05225 46.4884 7.61333Z" fill="#85000B"/>
<path d="M10.4701 30.1428C11.674 30.8038 13.7358 31.187 17.4013 31.4817C21.512 31.8267 20.5801 31.4213 14.8085 30.3336C10.0365 29.449 9.06325 29.4138 10.4701 30.1428Z" fill="#85000B"/>
<path d="M40.5308 25.9106C39.5539 26.4449 36.5721 28.1021 33.8808 29.5822C31.2009 31.0935 28.6945 32.3996 28.3183 32.537C27.6087 32.8316 27.3555 34.5575 27.5898 37.7031C27.6586 38.5657 27.6532 39.4198 27.5657 39.6649C27.3707 40.1977 27.7711 41.1877 28.1473 41.0503C28.3354 40.9816 28.4856 40.7137 28.4874 40.429C28.5058 39.9962 28.6312 39.9504 29.4477 40.0427C29.9674 40.1015 31.6418 39.916 33.196 39.5969L36.0106 39.0306L40.0288 42.8891C42.2399 45.0287 44.019 46.8645 43.9595 46.9928C43.9 47.121 42.6378 47.6531 41.1528 48.1599C39.4798 48.7355 38.762 49.1041 39.2899 49.0888C42.0317 48.9041 47.1272 46.2264 50.6657 43.0876C51.4167 42.4227 52.2764 41.8602 52.5701 41.7884C52.8753 41.748 51.6952 42.8891 49.9624 44.2677C46.9521 46.7164 46.6617 46.8935 42.8371 48.2904C40.6113 49.1033 38.8589 49.8499 38.8935 49.9438C38.9281 50.0377 39.385 50.1193 39.9558 50.1239L40.9291 50.159L39.9375 50.5567C39.2907 50.8285 38.7512 50.8124 38.4247 50.5056C38.0356 50.2216 37.8557 50.2163 37.7913 50.5239C37.7152 50.8002 37.1985 51.5216 36.6159 52.1605C33.9271 55.0954 32.2524 62.1338 32.5159 69.3168C32.773 76.2892 34.3853 81.6303 37.3297 85.2774C42.0776 91.2126 51.5352 94.2923 60.9851 93.0066C62.1003 92.848 64.8654 92.051 67.0913 91.2378C70.3831 90.0359 71.5909 89.4528 73.3271 88.1794C76.6655 85.7526 78.8426 83.36 80.7797 80.0246C82.7358 76.6472 83.8449 73.1884 84.2942 68.9052C84.7682 64.4002 84.4771 62.1628 82.7538 57.6791C81.4394 54.1115 81.1264 53.5512 79.3834 51.5246C74.7144 46.0928 68.7872 43.038 61.8389 42.522C60.5576 42.422 59.3846 42.4243 59.2197 42.5555C59.0856 42.6754 60.0623 42.8159 61.4378 42.8815C68.6536 43.1578 76.3783 47.6156 80.3079 53.7436C83.6609 58.9816 84.688 66.5957 82.9389 72.951C80.5873 81.3376 74.8087 87.5673 66.4698 90.6128C59.3846 93.2004 51.8757 92.996 45.2638 90.0135C41.5991 88.3693 40.1166 87.2422 37.952 84.553C34.9301 80.792 33.4021 75.1007 33.3796 67.51C33.3554 63.2933 33.6685 60.7649 34.4734 57.7366C35.0535 55.6427 36.4227 52.4086 36.1961 53.6276C36.0621 54.4222 36.9647 53.8795 37.6598 52.7734C38.1931 51.904 38.2756 51.8383 38.2605 52.3765C38.2453 52.9146 38.3625 52.9429 38.8889 52.5375C39.219 52.275 39.7058 51.9551 39.945 51.8322C40.2272 51.7292 40.5572 51.4666 40.6992 51.2727C40.8412 51.0789 41.0837 51.0613 41.2272 51.2575C41.359 51.4223 41.6328 51.3933 41.7748 51.1994C41.9482 50.9941 44.108 50.0987 46.5846 49.1942C50.5033 47.763 51.2211 47.3943 52.185 46.4386C52.799 45.7883 53.6753 45.0776 54.1852 44.8204C55.3815 44.2059 56.0077 42.2372 54.8792 42.6495C54.597 42.7525 54.3051 42.5396 54.1322 42.0701C53.8554 41.319 52.7654 40.5809 52.2638 40.7641C52.107 40.8213 51.992 39.8336 51.9762 38.6321C51.9678 35.617 51.0258 29.3921 50.4719 28.5646C49.9642 27.8624 43.0257 24.5732 42.5786 24.8076C42.4334 24.8961 41.5076 25.3763 40.5308 25.9106ZM44.4452 26.3983C45.5172 26.8945 47.0461 27.4723 47.8461 27.7128C49.4543 28.1196 49.8467 28.5089 48.9689 28.8295C48.2792 29.0814 44.9051 33.4385 45.055 33.8453C45.2626 34.4087 45.9623 33.798 47.2055 31.9591C49.4903 28.6036 50.4261 27.7647 50.1894 29.3425C50.1166 29.7241 50.3761 31.9729 50.7675 34.3865C51.8742 41.1548 51.8793 40.9755 50.2866 42.4449C47.7185 44.8387 48.0929 44.986 46.7174 41.1564C46.0255 39.2786 45.3091 36.9482 45.1001 35.9948C44.6558 33.9201 44.7927 33.9056 40.197 36.6849C38.5056 37.6932 37.0188 38.4848 36.9331 38.4451C36.8473 38.4054 36.2725 36.5558 35.6847 34.285C34.5997 30.2783 34.6195 30.2356 35.3967 29.7386C35.801 29.4844 36.4958 29.0532 36.9199 28.7562C37.438 28.4249 37.7119 28.396 37.8157 28.6776C38.127 29.5226 44.2799 33.3827 44.4979 32.9125C44.5689 32.8156 43.2035 31.7164 41.4753 30.5012C39.7784 29.2745 38.3389 28.167 38.3043 28.0731C38.2351 27.8853 40.7236 26.3373 42.0568 25.7083C42.3389 25.6052 43.4045 25.8907 44.4452 26.3983ZM34.03 31.3386C34.1204 31.8736 34.5864 33.6209 35.092 35.2827C35.5976 36.9444 36.0109 38.3558 35.9598 38.41C35.9202 38.4954 28.94 39.3405 28.6744 39.2955C28.6629 39.2641 28.5068 37.9718 28.3526 36.3948L28.0934 33.4713L29.5949 32.8163C30.7945 32.3072 33.2466 30.95 33.7929 30.5019C33.844 30.4478 33.9511 30.8347 34.03 31.3386ZM44.733 37.7978C45.1495 39.3145 45.9452 41.4739 46.5088 42.6174C47.6047 44.9157 47.5682 45.1066 45.7284 46.0982C44.6377 46.7096 44.5404 46.6386 41.3995 43.1342C40.3279 41.9632 39.0188 40.6305 38.4663 40.1931C37.9453 39.7443 37.4671 39.3153 37.4555 39.284C37.4325 39.2214 38.1388 38.8214 39.0018 38.3642C39.845 37.9497 41.3169 37.0215 42.2246 36.2994C43.1438 35.6086 43.898 35.049 43.9409 35.0689C43.9524 35.1002 44.3279 36.3123 44.733 37.7978ZM53.3135 42.9372C52.7878 45.0822 51.1407 46.5004 47.6807 47.7286L45.643 48.4728L47.6811 47.0538C48.8197 46.2829 49.9436 45.3753 50.2193 45.0616C50.5263 44.7364 51.1731 44.4646 51.6466 44.3982C52.3312 44.3257 52.4649 44.2059 52.2555 43.9272C51.9258 43.5151 52.413 42.5205 53.0912 42.2372C53.436 42.1113 53.4821 42.2365 53.3135 42.9372Z" fill="#85000B"/>
<path d="M61.0929 18.9685C59.3617 20.0623 57.6305 21.1562 57.2575 21.3989C56.096 22.1073 57.1615 22.3928 58.5028 21.6897C59.5737 21.121 64.2326 17.6441 64.5053 17.225C64.8486 16.709 63.8602 17.2121 61.0929 18.9685Z" fill="#85000B"/>
<path d="M9.73323 48.4147C9.70838 48.6368 9.94584 48.7986 10.3054 48.8093C11.381 48.736 19.471 45.4972 19.0422 45.2988C18.4419 45.0209 9.83409 47.9162 9.73323 48.4147Z" fill="#85000B"/>
<path d="M29.3769 42.1624C29.809 42.4662 31.7646 44.202 33.7317 45.9691C37.7121 49.6284 38.4789 50.165 37.5229 48.6323C36.4004 46.8408 29.699 41.2991 28.8922 41.5227C28.7553 41.5372 28.9762 41.8471 29.3769 42.1624Z" fill="#85000B"/>
<path d="M55.9441 42.9345C56.0875 43.1307 56.3022 43.2299 56.4273 43.1841C56.7919 43.0154 56.5367 42.6116 56.1025 42.5925C55.8601 42.6101 55.7809 42.7811 55.9441 42.9345Z" fill="#85000B"/>
<path d="M52.9501 46.5847C53.0078 46.7412 53.1876 46.7465 53.3098 46.5954C53.4633 46.4328 53.531 46.2305 53.4964 46.1366C53.4734 46.0741 53.3249 46.0573 53.1368 46.126C52.98 46.1832 52.881 46.3969 52.9501 46.5847Z" fill="#85000B"/>
<path d="M54.1457 50.1241C54.936 50.0485 55.9323 50.1462 56.3495 50.3134C56.7669 50.4805 58.8173 50.8324 60.853 51.0477C62.9314 51.2828 65.0592 51.7484 65.5652 52.0606C66.0718 52.3728 66.6058 52.5682 66.7315 52.5224C67.1702 52.3621 68.9905 53.8277 70.7071 55.6864C71.5609 56.6525 72.5011 57.659 72.7844 57.946C75.2628 60.5208 76.3713 63.9148 76.1166 68.3399C75.9186 71.8569 76.2658 72.5109 76.5216 69.1509C76.8453 65.5881 76.4296 62.7219 75.3565 60.4861C73.4615 56.5978 68.7325 51.969 64.9078 50.2767C61.8864 48.9302 57.936 48.6333 54.9824 49.4989C52.7534 50.2065 52.722 50.218 54.1457 50.1241Z" fill="#85000B"/>
<path d="M46.8173 53.298C47.0714 53.3117 47.342 53.1773 47.4015 53.0491C47.4922 52.9094 47.2696 52.8842 46.9362 53.0415C46.5914 53.1674 46.5319 53.2957 46.8173 53.298Z" fill="#85000B"/>
<path d="M49.8711 52.3252C55.6884 51.1237 60.1473 51.4482 64.3927 53.4129C70.0844 56.0215 73.6118 60.7688 74.216 66.6561C74.5806 70.2512 74.0157 74.2211 72.8831 75.8776C70.9023 78.8025 66.2467 81.7102 60.959 83.2863C54.9699 85.083 50.1402 84.0419 46.2358 80.1061C40.9794 74.8181 40.0352 66.4634 43.6658 57.3965C44.4884 55.2853 44.5529 54.9778 43.9371 55.9126C43.1793 57.0419 41.8364 60.4437 41.0332 63.1872C40.7259 64.1874 40.6747 64.2416 40.6008 63.558C40.5565 63.1486 40.6293 62.7666 40.7547 62.7208C41.0682 62.6063 41.5496 60.0517 41.3651 59.5507C41.2843 59.3318 41.458 58.4515 41.7174 57.611C42.6676 54.4945 41.3455 55.8296 39.7896 59.5228C38.6978 62.1584 38.415 63.6111 38.3441 66.7968C38.2901 69.1604 38.5492 68.9945 38.8392 66.4031C39.0745 64.4354 39.1141 64.35 39.8315 64.656C40.2719 64.8856 40.5472 65.2469 40.5371 65.6055C40.3268 70.4405 41.2238 74.516 43.1671 77.5699C46.0863 82.114 49.7738 84.4954 54.6384 84.9557L57.4046 85.2238L63.3493 83.0171C69.8701 80.635 70.5337 80.2156 73.016 77.1075C74.5335 75.2393 74.9615 73.6983 75.0905 69.9937C75.1679 66.3439 74.2861 62.4047 72.8186 60.0645C69.4168 54.5961 63.6859 51.3985 56.736 51.1672C54.3869 51.0665 50.4851 51.6749 48.784 52.3672C48.3253 52.5703 48.8103 52.5351 49.8711 52.3252Z" fill="#85000B"/>
<path d="M39.236 73.0756C39.2208 73.614 39.481 74.5132 39.8057 75.1047C40.4089 76.1625 43.3058 79.2946 43.4445 78.9953C43.4841 78.9098 42.8182 77.8749 41.9462 76.6663C40.9076 75.1991 40.3012 74.0357 40.1268 73.1762C39.8388 71.719 39.245 71.652 39.236 73.0756Z" fill="#85000B"/>
</svg>
