<svg width="504" height="588" viewBox="0 0 504 588" fill="none" xmlns="http://www.w3.org/2000/svg">
<path d="M470.597 429.314C469.228 428.987 469.575 363.382 469.575 363.177C469.738 351.596 468.043 350.371 462.342 344.856C458.603 341.241 456.478 318.487 430.242 318.487C428.874 318.487 427.566 318.712 426.319 319.141C427.607 276.677 427.341 281.784 428.751 282.968C438.947 291.526 448.06 298.042 456.519 291.2C460.789 287.727 462.199 282.029 460.217 276.861C458.337 261.869 462.73 245.999 450.266 229.741C457.315 226.432 463.588 222.47 463.588 214.626C463.588 198.695 440.581 194.957 432.756 192.547C460.871 158.376 440.949 129.127 421.314 145.038C412.507 152.187 401.576 150.859 388.846 156.252C388.152 145.917 386.354 138.686 383.248 133.621C419.945 132.395 457.99 96.3248 406.745 86.48C399.349 85.0706 392.259 79.9847 379.999 80.5158C374.564 80.7609 379.897 81.6596 381.368 65.8303C392.116 52.3089 379.836 31.9451 363.04 31.7817C360.69 31.3528 353.866 27.5538 345.591 29.004C345.427 28.7997 338.48 20.5889 335.211 18.0153C332.739 11.0708 326.017 4.71864 321.052 2.30849C311.142 -2.49138 287.481 4.12629 282.598 7.57811C278.777 4.98414 271.36 -4.00282 259.632 2.0634C253.482 5.22928 249.375 11.8469 249.17 11.8469C247.74 12.1329 245.574 12.5618 243.265 13.5014C236.175 11.0095 226.94 11.3159 221.403 16.3609C197.292 11.7448 190.897 19.6901 188.874 34.1919C182.724 40.6666 180.865 46.5899 180.885 51.5531C175.164 49.6945 170.444 50.5523 166.991 52.0434C162.149 54.188 147.764 48.4894 142.983 63.706C142.35 65.7281 138.876 71.9577 138.876 79.2903C135.546 81.3124 133.073 84.5395 131.112 87.828C124.43 87.2152 115.338 88.8696 111.905 95.6303C101.28 93.1997 87.4884 95.9979 78.7842 100.41C69.5692 99.511 53.2436 113.339 80.2962 131.864C106.041 149.471 110.005 145.202 110.945 146.672C124.083 170.733 128.026 147.203 113.805 176.166C105.53 193.017 107.43 187.379 103.181 191.485C97.0099 197.469 97.9294 208.315 108.595 213.626C99.135 221.653 100.647 229.496 101.73 254.373C104.243 312.013 101.873 313.565 102.241 325.779C93.8839 325.943 80.378 333.091 75.1473 343.038C61.4576 348.124 64.1546 367.262 69.8348 422.737C55.8794 424.983 42.5984 442.998 36.7751 456.458C23.2284 454.069 0.711905 455.519 0.0172023 470.572C-0.289284 477.394 3.53155 479.334 8.92571 487.218C10.9894 490.241 13.4414 493.816 16.5675 497.329C-5.80597 504.498 1.48831 531.255 41.495 533.91C41.0659 535.054 40.8617 535.38 40.31 536.279C31.8919 549.658 48.2581 562.934 59.2303 556.704C76.0871 552.721 84.4235 557.337 97.4186 555.029C97.7455 569.735 111.088 587.566 121.059 587.566C127.168 587.566 132.358 583.052 133.196 576.986C134.422 568.142 135.484 568.857 143.596 564.445C201.931 592.918 484.695 576.864 502.941 488.812C507.232 468.141 496.975 435.523 470.576 429.334L470.597 429.314Z" fill="white"/>
<path d="M194.412 377.679C194.208 377.679 166.052 372.246 164.642 368.018C164.458 367.487 162.109 367.446 182.153 370.204C194.045 371.858 200.011 377.883 194.412 377.679ZM308.262 525.699C368.844 517.754 406.235 499.453 406.256 498.411C406.276 495.572 372.706 518.019 306.954 517.774C231.129 517.488 234.276 512.198 236.83 521.594C239.711 532.215 297.31 527.129 308.262 525.699ZM72.4102 542.754C65.7697 542.856 54.1028 544.776 53.3264 545.9C53.0403 546.329 52.3456 546.083 51.4874 545.205C49.7711 543.489 49.7916 544.409 51.4262 541.61C54.961 535.524 55.1858 525.781 62.0306 518.755C67.7108 512.934 78.8464 508.318 89.9208 511.504C89.0831 501.904 89.6552 502.027 86.7743 505.131C84.8128 507.215 84.6901 507.255 82.9942 506.275C80.0111 504.539 76.7624 506.5 70.0401 504.927C64.9933 503.742 66.1171 503.15 65.7084 506.827C62.9705 531.132 23.9241 520.348 17.1814 512.893C13.4218 508.746 23.7197 509.4 39.5957 502.639C47.3396 499.351 46.6654 500.291 42.2111 499.29C26.1308 495.675 20.4914 480.56 14.0756 473.575C11.9507 471.267 11.8893 471.083 13.0131 470.082C14.6069 468.652 22.9842 467.651 30.6055 467.999C40.1475 468.428 50.4862 474.147 46.8697 471.818C41.4346 468.305 59.1497 436.769 71.8586 434.767C75.6386 434.175 75.7611 433.276 70.6326 438.403C63.563 445.47 45.3985 469.326 52.4886 476.128C58.0053 481.418 56.6569 485.789 56.9225 470.531C57.1268 459.604 58.414 460.503 64.033 466.548C78.0905 481.622 79.4798 490.732 79.5616 486.912C79.6024 484.584 82.5448 478.885 85.1192 476.169C87.7346 473.411 87.8572 472.941 86.4065 471.716C81.9931 468.06 81.2779 456.479 83.2598 451.516C86.7538 442.794 73.7383 370.919 78.683 355.293C79.0712 354.088 80.665 354.068 83.5664 355.191C86.5699 356.356 80.5832 348.104 95.6828 340.24C102.466 336.707 107.023 337.544 102.078 341.405C73.3501 363.811 97.6238 374.473 133.176 382.5C177.494 392.508 256.445 420.694 366.086 391.854C385.088 386.85 443.586 371.981 444.996 352.883C445.241 349.513 445.343 349.35 446.998 349.452C452.842 349.86 442.482 337.728 435.678 334.297C433.043 332.969 431.49 331.662 430.284 330.722C448.592 330.722 446.038 346.061 453.863 353.639C458.379 358.01 457.235 354.129 457.316 371.082C457.848 486.483 460.136 488.444 414.429 517.325C345.714 560.728 164.56 532.685 216.336 535.36C298.536 539.609 370.315 537.198 429.855 494.776C443.136 485.319 451.187 481.99 450.267 479.396C450.185 479.192 447.713 387.238 445.792 370.224C445.22 365.118 446.324 364.24 442.707 367.712C416.554 392.671 343.365 409.42 309.263 412.626C295.982 413.872 220.218 413.586 183.174 402.169C164.05 396.266 138.244 392.018 122.408 387.116C96.6636 379.129 91.1876 367.303 89.7982 367.303C89.0831 367.303 90.7586 423.676 87.8163 443.182C86.4882 451.985 86.2429 474.249 92.9448 467.549C96.2753 464.22 97.0926 465.303 101.813 469.285C101.813 461.299 104.98 449.759 112.683 445.245C120.876 440.445 144.762 449.391 146.56 450.617C149.543 452.639 148.46 452.741 150.789 450.249C155.999 444.673 163.988 454.661 171.017 450.903C172.836 449.922 179.17 449.555 181.683 450.27C184.4 451.046 186.546 453.19 188.507 457.071C196.987 473.84 225.265 484.441 225.265 496.124C225.265 504.682 233.418 497.37 222.813 517.162C219.708 522.942 217.297 526.659 215.723 528.028C214.375 529.212 206.365 531.847 204.118 531.847C201.87 531.847 193.983 541.447 191.266 542.713C178.863 548.534 166.706 549.025 172.877 549.882C408.054 582.91 526.153 498.248 479.731 451.842C472.477 444.592 462.976 444.183 462.568 441.262C462.302 439.444 461.301 439.649 467.798 441.181C486.31 445.511 494.238 470.409 490.969 486.238C476.87 554.233 257.324 574.597 187.404 560.851C180.641 559.523 144.291 556.092 146.58 550.27C147.949 546.757 149.011 546.451 141.349 551.476C131.807 557.746 123.553 557.338 121.08 575.23C97.2356 553.253 118.158 537.403 118.158 535.993C118.158 535.687 113.888 533.583 112.907 533.073C97.5013 547.534 88.3884 542.427 72.4102 542.672V542.754ZM46.604 496.349C68.6711 501.822 32.9347 478.763 29.0934 476.965C23.6993 474.453 31.1571 475.576 43.9069 483.501C49.9345 487.259 51.6917 486.565 54.777 489.751C58.5366 493.632 58.6592 492.856 55.4104 485.83C50.1184 474.412 29.7882 468.877 18.5504 470.47C14.6273 471.022 16.7318 469.776 22.3303 477.21C28.8687 485.891 36.0609 493.714 46.6245 496.328L46.604 496.349ZM62.1735 503.15C61.9897 503.15 61.0498 503.701 60.0895 504.376C57.0247 506.541 45.6233 510.544 45.6233 509.441C45.6233 508.971 59.3335 501.904 59.3335 501.271C59.3335 496.001 40.6173 503.947 35.1006 506.295C24.7005 510.687 21.9422 509.849 20.655 510.952C20.1033 511.422 26.948 515.895 38.4311 516.651C71.879 518.857 62.3779 503.17 62.1735 503.17V503.15ZM78.6625 499.862C78.8669 499.943 76.742 493.183 76.9463 493.183C72.5329 476.475 59.926 466.16 60.2938 467.222C61.8262 471.593 60.968 481.52 66.26 490.956C71.8994 501.046 65.9944 487.464 67.4247 487.464C67.9968 487.464 74.8826 498.228 78.683 499.841L78.6625 499.862ZM125.657 533.849C127.476 530.908 140.675 538.751 135.24 534.176C129.784 529.6 129.989 522.452 119.527 521.063C110.251 519.837 109.372 511.218 104.571 507.97C102.344 506.459 96.5206 505.315 95.2129 506.112C94.0482 506.826 94.9676 513.077 96.3979 514.098C97.2356 514.711 97.3379 515.078 96.7658 515.425C93.5783 517.407 121.285 540.895 125.657 533.828V533.849ZM144.986 540.834C127.006 542.693 124.063 555.663 124.615 546.41C124.697 545.103 129.253 540.405 131.807 538.975C134.831 537.301 132.645 538.404 127.925 538.873C120.1 539.65 111.559 554.703 115.87 565.017C118.363 571.002 116.626 560.013 132.768 552.109C144.537 546.369 144.475 543.612 144.966 540.834H144.986ZM179.578 525.679C185.872 515.078 189.447 524.535 194.862 510.095C196.353 506.132 196.415 505.642 195.393 505.969C184.4 509.42 178.352 511.974 176.309 514.016C170.445 519.878 159.33 523.126 155.877 515.425C154.467 512.26 155.632 515.507 148.95 516.263C144.455 516.774 136.629 519.633 134.852 521.41C132.318 523.943 133.891 530.377 137.876 533.726C141.595 536.851 150.626 534.114 154.733 535.687C157.021 536.565 173.633 535.728 179.599 525.679H179.578ZM148.419 496.594C148.95 493.918 146.886 493.836 146.866 495.164C146.846 498.473 145.456 501.189 147.029 501.189C147.785 501.189 148.991 500.27 148.787 500.27C150.176 498.595 147.806 499.678 148.419 496.594ZM137.549 499.739C130.009 494.898 139.224 502.129 139.286 509.809C139.327 513.669 138.55 512.974 142.289 512.505C149.645 511.606 157.103 502.966 158.431 514.139C158.778 517.059 158.737 519.082 164.683 515.916C164.683 516.365 174.307 510.707 168.831 508.604C168.157 508.338 167.789 508.563 167.789 509.216C167.789 511.851 163.559 513.281 161.863 511.238C160.699 509.829 152.199 506.03 150.728 505.254C150.421 505.09 149.563 505.683 146.498 508.256C136.507 503.783 143.862 503.783 137.569 499.719L137.549 499.739ZM203.873 516.324C199.766 511.892 200.052 509.339 198.192 515.282C194.882 525.822 189.141 519.674 181.192 530.744C177.474 535.932 157.082 536.3 164.52 537.117C180.702 538.914 194.126 525.352 196.415 525.352C198.948 525.352 202.238 519.919 203.873 516.324ZM200.93 500.127C195.761 500.679 199.807 502.231 199.807 506.112C199.807 509.38 202.647 509.788 203.382 512.832C204.199 516.14 208.041 517.468 207.489 520.43C206.549 525.352 209.675 517.795 209.88 517.897C212.638 510.503 216.868 514.261 221.914 505.09C224.509 500.393 224.428 501.659 222.711 499.269C220.341 495.92 221.485 490.201 219.217 488.076C217.521 486.504 212.597 484.196 210.942 484.196C209.287 484.196 207.489 488.219 208.041 491.099C209.164 497.043 201.85 500.025 200.951 500.107L200.93 500.127ZM137.692 454.865C129.294 456.275 127.639 457.01 124.268 460.87C122.041 463.423 117.77 471.655 118.363 472.247C120.937 474.821 127.598 457.807 134.402 473.125C135.24 475.004 140.083 479.968 137.12 485.503C135.322 488.873 139.796 488.383 143.392 491.099C145.967 493.06 145.252 493.264 146.008 490.63C147.683 484.788 153.793 489.547 153.67 490.956C153.588 491.855 153.772 491.937 154.487 491.344C156.919 489.322 162.987 497.308 157.266 500.27C154.733 501.577 154.896 500.944 156.919 502.558C159.187 504.335 160.74 503.293 162.579 505.131C164.499 507.051 165.276 505.928 166.502 507.419C167.687 508.849 167.85 507.337 169.587 508.318C171.181 509.216 174.47 504.804 172.938 499.045C172.468 497.309 171.671 494.224 176.35 491.549C182.092 488.24 175.941 470.409 169.403 474.392C166.645 476.066 164.806 480.09 159.841 475.903C156.837 473.37 153.874 472.737 150.544 469.837C148.296 467.856 148.01 467.774 145.722 468.468C138.08 470.797 139.02 477.986 136.078 473.493C134.28 470.756 139.02 459.032 149.686 467.1C164.336 478.15 161.026 470.47 166.44 469.061C168.504 468.53 182.664 472.349 182.807 487.321C182.848 491.569 181.949 490.609 186.26 491.079C189.815 491.487 199.153 491.712 200.358 495.368C200.951 497.145 200.379 494.388 195.107 495C188.732 495.736 180.294 493.04 177.086 496.246C175.492 497.84 175.553 504.6 174.675 506.786C173.449 509.809 181.724 501.7 193.411 500.944C197.947 500.658 198.744 500.822 198.233 500.005C197.702 499.147 202.442 496.941 203.3 491.058C203.689 488.321 201.686 486.524 201.707 479.682C201.707 473.799 202.585 475.454 198.417 472.227C194.331 469.061 187.751 460.298 184.543 453.456C182.153 453.824 179.599 454.089 175.757 455.539C165.991 459.257 160.862 450.739 156.02 455.887C153.67 458.378 154.61 463.771 155.775 465.997C159.044 472.308 152.015 464.588 148.807 458.256C146.069 452.843 147.52 453.252 137.733 454.886L137.692 454.865ZM105.082 474.82C115.829 473.677 115.441 474.004 114.174 471.982C111.416 467.57 120.263 457.235 125.146 455.11C131.153 452.476 138.162 454.395 139.592 451.209C140.9 448.35 138.673 450.699 133.34 448.677C114.297 441.507 105.102 463.771 105.061 474.82H105.082ZM98.0326 499.555C97.7056 503.681 96.8475 502.394 101.588 504.6C113.479 510.095 111.293 517.611 117.3 518.51C126.045 519.817 128.599 525.944 128.599 522.145C128.313 521.859 129.069 518.04 131.95 516.855C135.485 515.385 132.931 514.506 132.155 510.973C127.905 491.916 122.368 501.312 129.376 486.933C133.401 478.681 132.808 479.171 133.34 478.64C135.24 476.741 131.276 470.123 129.212 475.515C127.23 480.703 99.6058 479.539 98.0529 499.576L98.0326 499.555ZM94.4364 502.496C96.4797 502.496 83.4234 486.851 97.8895 477.598C99.2585 476.72 99.5037 476.107 99.4015 473.677C99.238 469.714 99.2584 469.837 98.5842 469.837C97.7056 469.837 92.6793 475.25 92.6588 476.21C92.6588 476.659 92.2502 477.026 91.7598 477.026C86.243 477.026 78.2539 502.496 94.416 502.496H94.4364ZM105.715 533.297C109.413 530.091 109.332 531.173 106.369 529.376C94.9063 522.411 71.4091 527.844 70.6531 527.109C68.4872 524.944 82.4017 518.51 98.5229 523.371C101.22 524.188 100.403 523.657 90.9424 514.261C66.73 513.914 62.9295 524.515 55.7782 541.161C54.7974 543.428 62.051 539.261 78.9282 540.528C91.5145 541.467 98.4615 539.588 105.715 533.318V533.297ZM408.544 497.921C409.075 497.063 406.91 497.043 406.91 497.921C406.91 498.799 408.013 498.779 408.544 497.921ZM413.918 495.572C413.55 495.205 412.467 495.511 412.672 495.511C411.466 496.001 414.449 496.083 413.918 495.572ZM411.486 496.614C411.486 495.777 410.383 495.756 409.852 496.614C409.321 497.472 411.486 497.492 411.486 496.614ZM371.847 350.739C378.325 347.185 382.105 347.185 384.025 344.468C388.725 337.891 379.816 343.447 376.608 344.08C374.156 344.57 362.776 349.186 361.877 350.065C361.672 350.269 363.266 355.436 371.847 350.739ZM254.668 58.0893C256.159 56.5166 256.159 56.4348 255.015 55.1481C250.928 50.6137 250.275 62.7666 254.668 58.0893ZM171.058 274.941C171.058 274.206 164.193 270.162 163.437 270.468C162.129 270.959 162.395 272.102 163.723 271.694C165.684 271.061 171.079 276.065 171.079 274.941H171.058ZM77.9065 112.787C79.5003 111.194 93.66 126.574 109.005 127.269C121.264 127.82 117.77 126.145 119.834 123.204C122.368 119.609 109.107 122.122 103.794 119.589C102.037 118.751 101.894 118.568 103.141 118.792C106.921 119.466 121.039 119.364 121.264 118.67C121.428 118.159 113.561 112.44 102.814 112.359C90.9016 112.256 77.6818 115.545 83.7094 111.725C85.3644 110.684 94.5181 106.721 104.448 106.987C119.057 107.354 128.742 121.877 124.023 110.255C122.633 106.844 122.122 101.942 123.042 101.002C123.246 100.798 125.085 100.41 127.149 100.124C134.627 99.0823 136.221 104.822 139.061 99.123C144.721 87.7259 145.885 88.8697 149.89 90.0748C154.038 91.3411 153.874 91.3616 154.303 89.2783C154.569 87.9915 154.16 86.7251 152.935 84.8664C148.746 78.5551 153.363 71.8149 154.753 67.3826C156.081 63.1547 157.491 66.0346 164.663 64.6457C168.667 63.8695 169.791 66.2593 169.791 65.1155C169.791 64.8704 174.245 58.1914 185.524 68.6694C189.304 72.1825 187.527 71.6718 193.391 70.4055C199.52 69.0779 198.274 70.3034 198.213 65.6874C198.09 57.1089 187.036 53.5958 198.274 42.1986C205.855 34.4984 192.859 22.754 222.057 28.9837C225.551 29.7394 229.25 26.6961 229.25 26.308C229.25 24.0204 237.525 22.754 243.144 27.1862C246.229 29.6168 245.126 28.6568 245.779 26.7164C247.005 23.1421 255.955 24.6535 257.916 20.9975C259.49 18.0767 263.188 14.053 265.333 12.95C267.703 11.7245 269.256 12.2147 272.628 15.2785C276.53 18.812 282.006 20.977 284.703 24.245C288.892 29.3309 286.195 17.2801 291.078 17.2801C293.55 17.2801 293.898 14.8291 302.459 13.9713C310.877 13.1338 311.224 11.1322 315.781 13.3381C319.275 15.0334 323.995 20.6911 323.995 23.2033C323.995 24.6331 324.628 25.4706 326.876 27.0229C331.555 30.2296 334.048 35.5605 335.049 35.5605C335.335 35.5605 338.604 38.8081 338.011 44.4862C337.521 49.2861 336.867 49.0818 339.952 45.8751C349.433 35.9894 355.808 44.0369 362.959 44.0573C369.6 44.0573 376.363 53.0034 371.705 58.4365C368.027 62.7257 370.458 64.7887 367.332 73.4489C364.594 81.0674 359.302 83.5593 359.261 86.9703C359.22 89.7889 357.381 91.0756 357.341 93.8942C357.3 97.5095 357.606 93.7921 380.634 92.7709C390.073 92.342 395.447 96.7946 404.519 98.5308C408.871 99.3682 419.394 101.268 419.394 105.7C419.394 106.272 400.739 119.262 395.079 120.181C357.913 126.145 346.92 108.335 340.014 115.586C333.006 122.939 342.956 117.138 357.627 124.082C367.884 128.923 365.391 133.131 371.112 137.931C380 145.406 376.077 184.479 376.486 184.479C376.915 184.479 379.918 178.209 381.042 176.901C395.427 160.071 412.876 167.731 429.099 154.577C440.521 145.304 433.656 184.479 410.547 195.018C400.024 199.818 407.441 196.101 423.93 202.453C437.047 207.519 443.994 206.354 448.898 211.256C450.267 212.625 451.371 214.157 451.371 214.647C451.371 216.322 433.186 224.41 427.873 225.105C423.215 225.717 440.051 229.843 445.568 246.694C448.367 255.272 446.875 277.617 448.714 281.069C450.431 284.276 438.641 275.268 436.659 273.593C414.122 254.68 426.749 265.076 416.104 252.719C415.736 294.57 411.997 340.751 414.96 346.592C420.048 356.56 409.913 363.423 407.788 363.423C406.276 363.423 389.358 374.248 376.547 376.045C376.343 376.066 264.557 400.004 214.354 384.358C155.836 366.098 316.292 401.045 402.435 354.395C414.654 347.777 408.769 352.904 409.913 335.032C411.711 306.682 406.092 278.7 405.296 270.06C403.395 249.533 405.418 242.69 402.169 247.368C376.057 285.093 155.08 281.049 124.901 248.45C118.996 242.057 123.062 247.878 123.062 265.505C123.062 306.049 116.953 332.56 124.247 349.125C129.008 359.95 174.286 365.894 151.811 367.773C127.639 369.795 122.102 348.655 119.875 349.513C116.156 350.943 114.235 324.881 114.521 320.877C117.178 282.437 111.661 231.355 113.949 226.432C117.28 219.263 132.4 216.403 134.035 218.793C136.037 221.714 123.144 223.573 121.244 236.951C120.202 244.263 144.108 250.166 152.179 252.188C303.501 289.913 430.427 246.367 399.227 224.9C393.955 221.265 390.421 223.573 380.286 220.488C376.281 219.263 375.382 219.181 374.912 219.917C374.115 221.183 374.218 222.531 375.301 224.41C378.754 230.456 367.679 235.113 359.629 239.279C312.328 263.83 258.734 253.25 223.079 254.516C189.018 255.722 186.403 248.716 176.044 244.651C155.713 236.706 151.831 236.931 152.035 198.409C152.056 193.262 149.584 203.617 140.879 206.518C133.605 208.928 128.15 205.19 120.324 204.394C112.417 203.597 110.374 199.594 112.621 200.452C116.973 202.126 128.252 172.183 132.359 168.425C139.551 161.828 147.009 165.566 147.009 163.911C147.009 162.257 140.879 159.377 141.247 154.393C141.513 150.941 142.616 151.82 135.71 150.9C127.823 149.838 125.964 148.511 121.836 140.933C114.562 127.616 120.018 144.201 87.3668 121.877C82.32 118.425 77.314 113.625 78.0291 112.91L77.9065 112.787ZM419.966 226.739C430.182 235.072 431.469 240.423 435.352 245.938C448.081 263.994 430.162 242.343 427.648 238.503C425.094 234.623 413.428 224.839 413.428 226.596C413.428 227.433 415.267 229.986 416.656 234.766C420.661 248.593 426.586 261.849 438.11 270.509C445.2 275.84 443.749 276.555 444.526 276.555C444.73 276.555 444.628 243.058 438.253 236.195C433.288 230.864 411.405 219.753 419.966 226.739ZM386.171 210.868C402.149 208.662 408.83 211.42 419.006 212.237C430.223 213.156 419.128 214.524 411.16 213.156C401.863 211.583 377.405 213.156 386.395 215.975C394.037 218.385 420.354 218.099 421.151 218.752C424.563 221.571 445.506 212.604 448.387 212.523C455.048 212.318 429.508 207.335 426.974 206.334C404.682 197.47 378.141 211.992 386.171 210.889V210.868ZM378.284 197.061C390.359 181.497 418.822 166.526 414.94 171.591C409.321 178.944 398.001 181.865 389.583 190.627C380.123 200.472 386.13 196.51 386.538 196.469C407.952 194.242 425.074 182.825 429.426 161.746C430.1 158.437 427.792 160.582 427.792 160.888C427.792 161.91 419.496 164.994 419.21 165.096C402.639 172.183 383.944 166.75 378.284 197.061ZM153.364 174.655C147.009 174.593 143.025 191.832 138.836 190.872C137.161 190.484 140.471 186.562 141.411 181.844C143.658 170.447 156.571 171.305 150.932 167.976C149.461 167.097 148.541 167.016 146.192 167.526C136.834 169.549 134.79 171.673 129.887 184.459C125.085 197 122.204 197.204 121.162 200.513C120.61 202.228 142.984 213.401 148.868 186.951C151.852 173.531 155.611 174.675 153.364 174.655ZM161.966 165.831C180.437 163.972 185.667 178.209 200.276 169.406C200.072 169.508 205.017 166.546 205.017 166.035C205.017 165.749 205.446 165.504 205.977 165.504C208.531 165.504 208.695 157.212 216.398 157.539C226.369 157.947 234.419 146.039 234.419 145.243C234.419 143.445 237.709 145.774 237.607 140.218C237.075 115.198 241.203 121.162 236.667 111.562C234.807 107.64 227.574 94.6091 222.221 99.6541C217.726 103.882 225.367 107.783 214.743 110.622C209.491 112.011 209.246 108.682 207.755 109.601C204.853 111.378 201.318 108.621 199.745 113.87C198.397 118.363 200.93 123.184 200.215 128.31C199.132 136.113 199.337 138.074 197.845 138.074C196.496 138.074 194.984 141.525 197.559 144.936C199.5 147.49 199.398 149.164 197.15 152.024C195.883 153.637 195.414 153.76 190.857 153.76C178.005 153.76 183.787 144.528 178.659 145.978C170.261 148.347 178.741 157.253 169.464 156.088C165.725 155.619 159.514 155.21 155.243 154.659C143.168 153.086 145.661 167.486 161.966 165.831ZM232.478 92.0561C230.353 94.3437 230.087 93.1386 233.826 96.5291C253.094 114.074 233.643 111.501 265.149 122.632C278.328 127.269 308.425 122.979 318.355 106.456C323.382 98.0814 320.297 101.778 309.876 103.249C305.463 103.882 297.882 94.3232 291.487 94.3437C287.319 94.3437 287.543 99.2866 278.492 98.7351C264.169 97.8772 260.205 87.2766 257.099 90.3607C256.037 91.4228 255.342 89.1148 250.745 89.1965C242.51 89.3395 237.484 86.6639 232.478 92.0561ZM240.733 79.8419C241.979 80.4955 250.05 81.6597 250.05 81.6801C251.337 82.8852 252.767 80.904 252.972 80.904C255.015 75.5526 236.421 77.5543 240.712 79.8419H240.733ZM262.779 85.3362C259.857 84.703 258.611 84.4784 258.611 84.8052C258.611 85.4792 263.964 90.0544 265.374 90.6058C266.13 90.8918 268.827 91.239 271.381 91.4024C281.25 91.9539 279.922 83.7431 288.483 87.6239C304.42 94.8747 299.987 96.8968 304.543 94.5887C304.543 94.793 306.668 93.5062 306.872 93.3224C308.078 92.2603 300.763 89.4212 306.28 82.926C307.588 81.3737 308.773 77.9424 309.488 76.0633C293.183 60.6424 312.634 66.3614 288.667 68.2405C279.82 68.935 277.572 69.9766 275.55 74.2658C272.628 80.5159 268.786 82.6401 264.189 80.5363C261.982 79.5355 259.51 80.3729 262.8 85.377L262.779 85.3362ZM264.271 70.9366C266.58 73.3467 265.681 73.3876 267.581 71.0183C269.42 68.7307 270.421 67.4439 264.536 68.6285C261.839 69.1596 261.982 68.5469 264.291 70.957L264.271 70.9366ZM274.14 64.9317C277.818 64.9317 271.667 61.6024 271.667 63.5223C271.667 64.4619 272.485 64.9317 274.14 64.9317ZM288.667 64.9317C292.345 64.9317 292.222 65.2584 289.668 63.9308C287.952 63.0321 287.646 63.0321 286.746 63.9308C285.847 64.8295 286.031 64.9317 288.667 64.9317ZM295.675 63.5019C304.216 60.4994 297.106 60.2747 295.573 61.7045C293.224 63.89 290.281 65.381 295.675 63.5019ZM306.423 158.968C306.668 148.797 307.833 151.738 301.969 145.774C295.451 139.115 292.182 134.111 291.752 134.56C289.832 136.48 297.903 156.599 301.131 163.237C284.029 144.998 291.732 129.148 285.398 135.5C281.761 139.136 287.237 158.539 289.934 164.932C293.918 174.389 302.786 176.084 307.955 186.951C312.348 196.183 305.933 180.292 306.443 159.009L306.423 158.968ZM350.067 149.634C358.199 158.928 349.208 137.42 333.332 130.598C322.769 126.064 314.269 126.35 312.675 124.797C311.613 123.756 305.892 126.636 307.955 127.391C316.864 130.618 330.472 138.829 330.472 141.444C330.472 142.465 306.832 128.903 302.623 130.516C301.049 131.109 301.58 128.27 299.21 129.536C296.881 130.782 297.453 138.891 304.155 142.812C315.842 149.655 341.383 139.687 350.067 149.614V149.634ZM266.335 162.604C273.139 157.988 277.736 135.398 276.346 134.54C275.284 133.886 271.013 136.337 268.275 139.156C265.967 141.546 263.433 146.775 260.94 154.23C257.344 165.075 257.038 146.632 266.355 136.031C269.624 132.314 270.094 133.58 264.066 131.64C254.913 128.699 255.424 132.865 253.482 132.865C253.135 132.865 252.686 133.314 252.481 133.846C252.277 134.397 251.357 135.173 250.438 135.582C245.493 137.828 248.517 155.271 249.519 160.602C251.419 170.733 250.479 175.37 251.255 174.308C251.419 174.103 259.939 166.914 266.314 162.584L266.335 162.604ZM250.745 125.88C246.985 122.857 245.228 121.305 245.8 122.775C247.7 127.575 245.534 130.373 250.745 125.88ZM230.946 75.614C230.496 75.2055 223.324 69.0575 223.324 67.8729C223.324 66.1572 221.935 66.1572 219.708 67.8729C217.072 69.8745 217.011 70.3443 218.747 73.7757C220.607 77.4113 219.401 77.881 222.507 78.2078C226.083 78.5755 223.978 79.3312 230.946 75.6343V75.614ZM297.494 245.958C297.044 245.509 294.858 247.47 296.697 246.775C297.351 246.53 297.698 246.163 297.494 245.958ZM360.038 144.446C352.232 144.834 351.722 143.711 354.603 148.225C361.672 159.377 353.928 162.114 349.658 152.432C348.228 149.205 347.043 148.838 340.913 149.798C311.102 154.414 305.381 142.71 309.876 151.636C313.227 158.294 309.999 168.078 312.839 184.438C314.432 193.507 315.25 204.026 314.351 204.026C308.507 204.026 307.179 185.602 300.477 179.679C280.045 161.624 283.253 152.269 280.351 151.309C278.43 150.676 279.391 161.603 269.522 170.284C264.598 174.614 266.437 172.755 258.427 178.107C246.352 186.195 245.371 182.028 245.187 169.283C244.942 150.839 243.511 151.207 238.117 156.272C228.739 165.075 225.408 160.561 216.255 168.588C188.426 192.955 180.15 162.196 160.249 175.696C160.494 194.549 162.497 222.899 161.046 228.577C160.556 230.476 160.678 230.66 163.273 231.824C191.225 244.427 193.125 249.124 239.323 251.453C277.695 253.393 304.196 244.978 291.732 246.122C282.129 247.021 211.412 249.676 217.583 243.507C218.298 242.792 228.943 245.877 251.419 244.222C371.296 235.44 336.418 239.116 369.661 225.247C369.947 191.587 368.129 191.853 367.087 145.815C367.026 143.507 368.456 144.017 360.017 144.426L360.038 144.446ZM332.066 123.796C330.125 125.737 335.314 125.676 344.468 135.765C352.355 144.467 352.886 140.034 352.682 140.034C353.704 138.114 353.847 139.748 362.469 136.031C365.432 134.744 365.432 135.541 362.081 133.131C353.581 127.003 335.253 120.59 332.045 123.796H332.066ZM346.368 96.4066C353.52 91.1165 357.422 76.5331 348.432 84.9482C342.609 90.4017 335.008 91.2798 326.855 95.5691C319.091 99.6541 321.134 98.1632 324.69 103.065C329.328 109.438 318.703 117.179 321.604 117.179C327.366 117.179 337.072 103.31 346.389 96.4066H346.368ZM347.615 107.13C348.187 107.702 352.845 106.129 363.552 106.108C373.421 106.108 390.053 101.901 383.188 106.374C379.612 108.723 361.223 107.824 352.988 109.56C341.301 112.032 383.923 121.999 403.477 109.56C411.895 104.209 411.977 107.232 397.858 101.676C379.265 94.364 345.204 104.679 347.615 107.089V107.13ZM323.954 85.0299C322.789 86.0103 312.287 92.6688 314.535 93.4654C317.232 94.4049 317.456 97.0398 319.377 94.2416C319.581 94.2416 324.036 88.9105 329.491 87.1336C342.854 82.8035 341.934 78.5551 352.375 74.6539C366.372 69.4251 362.469 56.1693 365.718 52.9421C367.884 50.7771 364.39 51.6962 359.547 48.9593C339.462 37.603 330.227 79.7602 323.954 85.0299ZM324.526 57.6399C324.71 73.4897 317.232 64.3802 312.553 85.2954C311.838 88.4613 307.853 90.5037 314.473 87.0315C326.283 80.8223 323.974 74.2046 327.284 66.6882C331.391 57.3335 327.57 55.9038 331.555 47.3049C339.809 29.5147 324.301 39.2778 324.526 57.6399ZM291.957 33.7631C295.43 38.563 293.734 45.5483 291.364 46.304C285.99 47.9993 282.844 58.7837 285.868 57.1701C288.606 55.6995 289.178 57.0067 289.423 52.0843C289.689 47.1619 288.769 47.4887 292.937 51.3899C298.74 56.7821 297.903 51.3899 302.132 54.2085C303.154 54.8826 304.339 55.3728 304.768 55.2911C305.953 55.046 310.203 59.6007 310.203 61.1121C310.203 65.1971 305.299 63.5019 305.871 65.4423C306.198 66.5248 307.342 75.4913 310.203 71.3042C316.271 62.3785 320.95 64.7887 320.174 52.8605C319.459 41.7901 325.875 39.5842 325.875 37.1945C325.875 32.844 334.987 34.0082 328 30.4134C324.73 28.7181 319.418 23.2034 318.764 20.8341C317.681 16.8512 312.062 20.8137 306.362 19.2818C298.822 17.2597 285.337 24.674 291.957 33.7835V33.7631ZM199.153 58.2526C199.153 60.4177 204.342 65.6261 201.768 67.2193C199.01 68.9145 204.915 73.4285 209.88 73.4285C212.536 73.4285 212.904 73.5919 212.597 74.5927C212.107 76.1246 215.744 77.9628 216.009 77.9832C216.929 78.0649 208.449 65.7078 208.123 64.8091C206.856 61.2756 220.259 51.9822 227.247 63.2772C231.865 70.7528 225.163 73.3671 241.386 74.3679C250.111 74.9194 248.415 75.5935 249.539 71.8353C250.029 70.2013 250.622 68.8533 250.847 68.8533C251.766 68.8533 254.708 71.6106 254.708 72.4889C254.708 74.8786 250.744 75.5527 253.094 76.8599C255.485 78.1875 255.914 73.0403 259.612 74.899C261.451 75.8386 254.708 69.2617 254.708 67.9545C254.708 66.6473 257.978 66.198 260.082 67.2805C266.621 70.6507 253.012 50.4503 262.166 55.3727C266.804 57.8646 267.295 52.1864 271.729 53.7387C275.917 55.1889 273.67 49.5312 279.697 54.1473C283.518 57.068 282.578 57.5378 282.885 51.9413C283.539 40.5442 288.545 45.9976 289.587 36.9289C290.097 32.5171 286.951 29.0449 286.297 29.29C285.255 29.6781 284.131 28.3913 284.54 27.2883C285.745 24.1429 279.207 24.6944 274.405 20.0988C272.771 18.5465 271.034 17.2597 270.544 17.2597C268.889 17.2597 263.127 22.611 261.635 25.5318C259.306 30.107 255.75 26.6756 249.886 31.4142C254.198 37.0924 256.343 43.4241 256.118 44.2207C255.996 44.6292 261.696 52.4928 254.157 46.1611C241.529 35.5809 250.99 29.5351 239.854 28.5343C235.032 28.1054 236.667 27.4314 232.784 31.9249C228.902 36.4184 230.496 35.7648 225.96 35.2541C221.158 34.7231 216.745 33.9469 213.844 34.4984C206.141 35.9485 208.102 43.036 205.528 46.0794C204.424 47.3866 199.153 53.1056 199.153 58.2323V58.2526ZM192.492 76.2267C193.779 77.779 194.514 88.0731 194.862 90.6058C195.822 97.6525 197.947 93.5675 201.747 98.8984C204.465 102.697 209.634 99.552 211.575 101.86C213.435 104.107 213.312 99.4295 213.639 99.4295C215.968 88.7063 212.025 93.0161 213.19 88.6451C214.497 83.7023 213.782 78.5142 211.657 77.4317C211.065 77.1253 209.328 76.7168 207.775 76.533C200.583 75.6139 204.179 72.0396 196.721 73.408C192.471 74.1842 191.388 74.9195 192.492 76.2471V76.2267ZM147.316 114.135C146.457 116.546 153.65 120.222 152.097 122.101C150.38 124.185 147.928 121.386 149.522 128.045C150.278 131.231 150.258 131.823 149.154 134.009C142.555 147.265 156.204 132.559 162.068 135.908C164.009 137.011 180.273 134.601 181.724 138.36C182.051 139.217 180.15 143.854 176.207 140.77C171.283 136.95 156.939 140.851 154.406 141.995C137.385 149.716 150.299 150.022 158.656 151.105C178.822 153.74 161.557 145.815 174.94 143.282C186.444 141.097 183.522 158.58 193.309 144.896C189.263 141.628 187.404 140.708 189.856 135.806C192.165 131.19 195.904 136.419 195.904 132.62C195.904 129.291 188.712 133.519 188.712 129.189C188.712 126.247 196.067 128.944 196.292 128.719C197.007 128.004 196.966 122.673 196.21 119.017C195.066 113.502 195.72 111.01 199.234 107.436C203.913 102.677 208.368 106.047 202.606 102.697C197.886 99.94 199.03 98.7963 194.658 96.5904C187.629 93.0364 186.525 86.909 186.178 75.2259C186.096 72.6115 178.782 65.5648 178.189 65.5648C176.861 65.5648 176.759 67.832 167.646 67.8729C159.922 67.8933 161.618 66.8925 159.616 71.7945C157.43 77.1458 155.366 81.9456 159.984 87.7667C162.517 90.953 161.945 88.5429 161.557 98.2857C160.637 121.121 160.004 110.132 175.328 115.953C167.993 119.242 167.155 117.771 168.79 117.199C171.324 116.321 159.187 117.812 155.284 112.563C152.934 109.376 148.766 110.214 147.356 114.156L147.316 114.135ZM128.436 145.345C131.113 149.654 135.526 147.183 138.938 149.164C142.289 151.125 141.186 147.02 141.186 147.224C140.491 142.077 145.967 142.547 144.353 139.544C142.473 136.031 144.782 133.315 147.029 130.006C144.394 123.633 143.209 121.591 145.906 120.345C150.993 118.037 140.082 116.178 142.044 111.092C142.82 109.091 148.562 107.906 152.097 109.029C153.037 109.336 153.241 108.845 153.384 105.945C154.732 79.8623 146.437 104.801 139.388 104.801C136.486 104.801 129.335 99.6541 127.23 103.596C123.818 109.948 133.095 113.319 127.128 119.671C124.779 122.163 126.086 126.329 124.676 128.964C122.858 132.355 124.329 138.788 128.416 145.386L128.436 145.345ZM249.846 66.6065C250.724 70.0787 254.668 66.6678 254.668 64.7887C254.668 64.0534 252.175 61.6637 251.378 61.6637C249.498 61.6637 249.825 67.3826 249.825 66.6065H249.846ZM355.236 355.436C356.258 353.128 356.176 353.047 350.536 350.698C344.979 348.41 348.33 348.982 332.535 354.211C304.359 363.545 352.988 360.502 355.236 355.416V355.436ZM213.149 283.847C219.728 283.806 241.468 286.461 240.63 286.665C241.836 287.074 335.682 286.298 335.682 278.72C335.682 275.82 311.715 285.624 268.398 283.377C243.328 282.07 240.16 277.781 226.92 280.66C221.608 281.825 207.612 283.295 200.787 281.089C192.369 278.373 179.497 279.231 174.246 276.616C169.791 274.39 173.326 279.006 187.057 279.844C204.485 280.906 197.784 283.949 213.149 283.826V283.847ZM190.714 120.937C192.43 125.471 196.333 116.77 192.43 114.605C187.588 111.909 190.51 120.937 190.714 120.937ZM171.324 126.922C172.652 128.025 173.101 130.251 171.978 130.251C170.22 130.251 171.078 131.538 173.735 132.886C177.453 134.785 177.331 133.172 180.355 134.479C180.498 134.479 182.418 135.398 183.563 135.439C185.769 135.5 187.629 131.783 182.664 129.127C185.402 128.412 185.667 128.678 185.259 125.696C184.789 122.183 185.054 122.591 188.63 125.022C191.674 127.085 195.516 127.922 192.614 125.676C188.998 122.877 187.486 125.063 187.915 121.529C188.201 119.119 187.322 118.098 184.155 117.179C182.132 116.586 182.092 116.627 182.5 118.486C183.031 120.957 183.603 120.651 180.293 119.344C171.017 115.708 179.292 126.962 176.125 126.043C171.16 124.593 168.994 124.981 171.324 126.922Z" fill="#EA3826"/>
</svg>
