<svg width="664" height="880" viewBox="0 0 664 880" fill="none" xmlns="http://www.w3.org/2000/svg">
<path d="M651.431 696.069C649.698 691.845 647.143 687.81 646.296 683.281C648.287 683.006 650.098 684.409 652.074 684.895C653.783 685.498 655.696 685.772 657.467 685.569C662.547 684.519 664.115 678.422 663.919 673.893C663.833 670.947 663.018 668.094 661.583 665.516C659.043 660.76 655.907 656.333 653.532 651.474C651.298 647.094 649.816 642.345 649.463 637.424C648.993 632.229 649.957 627.018 649.573 621.831C648.852 615.797 642.886 613.117 638.268 610.296C633.91 607.585 629.41 603.471 624.408 601.606C623.365 601.23 622.307 600.901 621.217 600.713C618.787 600.219 616.937 603.471 618.552 605.32C619.101 606.033 619.9 606.355 620.778 606.472C621.735 606.731 622.637 607.123 623.53 607.546C627.246 609.536 630.413 612.381 633.918 614.7C636.207 616.306 638.652 617.678 640.996 619.198C642.031 619.942 643.066 620.851 643.411 622.128C643.968 624.495 643.513 626.971 643.615 629.392C643.662 633.632 643.842 637.918 644.932 642.04C647.354 652.289 655.154 659.812 660.321 668.643C662.351 672.851 662.727 678.681 659.584 682.505C655.288 686.344 650.592 680.898 646.006 680.977C645.347 681.165 644.893 681.306 644.383 681.815C643.693 682.646 643.779 683.806 643.968 684.801C644.744 687.967 645.755 691.07 646.892 694.118C648.805 699 650.419 703.983 652.089 708.943C653.822 713.755 655.123 718.731 655.452 723.855C655.531 724.968 655.609 726.065 655.664 727.131C654.222 726.763 652.787 726.355 651.376 725.854C638.073 720.98 625.757 713.817 613.77 706.35C612.03 705.3 610.313 707.893 611.928 709.085C618.881 713.982 626.188 718.441 633.894 722.053C640.918 725.509 648.115 728.816 655.75 730.657C655.656 736.189 654.292 740.954 648.522 744.574C644.532 747.348 639.664 748.069 635.297 749.996C632.185 751.532 629.041 753.75 627.505 756.947C625.404 761.021 628.179 765.347 628.171 769.586C628.179 773.308 628.516 776.678 626.917 780.267C624.996 781.74 622.864 783.08 621.116 784.851C617.619 788.032 614.232 791.37 610.391 794.144C608.039 795.563 606.283 797.004 603.336 797.467C599.933 797.953 597.872 795.766 595.261 793.752C592.204 791.12 587.892 789.756 583.901 790.634C578.649 791.472 573.444 796.103 574.533 801.808C574.565 802.012 574.604 802.223 574.643 802.435C573.02 801.777 571.397 801.142 569.822 800.39C567.611 799.214 565.447 797.976 563.347 796.613C558.282 793.188 553.955 788.847 549.627 784.569C544.383 779.397 539.193 774.162 533.901 769.038C520.911 756.555 507.914 744.088 495.927 730.633C483.164 714.875 471.993 697.973 461.119 680.851C454.401 670.312 448.529 659.255 442.101 648.536C435.767 638.098 429.393 627.684 423.466 617.012C416.654 603.377 411.308 589.131 405.742 574.956C396.122 551.048 385.79 527.368 378.758 502.52C374.109 485.696 370.448 468.629 366.52 451.625C362.922 434.08 359.708 416.426 359.332 398.466C358.438 382.222 359.112 365.978 359.065 349.726C358.963 341.255 357.897 332.855 357.348 324.408C357.129 314.824 356.643 305.256 356.306 295.689C356.259 289.349 356.721 283.01 356.627 276.671C356.651 267.346 356.752 258.021 356.078 248.712C356.055 248.328 355.772 247.999 355.365 247.999C354.988 247.999 354.644 248.32 354.652 248.712C355.02 258.389 355.428 268.059 355.553 277.744C355.812 289.373 354.377 301.025 354.988 312.646C355.772 322.974 356.251 333.317 356.392 343.669C356.611 353.174 357.497 362.451 357.693 372.011C358.352 387.386 356.431 402.791 357.607 418.173C359.779 451.758 373.27 483.118 380.381 515.747C383.634 529.28 387.279 542.726 391.787 555.899C401.571 582.635 413.612 608.502 427.284 633.467C435.5 648.12 443.614 662.852 452.394 677.184C459.034 687.3 466.396 696.915 473.976 706.342C493.552 730.657 513.166 754.98 534.489 777.798C546.241 790.273 556.126 802.787 572.926 808.649C574.235 809.197 575.772 808.774 576.65 807.693C579.049 812.77 581.714 817.817 574.988 821.288C570.143 823.576 564.883 824.783 559.834 826.53C551.031 829.759 541.396 832.737 532.137 829.539C527.465 828.043 522.432 823.929 517.486 826.695C513.284 829.735 514.718 835.636 514.185 840.087C514.138 840.721 513.871 841.482 513.119 841.717C509.669 843.26 506.463 845.282 503.241 847.241C499.807 849.325 496.303 851.3 492.744 853.149C481.988 858.658 475.019 856.245 467.07 847.727C464.671 845.094 460.461 843.519 457.365 845.917C452.873 849.012 449.831 853.753 445.644 857.216C441.215 860.601 434.011 867.599 428.068 865.17C425.089 863.532 422.816 860.625 419.405 859.779C415.886 858.603 412.154 859.136 408.524 859.332C405.616 859.52 402.707 859.685 399.791 859.716C392.806 859.645 385.343 860.029 378.876 856.997C376.171 855.602 373.811 852.569 370.683 851.911C365.125 850.618 358.25 855.774 355.757 860.453C353.726 865.46 349.258 868.531 344.578 870.937C339.208 873.727 332.858 875.223 326.947 873.358C323.223 872.128 320.126 868.931 316.771 866.847C309.911 862.082 301.225 865.185 293.55 863.814C291.975 863.446 290.36 863.054 289.019 862.122C285.452 859.551 282.701 856.049 279.933 852.671C276.202 848.15 271.992 840.941 265.046 843.229C257.316 846.614 253.107 855.422 244.797 857.984C242.265 858.736 238.51 858.783 236.62 856.401C234.849 853.737 234.739 850.297 233.571 847.351C232.395 843.989 229.698 841.411 227.229 838.966C223.183 834.555 218.817 835.463 214.184 838.551C209.174 841.505 204.416 845.321 198.419 845.917C195.048 846.261 191.582 844.898 189.035 842.547C185.319 839.193 181.885 835.252 177.056 833.505C170.878 831.342 163.776 832.439 158.296 828.309C154.039 825.151 149.915 821.617 146.897 817.221C142.295 810.49 141.323 795.57 129.831 799.003C130.842 796.221 132.128 793.251 131.524 790.25C131.391 789.881 131.25 789.545 131.108 789.231C131.9 789.137 132.583 788.792 132.598 787.836C132.598 787.108 131.987 786.457 131.25 786.441C133.641 783.025 137.411 780.627 140.469 777.783C143.714 774.891 146.944 771.968 149.79 768.677C157.802 759.446 164.81 749.401 172.25 739.715C179.596 730.532 187.263 721.614 195.267 712.987C203.146 704.516 212.02 696.79 218.276 686.964C224.249 677.325 228.459 666.739 233.665 656.685C239.317 646.357 244.946 635.982 249.022 624.91C253.169 613.587 255.976 601.818 259.707 590.354C262.428 581.068 266.05 572.088 269.044 562.857C272.313 553.227 274.869 543.408 277.103 533.496C278.42 525.111 279.855 516.742 280.772 508.295C282.269 496.854 283.312 485.328 285.884 474.059C287.357 466.122 289.85 458.427 291.567 450.544C293.503 442.904 294.718 435.154 295.706 427.341C297.509 413.26 299.932 399.257 301.845 385.199C303.232 375.255 304.055 365.257 305.129 355.281C306.07 348.981 306.713 342.626 307.842 336.358C309.833 326.351 311.769 316.337 313.259 306.244C314.537 298.69 315.501 291.097 316.277 283.48C316.371 282.524 315.752 281.631 314.772 281.49C313.831 281.365 312.891 282.046 312.781 283.002C311.628 293.22 310.272 303.407 309.065 313.617C308.053 321.783 307.254 329.971 306.337 338.144C304.659 350.525 302.519 362.835 300.488 375.161C298.646 386.939 297.376 398.787 295.651 410.58C293.268 426.597 290.242 442.512 287.514 458.474C284.794 475.047 281.015 491.385 277.927 507.911C275.363 521.663 272.948 535.18 270.032 548.909C266.951 560.467 264.082 572.096 260.57 583.528C254.518 603.181 246.153 622.019 238.031 640.88C233.649 650.949 228.663 660.744 223.262 670.304C218.535 679.018 213.447 687.536 207.042 695.16C200.363 703.262 193.675 711.357 186.933 719.412C180.45 726.966 173.536 734.168 167.257 741.894C160.765 749.503 155.278 757.911 148.661 765.41C145.392 769.218 141.582 772.634 137.803 775.957C136.118 777.501 128.827 782.892 128.035 786.504C125.887 786.159 123.332 787.828 121.035 789.67C116.457 792.984 111.831 797.475 105.74 797.028C102.847 796.746 99.931 796.088 96.999 796.252C92.5776 795.947 86.2117 799.347 82.6526 796.323C79.3208 792.483 79.6424 786.567 76.0284 782.829C74.5546 781.082 72.3282 780.353 70.1802 779.781C66.3467 779.123 68.1653 775.4 68.8944 772.909C70.1095 769.382 71.5754 765.911 72.3437 762.252C73.1277 758.279 73.496 753.695 71.2853 750.098C68.0868 744.229 59.0479 748.985 58.3659 743.054C58.115 738.556 59.589 733.752 61.6429 729.693C64.0888 724.835 67.9222 720.517 69.0119 715.079C69.7959 711.373 69.2 705.84 64.8177 704.83C61.9171 704.461 59.4793 705.543 56.4768 704.814C56.1789 704.751 55.0576 704.524 54.4618 704.109C50.3539 700.904 47.5238 698.717 42.0989 700.716C42.875 697.119 44.0197 693.624 44.7566 690.02C45.1094 688.343 45.478 686.337 44.5216 684.816C43.9963 683.672 42.8438 682.356 41.4562 683.006C36.3841 685.804 34.5104 685.671 30.0105 682.082C27.5019 680.091 24.5858 678.697 21.9674 676.871C21.011 676.095 20.4621 674.998 20.1093 673.838C19.2862 671.072 18.1808 668.251 16.3542 665.939C14.9666 663.832 17.6166 658.676 18.9257 656.576C22.9944 650.581 29.893 647.595 35.412 643.184C37.4895 641.476 39.8337 639.744 40.8763 637.197C41.1193 635.967 41.0563 634.298 39.5511 634.055C35.8822 633.444 32.1742 633.632 28.6229 632.284C24.029 630.599 21.0109 626.297 16.6129 624.221C12.5364 621.799 6.45308 623.343 3.39569 619.284C0.385324 612.2 10.5215 605.179 14.841 600.642C21.975 593.786 28.4662 586.271 35.8197 579.642C41.5268 574.384 48.3392 570.677 54.9009 566.634C55.2693 566.775 55.7083 566.744 56.0297 566.485C56.7353 565.913 57.394 565.286 58.0447 564.651C61.4549 562.434 64.7316 560.028 67.6714 557.16C71.6225 553.477 73.1984 553.705 78.3803 553.955C81.03 553.932 81.2575 550.076 78.6704 549.685C78.4274 549.653 78.1764 549.622 77.9255 549.598C79.6737 548.306 81.414 547.013 83.1701 545.735C89.3476 541.669 96.2384 538.221 102.118 533.535C107.331 529.742 112.372 525.683 116.692 520.872C126.844 509.886 137.168 499.221 147.03 487.945C154.713 478.816 164.199 470.596 172.783 462.149C181.219 453.717 190.124 445.662 197.25 436.047C205.019 425.586 211.244 414.099 217.547 402.728C219.883 398.434 222.321 394.179 224.195 389.658C226.06 385.003 227.518 380.184 228.937 375.373C231.297 367.396 233.908 359.489 235.625 351.348C238.8 336.836 240.454 322.057 242.265 307.325C243.033 300.931 243.401 294.482 244.781 288.174C246.09 282.822 247.98 277.635 249.532 272.345C251.711 264.65 253.64 256.877 255.913 249.206C258.532 241.424 260.923 233.573 263.165 225.666C265.932 218.771 267.712 211.577 269.632 204.423C272.078 197.245 273.474 189.785 275.543 182.521C276.782 179.089 278.695 175.97 280.043 172.585C281.564 168.989 282.607 165.204 284.245 161.662C285.531 159.006 287.216 156.584 288.713 154.045C290.148 151.616 291.402 149.077 292.962 146.726C294.961 143.968 297.478 141.664 299.838 139.22C300.324 138.718 300.528 138.036 300.449 137.386C301.124 137.77 302.119 137.637 302.464 136.689C308.743 138.483 314.372 142.213 320.04 145.387C325.167 148.443 330.6 151.452 336.707 151.687C342.634 152.039 348.207 149.211 353.75 147.487C364.176 144.054 373.615 138.452 382.889 132.692C382.889 132.692 382.928 132.669 382.952 132.653C382.999 133.617 383.085 134.573 383.234 135.513C382.889 135.827 382.631 136.265 382.599 136.72C382.411 137.739 382.842 138.961 383.869 139.306C383.924 139.408 383.971 139.51 384.026 139.611C384.23 140.654 384.442 141.696 384.661 142.714C385.461 146.601 386.378 151.185 387.671 155.088C388.236 156.514 389.286 157.039 390.274 156.952C390.839 158.904 391.411 160.863 392.022 162.806C394.727 170.838 398.145 178.619 400.513 186.768C402.817 193.5 405.898 199.972 407.623 206.891C410.72 218.959 412.523 231.371 416.113 243.313C418.481 251.031 422.526 258.186 424.054 266.171C429.095 292.28 431.635 318.774 435.963 345.001C438.252 358.353 442.156 371.353 445.088 384.572C449.721 406.427 454.542 428.297 460.108 449.948C463.903 464.899 470.056 479.129 477.386 492.678C482.827 503.358 490.337 512.707 497.612 522.173C505.907 533.347 516.074 542.907 526.391 552.184C532.224 557.286 537.79 562.732 544.085 567.269C549.102 570.826 554.535 573.686 559.921 576.633C578.218 587.203 598.609 594.287 619.642 596.654C624.495 597.069 624.753 590.307 620.582 589.813C612.649 589.037 604.88 587.156 597.237 584.947C589.374 582.737 581.675 579.979 574.133 576.844C566.357 573.443 558.745 569.659 551.219 565.756C543.458 561.258 536.622 555.421 529.409 550.124C518.168 541.716 507.161 532.665 499.259 520.911C494.147 513.655 489.334 506.156 485.383 498.187C478.311 482.695 472.84 466.819 468.018 450.395C464.193 436.611 459.356 423.118 455.561 409.326C452.645 399.304 451.359 388.929 449.556 378.672C447.149 364.857 444.006 351.183 441.772 337.345C438.479 319.001 433.932 300.915 430.107 282.681C428.39 275.151 427.535 267.409 425.489 259.957C423.514 253.249 420.621 246.847 419.1 239.998C416.819 227.962 415.149 215.777 411.715 204C410.468 199.682 408.775 195.506 407.161 191.313C405.185 186.361 403.805 181.205 401.994 176.19C399.478 169.192 396.404 162.399 394.468 155.205C392.979 149.673 390.98 144.305 388.385 139.196C388.385 139.196 388.385 139.18 388.385 139.173C388.283 138.969 388.181 138.765 388.079 138.569C387.844 138.044 387.593 137.496 387.303 136.986C387.209 136.822 387.091 136.665 386.981 136.508C386.103 133.781 385.853 130.859 385.406 128.038C384.732 124.355 384.206 120.64 384.246 116.887C384.355 106.136 385.915 95.3929 387.06 84.7046C387.664 79.0548 389.035 73.5148 389.615 67.8729C390.047 63.5161 389.71 59.1122 390.329 54.7711C391.23 47.8832 392.603 41.066 393.818 34.233C394.868 28.1522 396.122 22.1107 396.922 15.9829C397.385 12.1825 397.941 8.382 399.078 4.71475C399.831 4.80095 400.512 4.08786 400.395 3.33561C400.238 2.4423 400.144 1.31395 399.187 0.914313C398.819 0.734085 398.466 0.781104 398.121 1.01618C397.431 0.632221 396.687 0.334432 395.911 0.16204C392.336 -0.441332 388.745 0.843789 385.147 0.718413C382.976 0.475497 381.118 0.459811 381.031 2.02701C381.031 2.05052 381.016 2.07406 381.016 2.1054C380.922 4.41702 380.976 6.7443 380.78 9.05592C380.059 19.7991 375.92 23.4036 368.394 30.1347C364.482 33.8255 359.112 35.0401 354.652 37.8532C350.018 40.5253 346.397 44.4981 342.908 48.4788C341.818 49.7718 340.925 51.1744 340.133 52.6632C339.49 53.917 338.792 55.2099 338.243 56.542C337.397 55.4763 336.48 54.4498 335.633 53.3919C333.924 51.2057 332.372 48.7452 329.816 47.4601C325.841 45.3052 321.334 44.5138 317.045 43.2365C312.373 42.3354 307.489 40.6898 304.988 36.3252C302.88 33.8333 301.813 30.8713 301.084 27.7134C300.285 25.1119 299.744 22.4476 299.477 19.7364C299.093 15.1758 297.329 10.866 296.866 6.32896C297.792 5.85097 297.713 4.28377 296.702 3.93115C296.49 3.86063 296.255 3.82927 296.02 3.82144C295.377 3.30426 294.483 2.96735 293.739 2.83414C290.948 2.39533 288.125 3.10055 285.366 3.50802C281.736 4.1349 278.123 4.89498 274.509 5.60022C271.914 5.80396 271.569 8.33501 274.03 8.71114C274.218 9.9649 274.563 11.2656 274.587 11.9552C275.645 17.5501 275.865 23.3096 277.527 28.7713C277.675 29.2571 278.075 29.6097 278.53 29.7194C280.435 35.1498 282.058 40.6663 283.516 46.2377C284.692 50.3673 286.675 54.2226 287.867 58.3521C289.019 61.9489 289.364 65.7337 290.093 69.4323C291.646 76.5552 293.112 83.7094 294.092 90.9499C294.397 96.4977 294.413 102.006 294.82 107.554C295.314 114.223 295.989 121.024 295.464 127.724C295.362 129.793 295.064 131.869 294.734 133.915C294.632 135.176 294.013 137.057 294.248 138.452C292.414 140.129 290.587 141.806 289.058 143.757C287.02 146.468 285.366 149.438 283.461 152.243C281.917 154.453 280.325 156.639 279.04 159.013C276.892 163.253 275.441 167.813 273.411 172.107C271.968 174.889 270.44 177.663 269.452 180.649C268.307 184.104 267.712 187.717 266.951 191.266C266.167 194.926 265.148 198.538 264.246 202.174C262.953 207.322 262.247 212.588 260.687 217.674C258.743 223.433 257.152 229.287 255.89 235.234C252.668 246.808 250.668 258.664 247.917 270.347C246.365 276.741 243.872 282.853 242.304 289.24C237.412 315.498 231.454 341.584 223.246 367.028C221.216 373.727 219.679 380.568 217.523 387.229C211.604 402.047 205.012 416.888 195.463 429.755C189.309 437.967 181.595 444.761 174.116 451.727C169.75 455.849 165.516 460.096 161.275 464.343C152.22 472.829 145.087 482.993 137.906 493.038C132.073 500.827 125.754 508.264 119.036 515.292C114.277 520.355 109.228 525.166 103.427 529.029C96.8028 533.887 89.8806 538.276 82.9113 542.601C79.7677 544.693 76.8282 547.075 73.8021 549.332C71.8266 549.379 69.9056 549.763 68.228 550.931C63.9476 553.932 60.3182 557.779 55.9202 560.632C51.4909 563.594 46.8027 566.164 42.4205 569.188C34.1733 574.674 27.588 582.126 20.7363 589.17C14.99 595.47 8.31084 600.956 3.19166 607.812C-0.132281 612.028 -2.00567 619.566 3.44277 622.873C7.1822 625.122 11.674 624.338 15.6016 626.25C20.0309 628.444 22.9708 632.903 27.6196 634.752C30.5202 635.99 33.6324 636.547 36.7525 636.884C29.6343 642.831 19.8037 645.605 14.5669 653.668C12.3092 657.296 10.4198 661.716 11.0235 666.057C11.3763 667.867 12.7323 669.176 13.7436 670.649C16.6363 675.891 16.213 679.175 22.5159 681.894C29.0462 684.879 32.9895 691.281 40.8212 687.481C39.6845 691.696 37.9363 695.724 36.7055 699.916C35.6001 702.612 35.5452 706.514 39.0416 707.267C41.464 707.886 43.3454 706.64 45.807 706.499C48.0491 707.094 48.8332 708.975 51.0439 710.15C54.4384 712.101 58.4678 712.313 62.2856 711.953C62.6697 714.852 61.4392 716.928 60.2006 719.671C58.1545 723.589 55.9592 727.562 54.8538 731.872C53.6387 736.973 51.9534 745.381 57.0648 748.813C59.7223 750.623 63.1091 750.035 66.1429 750.325C72.7203 751.524 70.1487 763.294 68.4868 767.713C67.5695 771.255 63.4852 778.065 67.1776 780.807C68.9964 782.249 71.5992 782.163 73.3317 783.754C77.7453 788.048 75.9734 795.9 80.9828 799.818C85.8668 803.689 92.3345 800.703 97.9476 801.251C100.997 801.432 103.929 802.372 106.986 802.466C113.376 802.584 118.871 798.783 123.912 795.288C122.815 798.893 118.354 804.793 122.046 807.936C123.841 809.221 126.334 808.617 128.224 807.802C129.698 807.121 131.007 806.047 132.614 805.671C135.193 805.648 136.925 813.154 138.242 815.333C140.845 821.414 145.518 826.233 150.747 830.159C159.103 837.18 164.481 836.686 174.516 837.806C176.891 838.324 178.639 839.272 180.74 840.667C183.829 842.814 186.502 845.595 189.905 847.257C198.011 851.457 206.54 846.23 213.219 841.654C216.441 839.726 220.643 836.224 224.265 839.248C226.938 841.881 229.816 844.569 230.999 848.244C231.948 851.543 231.925 855.375 233.743 858.399C235.782 861.714 239.999 863.046 243.739 862.795C252.127 862.372 258.249 855.837 264.521 851.026C265.532 850.501 266.496 849.349 267.727 849.647C269.35 850.501 269.977 851.794 271.286 853.392C276.813 860.813 282.473 870.208 292.453 871.572C298.481 872.653 304.322 871.047 310.382 871.729C313.392 872.371 316.089 874.745 318.684 876.344C321.482 878.013 324.54 879.376 327.793 879.784C338.416 881.116 349.195 876.14 356.901 869.056C358.885 867.105 360.037 864.582 361.433 862.223C362.899 860.468 364.874 859.191 366.936 858.258C368.912 857.177 370.503 858.697 371.914 859.959C373.169 861.072 374.454 862.121 375.943 862.921C380.13 865.264 384.983 866.055 389.702 866.502C397.008 867.168 404.354 866.823 411.644 866.157C414.232 866.024 416.999 865.663 419.351 867.168C421.53 868.578 423.467 870.459 425.991 871.25C434.567 874.244 442.305 867.223 448.153 861.8C452.528 857.921 455.154 852.538 459.614 848.785C463.189 846.316 466.49 851.402 469.21 853.173C471.922 855.289 474.972 857.193 478.406 857.796C488.903 859.904 499.407 851.99 508.533 847.672C509.967 846.975 511.378 846.269 512.844 845.642C514.232 844.992 515.878 844.647 516.905 843.433C519.547 839.883 517.854 834.844 520.033 831.162C521.162 830.887 522.275 831.452 523.263 831.961C525.701 833.144 528.571 834.868 531.252 835.785C540.142 839.115 549.902 837.822 558.674 834.758C568.826 830.942 585.987 829.782 586.591 815.944C586.818 810.482 583.4 806.267 581.393 801.4C580.076 797.882 584.952 796.135 587.884 796.511C590.636 797.012 592.368 798.916 594.806 800.64C604.394 807.708 615.165 798.525 622.401 792.201C624.949 789.787 628.43 787.186 631.573 785.102C636.042 779.75 635.728 770.597 634.702 764.046C634.6 762.722 633.714 761.304 634.121 760.018C635.015 758.53 636.724 757.511 638.323 756.633C640.722 755.528 643.301 754.917 645.763 753.969C650.231 752.198 654.496 749.51 657.554 745.741C663.269 739.167 662.257 729.944 661.05 721.951C659.819 712.736 655.068 704.516 651.478 696.069H651.431ZM294.397 75.4973C294.342 75.1447 294.28 74.7921 294.209 74.4395C294.201 74.3846 294.193 74.3376 294.185 74.2827C294.185 74.2592 294.178 74.2357 294.17 74.2122C293.942 73.1465 293.739 72.0808 293.55 71.0151C292.908 67.4497 292.39 63.8608 291.544 60.3425C290.117 54.3793 287.075 48.9568 285.656 42.9858C284.974 39.8122 283.971 36.7405 282.92 33.6766C282.873 33.5434 282.826 33.4023 282.779 33.2691C282.411 32.1956 282.034 31.1221 281.666 30.0485C281.376 29.2023 281.086 28.3481 280.811 27.494C280.153 25.488 279.549 23.4741 279.063 21.4211C278.718 19.2505 278.365 16.8684 279.079 14.7448C279.228 14.5019 279.369 14.259 279.502 14.0004C279.776 13.4441 279.486 12.731 278.977 12.4254C278.154 12.1276 277.558 12.4175 277.119 12.9817C276.813 11.3048 276.484 9.62793 276.1 7.95886C280.592 7.34766 285.076 6.52486 289.6 6.18008C290.728 6.14873 292.092 5.99202 293.214 6.43084C293.488 6.7051 293.809 6.90885 294.154 7.04207C294.272 9.58093 295.322 12.8407 295.581 14.6116C296.357 17.7695 296.373 21.0763 296.922 24.2734C297.604 27.3843 298.364 30.4952 299.336 33.5199C301.053 37.1009 303.358 40.6898 306.58 43.0876C312.859 47.1232 320.785 47.2877 327.386 50.6886C330.028 51.8875 331.376 54.583 333.297 56.6047C334.653 58.2268 336.331 59.7078 337.005 61.7765C337.334 62.5366 337.922 62.8814 338.541 62.9284C339.584 63.2183 340.893 62.6071 340.909 61.2279C340.94 58.979 342.273 57.0122 343.19 55.0297C345.691 50.0852 349.822 46.0261 354.118 42.6018C358.077 39.6868 362.828 38.2607 367.085 35.8864C370.707 33.6139 373.709 30.5344 376.908 27.7291C383.477 22.1969 384.34 12.9896 384.003 4.94982C384.003 4.77743 384.003 4.60506 384.003 4.43267C384.199 4.23677 384.34 3.97034 384.387 3.64907C387.53 4.02519 390.674 3.37482 393.825 3.51587C394.68 3.53938 395.495 3.82146 396.177 4.33864C394.758 8.28014 393.778 14.2433 393.441 15.7243C392.077 21.9539 390.752 28.2463 389.576 34.5699C389.576 34.5699 389.576 34.5621 389.576 34.5542C389.506 34.9382 389.435 35.3143 389.365 35.6983C389.349 35.7923 389.333 35.8785 389.318 35.9725C389.286 36.1449 389.255 36.3095 389.223 36.4819C388.04 43.025 387.013 49.6072 386.276 56.1894C385.892 61.3925 386.08 66.6348 385.186 71.7909C383.563 83.4509 383.665 95.2675 382.913 106.998C382.466 113.941 381.988 120.883 382.733 127.818C382.787 128.523 382.819 129.237 382.85 129.957C382.827 129.957 382.795 129.95 382.772 129.942C382.748 129.942 382.717 129.942 382.693 129.942C382.662 129.942 382.638 129.942 382.607 129.934C382.395 129.934 382.168 129.981 381.941 130.122C378.358 132.34 374.673 134.377 370.981 136.407C363.345 140.317 355.247 143.2 347.196 146.139C344.421 146.922 341.7 148.051 338.808 148.333C328.687 148.85 320.809 141.288 312.044 137.417C308.689 136.077 305.153 133.484 301.421 134.056C300.645 134.322 300.097 135.106 299.846 135.858C299.83 135.921 299.822 135.983 299.814 136.046C299.446 135.693 298.983 135.505 298.513 135.458C298.536 135.082 298.56 134.722 298.623 134.4C299.438 124.88 297.494 115.422 296.663 105.971C296.114 100.118 296.483 94.2332 296.051 88.3797C295.369 84.0934 295.126 79.7522 294.413 75.4738L294.397 75.4973Z" fill="#EA3826"/>
<path d="M265.429 816.916C266.213 817.143 267.028 816.649 267.279 815.866C268.494 812.002 269.505 808.069 270.407 804.119C273.848 789.012 277.086 773.857 281.79 759.078C290.546 731.221 301.553 704.093 309.22 675.883C312.387 665.211 314.794 654.295 315.617 643.176C317.122 626.587 316.832 609.896 317.891 593.276C320.062 569.972 326.122 547.216 328.09 523.881C329.36 511.586 330.238 499.252 330.536 486.903C330.747 477.178 330.23 467.446 330.308 457.714C330.779 432.96 331.171 408.543 330.645 383.773C330.042 365.884 333.201 348.198 334.236 330.394C335.122 313.194 335.176 295.971 336.548 278.787C337.756 262.511 337.685 246.181 337.873 229.874C337.999 223.284 337.842 216.694 337.803 210.096C337.803 209.297 337.144 208.639 336.345 208.639C335.545 208.639 334.894 209.305 334.886 210.096C334.745 217.885 334.589 225.674 334.683 233.471C334.887 248.179 334.534 262.879 334.259 277.58C334.283 296.731 332.213 315.765 330.057 334.767C328.388 351.826 328.097 368.963 327.141 386.077C326.82 395.512 326.31 404.938 326.961 414.365C327.823 433.767 329.728 453.169 328.686 472.61C328.082 487.686 326.334 502.677 324.601 517.651C322.289 540.07 319.913 562.481 317.522 584.892C316.338 596.27 314.794 607.601 313.532 618.971C311.337 636.876 310.506 655.032 306.226 672.608C302.314 690.121 295.101 706.671 289.355 723.628C284.502 738.854 280.927 754.439 277.18 769.962C274.13 781.944 270.352 793.729 266.879 805.593C266.032 808.751 265.123 811.877 264.37 815.051C264.182 815.85 264.605 816.681 265.421 816.9L265.429 816.916Z" fill="#EA3826"/>
<path d="M270.26 676.941C273.286 669.199 276.1 661.465 278.774 653.582C280.812 646.639 282.678 639.556 284.559 632.558C285.97 627.284 287.428 622.019 288.871 616.745C289.333 615.053 289.765 613.352 290.211 611.652C290.282 611.385 290.125 611.095 289.851 611.025C289.584 610.954 289.294 611.111 289.223 611.385C288.831 612.843 288.448 614.3 288.032 615.75C286.754 619.981 285.382 624.189 284.073 628.413C280.028 639.156 276.053 649.931 272.345 660.799C269.837 667.922 267.877 675.28 265.282 682.387C262.193 691.595 258.438 700.551 254.824 709.562C250.614 720.87 246.318 732.154 241.677 743.296C234.183 757.621 226.868 772.054 218.809 786.065C215.627 790.955 212.608 795.688 209.151 800.452C208.798 800.961 208.845 801.651 209.355 802.043C209.841 802.419 210.57 802.333 210.947 801.839C212.224 800.147 213.541 798.485 214.795 796.777C218.323 791.629 221.695 786.355 224.517 780.776C231.525 767.925 237.812 754.706 244.1 741.494C248.913 731.652 253.844 721.857 257.709 711.584C262.177 700.136 265.65 688.343 270.252 676.949L270.26 676.941Z" fill="#EA3826"/>
<path d="M504.552 804.339C502.89 800.93 500.679 798.062 498.586 794.865C488.34 780.274 478.446 765.394 468.843 750.333C461.921 739.66 455.171 728.878 448.115 718.284C438.136 703.693 428.673 688.758 420.418 673.117C412.077 657.766 403.791 642.384 395.481 627.018C391.42 616.792 387.132 606.872 383.69 596.379C381.503 590.111 379.316 583.857 377.411 577.494C375.114 569.925 373.891 562.081 372.974 554.237C372.331 549.371 371.986 544.474 371.586 539.584C371.516 538.753 370.661 538.174 369.862 538.275C369.148 538.369 368.498 539.035 368.537 539.788C368.843 545.108 368.921 550.46 369.736 555.734C371.249 568.828 374.973 581.522 379.833 593.754C383.816 604.599 388.386 615.193 392.941 625.803C396.924 634.87 400.875 643.959 404.998 652.963C408.557 659.6 412.124 666.221 415.683 672.859C425.436 690.262 436.278 707.024 446.155 724.365C450.883 731.723 456.182 738.704 461.121 745.929C466.342 753.091 471.931 759.979 477.192 767.118C486.583 780.376 496.328 793.509 503.885 807.92C504.175 808.413 504.842 808.586 505.328 808.296C505.782 808.029 505.971 807.457 505.767 806.972C505.391 806.078 504.967 805.209 504.544 804.339H504.552Z" fill="#EA3826"/>
<path d="M641.208 671.26C641.474 670.296 640.886 669.34 639.953 669.05C637.766 668.369 635.563 667.734 633.392 666.989C627.198 664.662 621.162 661.888 615.518 658.425C602.379 650.479 590.439 640.222 578.327 630.638C568.12 622.489 558.164 614.057 548.42 605.359C531.761 590.056 514.075 575.802 498.49 559.378C486.143 545.422 477.598 528.739 467.994 512.895C456.619 493.751 444.648 474.945 434.136 455.3C431.768 450.207 429.4 445.121 427.033 440.028C423.231 429.12 419.985 418.032 417.21 406.811C413.635 391.891 408.877 377.285 405.114 362.42C400.904 346.066 398.529 329.36 395.824 312.716C394.319 303.775 392.861 294.827 391.709 285.839C389.631 269.532 389.984 253.092 388.98 236.723C388.063 229.537 386.989 222.391 385.546 215.291C385.405 214.508 384.723 213.936 383.908 214.045C383.132 214.147 382.552 214.9 382.662 215.683C384.081 225.408 385.86 235.093 386.464 244.911C387.02 255.09 387.005 265.316 388.094 275.464C390.611 291.826 393.77 308.101 394.633 324.666C395.056 329.195 395.605 333.709 396.075 338.23C397.267 343.394 398.152 348.644 399.563 353.753C403.295 366.025 406.58 378.421 409.222 390.967C413.369 410.094 420.911 428.219 428.476 446.195C434.849 461.577 442.061 476.63 450.301 491.103C458.665 505.552 467.869 519.32 477.284 533.119C483.665 542.06 489.804 551.213 496.734 559.746C503.296 568.24 510.641 576.076 518.026 583.857C531.345 597.421 546.389 609.113 561.065 621.157C570.112 629.126 579.205 637.056 588.472 644.774C596.382 651.529 604.825 657.767 613.958 662.782C621.829 667.295 630.334 669.81 639.005 672.506C639.922 672.796 640.965 672.169 641.215 671.252L641.208 671.26Z" fill="#EA3826"/>
<path d="M450.199 537.547C459.951 552.169 470.15 566.501 480.012 581.052C491.458 597.688 505.702 612.146 519.17 627.136C522.463 630.983 526.32 634.259 530.02 637.699C533.595 641.154 537.468 644.257 541.364 647.345C543.379 648.841 545.495 645.856 543.637 644.398C539.435 640.833 535.32 637.205 531.196 633.53C524.478 627.849 518.449 621.447 512.201 615.272C504.189 605.728 496.287 596.09 488.596 586.287C480.616 576.507 472.659 566.72 465.117 556.588C453.852 539.874 443.747 522.439 433.234 505.255C430.631 500.906 427.817 496.682 425.097 492.404C424.72 491.816 423.96 491.581 423.34 491.941C422.745 492.294 422.517 493.093 422.878 493.697C425.245 497.599 427.581 501.517 429.988 505.396C436.801 516.061 443.159 527.007 450.175 537.539L450.199 537.547Z" fill="#EA3826"/>
<path d="M594.689 727.899C580.758 719.122 568.513 708.011 556.26 697.072C544.893 687.081 534.27 676.291 523.655 665.509C512.79 654.57 502.7 642.714 493.066 630.576C484.889 619.88 477.34 608.705 469.602 597.688C462.335 587.149 454.942 576.641 448.585 565.513C441.89 553.791 435.986 541.645 429.762 529.679C421.515 513.913 413.299 498.069 407.67 481.135C405.663 473.566 403.445 465.996 401.626 458.364C398.083 443.374 393.935 428.54 390.172 413.597C388.487 406.231 386.645 398.897 384.669 391.601C384.457 390.802 383.587 390.316 382.796 390.536C381.973 390.763 381.541 391.601 381.729 392.408C383.352 399.555 384.991 406.701 386.958 413.769C391.748 432.027 396.64 450.262 402.128 468.331C406.761 484.513 411.143 500.812 418.003 516.233C425.293 531.631 434.364 546.119 442.243 561.219C444.696 566.148 447.079 571.108 449.752 575.927C452.355 580.668 454.668 585.589 457.976 589.907C470.488 608.604 486.237 624.808 500.544 642.102C516.216 661.583 531.887 681.329 550.6 698.02C565.197 710.855 580.648 722.923 597.981 731.872C607.53 736.863 616.945 742.489 627.301 745.639C627.881 745.82 628.54 745.436 628.697 744.848C628.861 744.26 628.501 743.602 627.905 743.445C624.008 742.497 620.222 741.181 616.577 739.512C609.004 736.174 601.745 732.224 594.689 727.899Z" fill="#EA3826"/>
<path d="M242.249 487.13C245.04 479.106 247.062 470.823 249.469 462.674C251.053 455.402 252.629 448.122 254.487 440.906C257.881 428.321 261.181 415.713 264.239 403.042C267.939 384.69 272.619 366.573 278.028 348.652C279.596 343.089 281.227 337.549 282.873 332.009C283.101 331.249 282.615 330.426 281.862 330.214C281.086 330.003 280.302 330.473 280.074 331.233C277.723 338.991 275.473 346.78 273.231 354.576C269.099 371.22 264.247 387.699 260.374 404.405C257.168 419.38 255.168 434.59 251.28 449.408C244.765 472.367 236.51 494.825 228.287 517.244C221.772 535.792 212.287 553.062 202.456 570.027C197.838 578.631 193.425 587.352 188.4 595.729C184.903 600.901 181.07 605.814 176.805 610.382C172.336 615.397 167.876 620.436 163.556 625.576C155.779 635.708 148.505 646.35 138.886 654.86C128.216 663.652 116.763 671.456 105.881 679.99C102.228 682.771 98.6295 685.639 95.0155 688.484C94.5373 688.852 94.4432 689.549 94.8195 690.035C95.1958 690.521 95.8935 690.592 96.3717 690.231C97.8377 689.134 99.304 688.037 100.77 686.932C105.254 683.625 109.605 680.138 113.995 676.706C122.125 670.171 130.85 664.38 138.533 657.312C144.985 651.38 150.692 644.712 156.477 638.145C165.681 627.7 175.3 617.607 183.759 606.519C190.438 597.602 196.576 588.261 202.04 578.56C209.825 564.934 215.783 550.382 221.843 535.94C229.267 519.932 236.714 503.891 242.257 487.122L242.249 487.13Z" fill="#EA3826"/>
<path d="M298.482 183.618C295.095 195.631 291.795 207.698 289.694 220.009C288.871 225.486 288.518 231.018 288.463 236.558C288.063 240.437 287.781 244.332 287.562 248.226C287.546 250.514 290.972 250.718 291.27 248.477C292.736 239.215 292.289 229.812 293.621 220.55C295.558 208.38 298.591 196.422 301.814 184.543C302.354 182.318 299.132 181.479 298.482 183.626V183.618Z" fill="#EA3826"/>
<path d="M191.567 639.587C196.49 631.963 200.018 623.562 204.635 615.773C205.631 614.073 206.626 612.373 207.614 610.664C207.795 610.359 207.685 609.959 207.387 609.787C207.081 609.606 206.681 609.716 206.509 610.014C202.432 617.427 197.658 624.369 192.993 631.422C188.682 638.474 184.566 645.644 180.341 652.744C174.163 661.731 167.844 670.618 161.369 679.402C157.833 684.589 154.643 690.027 150.747 694.956C143.55 704.618 135.561 713.653 127.761 722.829C125.15 725.791 122.665 728.87 120.133 731.903C119.843 732.255 119.937 732.804 120.282 733.07C120.651 733.36 121.152 733.266 121.458 732.922C125.158 728.698 128.812 724.443 132.34 720.078C139.999 710.754 147.525 701.319 154.698 691.618C167.915 674.966 179.949 657.398 191.575 639.603L191.567 639.587Z" fill="#EA3826"/>
<path d="M95.6648 601.645C91.5177 605.187 87.2844 608.635 82.7453 611.683C76.4424 616.173 69.0576 619.378 62.3784 623.304C60.3479 624.393 58.4353 625.686 56.5382 626.995C56.0051 627.355 55.9502 628.17 56.3265 628.656C56.6871 629.126 57.3613 629.251 57.863 628.954C59.2036 628.154 60.5439 627.355 61.9079 626.587C64.8634 624.942 67.7876 623.241 70.7901 621.658C90.1928 612.145 104.767 595.792 120.649 581.585C128.622 574.666 136.548 567.731 144.285 560.514C150.737 553.524 157.017 546.347 163.116 539.043C168.211 532.9 173.55 526.96 178.654 520.833C182.511 515.34 186.783 510.121 190.303 504.408C197.257 493.751 203.066 482.428 209.62 471.544C220.979 453.435 230.904 434.488 239.661 414.992C246.771 399.39 252.463 383.17 258.24 367.035C258.334 366.769 258.24 366.479 257.966 366.362C257.715 366.26 257.393 366.377 257.291 366.636C255.888 370.609 254.454 374.558 252.753 378.413C248.127 389.94 242.499 401.028 237.191 412.249C231.672 423.556 226.396 434.966 221.238 446.445C218.157 453.466 215.013 460.456 210.921 466.96C198.55 487.772 183.812 507.08 169.458 526.545C158.201 541.833 144.426 555.029 131.186 568.569C119.889 580.175 108.247 591.403 95.6805 601.629L95.6648 601.645Z" fill="#EA3826"/>
<path d="M147.525 525.127C152.01 519.681 156.604 514.321 160.814 508.655C172.643 494.018 182.482 477.985 192.015 461.804C192.65 460.699 190.98 459.798 190.361 460.84C185.673 468.809 180.491 476.45 175.285 484.09C170.574 490.907 165.87 497.716 160.594 504.103C158.031 507.339 155.483 510.575 152.935 513.819C150.411 517.032 147.855 520.214 145.323 523.426C144.853 524.022 144.978 524.923 145.574 525.385C146.185 525.863 147.047 525.722 147.534 525.135L147.525 525.127Z" fill="#EA3826"/>
<path d="M324.437 189.911C324.343 187.834 324.86 169.913 321.983 171.191C321.489 171.332 321.184 171.81 321.239 172.311C322.579 182.012 322.101 191.956 322.266 201.782C322.305 213.991 322.783 226.184 322.618 238.392C322.634 239.364 324.061 239.301 324.069 238.392C324.069 235.838 324.053 233.283 324.053 230.721C324.108 217.117 324.531 203.514 324.445 189.903L324.437 189.911Z" fill="#EA3826"/>
<path d="M397.26 208.929C405.671 234.623 410.532 261.696 413.793 288.534C415.973 304.849 419.273 320.999 421.531 337.306C421.891 339.39 424.816 338.81 424.604 336.883C423.93 331.123 423.232 325.364 422.534 319.612C420.574 303.313 417.337 287.202 413.84 271.17C411.598 259.267 409.356 247.356 407.294 235.414C406.456 230.078 405.123 224.851 403.735 219.64C399.964 205.324 394.516 191.533 388.252 178.141C387.194 175.68 386.378 173.118 385.626 170.548C385.383 169.725 384.528 169.216 383.682 169.451C382.968 169.647 382.388 170.423 382.537 171.183C383.07 174.356 384.176 177.412 385.422 180.366C389.718 189.73 393.881 199.188 397.26 208.929Z" fill="#EA3826"/>
<path d="M299.641 123.07C303.82 125.311 307.763 127.991 311.738 130.553C313.948 131.634 316.167 132.677 318.244 134.001C321.27 135.615 324.273 137.284 327.613 138.17C329.886 139.11 332.167 140.042 334.692 139.839C338.094 139.917 341.316 138.538 344.452 137.37C346.89 136.313 349.556 135.881 351.923 134.659C355.529 132.708 359.261 131.031 362.953 129.26C368.974 125.953 374.987 122.654 381.196 119.732C381.658 119.536 381.878 118.987 381.682 118.525C381.509 118.125 381.015 117.851 380.592 117.992C378.789 118.564 377.143 119.489 375.379 120.155C370.848 121.667 366.614 123.939 362.295 125.969C357.865 127.889 353.499 129.973 349.093 131.924C343.699 133.1 338.533 135.944 332.897 135.521C331.407 135.38 330.074 134.589 328.624 134.236C324.634 133.303 321.176 131.391 317.523 129.519C312.937 127.81 308.822 125.264 304.431 123.124C303.185 122.529 301.68 121.557 300.339 121.024C299.163 120.844 298.63 122.474 299.634 123.07H299.641Z" fill="#EA3826"/>
<path d="M430.686 838.355C431.509 839.06 432.693 838.997 433.532 838.339C435.209 837.117 435.319 834.727 436.628 833.199C439.333 830.072 443.472 835.518 445.142 837.555C446.059 838.707 447.36 840.572 448.913 839.138C449.587 838.464 449.556 837.391 448.913 836.709C447.478 835.173 446.098 833.567 444.483 832.219C441.975 829.986 437.499 828.144 434.99 831.31C433.524 832.721 433.43 835.071 432.097 836.49C425.018 831.71 424.602 839.632 424.32 844.78C419.812 837.916 413.188 836.866 408.108 843.832C401.46 838.065 395.259 838.457 389.387 844.984C389.082 841.936 389.207 838.527 387.757 835.667C386.126 831.733 381.713 831.365 378.71 834.021C376.006 836.012 368.911 844.929 374.375 846.912C375.661 847.1 377.863 847.28 377.918 845.47C377.926 844.193 376.641 843.895 375.606 843.903C376.084 841.544 381.109 834.304 383.876 836.004C386.369 839.029 385.35 843.299 386.173 846.888C386.589 848.777 389.011 849.341 390.548 848.447C391.935 847.539 393.025 846.253 394.256 845.141C396.953 842.382 401.131 842.868 404.04 845.023C405.278 845.752 406.141 847.1 407.458 847.664C408.046 847.828 408.634 847.75 409.19 847.499C411.228 846.394 412.2 843.965 414.325 842.954C419.083 841.207 422.847 847.633 423.999 851.449C424.524 853.173 427.025 852.82 427.064 851.033C427.307 846.559 426.241 841.763 428.06 837.516L428.052 837.548C428.938 837.093 429.878 837.947 430.717 838.355H430.686Z" fill="#EA3826"/>
<path d="M521.798 817.676C508.158 814.51 504.026 811.141 497.605 826.35C493.756 823.835 488.496 824.25 486.411 828.764C482.609 825.167 476.753 819.94 471.414 823.576C468.019 826.209 466.248 832.643 468.803 836.325C469.728 837.517 471.351 837.611 472.739 837.446C475.553 836.796 474.636 833.113 471.814 833.489C471.406 831.318 472.119 828.678 473.703 827.102C476.173 825.551 479.065 828.372 480.955 829.829C482.326 831.067 483.612 832.376 484.851 833.747C485.344 834.359 485.917 834.931 486.74 835.025C489.139 835.268 490.001 832.69 490.738 830.903C493.263 826.366 497.229 834.86 500.773 830.025C502.246 828.051 502.842 825.606 504.034 823.467C505.767 819.878 507.687 818.452 511.732 819.494C515.221 820.395 518.733 821.178 522.237 821.993C526.149 822.753 525.789 817.793 526.439 815.294C527.686 815.599 528.736 816.986 530.085 816.124C530.876 815.662 531.206 814.745 531.002 813.875C530.806 813.06 530.116 812.575 529.418 812.183C528.423 811.454 527.592 810.537 526.753 809.636C523.985 806.196 521.391 801.792 521.689 797.247C523.742 795.837 526.47 796.652 528.783 796.832C533.526 797.741 538.41 797.616 542.941 799.528C545.701 800.821 546.892 803.751 548.899 805.843C550.06 806.925 552.427 808.422 553.407 806.376C554.113 804.496 552.113 804.151 551.024 803.242C549.119 801.267 547.692 798.752 545.176 797.451C540.582 794.998 535.157 795.32 530.163 794.317C526.181 793.643 518.263 792.24 518.607 798.431C518.835 803.328 521.038 808.006 523.923 811.901C522.143 813.201 522.104 815.678 521.798 817.668V817.676Z" fill="#EA3826"/>
<path d="M611.968 761.523C612.36 760.23 611.223 759.329 610.33 758.616C608.683 757.331 606.661 755.286 604.395 756.1C602.161 754.377 599.598 752.465 598.594 749.698C600.962 748.366 603.761 748.883 606.449 748.711C607.147 748.711 607.735 748.123 607.735 747.426C607.735 746.729 607.147 746.133 606.449 746.141C604.803 746.157 603.157 746.18 601.51 746.313C590.613 746.783 597.904 755.309 602.671 758.898C602.765 760.763 602.906 762.628 603.18 764.477C597.489 764.407 592.605 761.272 587.211 759.971C580.548 758.153 575.429 763.882 574.668 770.096C571.007 767.275 565.308 766.593 561.67 769.798C557.829 773.559 558.19 779.546 559.083 784.443C560.001 787.766 560.416 792.569 564.461 793.415C567.613 794.536 568.051 789.176 568.733 787.147C568.984 786.136 568.42 785.078 567.401 784.796C565.308 784.255 564.876 786.661 564.39 788.134C563.113 783.628 561.294 776.968 564.673 773.042C568.303 770.542 573.273 773.63 574.911 777.156C575.272 778.402 576.573 779.17 577.843 778.825C579.05 778.496 579.921 777.124 579.505 775.894C579.254 775.252 579.207 774.562 579.136 773.873C579.05 770.769 579.631 767.126 582.178 765.065C586.098 762.518 591.852 767 595.937 767.933C598.484 768.716 601.126 769.163 603.792 769.296C608.417 769.86 608.378 765.512 607.578 762.205C608.919 763.169 611.404 763.482 611.984 761.531L611.968 761.523Z" fill="#EA3826"/>
<path d="M625.255 726.856C626.768 726.488 626.933 724.208 625.467 723.651C623.311 722.766 618.294 720.783 618.686 724.944C618.952 726.19 619.673 727.303 620.097 728.502C620.575 729.646 621.085 730.774 621.641 731.871C622.261 733.18 622.927 734.771 624.33 735.468C626.039 736.456 626.47 733.823 626.604 732.639C626.729 731.558 626.8 730.484 626.862 729.395C626.894 728.886 626.415 728.455 625.922 728.455C625.428 728.455 625.059 728.808 624.989 729.262C624.816 730.367 624.699 731.487 624.542 732.592C623.397 730.328 622.488 727.969 621.673 725.501C622.943 725.759 623.915 727.146 625.271 726.841L625.255 726.856Z" fill="#EA3826"/>
<path d="M632.483 680.334C633.518 680.687 634.67 679.942 634.944 678.939C635.571 675.774 630.593 675.656 628.516 676.079C624.149 677.733 625.545 684.095 626.399 687.614C621.837 687.731 620.057 692.605 621.06 696.5C622.252 702.118 627.065 705.942 631.416 709.233C632.498 709.931 634.286 709.523 634.301 708.05C634.333 706.843 634.388 705.637 634.364 704.43C634.349 703.638 633.714 702.972 632.906 702.972C631.683 702.972 631.354 704.156 631.385 705.174C628.532 702.628 625.364 699.846 624.557 695.936C624.298 694.392 624.149 691.783 626.172 691.477C626.744 691.383 627.677 691.485 628.273 691.72C628.963 692.527 630.249 692.621 631.079 691.978C632.984 690.482 630.915 688.593 630.436 686.94C629.825 684.722 629.088 682.176 629.825 679.919C630.734 679.825 631.62 680.052 632.467 680.35L632.483 680.334Z" fill="#EA3826"/>
<path d="M615.762 603.996C615.19 603.839 614.633 603.941 614.116 604.207C609.114 606.731 612.172 613.399 614.304 616.988C609.639 617.176 608.103 620.969 609.271 625.075C610.494 630.756 613.293 636.28 617.738 640.104C615.433 642.173 617.73 645.409 618.859 647.533C621.461 651.819 629.254 659.757 634.404 659.961C636.301 659.835 636.011 658.221 636.098 656.842C637.038 655.847 636.231 654.076 634.867 654.115C633.848 654.146 633.056 654.961 632.852 655.948C627.866 652.728 623.061 648.442 620.724 642.8C622.504 642.541 624.134 643.889 625.961 643.395C628.901 642.667 627.827 639.172 625.122 639.062C618.866 639.344 612.352 627.214 613.175 621.674C613.183 621.658 613.191 621.642 613.198 621.619C613.222 621.58 613.245 621.541 613.269 621.501C615.174 620.835 617.393 621.721 619.157 620.718C620.944 619.48 620.128 617.105 618.819 615.844C617.385 613.532 615.762 611.017 615.754 608.204C617.753 607.483 617.886 604.615 615.754 603.996H615.762Z" fill="#EA3826"/>
<path d="M44.1522 609.434C43.1096 609.52 42.1532 609.92 41.2595 610.453C39.9738 611.26 40.7422 612.968 42.1376 612.984C43.1019 613.133 43.9643 612.576 44.7796 612.145C46.1123 611.62 48.0171 611.84 49.2479 612.655C51.1921 613.846 51.4273 616.181 51.6625 618.281C51.7174 619.801 51.5058 621.306 51.3804 622.818C51.3255 623.351 51.6705 623.845 52.2114 623.915C52.7132 623.986 53.2695 623.609 53.3165 623.077C53.3793 621.933 53.4969 620.781 53.5596 619.629C53.7242 615.82 53.0267 611.119 48.8012 609.755C51.7802 607.624 55.5119 604.16 55.3943 600.219C55.0102 598.103 53.3166 596.223 51.2078 595.713C46.0337 594.632 40.6793 594.922 35.4346 595.212C33.8432 595.298 31.9696 595.079 30.5507 596.027C29.3747 596.912 29.0457 598.777 30.7547 599.239C31.86 599.702 34.2667 600.164 34.3686 598.299C38.351 598.158 42.5766 597.907 46.6453 598.135C47.9388 598.323 49.734 598.338 51.0275 598.863C52.2818 599.537 52.8619 600.995 52.0074 602.217C50.3533 605.477 47.2961 607.71 44.1446 609.434H44.1522Z" fill="#EA3826"/>
<path d="M95.0852 779.773C95.4301 780.713 96.4569 781.325 97.429 781.325C99.4751 781.293 100.197 779.052 101.255 777.649C102.933 775.048 104.446 772.321 105.747 769.508C106.264 767.839 107.401 766.632 108.718 765.519C112.175 762.565 118.98 759.595 122.727 763.427C124.075 764.838 123.715 767.204 125.385 768.372C127.274 769.759 129.626 769.147 131.837 769.861C136.093 770.864 137.748 764.759 133.6 763.482C132.456 763.184 131.288 763.028 130.127 762.855C126.756 753.648 115.954 753.138 108.451 757.558C108.412 754.204 106.938 750.772 103.865 749.158C101.035 747.692 97.6955 748.335 94.6538 748.57C97.9542 744.104 100.996 739.269 102.141 733.76C104.524 722.688 100.486 712.626 87.5278 714.954C94.1443 702.557 91.9494 686.305 74.3419 691.892C75.4316 684.417 69.7558 678.61 62.324 678.838C68.3447 672.655 65.9066 662.852 57.0637 661.403C68.039 651.913 61.689 640.457 47.8366 645.08C44.787 646.052 41.6042 648.7 42.153 652.211C42.1765 653.684 43.1016 655.228 44.7636 654.797C45.7278 654.53 46.2453 653.621 46.1669 652.665C46.0179 651.725 46.0176 650.808 46.8015 650.142C46.7937 650.166 46.7703 650.189 46.7468 650.213C46.7076 650.252 46.6683 650.299 46.6369 650.338C49.3494 648.199 53.5358 647.674 56.7892 648.74C60.0583 650.589 57.777 654.734 55.8407 656.748C54.9078 657.861 53.5908 658.981 52.36 659.859C51.6152 660.345 50.8468 660.783 50.0629 661.207C48.8791 661.841 48.7774 663.471 49.6476 664.388C51.2468 666.073 53.6849 664.701 55.6761 665.109C60.8972 665.281 63.7664 670.524 60.5915 674.826C59.5488 676.424 58.0278 677.615 56.4834 678.697C55.1899 679.308 53.763 680.663 54.6567 682.184C55.0487 682.858 55.8564 683.273 56.6403 683.147C59.6742 682.677 62.7784 682.215 65.828 682.771C70.7433 683.751 73.8167 690.874 70.0145 694.549C69.1914 695.575 70.3673 697.111 71.5667 696.563C72.3115 696.241 72.8913 695.693 73.2598 694.972C81.4834 690.874 89.6994 693.405 87.7552 703.858C87.1202 706.734 86.046 709.241 84.6741 711.89C84.1881 713.057 83.2552 714.436 82.7613 715.698C82.291 717.359 83.7177 718.833 85.215 719.295C87.4493 719.89 89.8011 719.365 92.0746 719.679C96.5431 720.157 97.2643 725.329 96.9899 728.996C96.6372 734.434 94.1678 739.441 91.1574 743.884C90.0207 745.647 88.4686 747.403 87.7552 749.44C86.7831 751.728 89.1505 753.452 91.1731 753.805C94.8106 754.306 98.9185 751.712 102.36 753.436C104.634 755.011 104.477 758.334 104.132 760.779C100.518 764.085 93.2035 774.907 95.0928 779.773H95.0852Z" fill="#EA3826"/>
<path d="M253.513 841.646C256.877 841.45 255.771 837.657 255.795 835.393C255.701 831.679 255.528 827.909 254.454 824.328C251.569 814.071 240.665 809.377 232.551 817.331C227.847 808.5 216.872 809.487 209.801 814.816C206.108 817.401 203.341 820.967 200.511 824.407C199.57 814.91 193.604 803.555 182.417 805.812C184.62 793.564 175.699 780.956 162.489 785.971C158.444 787.248 153.544 792.381 157.903 796.111C159.228 797.13 160.961 795.406 159.941 794.074C158.664 792.883 159.62 791.574 160.694 790.673C164.449 787.766 170.156 787.241 174.131 790.022C179.227 793.698 180.552 801.157 178.984 806.964C176.357 808.312 172.532 811.133 174.452 814.431C175.26 816.234 177.298 815.051 178.38 814.181C179.877 812.864 180.834 811.023 181.523 809.174C189.065 806.133 194.976 811.634 197.148 818.592C197.728 820.387 198.112 822.252 198.347 824.132C198.582 825.386 198.355 828.529 200.448 827.431C204.093 824.658 206.547 820.591 210.467 818.099C215.304 814.698 223.676 812.551 227.447 818.491C228.317 819.885 228.898 821.46 229.188 823.075C228.655 824.955 228.498 827.243 230.05 828.693C231.304 830.088 233.876 829.563 234.526 827.815C234.958 826.765 234.926 825.629 234.785 824.524C235.381 822.832 236.541 821.382 238.007 820.356C243.064 816.9 248.018 820.928 249.641 825.958C251.036 830.221 251.122 834.774 251.083 839.217C251.052 840.549 252.212 841.654 253.521 841.654L253.513 841.646Z" fill="#EA3826"/>
<path d="M314.317 846.841C314.568 848.142 315.109 849.96 316.739 849.944C319.609 849.772 319.585 844.647 319.671 842.492C321.2 839.178 323.238 836.067 325.904 833.559C331.595 828.262 336.824 835.933 340.046 840.188C342.813 843.762 345.565 847.452 347.078 851.762C347.345 852.554 347.603 853.384 347.799 854.223C347.917 854.944 347.94 855.696 348.474 856.252C348.913 856.832 349.783 856.934 350.347 856.487C350.904 856.056 351.053 855.179 350.59 854.614C350.081 853.086 349.743 851.417 349.046 849.921C347 845.117 343.723 841.011 340.665 836.827C334.033 826.812 326.868 825.324 319.271 835.455C318.056 824.438 311.314 814.032 298.889 816.821C292.28 818.765 285.625 823.678 284.488 830.856C283.908 833.207 284.057 835.589 284.801 837.869C285.021 838.888 286.197 839.475 287.161 839.209C289.199 838.621 288.408 836.364 288.196 834.852C288.204 831.185 289.544 827.455 292.445 825.104C305.49 814.392 314.811 823.827 315.689 838.331C315.752 839.295 315.783 840.267 315.791 841.238C314.96 842.978 314.152 844.867 314.309 846.833L314.317 846.841Z" fill="#EA3826"/>
<path d="M452.73 830.299C453.702 828.074 450.558 826.75 449.508 828.897C445.22 824.234 442.679 818.404 439.834 812.786C437.929 808.946 436.04 805.216 433.884 801.463C425.919 787.891 419.796 773.23 413.83 758.678C406.469 742.105 401.828 724.561 397.744 706.945C397.148 704.438 396.505 701.938 395.878 699.43C395.556 698.232 394.137 697.526 392.977 697.918C391.927 698.247 391.127 699.415 391.393 700.527C391.958 702.933 392.476 705.354 393.165 707.737C397.846 723.957 404.399 739.574 410.428 755.325C415.312 769.312 420.525 783.221 427.439 796.362C431.187 803.312 434.691 810.38 438.086 817.511C439.708 820.99 441.582 824.344 443.769 827.502C445.102 829.257 446.396 831.248 448.332 832.384C450.37 833.426 451.914 832.164 452.73 830.299Z" fill="#EA3826"/>
<path d="M354.87 794.277C355.615 801.635 356.924 808.782 357.598 816.171C358.359 820.027 357.222 831.397 359.989 833.465C360.718 834.1 361.644 833.724 362.263 833.128C363.149 832.298 361.957 831.067 361.04 831.812C361.024 831.796 361.016 831.773 361.001 831.757C360.875 831.53 360.766 831.295 360.679 831.044C359.794 826.123 360.303 821.037 359.644 816.077C358.876 808.5 357.598 800.985 356.713 793.423C355.019 778.699 354.455 763.889 353.812 749.087C353.13 737.043 351.303 725.109 350.457 713.081C350.292 705.989 350.425 698.882 350.19 691.791C349.923 684.691 349.155 677.607 348.724 670.508C347.062 650.095 348.701 629.643 348.842 609.207C349.116 581.295 348.912 553.399 350.998 525.526C351.233 519.798 351.57 514.078 351.672 508.342C351.672 505.968 351.664 503.601 351.656 501.227C351.656 500.373 350.848 499.699 350.025 499.738C349.179 499.754 348.505 500.537 348.544 501.368C348.513 503.092 348.481 504.824 348.45 506.548C348.316 511.555 348.559 516.554 348.622 521.554C348.928 533.088 349.006 544.615 348.034 556.126C347.117 567.88 346.059 579.61 345.636 591.396C345.291 611.997 346.655 632.566 346.992 653.159C346.764 661.928 346.38 670.845 346.404 679.645C346.662 690.842 347.493 702.016 348.207 713.183C348.92 724.545 349.618 735.907 350.653 747.246C351.562 755.622 352.722 763.983 353.6 772.368C354.086 779.663 354.361 786.982 354.863 794.277H354.87Z" fill="#EA3826"/>
</svg>
